<?xml version="1.0" encoding="UTF-8" ?>
<!DOCTYPE svg PUBLIC "-//W3C//DTD SVG 1.1//EN" "http://www.w3.org/Graphics/SVG/1.1/DTD/svg11.dtd">
<svg width="330pt" height="322pt" viewBox="0 0 330 322" version="1.1" xmlns="http://www.w3.org/2000/svg">
<g id="#00e6d2ff">
<path fill="#00e6d2" opacity="1.00" d=" M 0.00 0.00 L 330.00 0.00 L 330.00 322.00 L 0.00 322.00 L 0.00 0.00 M 13.72 13.74 C 13.71 111.91 13.71 210.09 13.72 308.26 C 114.58 308.27 215.43 308.28 316.28 308.26 C 316.30 210.09 316.29 111.91 316.28 13.74 C 215.43 13.73 114.57 13.73 13.72 13.74 Z" />
<path fill="#00e6d2" opacity="1.00" d=" M 70.97 76.58 C 77.34 76.45 83.70 76.16 90.07 76.18 C 100.75 76.20 111.60 75.42 122.08 77.95 C 131.91 80.14 141.52 85.11 147.53 93.41 C 154.89 103.56 156.34 117.06 153.79 129.09 C 150.82 142.67 140.17 153.71 127.32 158.57 C 138.15 177.60 148.43 196.94 158.84 216.21 C 160.28 219.04 162.14 221.70 163.03 224.78 C 154.08 225.24 145.11 224.96 136.16 224.94 C 125.46 205.38 115.35 185.51 104.77 165.88 C 99.65 165.72 94.53 165.84 89.41 165.81 C 89.41 185.46 89.33 205.11 89.42 224.76 C 81.70 225.16 73.92 225.14 66.19 224.76 C 65.96 221.84 65.96 218.92 66.00 216.00 C 65.97 172.31 65.96 128.62 65.96 84.92 C 66.02 82.35 65.70 79.72 66.32 77.20 C 67.67 76.31 69.45 76.79 70.97 76.58 M 89.60 97.69 C 89.15 113.03 89.56 128.41 89.39 143.77 C 100.30 143.44 112.37 145.32 122.02 138.97 C 130.11 133.67 131.83 122.76 129.82 113.93 C 128.56 107.64 123.98 102.22 118.01 99.89 C 109.00 96.13 99.07 97.73 89.60 97.69 Z" />
<path fill="#00e6d2" opacity="1.00" d=" M 181.58 76.47 C 189.59 76.24 197.64 76.19 205.65 76.48 L 206.16 76.95 C 206.41 91.92 206.24 106.90 206.25 121.88 C 215.42 114.78 227.57 111.98 238.96 113.88 C 246.64 115.09 253.77 119.63 257.79 126.33 C 263.43 135.44 264.11 146.53 264.00 156.97 C 263.86 179.58 264.27 202.21 263.80 224.81 C 256.18 225.17 248.55 224.99 240.94 224.94 C 239.20 225.29 239.24 223.15 239.24 222.06 C 239.26 200.04 239.26 178.02 239.24 156.01 C 239.14 150.03 238.56 143.34 234.20 138.81 C 230.34 134.75 224.23 134.29 219.00 135.14 C 214.23 135.80 209.93 138.24 206.29 141.31 C 206.12 169.16 206.52 197.02 206.06 224.86 C 198.36 225.08 190.65 225.07 182.96 224.90 C 181.21 225.14 181.57 223.03 181.49 221.99 C 181.57 173.49 181.32 124.98 181.58 76.47 Z" />
</g>
<g id="#092222ff">
<path fill="#092222" opacity="1.00" d=" M 13.72 13.74 C 114.57 13.73 215.43 13.73 316.28 13.74 C 316.29 111.91 316.30 210.09 316.28 308.26 C 215.43 308.28 114.58 308.27 13.72 308.26 C 13.71 210.09 13.71 111.91 13.72 13.74 M 70.97 76.58 C 69.45 76.79 67.67 76.31 66.32 77.20 C 65.70 79.72 66.02 82.35 65.96 84.92 C 65.96 128.62 65.97 172.31 66.00 216.00 C 65.96 218.92 65.96 221.84 66.19 224.76 C 73.92 225.14 81.70 225.16 89.42 224.76 C 89.33 205.11 89.41 185.46 89.41 165.81 C 94.53 165.84 99.65 165.72 104.77 165.88 C 115.35 185.51 125.46 205.38 136.16 224.94 C 145.11 224.96 154.08 225.24 163.03 224.78 C 162.14 221.70 160.28 219.04 158.84 216.21 C 148.43 196.94 138.15 177.60 127.32 158.57 C 140.17 153.71 150.82 142.67 153.79 129.09 C 156.34 117.06 154.89 103.56 147.53 93.41 C 141.52 85.11 131.91 80.14 122.08 77.95 C 111.60 75.42 100.75 76.20 90.07 76.18 C 83.70 76.16 77.34 76.45 70.97 76.58 M 181.58 76.47 C 181.32 124.98 181.57 173.49 181.49 221.99 C 181.57 223.03 181.21 225.14 182.96 224.90 C 190.65 225.07 198.36 225.08 206.06 224.86 C 206.52 197.02 206.12 169.16 206.29 141.31 C 209.93 138.24 214.23 135.80 219.00 135.14 C 224.23 134.29 230.34 134.75 234.20 138.81 C 238.56 143.34 239.14 150.03 239.24 156.01 C 239.26 178.02 239.26 200.04 239.24 222.06 C 239.24 223.15 239.20 225.29 240.94 224.94 C 248.55 224.99 256.18 225.17 263.80 224.81 C 264.27 202.21 263.86 179.58 264.00 156.97 C 264.11 146.53 263.43 135.44 257.79 126.33 C 253.77 119.63 246.64 115.09 238.96 113.88 C 227.57 111.98 215.42 114.78 206.25 121.88 C 206.24 106.90 206.41 91.92 206.16 76.95 L 205.65 76.48 C 197.64 76.19 189.59 76.24 181.58 76.47 Z" />
<path fill="#092222" opacity="1.00" d=" M 89.60 97.69 C 99.07 97.73 109.00 96.13 118.01 99.89 C 123.98 102.22 128.56 107.64 129.82 113.93 C 131.83 122.76 130.11 133.67 122.02 138.97 C 112.37 145.32 100.30 143.44 89.39 143.77 C 89.56 128.41 89.15 113.03 89.60 97.69 Z" />
</g>
</svg>
