<?xml version="1.0" encoding="UTF-8" ?>
<!DOCTYPE svg PUBLIC "-//W3C//DTD SVG 1.1//EN" "http://www.w3.org/Graphics/SVG/1.1/DTD/svg11.dtd">
<svg width="99pt" height="97pt" viewBox="0 0 99 97" version="1.1" xmlns="http://www.w3.org/2000/svg">
<g id="#faab18ff">
<path fill="#faab18" opacity="1.00" d=" M 0.00 0.00 L 99.00 0.00 L 99.00 97.00 L 0.00 97.00 L 0.00 0.00 M 4.01 4.01 C 3.99 33.67 4.00 63.33 4.01 92.99 C 34.33 93.01 64.65 92.99 94.98 93.00 C 95.01 63.33 95.01 33.67 94.98 4.01 C 64.66 4.00 34.34 3.99 4.01 4.01 Z" />
<path fill="#faab18" opacity="1.00" d=" M 14.38 24.23 C 22.12 23.95 29.90 23.98 37.65 24.21 C 37.93 26.39 38.16 28.58 38.08 30.77 C 32.68 30.58 27.27 30.70 21.86 30.68 C 21.87 34.83 21.86 38.97 21.87 43.12 C 26.83 43.15 31.79 43.09 36.75 43.16 C 36.73 45.35 36.72 47.54 36.72 49.73 C 31.77 49.77 26.82 49.72 21.88 49.75 C 21.87 55.93 21.84 62.11 21.89 68.29 C 19.46 68.39 17.03 68.44 14.60 68.41 C 14.20 53.69 14.65 38.95 14.38 24.23 Z" />
<path fill="#faab18" opacity="1.00" d=" M 43.10 37.97 C 49.62 35.36 57.39 33.48 63.92 37.08 C 68.56 35.19 74.10 34.00 78.80 36.32 C 82.38 38.09 84.08 42.19 84.08 46.01 C 84.19 53.46 84.14 60.92 84.09 68.37 C 81.75 68.45 79.41 68.43 77.08 68.23 C 77.20 61.80 77.09 55.37 77.15 48.94 C 77.06 46.78 77.28 44.14 75.49 42.57 C 73.09 40.73 69.78 41.41 67.11 42.18 C 67.33 50.80 67.29 59.64 67.23 68.36 C 64.87 68.44 62.49 68.55 60.14 68.19 C 60.31 61.79 60.16 55.39 60.23 48.98 C 60.14 46.81 60.29 44.18 58.50 42.61 C 56.17 40.70 52.95 41.54 50.33 42.26 C 50.47 50.98 50.37 59.69 50.33 68.41 C 48.06 68.40 45.79 68.44 43.52 68.53 C 42.90 58.36 43.63 48.15 43.10 37.97 Z" />
</g>
<g id="#210802ff">
<path fill="#210802" opacity="1.00" d=" M 4.01 4.01 C 34.34 3.99 64.66 4.00 94.98 4.01 C 95.01 33.67 95.01 63.33 94.98 93.00 C 64.65 92.99 34.33 93.01 4.01 92.99 C 4.00 63.33 3.99 33.67 4.01 4.01 M 14.38 24.23 C 14.65 38.95 14.20 53.69 14.60 68.41 C 17.03 68.44 19.46 68.39 21.89 68.29 C 21.84 62.11 21.87 55.93 21.88 49.75 C 26.82 49.72 31.77 49.77 36.72 49.73 C 36.72 47.54 36.73 45.35 36.75 43.16 C 31.79 43.09 26.83 43.15 21.87 43.12 C 21.86 38.97 21.87 34.83 21.86 30.68 C 27.27 30.70 32.68 30.58 38.08 30.77 C 38.16 28.58 37.93 26.39 37.65 24.21 C 29.90 23.98 22.12 23.95 14.38 24.23 M 43.10 37.97 C 43.63 48.15 42.90 58.36 43.52 68.53 C 45.79 68.44 48.06 68.40 50.33 68.41 C 50.37 59.69 50.47 50.98 50.33 42.26 C 52.95 41.54 56.17 40.70 58.50 42.61 C 60.29 44.18 60.14 46.81 60.23 48.98 C 60.16 55.39 60.31 61.79 60.14 68.19 C 62.49 68.55 64.87 68.44 67.23 68.36 C 67.29 59.64 67.33 50.80 67.11 42.18 C 69.78 41.41 73.09 40.73 75.49 42.57 C 77.28 44.14 77.06 46.78 77.15 48.94 C 77.09 55.37 77.20 61.80 77.08 68.23 C 79.41 68.43 81.75 68.45 84.09 68.37 C 84.14 60.92 84.19 53.46 84.08 46.01 C 84.08 42.19 82.38 38.09 78.80 36.32 C 74.10 34.00 68.56 35.19 63.92 37.08 C 57.39 33.48 49.62 35.36 43.10 37.97 Z" />
</g>
</svg>
