<?xml version="1.0" encoding="UTF-8" ?>
<!DOCTYPE svg PUBLIC "-//W3C//DTD SVG 1.1//EN" "http://www.w3.org/Graphics/SVG/1.1/DTD/svg11.dtd">
<svg width="2560pt" height="499pt" viewBox="0 0 2560 499" version="1.1" xmlns="http://www.w3.org/2000/svg">
<g id="#0b3f54ff">
<path fill="#0b3f54" opacity="1.00" d=" M 1397.39 0.00 L 1409.65 0.00 C 1428.84 0.41 1448.05 1.65 1467.01 4.81 C 1502.39 10.51 1537.53 22.62 1566.01 44.89 C 1591.18 64.27 1609.88 91.21 1621.48 120.63 C 1637.02 160.06 1641.83 202.84 1642.19 244.96 C 1642.33 272.41 1640.66 299.96 1635.59 326.97 C 1628.90 363.26 1615.64 399.22 1591.86 427.89 C 1571.05 453.39 1542.33 471.64 1511.37 482.29 C 1468.31 497.02 1422.11 499.64 1376.97 497.37 C 1337.66 495.01 1297.70 487.48 1262.98 468.09 C 1235.74 453.10 1213.02 430.28 1197.85 403.17 C 1178.02 368.10 1169.64 327.83 1166.16 288.05 C 1163.88 259.45 1163.70 230.64 1166.36 202.05 C 1170.23 162.19 1180.05 121.91 1201.88 87.87 C 1219.20 60.53 1244.62 38.64 1273.84 24.85 C 1312.23 6.55 1355.25 0.79 1397.39 0.00 M 1386.52 82.74 C 1360.16 85.04 1333.55 94.55 1314.70 113.70 C 1301.78 126.58 1292.75 142.92 1286.84 160.08 C 1279.44 181.58 1276.37 204.33 1275.29 226.96 C 1274.39 249.30 1274.97 271.74 1277.65 293.94 C 1280.23 314.40 1284.74 334.86 1293.51 353.62 C 1300.80 369.23 1311.43 383.54 1325.45 393.71 C 1338.91 403.73 1355.02 409.72 1371.44 412.67 C 1391.71 416.16 1412.57 416.30 1432.89 413.16 C 1451.90 410.05 1470.63 403.02 1485.63 390.70 C 1499.33 379.65 1509.54 364.74 1516.46 348.64 C 1524.74 329.42 1528.89 308.70 1531.09 287.96 C 1533.17 267.38 1533.45 246.63 1532.40 225.97 C 1531.10 203.11 1527.91 180.16 1520.31 158.48 C 1514.29 141.27 1505.11 124.89 1491.92 112.15 C 1479.73 100.25 1464.27 92.00 1447.91 87.45 C 1428.00 81.93 1407.03 80.94 1386.52 82.74 Z" />
<path fill="#0b3f54" opacity="1.00" d=" M 523.14 9.38 C 556.68 9.43 590.23 9.39 623.77 9.40 C 623.80 94.91 623.77 180.42 623.78 265.94 C 623.92 287.95 623.27 310.01 625.01 331.98 C 626.29 345.72 628.74 359.90 636.24 371.75 C 645.13 384.98 658.42 395.10 673.35 400.58 C 692.68 407.71 713.56 408.46 733.94 408.59 C 773.15 408.59 812.35 408.64 851.56 408.57 C 851.71 435.02 851.57 461.47 851.63 487.91 C 805.42 487.95 759.21 487.93 713.00 487.93 C 683.70 487.69 653.81 486.64 625.77 477.31 C 595.97 467.51 570.81 446.60 552.60 421.40 C 541.44 405.95 533.83 388.09 529.60 369.54 C 523.76 344.14 523.15 317.93 523.09 291.99 C 523.12 197.79 523.04 103.58 523.14 9.38 Z" />
<path fill="#0b3f54" opacity="1.00" d=" M 1625.19 9.41 C 1663.20 9.48 1701.22 9.23 1739.23 9.53 C 1771.41 89.64 1803.88 169.64 1836.18 249.70 C 1851.96 288.52 1867.40 327.49 1883.41 366.21 C 1932.37 247.25 1981.48 128.35 2030.49 9.41 C 2066.33 9.38 2102.16 9.42 2138.00 9.40 C 2071.34 169.05 2004.61 328.68 1937.92 488.32 C 1903.22 488.35 1868.53 488.33 1833.83 488.33 C 1764.26 328.70 1694.74 169.05 1625.19 9.41 Z" />
<path fill="#0b3f54" opacity="1.00" d=" M 203.10 9.81 C 238.66 9.81 274.22 9.77 309.78 9.83 C 377.73 169.47 445.73 329.08 513.68 488.72 C 476.44 488.76 439.20 488.70 401.96 488.75 C 352.07 361.00 302.45 233.14 252.56 105.40 C 204.07 233.18 155.61 360.97 107.08 488.74 C 71.39 488.72 35.69 488.75 0.00 488.72 L 0.00 488.64 C 67.79 329.07 135.38 169.41 203.10 9.81 Z" />
<path fill="#0b3f54" opacity="1.00" d=" M 749.67 10.26 C 887.76 10.27 1025.84 10.27 1163.93 10.26 C 1163.96 37.97 1163.94 65.68 1163.94 93.39 C 1112.16 93.44 1060.39 93.33 1008.62 93.45 C 1008.62 225.09 1008.73 356.73 1008.56 488.37 C 973.89 488.28 939.21 488.36 904.54 488.33 C 904.52 356.69 904.54 225.05 904.53 93.40 C 852.91 93.39 801.28 93.41 749.66 93.39 C 749.66 65.68 749.63 37.97 749.67 10.26 Z" />
<path fill="#0b3f54" opacity="1.00" d=" M 2221.22 9.82 C 2256.78 9.78 2292.34 9.80 2327.90 9.81 C 2395.86 169.45 2463.85 329.08 2531.82 488.72 C 2494.57 488.76 2457.32 488.72 2420.07 488.74 C 2370.13 361.00 2320.25 233.24 2270.36 105.48 C 2245.47 170.32 2221.05 235.34 2196.33 300.25 C 2172.49 363.08 2148.66 425.91 2124.80 488.73 C 2089.25 488.72 2053.70 488.76 2018.15 488.72 C 2085.85 329.09 2153.53 169.46 2221.22 9.82 Z" />
<path fill="#0b3f54" opacity="1.00" d=" M 2446.41 17.52 C 2463.53 9.13 2483.67 7.17 2502.11 11.96 C 2518.04 16.04 2532.64 25.22 2543.10 37.92 C 2552.35 48.94 2557.87 62.70 2560.00 76.85 L 2560.00 95.47 C 2557.68 116.11 2546.76 135.63 2530.09 148.07 C 2514.54 159.96 2494.46 165.61 2474.99 163.89 C 2456.36 162.37 2438.28 154.17 2425.12 140.84 C 2402.79 118.97 2396.73 82.95 2409.82 54.70 C 2417.15 38.52 2430.42 25.21 2446.41 17.52 M 2472.56 22.84 C 2453.36 25.41 2435.79 37.57 2426.67 54.66 C 2416.14 74.13 2416.16 98.85 2426.48 118.40 C 2432.40 129.68 2441.93 139.00 2453.30 144.72 C 2469.69 152.97 2489.69 153.59 2506.59 146.49 C 2517.25 142.04 2526.54 134.44 2533.06 124.91 C 2543.69 109.74 2546.87 90.00 2543.11 72.01 C 2539.59 55.10 2528.92 39.65 2513.95 30.91 C 2501.67 23.45 2486.72 20.82 2472.56 22.84 Z" />
<path fill="#0b3f54" opacity="1.00" d=" M 2451.63 41.81 C 2462.43 41.79 2473.24 41.81 2484.05 41.79 C 2490.79 41.77 2497.75 42.17 2504.06 44.81 C 2510.23 47.19 2514.97 52.70 2516.40 59.16 C 2518.16 67.26 2517.72 76.64 2512.30 83.32 C 2507.93 88.75 2500.99 91.18 2494.31 92.17 C 2502.83 105.22 2511.36 118.26 2519.86 131.32 C 2514.67 131.27 2509.49 131.49 2504.33 131.19 C 2496.72 118.22 2488.80 105.42 2481.04 92.54 C 2475.92 92.53 2470.81 92.52 2465.71 92.54 C 2465.58 105.50 2465.92 118.47 2465.54 131.43 C 2460.89 131.24 2456.26 131.37 2451.63 131.33 C 2451.62 101.49 2451.62 71.65 2451.63 41.81 M 2465.29 53.33 C 2465.27 62.57 2465.28 71.81 2465.29 81.05 C 2472.86 81.02 2480.46 81.25 2488.04 80.82 C 2492.85 80.46 2498.41 79.39 2501.19 74.98 C 2503.61 70.78 2503.90 65.33 2502.12 60.86 C 2499.62 55.37 2493.05 53.84 2487.60 53.46 C 2480.16 53.18 2472.72 53.40 2465.29 53.33 Z" />
</g>
<g id="#cf1c44ff">
<path fill="#cf1c44" opacity="1.00" d=" M 243.62 283.65 C 255.20 281.45 267.62 283.17 277.85 289.17 C 290.53 296.35 299.73 309.45 301.93 323.89 C 304.06 336.33 301.04 349.55 293.78 359.86 C 286.83 369.87 276.07 377.21 264.12 379.75 C 249.86 383.06 234.22 379.40 222.83 370.23 C 213.47 362.79 206.90 351.84 205.00 340.01 C 202.56 326.59 206.29 312.24 214.72 301.55 C 221.83 292.40 232.29 286.00 243.62 283.65 Z" />
<path fill="#cf1c44" opacity="1.00" d=" M 2261.55 283.69 C 2278.58 280.11 2297.24 286.21 2308.58 299.47 C 2320.45 312.79 2324.05 332.78 2317.47 349.39 C 2311.62 364.92 2297.38 377.01 2281.02 380.00 C 2264.48 383.46 2246.42 377.41 2235.20 364.81 C 2222.92 351.62 2219.04 331.41 2225.52 314.60 C 2231.20 299.02 2245.33 287.02 2261.55 283.69 Z" />
</g>
</svg>
