<?xml version="1.0" encoding="UTF-8"?>
<svg xmlns="http://www.w3.org/2000/svg" viewBox="0 0 1410.72 312.02">
  <path fill="#5b5a5a" d="M.06 156.59C.06 115.41-.09 74.22.12 33c.1-22 3.2-25.28 25.22-25.23 33.09.07 66.36-1.11 99.22 1.82 46.49 4.15 85.43 23.16 107 67.72a109.76 109.76 0 0 1 9.44 27.33c7.17 38.46 8.52 77.35-3.81 114.75-14.52 44-46 70.89-91.62 80.81-42.3 9.21-85.17 4.68-127.8 5.12-14.19.15-17.54-5.14-17.64-22.75-.24-41.99-.08-83.98-.07-125.98zm60.64-99.2c-4.25 46.93-2.7 182.25 2 199 16.19 0 32.43 1.14 48.46-.25 30.86-2.68 53.27-18.68 64.06-47.94 11.42-31 13.28-63.14 3.39-94.9-9.37-30.09-29.78-50.47-61.33-55.4-17.95-2.81-36.76-.51-56.58-.51z"></path>
  <path fill="#5a5959" d="M783.83 238H673.9c-7.6 21.37-15.34 43.13-22.77 64-26.13 8.6-31.56 8.63-57.36-.21 11.73-50.55 32.76-98.32 48.93-147.57 16-48.76 33.91-96.89 51-145.36h75.19c35.49 96.67 68.28 194 101.84 290.63-22.73 11.37-33.29 11.79-63.85 3.08zm-12.31-47.17c-17.35-39.6-23.13-79.38-45.47-118.58l-39.14 118.61z"></path>
  <path fill="#5b5a5a" d="M452.61 56.52h-78.13c-7-17-7.5-32 .61-47.86h216.58c9 15.11 7.45 30.19 1.32 48.19h-78.46v243.86c-20.59 9.29-39.22 8.49-60.81 2-2.39-26.38-.74-53.59-1-80.7-.34-26.67-.11-134.64-.11-165.49z"></path>
  <path fill="#c3d236" d="M988.16 303.67l-44 6.12c-5.3-47.78 4-93.2 3.09-138.79-.92-45.06-.2-90.15-.2-137.85-9.73 0-18.38-.19-27 0-25.29.69-32.95 7.7-35.76 32.5-.36 3.2-.06 6.53-.73 9.66-2.71 12.75-7.93 15.16-27.44 11.29 0-16.12-1.53-33 .36-49.53 2.85-24.83 14.84-33.91 40.88-33.94 51.72-.07 103.45.25 155.17 0 11.78-.07 23.55-2.06 34.88-3.12 10.28 24.41 2.71 39.16-21.5 41.38-11.88 1.09-24-.81-36.07-1.58-10.27-.66-20.53-1.63-32.18-2.57-1.94 27.21-4.78 52.64-5.35 78.11-1.26 56.57-1.34 113.15-2.05 169.73-.06 5.46-1.2 10.92-2.1 18.59z"></path>
  <path fill="#5b5a5a" d="M283.82 11.92c22.38-6.68 40.89-5.26 60.54-1.31v291.18c-18.38 8.28-36.83 8.85-58.12.54-5.45-22.62-1.6-46.77-2.27-70.56-.69-24.25-.15-48.53-.15-72.79z"></path>
  <path fill="#c3d236" d="M1242.88 221.81c-.35-42.46 15.17-77.09 50.61-100.92 39.88-26.81 94.77-11.92 111.25 38 16.82 51-2.83 112.66-46.32 140.39-24.43 15.57-51.57 16.64-76.06 4.35-24.87-12.48-39.09-35.48-39.46-64.89-.08-5.63.03-11.28-.02-16.93zm40.58-12.22c3 30.43 4 34.47 12.89 49.79 7.41 12.7 17.57 21 33 20.64s23-11.35 27.9-23.43c12-29.47 11.73-59.66 1.76-89.72a42.14 42.14 0 0 0-7.18-12.53c-16.88-21.21-43.17-19.74-54.52 4.79-7.31 15.61-9.43 33.56-13.85 50.46zM1048.77 223.29c2.7-46 18.17-85.91 61.67-106.75 38.88-18.63 86.32-7.37 102.49 43.47 13.81 43.41 4 82.19-22.74 117.66-22.48 29.77-53.37 37.46-88.18 31.25-16.37-2.91-28.85-14.14-37.58-28.18-10.8-17.38-16.89-36.32-15.66-57.45zm42.15-10.72c.35 19.86 5.45 37.31 17.56 52.26 17.87 22.08 41.66 21.15 54.2-3.92 16.09-32.19 18-66.36 1.34-99.23-6.62-13-18.24-23.51-34.73-21.5-14.81 1.8-24.4 11.21-27.87 26.06-3.59 15.42-7.01 30.89-10.5 46.33z"></path>
</svg>
