<?xml version="1.0" encoding="UTF-8" ?>
<!DOCTYPE svg PUBLIC "-//W3C//DTD SVG 1.1//EN" "http://www.w3.org/Graphics/SVG/1.1/DTD/svg11.dtd">
<svg width="1017pt" height="243pt" viewBox="0 0 1017 243" version="1.1" xmlns="http://www.w3.org/2000/svg">
<g id="#25b736ff">
<path fill="#25b736" opacity="1.00" d=" M 0.00 0.00 L 79.46 0.00 C 75.49 4.50 71.17 8.67 66.93 12.91 C 45.06 34.58 23.52 56.61 1.48 78.10 C 1.11 78.40 0.37 79.00 0.00 79.29 L 0.00 0.00 Z" />
</g>
<g id="#25bf80ff">
<path fill="#25bf80" opacity="1.00" d=" M 79.46 0.00 L 79.77 0.00 C 79.72 22.34 79.77 44.69 79.75 67.03 C 79.75 71.03 79.48 75.08 80.31 79.03 C 67.53 79.77 54.73 79.20 41.95 79.37 C 28.21 79.21 14.47 79.48 0.72 79.53 L 1.48 78.10 C 23.52 56.61 45.06 34.58 66.93 12.91 C 71.17 8.67 75.49 4.50 79.46 0.00 Z" />
</g>
<g id="#1fa3ccff">
<path fill="#1fa3cc" opacity="1.00" d=" M 159.24 0.00 L 238.31 0.00 C 215.69 22.84 192.86 45.48 170.19 68.28 C 166.81 71.84 162.78 74.89 160.38 79.27 L 159.81 80.10 C 159.50 79.24 159.21 78.39 158.92 77.53 C 159.12 75.70 159.26 73.87 159.27 72.03 C 159.22 48.02 159.27 24.01 159.24 0.00 Z" />
<path fill="#1fa3cc" opacity="1.00" d=" M 79.41 84.97 C 79.60 83.05 79.00 79.97 81.56 79.45 C 107.15 79.47 132.74 79.65 158.32 79.36 C 158.43 79.79 158.66 80.63 158.77 81.06 C 157.18 82.39 155.62 83.75 154.14 85.21 C 131.35 108.07 108.49 130.85 85.69 153.70 C 83.66 155.77 81.48 157.68 79.30 159.59 C 80.50 150.76 78.54 141.81 79.56 132.94 C 78.78 122.66 80.15 112.37 79.35 102.09 C 78.77 96.38 79.92 90.68 79.41 84.97 Z" />
</g>
<g id="#1d8eccff">
<path fill="#1d8ecc" opacity="1.00" d=" M 238.31 0.00 L 239.28 0.00 C 239.21 22.66 239.27 45.31 239.25 67.97 C 239.22 71.75 239.13 75.55 239.55 79.31 C 213.17 79.47 186.77 79.59 160.38 79.27 C 162.78 74.89 166.81 71.84 170.19 68.28 C 192.86 45.48 215.69 22.84 238.31 0.00 Z" />
</g>
<g id="#142fb2ff">
<path fill="#142fb2" opacity="1.00" d=" M 791.52 21.51 C 803.63 21.43 815.75 21.61 827.87 21.42 C 828.25 40.80 827.75 60.20 828.13 79.58 C 833.28 79.41 838.43 79.60 843.59 79.41 C 843.96 90.85 843.65 102.30 843.75 113.75 C 838.50 113.76 833.25 113.74 828.00 113.76 C 827.91 155.04 828.18 196.32 827.86 237.59 C 815.74 237.38 803.62 237.57 791.50 237.49 C 791.48 196.24 791.52 155.00 791.48 113.76 C 786.27 113.76 781.07 113.72 775.87 113.80 C 775.60 102.37 775.80 90.94 775.77 79.51 C 781.01 79.48 786.26 79.55 791.52 79.45 C 791.49 60.14 791.49 40.82 791.52 21.51 Z" />
<path fill="#142fb2" opacity="1.00" d=" M 707.25 79.45 C 707.34 60.10 707.05 40.75 707.39 21.42 C 719.59 21.61 731.80 21.43 744.00 21.51 C 744.09 40.87 743.81 60.23 744.15 79.59 C 749.37 79.47 754.59 79.40 759.81 79.61 C 759.67 90.99 759.79 102.37 759.75 113.75 C 754.50 113.76 749.25 113.74 744.00 113.77 C 744.01 155.00 743.99 196.24 744.01 237.47 C 731.80 237.59 719.59 237.38 707.39 237.58 C 707.05 196.31 707.35 155.03 707.24 113.76 C 702.10 113.75 696.97 113.73 691.84 113.78 C 691.64 102.36 691.80 90.94 691.76 79.52 C 696.92 79.46 702.08 79.56 707.25 79.45 Z" />
<path fill="#142fb2" opacity="1.00" d=" M 322.94 76.13 C 339.11 73.82 356.15 75.06 371.18 81.77 C 387.09 88.93 399.57 102.80 405.84 118.99 C 411.88 134.27 413.05 150.96 412.38 167.23 C 374.71 167.21 337.03 167.38 299.36 167.14 C 299.90 178.91 304.29 190.88 312.98 199.08 C 324.90 210.29 343.83 212.18 358.44 205.50 C 369.39 199.71 375.85 188.59 382.94 178.94 C 393.38 184.42 403.60 190.36 413.91 196.10 C 404.83 211.65 392.72 226.23 376.32 234.35 C 364.19 240.41 350.42 242.38 336.98 242.05 C 320.35 241.97 303.38 237.19 290.24 226.73 C 278.71 217.68 270.12 205.06 265.65 191.12 C 261.00 177.24 260.34 162.37 261.33 147.88 C 262.69 130.80 268.44 113.76 279.46 100.48 C 290.16 87.20 306.11 78.53 322.94 76.13 M 315.03 116.12 C 308.31 121.36 303.87 129.05 301.67 137.20 C 326.00 137.22 350.33 137.39 374.66 137.12 C 371.97 127.30 366.59 117.48 357.25 112.63 C 344.07 105.91 326.72 106.63 315.03 116.12 Z" />
<path fill="#142fb2" opacity="1.00" d=" M 491.09 77.15 C 506.07 72.29 522.64 76.33 535.60 84.67 C 529.91 95.79 524.39 107.00 518.80 118.17 C 512.36 113.84 504.95 110.20 496.98 110.73 C 488.17 110.70 479.57 115.54 475.30 123.28 C 469.22 134.10 468.58 146.93 468.75 159.05 C 468.63 185.24 469.00 211.44 468.57 237.61 C 456.38 237.35 444.19 237.58 432.00 237.49 C 432.00 184.83 432.00 132.17 432.00 79.51 C 444.19 79.42 456.39 79.63 468.59 79.41 C 468.91 83.88 468.68 88.38 468.78 92.86 C 475.54 86.79 482.16 79.91 491.09 77.15 Z" />
<path fill="#142fb2" opacity="1.00" d=" M 582.96 77.50 C 598.42 73.88 614.89 74.21 630.13 78.76 C 647.16 83.90 661.65 96.39 669.64 112.24 C 678.34 129.10 680.07 148.56 679.21 167.24 C 641.51 167.25 603.82 167.26 566.12 167.23 C 566.90 178.26 570.56 189.49 578.39 197.55 C 590.07 210.18 610.23 212.48 625.45 205.42 C 636.16 199.72 642.62 188.92 649.44 179.33 L 649.99 179.03 C 660.35 184.45 670.43 190.42 680.72 196.00 C 671.89 211.68 659.60 226.16 643.26 234.31 C 628.08 241.92 610.50 243.12 593.84 241.42 C 575.66 239.47 558.14 230.66 546.50 216.44 C 534.78 202.73 529.07 184.79 528.01 166.98 C 526.62 145.94 530.12 123.75 542.18 106.03 C 551.59 91.87 566.38 81.36 582.96 77.50 M 583.12 115.19 C 575.77 120.43 570.80 128.56 568.58 137.24 C 592.89 137.25 617.21 137.25 641.52 137.24 C 638.85 126.95 632.97 116.73 623.02 112.05 C 610.43 106.23 594.45 106.80 583.12 115.19 Z" />
<path fill="#142fb2" opacity="1.00" d=" M 920.60 75.79 C 938.23 73.67 956.71 76.11 972.50 84.51 C 989.22 93.41 1003.03 107.95 1010.45 125.42 C 1017.38 141.93 1018.38 160.59 1014.86 178.03 C 1008.39 209.42 981.23 234.89 949.84 240.51 C 933.19 243.45 915.58 242.61 899.75 236.35 C 882.97 229.64 868.78 217.00 859.48 201.57 C 849.08 184.09 846.31 162.82 849.33 142.91 C 854.84 108.13 885.74 79.58 920.60 75.79 M 924.70 108.76 C 912.31 110.27 900.93 117.52 894.12 127.94 C 886.10 139.56 884.62 154.42 886.35 168.11 C 887.85 180.49 893.61 192.74 903.77 200.31 C 914.23 208.49 928.31 210.54 941.19 208.64 C 952.48 207.10 963.10 200.91 969.73 191.59 C 978.52 179.75 980.41 164.17 978.75 149.86 C 977.36 137.22 971.25 124.82 960.93 117.15 C 950.78 109.26 937.20 107.09 924.70 108.76 Z" />
</g>
<g id="#21ccabff">
<path fill="#21ccab" opacity="1.00" d=" M 0.00 79.71 C 13.99 79.29 27.99 79.99 41.98 79.52 C 54.07 79.49 66.18 80.10 78.25 79.23 C 78.38 79.70 78.62 80.63 78.75 81.09 C 54.53 104.76 30.86 128.98 6.79 152.80 C 4.65 154.87 2.69 157.12 0.65 159.29 L 0.00 159.27 L 0.00 79.71 Z" />
</g>
<g id="#1b7cccff">
<path fill="#1b7ccc" opacity="1.00" d=" M 159.58 85.00 C 159.81 83.13 158.89 79.64 161.81 79.65 C 185.52 79.46 209.29 79.53 233.02 79.62 C 234.67 79.98 237.03 79.12 238.21 80.63 L 238.35 81.31 C 218.21 101.19 198.34 121.33 178.26 141.28 C 172.53 147.13 166.55 152.75 161.01 158.80 C 159.26 158.71 159.88 156.22 159.60 155.07 C 159.54 131.72 159.64 108.35 159.58 85.00 Z" />
</g>
<g id="#1dbbccff">
<path fill="#1dbbcc" opacity="1.00" d=" M 6.79 152.80 C 30.86 128.98 54.53 104.76 78.75 81.09 C 80.36 88.33 78.46 95.72 79.29 103.02 C 79.84 113.68 78.86 124.35 79.34 135.00 C 78.58 142.42 80.13 149.91 79.36 157.30 C 79.04 159.91 75.86 159.31 74.01 159.48 C 49.55 159.03 25.10 159.60 0.65 159.29 C 2.69 157.12 4.65 154.87 6.79 152.80 Z" />
<path fill="#1dbbcc" opacity="1.00" d=" M 79.01 160.14 C 79.25 160.15 79.73 160.19 79.97 160.21 C 79.47 186.54 79.88 212.89 79.76 239.22 C 53.37 239.29 26.97 239.23 0.57 239.24 C 5.59 233.71 11.03 228.57 16.27 223.24 C 34.62 204.94 52.94 186.62 71.23 168.26 C 73.86 165.59 76.81 163.20 79.01 160.14 Z" />
</g>
<g id="#1fcc8aff">
<path fill="#1fcc8a" opacity="1.00" d=" M 154.14 85.21 C 155.62 83.75 157.18 82.39 158.77 81.06 C 159.39 83.65 159.37 86.35 159.46 89.00 C 159.50 110.35 159.45 131.70 159.45 153.05 C 159.23 155.28 159.86 158.07 157.92 159.71 C 155.64 159.51 153.35 159.47 151.06 159.49 C 127.14 159.58 103.22 159.38 79.30 159.59 C 81.48 157.68 83.66 155.77 85.69 153.70 C 108.49 130.85 131.35 108.07 154.14 85.21 Z" />
<path fill="#1fcc8a" opacity="1.00" d=" M 0.00 159.36 C 2.67 159.47 5.34 159.66 8.01 159.74 C 24.67 159.24 41.34 159.89 58.01 159.72 C 65.01 160.00 72.06 158.95 79.01 160.14 C 76.81 163.20 73.86 165.59 71.23 168.26 C 52.94 186.62 34.62 204.94 16.27 223.24 C 11.03 228.57 5.59 233.71 0.57 239.24 L 0.00 239.29 L 0.00 159.36 Z" />
</g>
<g id="#1985ceff">
<path fill="#1985ce" opacity="1.00" d=" M 238.21 80.63 L 238.05 79.80 L 239.26 81.61 C 239.26 107.24 239.20 132.88 239.29 158.51 L 238.89 159.07 C 238.48 159.18 237.66 159.41 237.25 159.52 C 215.15 159.38 193.05 159.49 170.95 159.44 C 167.63 159.34 164.20 159.93 161.01 158.80 C 166.55 152.75 172.53 147.13 178.26 141.28 C 198.34 121.33 218.21 101.19 238.35 81.31 L 238.21 80.63 Z" />
</g>
<g id="#184dd1ff">
<path fill="#184dd1" opacity="1.00" d=" M 159.09 160.98 C 160.98 159.21 163.71 159.74 166.06 159.58 C 188.73 159.52 211.41 159.64 234.08 159.55 C 235.46 159.56 236.82 159.71 238.18 160.00 C 237.08 161.30 236.03 162.65 234.87 163.89 C 213.02 185.71 191.20 207.55 169.35 229.37 C 166.07 232.73 162.80 236.12 159.13 239.08 C 159.30 213.05 159.38 187.01 159.09 160.98 Z" />
</g>
<g id="#2a19ceff">
<path fill="#2a19ce" opacity="1.00" d=" M 238.18 160.00 L 238.67 160.15 C 238.81 160.54 239.09 161.31 239.23 161.70 C 239.27 187.55 239.26 213.40 239.23 239.24 C 212.53 239.14 185.82 239.47 159.13 239.08 C 162.80 236.12 166.07 232.73 169.35 229.37 C 191.20 207.55 213.02 185.71 234.87 163.89 C 236.03 162.65 237.08 161.30 238.18 160.00 Z" />
</g>
</svg>
