<?xml version="1.0" encoding="UTF-8" ?>
<!DOCTYPE svg PUBLIC "-//W3C//DTD SVG 1.1//EN" "http://www.w3.org/Graphics/SVG/1.1/DTD/svg11.dtd">
<svg width="1024pt" height="521pt" viewBox="0 0 1024 521" version="1.1" xmlns="http://www.w3.org/2000/svg">
<g id="#ff8b09ff">
<path fill="#ff8b09" opacity="1.00" d=" M 77.81 204.48 C 81.55 204.39 85.29 204.41 89.03 204.42 C 88.88 204.82 88.57 205.63 88.41 206.03 C 69.12 224.80 50.58 244.34 31.31 263.14 C 48.35 280.80 66.13 297.75 83.03 315.53 C 83.67 315.54 84.30 315.55 84.93 315.57 C 86.48 313.70 88.14 311.94 89.78 310.17 C 74.06 295.07 59.05 279.23 43.54 263.93 C 43.53 263.63 43.53 263.03 43.53 262.74 C 62.73 243.23 82.14 223.91 101.41 204.47 C 105.31 204.39 109.21 204.35 113.10 204.55 C 94.05 224.03 74.63 243.16 55.50 262.56 C 55.45 262.89 55.36 263.54 55.31 263.86 C 68.58 277.39 82.07 290.72 95.30 304.30 C 97.70 302.86 99.41 300.57 101.59 298.85 C 90.10 287.04 78.46 275.38 66.72 263.82 C 67.94 261.21 70.32 259.48 72.27 257.46 C 89.81 239.80 107.26 222.07 124.81 204.42 C 128.88 204.42 132.96 204.37 137.03 204.49 C 146.56 214.37 156.42 223.95 166.04 233.75 C 175.59 223.91 185.50 214.42 194.97 204.51 C 198.66 204.37 202.34 204.41 206.03 204.42 C 205.90 204.84 205.63 205.68 205.50 206.10 C 194.31 217.11 183.29 228.31 172.29 239.51 C 173.13 241.74 175.55 243.17 177.07 245.02 C 177.55 244.89 178.52 244.63 179.00 244.50 C 192.03 230.96 205.41 217.75 218.65 204.40 C 222.57 204.42 226.48 204.37 230.40 204.52 C 215.62 219.37 200.83 234.22 185.99 249.02 C 185.29 249.87 184.03 250.59 184.18 251.87 C 185.67 253.80 187.54 255.40 189.18 257.20 C 191.91 255.29 194.12 252.77 196.46 250.43 C 211.64 235.12 226.86 219.85 241.97 204.46 C 246.03 204.39 250.09 204.41 254.15 204.43 C 273.38 224.16 292.77 243.74 312.27 263.20 C 310.79 265.66 308.60 267.54 306.58 269.54 C 289.02 287.23 271.58 305.05 254.01 322.75 C 250.06 322.77 246.12 322.78 242.17 322.74 C 261.74 303.17 281.21 283.51 300.76 263.93 C 283.20 246.28 265.65 228.62 248.02 211.05 C 246.06 212.97 244.12 214.91 242.27 216.93 C 257.82 232.63 273.53 248.19 289.01 263.97 C 269.58 283.58 249.99 303.03 230.62 322.69 C 226.66 322.81 222.69 322.83 218.74 322.63 C 237.05 304.31 255.26 285.89 273.58 267.58 C 274.84 266.22 276.78 265.12 276.73 263.03 C 273.59 260.61 271.00 257.59 268.22 254.80 C 257.72 244.38 247.43 233.73 236.91 223.32 C 234.18 223.55 232.88 226.78 230.73 228.24 C 231.41 229.21 232.10 230.18 232.93 231.02 C 243.90 241.95 254.82 252.93 265.73 263.92 C 246.22 283.40 226.93 303.09 207.33 322.47 C 203.29 323.15 199.11 322.66 195.02 322.64 C 185.75 313.10 176.22 303.81 166.87 294.37 C 166.46 294.35 165.64 294.31 165.23 294.29 C 155.84 303.79 146.31 313.16 136.94 322.67 C 132.97 322.82 129.00 322.81 125.04 322.66 C 136.68 311.30 147.92 299.52 159.57 288.17 C 159.58 287.82 159.59 287.12 159.59 286.78 C 157.94 285.17 156.33 283.54 154.79 281.85 C 152.62 282.87 151.14 284.79 149.47 286.44 C 138.00 298.00 126.47 309.50 115.00 321.08 C 114.15 321.77 113.40 322.98 112.12 322.75 C 108.55 322.86 104.97 322.75 101.40 322.63 C 116.45 307.97 131.05 292.83 146.04 278.09 C 146.92 277.29 147.54 276.26 148.10 275.23 C 146.18 273.42 144.50 271.30 142.17 270.00 C 125.00 287.63 107.64 305.08 90.18 322.41 C 86.24 323.25 82.00 322.56 77.94 322.70 C 59.28 303.82 40.74 284.81 21.93 266.07 C 21.04 265.23 20.42 264.18 19.82 263.13 C 39.27 243.70 58.65 224.19 77.81 204.48 M 125.15 216.94 C 154.48 246.12 183.64 275.48 212.93 304.71 C 214.81 302.75 216.70 300.79 218.67 298.93 C 189.56 269.50 160.20 240.32 130.96 211.03 C 128.91 212.88 126.91 214.80 125.15 216.94 M 113.40 228.60 C 127.55 242.43 141.40 256.57 155.44 270.50 C 170.57 285.93 186.20 300.88 201.11 316.52 C 202.93 314.53 204.86 312.63 206.90 310.87 C 204.59 307.91 201.74 305.45 199.14 302.77 C 172.64 276.28 146.23 249.70 119.69 223.26 C 116.86 223.62 115.52 226.94 113.40 228.60 M 78.24 263.79 C 88.00 273.40 97.71 283.09 107.33 292.85 C 117.18 283.23 126.77 273.34 136.65 263.74 C 128.22 255.02 119.52 246.59 111.02 237.95 C 109.85 236.72 108.54 235.64 107.17 234.64 C 97.63 244.46 87.72 253.91 78.24 263.79 M 195.99 262.99 C 196.12 263.49 196.39 264.48 196.53 264.98 C 204.70 272.64 212.41 280.77 220.40 288.62 C 221.90 289.92 223.03 291.86 224.94 292.58 C 234.55 283.00 244.07 273.32 253.78 263.84 C 245.26 254.83 236.27 246.26 227.61 237.37 C 226.62 236.29 225.46 235.40 224.13 234.78 C 214.85 244.29 205.38 253.60 195.99 262.99 Z" />
</g>
<g id="#003b65ff">
<path fill="#003b65" opacity="1.00" d=" M 653.17 213.21 C 661.93 205.74 673.88 203.42 685.11 203.71 C 698.07 204.04 711.92 207.76 720.78 217.79 C 715.62 222.20 711.21 227.39 706.10 231.86 C 699.49 225.39 689.88 223.54 680.95 223.76 C 676.44 224.04 671.74 225.19 668.35 228.34 C 662.99 232.99 662.11 242.42 667.55 247.37 C 672.98 251.92 680.36 251.94 687.01 253.04 C 696.39 254.24 706.40 255.82 713.87 262.12 C 721.26 268.42 723.96 278.57 723.68 287.98 C 724.10 298.35 719.17 308.74 710.75 314.84 C 701.13 321.91 688.82 324.26 677.08 323.74 C 662.45 323.79 647.09 319.16 637.02 308.08 C 642.00 303.15 646.86 298.10 651.95 293.28 C 659.76 301.20 671.34 303.38 682.05 303.26 C 687.15 302.74 692.70 302.12 696.80 298.71 C 704.19 292.66 702.25 278.28 692.52 275.75 C 680.66 272.60 667.56 273.74 656.58 267.50 C 649.03 263.75 643.85 256.17 642.35 247.96 C 639.67 235.60 643.22 221.46 653.17 213.21 Z" />
<path fill="#003b65" opacity="1.00" d=" M 747.53 215.54 C 764.47 199.16 794.83 199.71 810.80 217.22 C 818.58 225.04 821.33 236.32 821.72 247.04 C 822.09 258.05 822.07 269.08 821.74 280.09 C 821.35 291.00 818.65 302.63 810.58 310.50 C 794.37 328.09 763.37 328.38 746.81 311.14 C 738.84 303.73 735.40 292.62 735.31 281.97 C 734.19 271.00 734.82 259.96 734.75 248.95 L 735.27 248.17 C 734.87 236.28 738.49 223.71 747.53 215.54 M 771.40 225.46 C 764.46 227.63 759.66 234.17 758.93 241.31 C 757.87 252.83 757.27 264.45 758.26 276.01 C 758.58 283.02 758.31 291.08 763.38 296.59 C 770.78 305.42 786.14 305.35 793.48 296.50 C 797.87 291.47 798.30 284.42 798.64 278.06 C 798.83 268.38 798.85 258.70 798.62 249.02 C 798.38 242.67 797.66 235.69 793.26 230.73 C 787.98 224.64 778.86 222.88 771.40 225.46 Z" />
<path fill="#003b65" opacity="1.00" d=" M 362.59 204.70 C 370.25 204.60 377.91 204.85 385.56 204.55 C 385.13 229.70 385.49 254.86 385.37 280.01 C 385.46 294.34 385.19 308.68 385.51 323.01 C 377.87 322.44 370.20 322.98 362.55 322.69 C 362.62 283.36 362.53 244.03 362.59 204.70 Z" />
<path fill="#003b65" opacity="1.00" d=" M 396.94 204.73 C 405.63 204.66 414.34 204.65 423.04 204.74 C 429.66 217.49 436.62 230.07 443.42 242.74 C 450.30 230.09 457.26 217.47 464.00 204.74 C 472.65 204.65 481.31 204.66 489.97 204.74 C 479.14 223.81 467.47 242.42 456.48 261.40 C 455.67 262.49 456.90 263.65 457.30 264.65 C 469.16 283.96 480.81 303.41 492.67 322.72 C 483.76 322.67 474.83 323.04 465.93 322.53 C 458.60 308.86 451.09 295.28 443.31 281.87 C 435.92 295.52 428.27 309.01 420.90 322.67 C 412.04 322.78 403.17 322.91 394.32 322.60 C 406.16 303.62 417.48 284.31 429.20 265.25 C 429.72 263.98 431.45 262.48 430.25 261.11 C 421.15 245.77 411.99 230.45 402.87 215.12 C 400.84 211.68 398.59 208.37 396.94 204.73 Z" />
<path fill="#003b65" opacity="1.00" d=" M 501.42 322.76 C 501.43 283.40 501.37 244.04 501.45 204.68 C 509.11 204.69 516.77 204.68 524.44 204.69 C 524.52 244.01 524.36 283.33 524.51 322.65 C 516.82 322.89 509.12 322.71 501.42 322.76 Z" />
<path fill="#003b65" opacity="1.00" d=" M 575.92 204.74 C 582.00 204.64 588.08 204.69 594.16 204.70 C 608.41 244.06 622.99 283.29 637.07 322.71 C 629.00 322.72 620.92 322.98 612.87 322.55 C 610.81 315.47 608.64 308.35 605.70 301.59 C 592.01 301.86 578.31 301.70 564.61 301.67 C 561.81 308.55 559.75 315.69 557.31 322.70 C 549.25 322.77 541.18 322.88 533.11 322.64 C 547.48 283.38 561.82 244.10 575.92 204.74 M 584.99 241.00 C 580.88 255.00 575.11 268.48 571.05 282.50 C 580.66 282.49 590.27 282.52 599.87 282.49 C 595.76 268.28 590.14 254.55 586.13 240.32 C 585.84 240.49 585.27 240.83 584.99 241.00 Z" />
<path fill="#003b65" opacity="1.00" d=" M 833.80 204.71 C 859.71 204.66 885.61 204.70 911.51 204.69 C 911.54 211.56 911.52 218.44 911.52 225.32 C 893.41 225.30 875.31 225.38 857.21 225.28 C 856.10 234.65 857.20 244.15 856.62 253.57 C 857.69 254.02 858.81 254.27 859.99 254.30 C 874.50 254.31 889.01 254.25 903.52 254.32 C 903.50 261.11 903.50 267.90 903.52 274.69 C 888.19 274.73 872.86 274.80 857.54 274.66 C 856.31 277.98 856.82 281.56 856.75 285.02 C 856.85 291.02 856.54 297.02 856.94 303.00 C 856.53 309.58 856.86 316.18 856.74 322.76 C 849.10 322.75 841.46 322.80 833.83 322.73 C 833.76 283.39 833.81 244.05 833.80 204.71 Z" />
<path fill="#003b65" opacity="1.00" d=" M 917.09 204.66 C 945.26 204.71 973.43 204.69 1001.60 204.67 C 1001.67 211.56 1001.67 218.45 1001.60 225.35 C 991.36 225.30 981.12 225.34 970.88 225.32 C 970.84 257.80 970.88 290.28 970.85 322.77 C 963.14 322.75 955.42 322.80 947.71 322.73 C 947.68 290.26 947.72 257.79 947.69 225.32 C 937.43 225.32 927.18 225.34 916.93 225.31 C 916.99 218.43 916.76 211.54 917.09 204.66 Z" />
</g>
<g id="#00142259">
<path fill="#001422" opacity="0.35" d=" M 385.56 204.55 C 386.09 205.61 386.40 206.75 386.34 207.95 C 386.25 245.63 386.32 283.32 386.30 321.01 C 386.32 321.78 386.06 322.44 385.51 323.01 C 385.19 308.68 385.46 294.34 385.37 280.01 C 385.49 254.86 385.13 229.70 385.56 204.55 Z" />
</g>
</svg>
