<?xml version="1.0" encoding="UTF-8" ?>
<!DOCTYPE svg PUBLIC "-//W3C//DTD SVG 1.1//EN" "http://www.w3.org/Graphics/SVG/1.1/DTD/svg11.dtd">
<svg width="211pt" height="56pt" viewBox="0 0 211 56" version="1.1" xmlns="http://www.w3.org/2000/svg">
<g id="#f54029ff">
<path fill="#f54029" opacity="1.00" d=" M 43.70 6.40 C 45.80 5.93 47.90 5.46 50.00 5.01 C 52.91 10.73 55.71 16.50 58.39 22.33 C 61.77 16.77 64.94 11.07 68.69 5.74 C 66.70 12.86 64.60 19.96 62.41 27.02 C 67.36 32.00 72.34 36.96 77.30 41.94 C 74.84 43.63 72.38 45.33 69.89 46.99 C 66.47 41.88 63.13 36.72 59.61 31.68 C 54.56 39.48 49.56 47.41 43.20 54.23 C 46.94 44.37 51.38 34.79 55.65 25.16 C 51.68 18.90 47.69 12.65 43.70 6.40 Z" />
<path fill="#f54029" opacity="1.00" d=" M 183.60 11.50 C 184.68 11.50 186.86 11.50 187.94 11.50 C 185.44 21.92 182.90 32.33 180.40 42.75 C 178.98 42.75 177.57 42.74 176.15 42.74 C 178.57 32.31 181.17 21.92 183.60 11.50 Z" />
<path fill="#f54029" opacity="1.00" d=" M 0.00 24.89 C 6.86 21.74 13.84 18.86 20.77 15.85 C 20.76 17.80 20.75 19.75 20.74 21.70 C 15.91 23.57 11.06 25.40 6.22 27.27 C 11.06 29.18 15.91 31.06 20.74 32.99 C 20.75 34.93 20.75 36.87 20.76 38.81 C 13.84 35.80 6.91 32.82 0.00 29.78 L 0.00 24.89 Z" />
<path fill="#f54029" opacity="1.00" d=" M 189.76 15.83 C 196.66 18.86 203.60 21.80 210.49 24.83 C 210.50 26.49 210.51 28.15 210.52 29.81 C 203.60 32.82 196.70 35.86 189.76 38.82 C 189.75 36.88 189.75 34.95 189.75 33.01 C 194.59 31.13 199.42 29.25 204.23 27.31 C 199.43 25.36 194.59 23.52 189.75 21.66 C 189.75 19.72 189.75 17.78 189.76 15.83 Z" />
</g>
<g id="#0078abff">
<path fill="#0078ab" opacity="1.00" d=" M 104.95 18.93 C 108.02 14.01 115.87 14.04 119.06 18.82 C 119.04 18.06 119.00 16.55 118.98 15.79 C 120.77 15.76 122.56 15.70 124.35 15.64 C 124.03 23.44 124.49 31.24 124.13 39.03 C 124.05 42.43 121.30 45.33 118.00 45.87 C 113.99 46.71 109.25 46.86 105.86 44.20 C 104.20 42.97 104.04 40.80 103.53 38.97 C 105.73 39.23 107.93 39.50 110.14 39.75 C 110.43 40.24 111.02 41.24 111.31 41.73 C 113.62 41.87 116.66 42.45 118.03 40.01 C 118.74 37.71 118.43 35.21 118.77 32.84 C 117.12 38.42 108.68 38.99 105.53 34.50 C 102.22 30.05 102.52 23.70 104.95 18.93 M 111.34 20.35 C 107.53 23.38 107.94 32.37 113.63 32.99 C 118.79 32.55 119.35 26.11 117.80 22.29 C 116.90 19.79 113.47 18.68 111.34 20.35 Z" />
<path fill="#0078ab" opacity="1.00" d=" M 129.83 33.11 C 125.94 26.54 129.34 15.47 137.90 15.31 C 145.02 14.41 149.67 21.88 148.84 28.28 C 143.84 28.22 138.85 28.28 133.86 28.21 C 134.73 30.63 135.97 33.70 139.04 33.67 C 141.01 34.08 141.88 31.83 142.86 30.59 C 144.86 30.86 146.87 31.12 148.88 31.36 C 147.07 33.90 145.37 37.22 141.95 37.72 C 137.57 38.51 131.89 37.60 129.83 33.11 M 134.02 24.79 C 137.06 24.75 140.10 24.75 143.14 24.76 C 142.83 22.14 140.93 19.11 137.95 19.67 C 135.38 20.09 134.79 22.75 134.02 24.79 Z" />
<path fill="#0078ab" opacity="1.00" d=" M 30.39 16.59 C 34.35 15.32 39.13 15.75 42.28 18.67 C 47.04 22.89 47.14 31.16 42.58 35.57 C 37.60 40.73 27.33 39.39 24.43 32.63 C 21.91 26.89 23.99 18.69 30.39 16.59 M 32.24 21.22 C 27.66 23.94 28.27 32.90 33.91 33.98 C 38.22 34.63 40.79 29.66 39.93 25.95 C 39.86 22.25 35.63 19.16 32.24 21.22 Z" />
<path fill="#0078ab" opacity="1.00" d=" M 78.02 15.74 C 80.09 15.75 82.17 15.75 84.25 15.75 C 85.99 21.38 88.31 26.84 89.61 32.60 C 90.36 26.76 92.94 21.38 94.45 15.73 C 96.50 15.73 98.55 15.72 100.60 15.68 C 97.20 24.31 94.22 33.12 90.88 41.78 C 89.32 46.15 84.07 46.88 80.07 46.17 C 79.83 44.55 79.58 42.93 79.31 41.31 C 81.11 41.59 83.31 42.21 84.85 40.84 C 85.52 39.77 86.02 38.60 86.58 37.47 C 83.56 30.29 80.85 22.99 78.02 15.74 Z" />
<path fill="#0078ab" opacity="1.00" d=" M 153.47 15.69 C 155.28 15.72 157.09 15.74 158.90 15.74 C 158.74 17.23 158.54 18.71 158.32 20.19 C 160.24 14.21 170.20 13.51 172.72 19.23 C 173.80 25.25 172.96 31.42 173.32 37.49 C 171.33 37.50 169.34 37.55 167.36 37.62 C 167.54 32.33 167.71 26.99 167.18 21.71 C 165.78 18.70 161.25 19.07 159.98 22.03 C 158.88 27.10 159.29 32.34 159.32 37.48 C 157.34 37.51 155.35 37.54 153.37 37.62 C 153.63 30.31 153.47 23.00 153.47 15.69 Z" />
</g>
</svg>
