<svg xmlns="http://www.w3.org/2000/svg" viewBox="0 0 667.57 339.12"><defs><style>.cls-1{fill:#abc7ff;}.cls-11,.cls-12,.cls-14,.cls-17,.cls-2,.cls-20,.cls-22,.cls-23,.cls-25,.cls-26,.cls-29,.cls-3,.cls-8{fill:none;stroke-miterlimit:10;}.cls-17,.cls-2,.cls-20,.cls-29{stroke:#fff;}.cls-23,.cls-3{stroke:#abc7ff;}.cls-4{fill:#f57373;}.cls-5{fill:#e04444;}.cls-6{fill:#091c38;}.cls-7{fill:#fff;}.cls-8{stroke:#16478c;}.cls-11,.cls-12,.cls-14,.cls-8{stroke-width:0.75px;}.cls-9{fill:#16478c;}.cls-10{fill:#0b264a;}.cls-11{stroke:#0b264a;}.cls-12{stroke:#c9dbff;}.cls-13{fill:#0e2d59;}.cls-14,.cls-26{stroke:#e04444;}.cls-15{fill:#d9d9d9;}.cls-16{fill:#edbb47;}.cls-17,.cls-22,.cls-23{stroke-width:0.74px;}.cls-18{fill:#c79116;}.cls-19{fill:#1c5cb5;}.cls-20{stroke-width:0.85px;}.cls-21{fill:#1e61bf;}.cls-22{stroke:#091c38;}.cls-24{fill:#ed7c2b;}.cls-25{stroke:#944d1b;stroke-width:0.77px;}.cls-26{stroke-width:0.5px;}.cls-27{fill:#ed8947;}.cls-28{fill:#4d8ee8;}.cls-29{stroke-width:0.76px;}</style></defs><title>consulting and implementation</title><g id="OBJECTS"><path class="cls-1" d="M689.8,417.53a16.37,16.37,0,0,1-16.06-13.25L654,302.13c-6.53-33.83-33.67-58-65.09-58h0c-26.67,0-50.76-17.52-61.22-44.52l-22.23-57.35c-14.52-37.49-48-61.81-85-61.81h0c-30.43,0-58.91,16.49-76.15,44.09l-26.89,43c-15.32,24.54-40.65,39.2-67.7,39.2h-6.32c-26.77,0-51.21,16.77-63,43.23l-2.24,5C169,275.56,150,288.57,129.28,288.57h0c-14.93,0-28.07,10.84-32.26,26.62l-24,90.18a16.35,16.35,0,0,1-15.81,12.16h-16v2H708.78v-2Z" transform="translate(-41.22 -80.44)"/><rect class="cls-2" x="33.41" y="188.42" width="85.9" height="13.04"/><rect class="cls-2" x="33.41" y="207.75" width="85.9" height="13.04"/><rect class="cls-2" x="33.41" y="227.09" width="85.9" height="13.04"/><rect class="cls-2" x="33.41" y="246.43" width="85.9" height="13.04"/><circle class="cls-3" cx="173.6" cy="170.03" r="44.37" transform="translate(-64.11 232.55) rotate(-80.44)"/><circle class="cls-3" cx="548.88" cy="158.72" r="44.37" transform="translate(7.31 354.17) rotate(-45)"/><path class="cls-4" d="M593.05,203.89l10,26.34,24.19,32.07-3.38,9.14-31.2-25.24a39,39,0,0,1-10.09-12.4L572,213.22Z" transform="translate(-41.22 -80.44)"/><path class="cls-5" d="M585.52,225.1l10.42-13.6-2.89-7.61L572,213.22l5.76,11.18A4.64,4.64,0,0,0,585.52,225.1Z" transform="translate(-41.22 -80.44)"/><path class="cls-4" d="M510.68,203.89l-10,26.34L476.51,262.3l3.37,9.14,31.2-25.24a38.83,38.83,0,0,0,10.09-12.4l10.6-20.58Z" transform="translate(-41.22 -80.44)"/><path class="cls-5" d="M518.22,225.1,507.8,211.5l2.88-7.61,21.09,9.33L526,224.4A4.63,4.63,0,0,1,518.22,225.1Z" transform="translate(-41.22 -80.44)"/><path class="cls-6" d="M639.73,360.29V208A20.17,20.17,0,0,1,646.26,193a28.55,28.55,0,0,0-.41-43l-9.12,10.62a14.61,14.61,0,1,1-19,0l-9.12-10.62a28.57,28.57,0,0,0-.41,43A20.14,20.14,0,0,1,614.73,208V360.29a20.12,20.12,0,0,1-6.54,15.06,28.57,28.57,0,0,0,.41,43l9.13-10.62a14.61,14.61,0,1,1,19,0l9.12,10.62a28.55,28.55,0,0,0,.41-43A20.15,20.15,0,0,1,639.73,360.29Z" transform="translate(-41.22 -80.44)"/><path class="cls-7" d="M524.36,400l-1.22,19.56H484.89s1.31-6.65,7.12-8.72,15.38-4.78,15.38-4.78L510,400Z" transform="translate(-41.22 -80.44)"/><line class="cls-8" x1="446.01" y1="335.56" x2="480.51" y2="335.56"/><path class="cls-8" d="M523.83,408.5s-8.19-.19-9.51,7.5" transform="translate(-41.22 -80.44)"/><path class="cls-7" d="M579.56,400l1.22,19.56H619s-1.32-6.65-7.13-8.72-15.37-4.78-15.37-4.78L593.9,400Z" transform="translate(-41.22 -80.44)"/><line class="cls-8" x1="575.47" y1="335.56" x2="540.97" y2="335.56"/><path class="cls-8" d="M580.09,408.5s8.19-.19,9.5,7.5" transform="translate(-41.22 -80.44)"/><path class="cls-6" d="M558.49,151.56v5.09a8.52,8.52,0,0,1-1.43,4.71l-1.48,2.22-4.68-12Z" transform="translate(-41.22 -80.44)"/><polygon class="cls-4" points="513.82 80.18 518.27 97.44 503.97 97.44 504.49 83.98 513.82 80.18"/><path class="cls-5" d="M551,167.81c3.3-1.34,3.59-5.46,3.59-5.46l-2.78-.42-6.11,2.49-.25,6.54a4.7,4.7,0,0,0,3.59-1.69A5.2,5.2,0,0,1,551,167.81Z" transform="translate(-41.22 -80.44)"/><path class="cls-9" d="M599.29,205.34l-10.42-15.72a29.75,29.75,0,0,0-17-12.25l-10.3-2.81a3,3,0,0,0-2.61.5,12.9,12.9,0,0,1-14.29,0,3,3,0,0,0-2.6-.5l-10.31,2.81a29.75,29.75,0,0,0-16.95,12.25l-10.42,15.72,19.65,7.88,1,12.23c-2.58,3,.75,8.44.75,8.44a5.41,5.41,0,0,0,0,5.49h52.1a5.41,5.41,0,0,0,0-5.49s3.33-5.48.75-8.44l1-12.23Z" transform="translate(-41.22 -80.44)"/><path class="cls-10" d="M579.65,213.22l.7-12.72a2.16,2.16,0,0,1,3.9-1.16l6.81,9.3Z" transform="translate(-41.22 -80.44)"/><path class="cls-10" d="M524.09,213.22l-.71-12.72a2.16,2.16,0,0,0-3.9-1.16l-6.81,9.3Z" transform="translate(-41.22 -80.44)"/><path class="cls-10" d="M551.87,180c5.11,0,9.5-2.06,11.44-5l-1.69-.46a3,3,0,0,0-2.61.5,12.9,12.9,0,0,1-14.29,0,3,3,0,0,0-2.6-.5l-1.7.46C542.36,178,546.75,180,551.87,180Z" transform="translate(-41.22 -80.44)"/><line class="cls-11" x1="521.67" y1="136.06" x2="495.33" y2="154.53"/><path class="cls-12" d="M561.86,198h11.43s.28,11.72-5.72,11.72S561.86,198,561.86,198Z" transform="translate(-41.22 -80.44)"/><path class="cls-13" d="M579.65,242.47l2-5.77H522.06l2,5.77L500.4,403.62c10.13,3.1,22.5-1.26,29.81,0l19.5-135.28H554l19.5,135.28c7.31-1.26,19.69,3.1,29.81,0Z" transform="translate(-41.22 -80.44)"/><path class="cls-9" d="M501.6,395.46h0l-1.2,8.16c10.13,3.1,22.5-1.26,29.81,0l1.18-8.16C523.29,394.32,511.09,398.14,501.6,395.46Z" transform="translate(-41.22 -80.44)"/><polygon class="cls-6" points="540.72 177.59 538.43 162.03 540.46 156.26 510.65 156.26 480.84 156.26 482.87 162.03 482.52 164.43 540.72 177.59"/><path class="cls-9" d="M602.13,395.46h0l1.2,8.16c-10.12,3.1-22.5-1.26-29.81,0l-1.18-8.16C580.45,394.32,592.64,398.14,602.13,395.46Z" transform="translate(-41.22 -80.44)"/><line class="cls-8" x1="482.87" y1="162.03" x2="538.43" y2="162.03"/><line class="cls-8" x1="512.69" y1="162.03" x2="512.69" y2="187.91"/><path class="cls-8" d="M549.71,242.47v12.76a6.25,6.25,0,0,0,4.2,5.9h0" transform="translate(-41.22 -80.44)"/><line class="cls-8" x1="535.55" y1="162.03" x2="558.08" y2="315.63"/><line class="cls-8" x1="485.76" y1="162.03" x2="463.23" y2="315.63"/><path class="cls-4" d="M542.73,150.92v11a4.48,4.48,0,0,0,4.64,4.55c3.84-.22,7.66-2.52,7.66-5.25v-5.51a1.38,1.38,0,0,0-.81-1.25,3.67,3.67,0,0,1-2.11-3.58Z" transform="translate(-41.22 -80.44)"/><path class="cls-6" d="M550.63,143.18a7.89,7.89,0,0,0-7.41,5.64,2.33,2.33,0,0,1-2.22,1.61h-5.56v1.13h23A8.13,8.13,0,0,0,550.63,143.18Z" transform="translate(-41.22 -80.44)"/><path class="cls-4" d="M557.52,158.75c-.52,1.38-1.8,2.17-2.86,1.77s-1.51-1.84-1-3.22,1.8-2.18,2.87-1.78S558,157.37,557.52,158.75Z" transform="translate(-41.22 -80.44)"/><path class="cls-14" d="M554.4,157.57a1.51,1.51,0,0,1,1.78-1.1,1.07,1.07,0,0,1,.57.52" transform="translate(-41.22 -80.44)"/><rect class="cls-8" x="580.2" y="126.7" width="11.62" height="154.02" rx="5.81"/><rect class="cls-7" x="274.34" y="280.44" width="67.87" height="58.69"/><polygon class="cls-15" points="342.22 315.63 274.34 290.73 274.34 280.44 342.22 280.44 342.22 315.63"/><rect class="cls-7" x="203.52" y="335.56" width="209.53" height="3.56"/><rect class="cls-7" x="156.83" y="79.16" width="302.91" height="203.03"/><rect class="cls-15" x="196.62" y="273.1" width="60.1" height="9.1"/><rect class="cls-6" x="163.36" y="85.49" width="289.85" height="187.61"/><polygon class="cls-16" points="302.78 173.95 177.36 173.95 177.36 28.61 274.39 28.61 302.78 57.23 302.78 173.95"/><line class="cls-17" x1="186.03" y1="39.42" x2="279.41" y2="39.42"/><polygon class="cls-18" points="274.39 28.61 302.78 57.23 274.39 57.23 274.39 28.61"/><path class="cls-7" d="M233.87,157.83c0-8.14,6.25-14,14.66-14,4.66,0,8.56,1.7,11.1,4.78l-4,3.7a8.69,8.69,0,0,0-6.78-3.16,8.64,8.64,0,1,0,0,17.27,8.6,8.6,0,0,0,6.78-3.2l4,3.71c-2.54,3.12-6.44,4.82-11.14,4.82C240.12,171.79,233.87,166,233.87,157.83Z" transform="translate(-41.22 -80.44)"/><path class="cls-7" d="M292.26,171.32l0-16.19-8,13.34h-2.81l-7.9-13v15.85h-5.87v-27h5.17L283,161.1l10-16.77H298l.08,27Z" transform="translate(-41.22 -80.44)"/><path class="cls-7" d="M306.26,168.66l2.12-4.7a15.85,15.85,0,0,0,8.91,2.81c3.7,0,5.2-1.23,5.2-2.89,0-5-15.69-1.58-15.69-11.61,0-4.58,3.7-8.4,11.37-8.4a18.08,18.08,0,0,1,9.37,2.39L325.61,151a15.3,15.3,0,0,0-7.48-2.12c-3.7,0-5.12,1.39-5.12,3.09,0,5,15.69,1.54,15.69,11.45,0,4.51-3.74,8.37-11.45,8.37C313,171.79,308.65,170.51,306.26,168.66Z" transform="translate(-41.22 -80.44)"/><path class="cls-17" d="M324.55,188.65H238a4.15,4.15,0,0,1-4.16-4.15h0a4.15,4.15,0,0,1,4.16-4.15h86.52a4.15,4.15,0,0,1,4.15,4.15h0A4.15,4.15,0,0,1,324.55,188.65Z" transform="translate(-41.22 -80.44)"/><path class="cls-17" d="M324.55,205H238a4.15,4.15,0,0,1-4.16-4.15h0a4.15,4.15,0,0,1,4.16-4.15h86.52a4.15,4.15,0,0,1,4.15,4.15h0A4.15,4.15,0,0,1,324.55,205Z" transform="translate(-41.22 -80.44)"/><path class="cls-17" d="M324.55,221.43H238a4.15,4.15,0,0,1-4.16-4.15h0a4.15,4.15,0,0,1,4.16-4.15h86.52a4.15,4.15,0,0,1,4.15,4.15h0A4.15,4.15,0,0,1,324.55,221.43Z" transform="translate(-41.22 -80.44)"/><path class="cls-17" d="M324.55,237.82H238a4.15,4.15,0,0,1-4.16-4.15h0a4.15,4.15,0,0,1,4.16-4.15h86.52a4.15,4.15,0,0,1,4.15,4.15h0A4.15,4.15,0,0,1,324.55,237.82Z" transform="translate(-41.22 -80.44)"/><circle class="cls-17" cx="191.75" cy="33.89" r="1.87"/><circle class="cls-17" cx="202.25" cy="33.89" r="1.87"/><circle class="cls-17" cx="212.75" cy="33.89" r="1.87"/><path class="cls-7" d="M563.06,104.53A24.1,24.1,0,1,0,535,128.29l4,9.37,4-9.37A24.1,24.1,0,0,0,563.06,104.53Z" transform="translate(-41.22 -80.44)"/><path class="cls-4" d="M535,107.19h-7.46l-1.42,3.44h-3.81l7.16-16h3.67l7.18,16h-3.9Zm-1.17-2.82-2.55-6.14-2.55,6.14Z" transform="translate(-41.22 -80.44)"/><path class="cls-4" d="M553.7,103.59v7h-3.35V109.1a4.06,4.06,0,0,1-3.76,1.72c-2.89,0-4.61-1.61-4.61-3.74s1.53-3.69,5.29-3.69h2.85c0-1.54-.92-2.43-2.85-2.43a5.93,5.93,0,0,0-3.55,1.14l-1.28-2.5a9.48,9.48,0,0,1,5.32-1.49C551.52,98.11,553.7,99.85,553.7,103.59Zm-3.58,3.14v-1.26h-2.46c-1.67,0-2.2.62-2.2,1.45s.76,1.49,2,1.49A2.64,2.64,0,0,0,550.12,106.73Z" transform="translate(-41.22 -80.44)"/><path class="cls-7" d="M141.29,125.78a24.09,24.09,0,1,0-5,36.44l9.24,4.3-3.31-9.63A24.08,24.08,0,0,0,141.29,125.78Z" transform="translate(-41.22 -80.44)"/><path class="cls-5" d="M133.68,133.57c-6.08-3.86-10.3,3.76-10.3,3.76s-4.22-7.62-10.29-3.76c-6.53,4.14-2.51,17.83,10.29,23.35C136.19,151.4,140.21,137.71,133.68,133.57Z" transform="translate(-41.22 -80.44)"/><path class="cls-19" d="M505.83,190a45.23,45.23,0,0,0,0-14.44H493a32.17,32.17,0,0,0-4.19-10.08l9-9a45.17,45.17,0,0,0-10.21-10.21l-9.05,9A32.29,32.29,0,0,0,468.56,151V138.25a44.47,44.47,0,0,0-14.44,0V151A32.38,32.38,0,0,0,444,155.22l-9-9a45,45,0,0,0-10.21,10.21l9,9a32.4,32.4,0,0,0-4.19,10.08H416.86a44.47,44.47,0,0,0,0,14.44h12.78A32.36,32.36,0,0,0,433.83,200l-9,9A45,45,0,0,0,435,219.29l9-9a32.38,32.38,0,0,0,10.08,4.18v12.79a45.23,45.23,0,0,0,14.44,0V214.43a32.29,32.29,0,0,0,10.08-4.18l9.05,9a45.17,45.17,0,0,0,10.21-10.21l-9-9A32.12,32.12,0,0,0,493,190Zm-44.49,11.73a18.95,18.95,0,1,1,19-19A18.94,18.94,0,0,1,461.34,201.68Z" transform="translate(-41.22 -80.44)"/><path class="cls-4" d="M409,186.13a21.48,21.48,0,0,0,0-6.79h-6a15.15,15.15,0,0,0-2-4.74l4.25-4.25a21.43,21.43,0,0,0-4.8-4.8l-4.25,4.25a15.13,15.13,0,0,0-4.74-2v-6a20.66,20.66,0,0,0-6.78,0v6a15,15,0,0,0-4.74,2l-4.25-4.25a21.43,21.43,0,0,0-4.8,4.8l4.25,4.25a15.15,15.15,0,0,0-2,4.74h-6a21.48,21.48,0,0,0,0,6.79h6a15.25,15.25,0,0,0,2,4.74l-4.25,4.25a21.43,21.43,0,0,0,4.8,4.8l4.25-4.25a15.27,15.27,0,0,0,4.74,2v6a20.66,20.66,0,0,0,6.78,0v-6a15.37,15.37,0,0,0,4.74-2l4.25,4.25a21.43,21.43,0,0,0,4.8-4.8L401,190.87a15.25,15.25,0,0,0,2-4.74ZM388,191.64a8.91,8.91,0,1,1,8.9-8.91A8.9,8.9,0,0,1,388,191.64Z" transform="translate(-41.22 -80.44)"/><path class="cls-13" d="M488.25,113.89l-1.48.76a5.38,5.38,0,0,1-2.43.59H423.85v5.87h60.49a5.38,5.38,0,0,1,2.43.59l1.48.76a2.35,2.35,0,0,0,1.67.17l11-3.11v-2.69l-11-3.11A2.35,2.35,0,0,0,488.25,113.89Z" transform="translate(-41.22 -80.44)"/><path class="cls-6" d="M449.91,115.24H423.85v5.87h10.71A26.41,26.41,0,0,0,445,119l5.25-2.27A.76.76,0,0,0,449.91,115.24Z" transform="translate(-41.22 -80.44)"/><path class="cls-19" d="M426.2,110.72,359,108.52a3.9,3.9,0,0,0-4,3.9v11.51a3.9,3.9,0,0,0,4,3.9l67.17-2.2,2.39,1.31a2.67,2.67,0,0,0,4-2.34V111.75a2.67,2.67,0,0,0-4-2.34Z" transform="translate(-41.22 -80.44)"/><path class="cls-20" d="M421.91,121.07H362.24a2.89,2.89,0,0,1-2.9-2.89h0a2.9,2.9,0,0,1,2.9-2.9h59.67a2.89,2.89,0,0,1,2.89,2.9h0A2.89,2.89,0,0,1,421.91,121.07Z" transform="translate(-41.22 -80.44)"/><rect class="cls-21" x="177.36" y="247.1" width="125.42" height="26"/><line class="cls-22" x1="181.57" y1="254.83" x2="298.57" y2="254.83"/><path class="cls-22" d="M238.6,331.4a1.33,1.33,0,1,1-1.33-1.32A1.32,1.32,0,0,1,238.6,331.4Z" transform="translate(-41.22 -80.44)"/><path class="cls-22" d="M246.76,331.4a1.33,1.33,0,1,1-1.32-1.32A1.32,1.32,0,0,1,246.76,331.4Z" transform="translate(-41.22 -80.44)"/><circle class="cls-22" cx="187.89" cy="250.97" r="1.33"/><rect class="cls-4" x="313.78" y="252.8" width="125.42" height="20.3"/><line class="cls-17" x1="317.99" y1="260.53" x2="434.99" y2="260.53"/><path class="cls-17" d="M366.86,337.1a1.33,1.33,0,1,1-1.33-1.32A1.33,1.33,0,0,1,366.86,337.1Z" transform="translate(-41.22 -80.44)"/><path class="cls-17" d="M375,337.1a1.33,1.33,0,1,1-1.32-1.32A1.32,1.32,0,0,1,375,337.1Z" transform="translate(-41.22 -80.44)"/><path class="cls-17" d="M383.19,337.1a1.33,1.33,0,1,1-1.33-1.32A1.33,1.33,0,0,1,383.19,337.1Z" transform="translate(-41.22 -80.44)"/><rect class="cls-7" x="313.78" y="105.56" width="125.42" height="62.67"/><line class="cls-23" x1="317.99" y1="113.3" x2="434.99" y2="113.3"/><circle class="cls-23" cx="324.31" cy="109.43" r="1.33"/><circle class="cls-23" cx="332.48" cy="109.43" r="1.33"/><path class="cls-23" d="M383.19,189.87a1.33,1.33,0,1,1-1.33-1.33A1.33,1.33,0,0,1,383.19,189.87Z" transform="translate(-41.22 -80.44)"/><circle class="cls-5" cx="417.71" cy="221.04" r="20.93" transform="translate(-75.17 279.67) rotate(-45)"/><path class="cls-7" d="M410.74,228.19v-14.3a1.44,1.44,0,0,1,2.15-1.27l12.94,7.14a1.46,1.46,0,0,1,0,2.55l-12.94,7.15A1.45,1.45,0,0,1,410.74,228.19Z" transform="translate(-41.22 -80.44)"/><rect class="cls-21" x="313.78" y="173.95" width="125.42" height="73.92"/><line class="cls-17" x1="317.99" y1="181.69" x2="434.99" y2="181.69"/><path class="cls-17" d="M366.86,258.26a1.33,1.33,0,1,1-1.33-1.33A1.34,1.34,0,0,1,366.86,258.26Z" transform="translate(-41.22 -80.44)"/><path class="cls-17" d="M375,258.26a1.33,1.33,0,1,1-1.32-1.33A1.33,1.33,0,0,1,375,258.26Z" transform="translate(-41.22 -80.44)"/><path class="cls-17" d="M383.19,258.26a1.33,1.33,0,1,1-1.33-1.33A1.34,1.34,0,0,1,383.19,258.26Z" transform="translate(-41.22 -80.44)"/><path class="cls-17" d="M473.12,274.84H362.3a3.09,3.09,0,0,1-3.09-3.1h0a3.09,3.09,0,0,1,3.09-3.09H473.12a3.1,3.1,0,0,1,3.09,3.09h0A3.1,3.1,0,0,1,473.12,274.84Z" transform="translate(-41.22 -80.44)"/><path class="cls-17" d="M473.12,287.55H362.3a3.09,3.09,0,0,1-3.09-3.09h0a3.09,3.09,0,0,1,3.09-3.1H473.12a3.1,3.1,0,0,1,3.09,3.1h0A3.1,3.1,0,0,1,473.12,287.55Z" transform="translate(-41.22 -80.44)"/><path class="cls-16" d="M404.68,313H362.3a3.09,3.09,0,0,1-3.09-3.1h0a3.09,3.09,0,0,1,3.09-3.09h42.38a3.09,3.09,0,0,1,3.09,3.09h0A3.09,3.09,0,0,1,404.68,313Z" transform="translate(-41.22 -80.44)"/><polygon class="cls-13" points="414.96 223.78 387.63 223.77 399.02 248.61 403.92 240.97 426.01 255.15 432.14 245.59 410.06 231.41 414.96 223.78"/><polygon class="cls-7" points="414.96 220.42 387.63 220.41 399.02 245.25 403.92 237.62 426.01 251.79 432.14 242.23 410.06 228.05 414.96 220.42"/><path class="cls-4" d="M197.87,381.92l1.63,20a8.79,8.79,0,0,0,5.3,7.37c5.92,2.53,15.19,7,15.55,10.23H191a4.83,4.83,0,0,1-4.72-5.85l1.25-5.81-3.47-26Z" transform="translate(-41.22 -80.44)"/><path class="cls-4" d="M135.18,381.92l-5.4,19.51a6.92,6.92,0,0,0,3.91,8.2c5.92,2.57,14.52,6.82,14.86,9.93H117.91a4.82,4.82,0,0,1-4.4-6.8l2.17-4.86,5.64-26Z" transform="translate(-41.22 -80.44)"/><path class="cls-13" d="M204.8,409.33a8.73,8.73,0,0,1-3.11-2.26l-3.34,3.54-10.87-2.71-1.25,5.81a4.83,4.83,0,0,0,4.72,5.85h29.4C220,416.32,210.72,411.86,204.8,409.33Z" transform="translate(-41.22 -80.44)"/><path class="cls-13" d="M117.91,419.56h30.64c-.34-3.11-8.94-7.36-14.86-9.93a6.89,6.89,0,0,1-3.06-2.62l-5.21,3.5-9.74-2.61-2.17,4.86A4.82,4.82,0,0,0,117.91,419.56Z" transform="translate(-41.22 -80.44)"/><path class="cls-6" d="M152.51,182.42h30l-.78-2.53a10.89,10.89,0,0,0,1.55-3.87c.28-2-1.41-3.44,0-6.33s2.95-8.29-3.31-10.54c-2.88-4-11.07-5.09-15.89-1.34-3.51,2.74-3.16,8.37-4.5,10.69s-2.32,2.27-3.65,5.25-.23,4.74-1.52,5.78A5.58,5.58,0,0,0,152.51,182.42Z" transform="translate(-41.22 -80.44)"/><path class="cls-16" d="M172.3,184.29l8.39,5.87a40.31,40.31,0,0,1,15.9,22.8l5.52,21H183l7.79,16.13a2.42,2.42,0,0,1-2.17,3.47h-50L122,231.45l14.2-25.15A40.36,40.36,0,0,1,153,190.21L165.16,184Z" transform="translate(-41.22 -80.44)"/><path class="cls-24" d="M138.64,253.58l14.9-43L183,234l7.79,16.13a2.42,2.42,0,0,1-2.17,3.47Z" transform="translate(-41.22 -80.44)"/><path class="cls-24" d="M128.32,229.92l20-4.18,4.13-12.09a35,35,0,0,0-8.8,6.41,11.73,11.73,0,0,1-5.43,3.22C133.56,224.63,128.93,228,128.32,229.92Z" transform="translate(-41.22 -80.44)"/><path class="cls-4" d="M174.29,181.74l3.5-9.87h-8.32l-3,8.4a9.94,9.94,0,0,1-4.85,5.54l-3.39,1.73a20,20,0,0,0,10.48,2.61,21.4,21.4,0,0,0,9.22-1.91l-2-1.42A4.39,4.39,0,0,1,174.29,181.74Z" transform="translate(-41.22 -80.44)"/><path class="cls-5" d="M169.72,173.75s-1.68,5.58,4.83,7.26l2.26-6.37Z" transform="translate(-41.22 -80.44)"/><path class="cls-16" d="M122,231.45l33.83-7.35a15.65,15.65,0,0,1,9.34.84l1.93.79-.14,7.53L165.94,236a14.72,14.72,0,0,1-7.12,7.89l-19.23,9.69a18.62,18.62,0,0,1-15.25.69h0a11.68,11.68,0,0,1-5.82-16.66Z" transform="translate(-41.22 -80.44)"/><line class="cls-25" x1="114.69" y1="123.5" x2="107.11" y2="145.3"/><path class="cls-21" d="M187.67,253.58l14.44,140.09h-22.6a45.68,45.68,0,0,0,0-16.86c-1.69-9.89-5.06-13.55-3.65-22.83s-6.47-13.87-7-22.12.85-9.66-1.68-17.82-4-15.46-4-15.46l-25.54,95.09H114a58,58,0,0,0,5.34-17.59c1.13-9.44,1.69-16.19,4.79-22.1s-1.41-14.06,1.4-23.9S132,309.54,132.82,302s6.77-48.35,6.77-48.35Z" transform="translate(-41.22 -80.44)"/><path class="cls-13" d="M168.82,331.86c.57,8.25,8.44,12.84,7,22.12s2,12.94,3.65,22.83a45.68,45.68,0,0,1,0,16.86h22.6l-2.66-25.78-29.07-94-7.23,24.65s1.46,7.31,4,15.46S168.26,323.61,168.82,331.86Z" transform="translate(-41.22 -80.44)"/><path class="cls-13" d="M188.08,257.52l-.41-3.94-48.08,0s-1,6.66-2.17,15.09Z" transform="translate(-41.22 -80.44)"/><line class="cls-22" x1="106.37" y1="173.14" x2="82.17" y2="305.89"/><path class="cls-22" d="M156.35,253.58s-1.15,9.61-10.79,11.13" transform="translate(-41.22 -80.44)"/><line class="cls-22" x1="142.79" y1="173.14" x2="156.65" y2="305.89"/><path class="cls-7" d="M179.51,393.67h22.6l-.76-7.34h-21.1A36.13,36.13,0,0,1,179.51,393.67Z" transform="translate(-41.22 -80.44)"/><path class="cls-7" d="M139.58,386.33H117a56.75,56.75,0,0,1-3,7.34h23.63Z" transform="translate(-41.22 -80.44)"/><line class="cls-22" x1="119.31" y1="193.49" x2="136.61" y2="192.83"/><rect class="cls-21" x="129.53" y="121.95" width="57.66" height="45.84"/><circle class="cls-16" cx="199.57" cy="225.55" r="7.24" transform="translate(-142.25 126.74) rotate(-45)"/><line class="cls-23" x1="132.77" y1="127.95" x2="183.94" y2="127.95"/><path class="cls-13" d="M228.4,230.62l-7.71-10.8a5.89,5.89,0,0,0-9.59,0l-12.79,17.92a5.52,5.52,0,0,1-7.92,1.11l-4.61-3.66a8.26,8.26,0,0,0-10.26,0L170.74,239v9.25H228.4Z" transform="translate(-41.22 -80.44)"/><circle class="cls-23" cx="134.09" cy="124.95" r="1.31"/><circle class="cls-23" cx="140.14" cy="124.95" r="1.31"/><circle class="cls-23" cx="146.19" cy="124.95" r="1.31"/><path class="cls-4" d="M167.14,225.73l3.35-2.79a4.94,4.94,0,0,1,3.18-1.16h5.14v5.78l-5.84.75a6.62,6.62,0,0,1-5.94,3.14Z" transform="translate(-41.22 -80.44)"/><line class="cls-26" x1="132.39" y1="142.83" x2="137.59" y2="142.83"/><line class="cls-26" x1="132.39" y1="144.31" x2="137.59" y2="144.31"/><line class="cls-26" x1="132.39" y1="145.67" x2="137.59" y2="145.67"/><path class="cls-4" d="M225.21,221.55v5.83a1.27,1.27,0,0,0,1,1.24l2.18.46v3.36l2-1.56a3.57,3.57,0,0,0,1.4-2.85v-4.48a1.4,1.4,0,0,0-1.1-1.37l-5-1.05A.43.43,0,0,0,225.21,221.55Z" transform="translate(-41.22 -80.44)"/><line class="cls-26" x1="184" y1="142.35" x2="189.34" y2="143.66"/><line class="cls-26" x1="184" y1="144.22" x2="189.34" y2="145.53"/><line class="cls-26" x1="184" y1="146.08" x2="189.34" y2="147.39"/><path class="cls-4" d="M178,167.23v-3.42a1.1,1.1,0,0,0-1.66-.94,6.84,6.84,0,0,1-3.36,1,2.11,2.11,0,0,0-1.95,1.84,6.56,6.56,0,0,1-1.63,3.74,2.44,2.44,0,1,0-1.77,4.12,2.5,2.5,0,0,0,1.3-.38,4.85,4.85,0,0,0,4.79,4.12,5.75,5.75,0,0,0,5.75-5.75v-2.9A1.47,1.47,0,0,1,178,167.23Z" transform="translate(-41.22 -80.44)"/><rect class="cls-7" x="177.36" y="180.68" width="125.42" height="59.69"/><line class="cls-23" x1="181.57" y1="188.42" x2="298.57" y2="188.42"/><circle class="cls-23" cx="187.89" cy="184.55" r="1.33"/><path class="cls-23" d="M238.6,265a1.33,1.33,0,1,1-1.33-1.33A1.32,1.32,0,0,1,238.6,265Z" transform="translate(-41.22 -80.44)"/><path class="cls-23" d="M246.76,265a1.33,1.33,0,1,1-1.32-1.33A1.32,1.32,0,0,1,246.76,265Z" transform="translate(-41.22 -80.44)"/><rect class="cls-16" x="242.33" y="197.4" width="50.81" height="33.75"/><path class="cls-27" d="M283.55,277.84,303,297.46a8.38,8.38,0,0,0,11.92,0l19.45-19.62Z" transform="translate(-41.22 -80.44)"/><path class="cls-23" d="M254.67,286.15H226.05a2.13,2.13,0,0,1-2.13-2.13h0a2.13,2.13,0,0,1,2.13-2.13h28.62A2.13,2.13,0,0,1,256.8,284h0A2.13,2.13,0,0,1,254.67,286.15Z" transform="translate(-41.22 -80.44)"/><path class="cls-23" d="M270.73,296.84H226.05a2.13,2.13,0,0,1-2.13-2.13h0a2.13,2.13,0,0,1,2.13-2.13h44.68a2.14,2.14,0,0,1,2.13,2.13h0A2.13,2.13,0,0,1,270.73,296.84Z" transform="translate(-41.22 -80.44)"/><path class="cls-23" d="M270.73,307.53H226.05a2.13,2.13,0,0,1-2.13-2.13h0a2.13,2.13,0,0,1,2.13-2.13h44.68a2.14,2.14,0,0,1,2.13,2.13h0A2.13,2.13,0,0,1,270.73,307.53Z" transform="translate(-41.22 -80.44)"/><circle class="cls-5" cx="302.78" cy="180.68" r="9.78"/><path class="cls-7" d="M341.67,257.5v7.36H340v-6H338.5V257.5Z" transform="translate(-41.22 -80.44)"/><path class="cls-7" d="M349.5,263.47v1.39h-5.56v-1.11l2.84-2.67c.65-.62.76-1,.76-1.36,0-.58-.39-.91-1.17-.91a1.82,1.82,0,0,0-1.53.73l-1.24-.8a3.42,3.42,0,0,1,2.92-1.36c1.64,0,2.74.84,2.74,2.17a2.92,2.92,0,0,1-1.23,2.32l-1.69,1.6Z" transform="translate(-41.22 -80.44)"/><rect class="cls-21" x="333.81" y="268.45" width="86.58" height="58.6"/><polygon class="cls-28" points="380.7 285.05 420.38 285.05 420.38 268.45 374.58 268.45 380.7 285.05"/><circle class="cls-29" cx="376.35" cy="305.15" r="9.79"/><polygon class="cls-7" points="383.11 303.65 377.85 303.65 377.85 298.39 374.85 298.39 374.85 303.65 369.58 303.65 369.58 306.65 374.85 306.65 374.85 311.92 377.85 311.92 377.85 306.65 383.11 306.65 383.11 303.65"/><rect class="cls-7" x="199.1" y="258.87" width="55.3" height="55.3"/><rect class="cls-21" x="203.15" y="262.92" width="47.19" height="47.19"/><path class="cls-28" d="M261.15,371.7l-4,.74a11.58,11.58,0,0,0-9.29,9.28l-1.64,8.83h43.46l-1.64-8.83a11.56,11.56,0,0,0-9.29-9.28l-4-.74a2.79,2.79,0,0,1-2.26-2.37l-.38-2.9a10.07,10.07,0,0,0,3.54-7.52c.22-5.39-3.23-8.76-7.71-8.76s-7.93,3.37-7.71,8.76a10.1,10.1,0,0,0,3.54,7.52l-.38,2.9A2.79,2.79,0,0,1,261.15,371.7Z" transform="translate(-41.22 -80.44)"/><circle class="cls-16" cx="295.61" cy="340.46" r="9.79" transform="translate(-145.08 469.11) rotate(-76.66)"/><polygon class="cls-7" points="261.16 258.52 255.89 258.52 255.89 253.26 252.89 253.26 252.89 258.52 247.63 258.52 247.63 261.52 252.89 261.52 252.89 266.79 255.89 266.79 255.89 261.52 261.16 261.52 261.16 258.52"/></g></svg>