<svg xmlns="http://www.w3.org/2000/svg" viewBox="0 0 479.31 431.03"><defs><style>.cls-1,.cls-2{fill:#e6e6e6;}.cls-2,.cls-26{opacity:0.8;}.cls-16,.cls-3,.cls-4,.cls-6{opacity:0.1;}.cls-5,.cls-6{fill:#114764;}.cls-26,.cls-36,.cls-7{fill:#fff;}.cls-8{fill:#4091c9;}.cls-9{fill:#27debf;}.cls-10{fill:#1368aa;}.cls-11{fill:#9dcee2;}.cls-12{opacity:0.2;}.cls-13{fill:#455a64;}.cls-14{fill:#f5f5f5;}.cls-15,.cls-31{opacity:0.5;}.cls-16,.cls-25{fill:#263238;}.cls-17{fill:#f0f0f0;}.cls-18{fill:#fafafa;}.cls-19{fill:#e0e0e0;}.cls-20,.cls-30{opacity:0.15;}.cls-21{fill:#ff951b;}.cls-22{fill:#ebebeb;}.cls-23,.cls-24{opacity:0.3;}.cls-27,.cls-30{fill:#c90;}.cls-28{fill:#fc3;}.cls-29{fill:#37474f;}.cls-32{opacity:0.23;}.cls-33{opacity:0.4;}.cls-34{fill:#fc6;}.cls-35{opacity:0.38;}.cls-36,.cls-38{opacity:0.7;}.cls-37{opacity:0.45;}.cls-39{fill:#f28f8f;}.cls-40{fill:#ffa8a7;}.cls-41{fill:#1380aa;}.cls-42{fill:#ffab8d;}.cls-43{fill:#40adc9;}.cls-44{fill:#175676;}</style></defs><title>technical writing slider</title><g id="Floor"><g id="Floor-2" data-name="Floor"><ellipse id="Floor-3" data-name="Floor" class="cls-1" cx="239.66" cy="295.71" rx="239.66" ry="135.32"/><ellipse id="Floor-4" data-name="Floor" class="cls-2" cx="239.66" cy="295.71" rx="239.66" ry="135.32"/></g></g><g id="Shadows"><path id="Shadow" class="cls-3" d="M270.44,324.08l45.29-26.14a2.25,2.25,0,0,1,2,0L384,336.25a.63.63,0,0,1,0,1.19l-45.28,26.14a2.25,2.25,0,0,1-2.05,0l-66.24-38.31A.63.63,0,0,1,270.44,324.08Z" transform="translate(-9.69 -41.76)"/><g id="Shadows-2" data-name="Shadows" class="cls-4"><path id="Shadow-2" data-name="Shadow" d="M63,371.19l-19-11a1.25,1.25,0,0,1,0-2.37L274.83,224.56a4.49,4.49,0,0,1,4.1,0l19,11a1.25,1.25,0,0,1,0,2.37L67.1,371.19A4.58,4.58,0,0,1,63,371.19Z" transform="translate(-9.69 -41.76)"/><path id="Shadow-3" data-name="Shadow" d="M260.17,222.33l40.92-23.64a3.64,3.64,0,0,1,3.28,0l50.28,29a1,1,0,0,1,0,1.9l-40.92,23.64a3.66,3.66,0,0,1-3.29,0l-50.27-29A1,1,0,0,1,260.17,222.33Z" transform="translate(-9.69 -41.76)"/></g><path id="Shadow-4" data-name="Shadow" class="cls-3" d="M159.37,419.5,211,389.55a4.43,4.43,0,0,1,4,0l60.92,35.18a1.21,1.21,0,0,1,0,2.3l-51.58,30a4.43,4.43,0,0,1-4,0L159.37,421.8A1.21,1.21,0,0,1,159.37,419.5Z" transform="translate(-9.69 -41.76)"/><path id="Shadow-5" data-name="Shadow" class="cls-3" d="M94,404.57,82.65,398a1.25,1.25,0,0,1,0-2.37l69.08-39.88a4.55,4.55,0,0,1,4.1,0l11.31,6.53a1.25,1.25,0,0,1,0,2.37L98.06,404.57A4.58,4.58,0,0,1,94,404.57Z" transform="translate(-9.69 -41.76)"/><path id="Shadow-6" data-name="Shadow" class="cls-3" d="M182.18,354.09l-11.3-6.52a1.25,1.25,0,0,1,0-2.37l75.2-43.5a4.55,4.55,0,0,1,4.1,0l11.3,6.53a1.25,1.25,0,0,1,0,2.37l-75.19,43.49A4.51,4.51,0,0,1,182.18,354.09Z" transform="translate(-9.69 -41.76)"/><path id="Shadow-7" data-name="Shadow" class="cls-3" d="M400.4,381.58c-5.62,0-11.37-.65-16.39-3.18-1.59-.81-3.3-2.18-3.09-4,.19-1.59,1.84-2.57,3.39-3,3.12-.87,6.45-.51,9.67-.9,5.1-.61,9.78-3.06,14.71-4.5,1-.29,2-.54,3-.76a54.42,54.42,0,0,1,11.81-1,22.26,22.26,0,0,1,4.87.41c2,.42,4,.84,6,1.21,7.9,1.48,16,2.4,24,1.07,2.08-.34,4.22-.84,6.28-.36,1.45.34,3.66,1.72,3.7,3.44,0,1.34-2,3.09-2.95,3.92-6.17,5.48-14.78,7.37-23,7.59s-16.47-1-24.72-.9c-5.69.09-11.36.84-17,.9Z" transform="translate(-9.69 -41.76)"/></g><g id="Plant"><path class="cls-5" d="M67.83,332.93c.73-8.3-3.76-26-11.42-37.53S35.9,274.81,26,277.25c-9.22,2.28-9.28,14.11.9,22.85s25.65,19.95,29.24,33.82l8.58,17.39Z" transform="translate(-9.69 -41.76)"/><path class="cls-6" d="M67.83,332.93c.73-8.3-3.76-26-11.42-37.53S35.9,274.81,26,277.25c-9.22,2.28-9.28,14.11.9,22.85s25.65,19.95,29.24,33.82l8.58,17.39Z" transform="translate(-9.69 -41.76)"/><path class="cls-7" d="M67.45,344.33a.6.6,0,0,1-.51-.53C63.88,315,43,290,29.73,283.68a.61.61,0,1,1,.52-1.1C43.76,289,65,314.43,68.15,343.67a.59.59,0,0,1-.54.66Z" transform="translate(-9.69 -41.76)"/><path class="cls-8" d="M61.63,362.08c-.92-4.78-5.94-13-14.59-20.14-9.58-7.92-22.19-12.29-24.68-18-3-6.89,3.09-12.61,13.45-10.4s27.5,18.12,28.55,39.88Z" transform="translate(-9.69 -41.76)"/><path class="cls-7" d="M64.09,357.37a.61.61,0,0,1-.49-.45c-6.55-25-24.31-35.16-32.79-37a.62.62,0,0,1-.46-.73.59.59,0,0,1,.72-.46c9.38,2.06,27,12.37,33.71,37.9a.62.62,0,0,1-.44.75A.7.7,0,0,1,64.09,357.37Z" transform="translate(-9.69 -41.76)"/></g><g id="Boxes"><polygon class="cls-8" points="302.4 207.36 302.4 178.57 339.81 156.97 339.81 185.76 302.4 207.36"/><polygon class="cls-9" points="302.4 178.57 255.64 151.57 255.64 180.37 302.4 207.36 302.4 178.57"/><polygon class="cls-10" points="302.4 178.57 255.64 151.57 255.64 180.37 302.4 207.36 302.4 178.57"/><polygon class="cls-9" points="302.4 178.57 340.92 156.32 293.05 128.68 254.53 150.92 302.4 178.57"/><polygon class="cls-11" points="302.4 178.57 340.92 156.32 293.05 128.68 254.53 150.92 302.4 178.57"/><polygon class="cls-8" points="302.4 178.57 302.4 185.77 340.92 163.53 340.92 156.32 302.4 178.57"/><polygon class="cls-12" points="302.4 185.77 339.81 164.17 339.81 165.75 302.4 187.35 302.4 185.77"/><polygon class="cls-9" points="254.53 150.92 302.4 178.57 302.4 185.77 254.53 158.13 254.53 150.92"/><polygon class="cls-10" points="254.53 150.92 302.4 178.57 302.4 185.77 254.53 158.13 254.53 150.92"/><polygon class="cls-12" points="302.4 185.77 255.64 158.77 255.64 160.35 302.4 187.35 302.4 185.77"/><path class="cls-13" d="M324.4,224.7l12.78-7.38c.55-.31,1-.06,1,.58v7.55a2.21,2.21,0,0,1-1,1.73l-12.78,7.38c-.55.32-1,.06-1-.58v-7.55A2.21,2.21,0,0,1,324.4,224.7Z" transform="translate(-9.69 -41.76)"/><path class="cls-14" d="M325.22,225.56l11.14-6.43c.37-.22.66,0,.66.38v5.66a1.44,1.44,0,0,1-.66,1.15l-11.14,6.44c-.37.21-.67,0-.67-.39v-5.66A1.45,1.45,0,0,1,325.22,225.56Z" transform="translate(-9.69 -41.76)"/><g class="cls-15"><path class="cls-13" d="M325.53,227.05a.16.16,0,0,1-.14-.08.16.16,0,0,1,.06-.22L336,220.68a.16.16,0,0,1,.22.06.17.17,0,0,1-.06.22L325.61,227A.12.12,0,0,1,325.53,227.05Z" transform="translate(-9.69 -41.76)"/><path class="cls-13" d="M325.53,228.44a.14.14,0,0,1-.14-.08.16.16,0,0,1,.06-.22L336,222.07a.16.16,0,0,1,.22.06.16.16,0,0,1-.06.22l-10.52,6.07A.12.12,0,0,1,325.53,228.44Z" transform="translate(-9.69 -41.76)"/><path class="cls-13" d="M325.53,229.84a.15.15,0,0,1-.14-.09.16.16,0,0,1,.06-.22L336,223.46a.17.17,0,0,1,.22.06.16.16,0,0,1-.06.22l-10.52,6.07A.13.13,0,0,1,325.53,229.84Z" transform="translate(-9.69 -41.76)"/><path class="cls-13" d="M325.53,231.23a.15.15,0,0,1-.14-.09.16.16,0,0,1,.06-.22L336,224.85a.17.17,0,0,1,.22.06.16.16,0,0,1-.06.22l-10.52,6.07A.13.13,0,0,1,325.53,231.23Z" transform="translate(-9.69 -41.76)"/></g><polygon class="cls-8" points="302.4 174.95 302.4 146.15 339.81 124.55 339.81 153.35 302.4 174.95"/><polygon class="cls-9" points="302.4 146.15 255.64 119.15 255.64 147.95 302.4 174.95 302.4 146.15"/><polygon class="cls-10" points="302.4 146.15 255.64 119.15 255.64 147.95 302.4 174.95 302.4 146.15"/><polygon class="cls-9" points="302.4 146.15 340.92 123.9 293.05 96.26 254.53 118.51 302.4 146.15"/><polygon class="cls-11" points="302.4 146.15 340.92 123.9 293.05 96.26 254.53 118.51 302.4 146.15"/><polygon class="cls-8" points="302.4 146.15 302.4 153.35 340.92 131.11 340.92 123.9 302.4 146.15"/><polygon class="cls-12" points="302.4 153.35 339.81 131.75 339.81 133.33 302.4 154.93 302.4 153.35"/><polygon class="cls-9" points="254.53 118.51 302.4 146.15 302.4 153.35 254.53 125.71 254.53 118.51"/><polygon class="cls-10" points="254.53 118.51 302.4 146.15 302.4 153.35 254.53 125.71 254.53 118.51"/><polygon class="cls-12" points="302.4 153.35 255.64 126.35 255.64 127.93 302.4 154.93 302.4 153.35"/><path class="cls-13" d="M324.4,192.28l12.78-7.37c.55-.32,1-.06,1,.57V193a2.19,2.19,0,0,1-1,1.72l-12.78,7.38c-.55.32-1,.06-1-.57V194A2.23,2.23,0,0,1,324.4,192.28Z" transform="translate(-9.69 -41.76)"/><path class="cls-14" d="M325.22,193.14l11.14-6.43c.37-.21.66,0,.66.38v5.67a1.46,1.46,0,0,1-.66,1.15l-11.14,6.43c-.37.21-.67,0-.67-.38v-5.67A1.47,1.47,0,0,1,325.22,193.14Z" transform="translate(-9.69 -41.76)"/><path class="cls-13" d="M325.53,194.64a.16.16,0,0,1-.14-.08.17.17,0,0,1,.06-.23L336,188.26a.17.17,0,0,1,.22.06.16.16,0,0,1-.06.22l-10.52,6.08Z" transform="translate(-9.69 -41.76)"/><path class="cls-13" d="M325.53,196a.16.16,0,0,1-.14-.08.15.15,0,0,1,.06-.22L336,189.65a.17.17,0,0,1,.22.06.16.16,0,0,1-.06.22L325.61,196Z" transform="translate(-9.69 -41.76)"/><path class="cls-13" d="M325.53,197.42a.16.16,0,0,1-.14-.08.15.15,0,0,1,.06-.22L336,191a.17.17,0,0,1,.22.06.16.16,0,0,1-.06.22l-10.52,6.08Z" transform="translate(-9.69 -41.76)"/><path class="cls-13" d="M325.53,198.81a.16.16,0,0,1-.14-.08.15.15,0,0,1,.06-.22L336,192.43a.18.18,0,0,1,.22.06.16.16,0,0,1-.06.22l-10.52,6.08Z" transform="translate(-9.69 -41.76)"/></g><g id="Window"><path class="cls-8" d="M64.94,187.87c-1-.6-4.07-3.36-4.07-4.64v-12a4.38,4.38,0,0,1,2-3.46L280.17,42.27c1.1-.63,2.5-1.08,6.07,1.18a4.43,4.43,0,0,1,1.87,3.39v12a4.41,4.41,0,0,1-2,3.46L68.81,187.8A4.26,4.26,0,0,1,64.94,187.87Z" transform="translate(-9.69 -41.76)"/><path class="cls-11" d="M288.09,46.51c-.14-1-1-1.41-2-.83L68.81,171.14a4.22,4.22,0,0,0-1.41,1.49l-6-3.42a4.13,4.13,0,0,1,1.42-1.48L280.17,42.28c1.1-.64,2.63-1,6.06,1.17A4.42,4.42,0,0,1,288.09,46.51Z" transform="translate(-9.69 -41.76)"/><path class="cls-1" d="M68.43,366.18l-.08,0a.84.84,0,0,1-.2.08l-.14,0a1.28,1.28,0,0,1-.28.07.58.58,0,0,1-.18,0l-.31,0a4.59,4.59,0,0,1-2.3-.4c-3.75-1.6-4.07-3.36-4.07-4.63V197.71l6,3.42V364.85c0,.9.45,1.43,1.1,1.43a.8.8,0,0,0,.27,0h0Z" transform="translate(-9.69 -41.76)"/><path class="cls-16" d="M67.4,172.63a4.07,4.07,0,0,0-.58,2v26.53l-6-3.42V171.19a1.93,1.93,0,0,1,0-.24c0-.17.05-.33.08-.5a5.46,5.46,0,0,1,.5-1.24Z" transform="translate(-9.69 -41.76)"/><path class="cls-17" d="M288.12,237.09a4.42,4.42,0,0,1-2,3.46L68.81,366c-1.1.64-2,.12-2-1.15V185.28l5.5-3.17c1.1-.64,2.89-10.34,4-11L124,143.6c1.11-.64,3.71,6.52,4.81,5.88l159.29-92V237.09Z" transform="translate(-9.69 -41.76)"/><path class="cls-18" d="M76.32,231.77l41-23.68c1.1-.63,2-.12,2,1.16V325.91a4.44,4.44,0,0,1-2,3.46l-41,23.68c-1.11.64-2,.12-2-1.16V235.24A4.41,4.41,0,0,1,76.32,231.77Z" transform="translate(-9.69 -41.76)"/><path class="cls-18" d="M128.83,240.44,198.78,200c1.1-.63,2-.12,2,1.16V278.8a4.44,4.44,0,0,1-2,3.47l-69.95,40.46c-1.1.64-2,.12-2-1.15V243.9A4.38,4.38,0,0,1,128.83,240.44Z" transform="translate(-9.69 -41.76)"/><path class="cls-18" d="M208.67,194l70-40.46c1.1-.64,2-.13,2,1.15v77.68a4.44,4.44,0,0,1-2,3.46l-70,40.46c-1.1.64-2,.12-2-1.15V197.44A4.38,4.38,0,0,1,208.67,194Z" transform="translate(-9.69 -41.76)"/><path class="cls-13" d="M76.32,201.45l202.3-116.8c1.1-.64,2-.12,2,1.16v21.37a4.44,4.44,0,0,1-2,3.46L76.32,227.44c-1.11.64-2,.12-2-1.15V204.92A4.41,4.41,0,0,1,76.32,201.45Z" transform="translate(-9.69 -41.76)"/><path class="cls-18" d="M205.6,137.94v3.73c0,.76.54,1.07,1.2.69l58.81-34v-6.5l-58.81,34A2.65,2.65,0,0,0,205.6,137.94Z" transform="translate(-9.69 -41.76)"/><path class="cls-11" d="M271.92,98.27c.66-.38,1.2-.07,1.2.69v3.73a2.68,2.68,0,0,1-1.2,2.08l-6.31,3.64v-6.5Z" transform="translate(-9.69 -41.76)"/><path class="cls-18" d="M271.45,103.38l-.7-.22a4,4,0,0,0,.11-.91,1.65,1.65,0,0,0-.64-1.5,1,1,0,0,0-1,0,3.6,3.6,0,0,0-1.41,2.93,1.65,1.65,0,0,0,.64,1.5.89.89,0,0,0,.45.12,1.23,1.23,0,0,0,.58-.17,3,3,0,0,0,1.13-1.52l.71.22h.07a.25.25,0,0,0,.25-.18A.25.25,0,0,0,271.45,103.38Zm-2.25,1.35a.51.51,0,0,1-.51,0,1.24,1.24,0,0,1-.38-1,3.15,3.15,0,0,1,1.15-2.48.7.7,0,0,1,.31-.1.41.41,0,0,1,.19,0,1.24,1.24,0,0,1,.38,1A3.14,3.14,0,0,1,269.2,104.73Z" transform="translate(-9.69 -41.76)"/><path class="cls-18" d="M126.83,204.92v25.7c0,1.27.89,1.79,2,1.15l149.79-86.48a4.44,4.44,0,0,0,2-3.46v-25.7c0-1.28-.9-1.79-2-1.16L128.83,201.45A4.41,4.41,0,0,0,126.83,204.92Z" transform="translate(-9.69 -41.76)"/><path class="cls-19" d="M288.11,57.52V73.37L66.82,201.13V185.28l4.11-2.38c1.09-.64,1.46-1.6,2-3.46l1.39-4.84c.44-1.68.9-2.83,2-3.46L124,143.6c1.11-.64,2-.71,2.82.68l1.71,3.11c.63,1.08.94,1.72,2,1.08Z" transform="translate(-9.69 -41.76)"/><path class="cls-7" d="M278.73,54c1.19-.68,2.14-.13,2.14,1.24a4.7,4.7,0,0,1-2.14,3.7c-1.18.68-2.13.13-2.13-1.23A4.73,4.73,0,0,1,278.73,54Z" transform="translate(-9.69 -41.76)"/><path class="cls-7" d="M269.68,59.2c1.18-.69,2.14-.13,2.14,1.23a4.73,4.73,0,0,1-2.14,3.7c-1.18.69-2.14.13-2.14-1.23A4.73,4.73,0,0,1,269.68,59.2Z" transform="translate(-9.69 -41.76)"/><path class="cls-7" d="M260.62,64.42c1.18-.68,2.14-.13,2.14,1.23a4.75,4.75,0,0,1-2.14,3.71c-1.18.68-2.14.13-2.14-1.24A4.73,4.73,0,0,1,260.62,64.42Z" transform="translate(-9.69 -41.76)"/><path class="cls-18" d="M93.07,180.19v-3.1a4.41,4.41,0,0,1,2-3.46L274.86,69.88c1.1-.64,2-.12,2,1.16v3.09a4.44,4.44,0,0,1-2,3.47L95.07,181.34C94,182,93.07,181.47,93.07,180.19Z" transform="translate(-9.69 -41.76)"/><path class="cls-13" d="M272.27,78.17a.41.41,0,0,1-.16,0,.51.51,0,0,1-.27-.55l.18-1.48-.69-.5a.48.48,0,0,1-.2-.4.83.83,0,0,1,.3-.63l1.06-.81a.31.31,0,0,0,.05-.09l.47-1.55a.66.66,0,0,1,.53-.5.41.41,0,0,1,.42.25l.39.84.9-.34a.41.41,0,0,1,.48.11.66.66,0,0,1,0,.73L275,74.65a.2.2,0,0,0,0,.09l.18,1.3a.84.84,0,0,1-.23.65.5.5,0,0,1-.42.16l-.86-.1-.93,1.19A.55.55,0,0,1,272.27,78.17Zm-.51-3,.7.5a.51.51,0,0,1,.18.5l-.12,1,.63-.8a.53.53,0,0,1,.47-.22l.87.1a.19.19,0,0,0,0-.09l-.18-1.3a.79.79,0,0,1,.09-.47l.67-1.26-.69.27a.42.42,0,0,1-.54-.22l-.32-.66-.42,1.37a.76.76,0,0,1-.26.4l-1.06.82A.16.16,0,0,0,271.76,75.16Zm1.79,1.58Zm1-.51Zm-2.48-.06Zm-.4-1.06Zm1.7-3Z" transform="translate(-9.69 -41.76)"/><path d="M76,188.12l-3.14,1.81,1.19-2.3a.58.58,0,0,0,0-.57c-.09-.11-.25,0-.36.17L72,190.51h0a.61.61,0,0,0-.05.12s0,0,0,0a.51.51,0,0,0,0,.17.29.29,0,0,0,0,.14s0,0,0,0a.18.18,0,0,0,.05.07h0l1.7,1.31a.14.14,0,0,0,.17,0,.48.48,0,0,0,.19-.24c.09-.21.08-.45,0-.53l-1.19-.92L76,188.89a.66.66,0,0,0,.25-.53C76.24,188.14,76.13,188,76,188.12Z" transform="translate(-9.69 -41.76)"/><path d="M78.61,186.6l3.14-1.81-1.2-.92a.48.48,0,0,1,0-.53c.09-.22.25-.33.35-.25l1.71,1.31h0l0,.07s0,0,0,0a.61.61,0,0,1,0,.15.88.88,0,0,1,0,.16s0,0,0,0,0,.09,0,.13h0l-1.71,3.27a.39.39,0,0,1-.16.19.13.13,0,0,1-.19,0,.56.56,0,0,1,0-.56l1.2-2.3-3.14,1.81c-.14.08-.25,0-.25-.24A.67.67,0,0,1,78.61,186.6Z" transform="translate(-9.69 -41.76)"/><path d="M88.9,177.56c0-.19-.18-.16-.26,0l-.43,1.06c-.74-.08-1.62.63-2.22,1.9-.78,1.65-.78,3.59,0,4.34a1.11,1.11,0,0,0,1.41.09,3.82,3.82,0,0,0,1.4-1.71.53.53,0,0,0,0-.55c-.09-.1-.25,0-.35.2-.58,1.23-1.53,1.78-2.11,1.22s-.58-2,0-3.24c.42-.88,1-1.4,1.53-1.43l-.33.79c-.08.21,0,.4.13.32l1.28-.84a.39.39,0,0,0,.14-.35Z" transform="translate(-9.69 -41.76)"/><path d="M123.64,150l1.15-2.42a.77.77,0,0,0,0-.76c-.14-.13-.36,0-.49.29l-1.15,2.42-1.14-1.1c-.14-.13-.36,0-.49.28a.71.71,0,0,0,0,.75l1.14,1.11L121.52,153a.71.71,0,0,0,0,.75.18.18,0,0,0,.24,0,.77.77,0,0,0,.25-.3l1.14-2.42,1.15,1.1a.19.19,0,0,0,.24,0,.65.65,0,0,0,.25-.3.76.76,0,0,0,0-.75Z" transform="translate(-9.69 -41.76)"/><path d="M279.22,68.79a.67.67,0,0,1-.6-.35.69.69,0,0,1,.25-.94l5.63-3.25a.69.69,0,0,1,.94.25.7.7,0,0,1-.25,1l-5.63,3.25A.72.72,0,0,1,279.22,68.79Z" transform="translate(-9.69 -41.76)"/><path d="M279.22,72a.67.67,0,0,1-.6-.35.69.69,0,0,1,.25-.94l5.63-3.25a.69.69,0,0,1,.94.25.7.7,0,0,1-.25,1L279.56,72A.72.72,0,0,1,279.22,72Z" transform="translate(-9.69 -41.76)"/><path d="M279.22,75.29a.67.67,0,0,1-.6-.35.69.69,0,0,1,.25-.94l5.63-3.25a.69.69,0,0,1,.94.25.7.7,0,0,1-.25,1l-5.63,3.25A.72.72,0,0,1,279.22,75.29Z" transform="translate(-9.69 -41.76)"/><polygon class="cls-19" points="57.13 143.52 57.13 159.37 51.18 155.95 51.18 140.12 57.13 143.52"/><polygon class="cls-20" points="57.13 143.52 57.13 159.37 51.18 155.95 51.18 140.12 57.13 143.52"/><path class="cls-21" d="M105.25,263.17v25.07L88.39,298V272.9l16.86-9.73m0-.86a.92.92,0,0,0-.43.11L88,272.15a.89.89,0,0,0-.43.75V298a.87.87,0,0,0,.86.87.88.88,0,0,0,.44-.12L105.68,289a.86.86,0,0,0,.43-.75V263.17a.86.86,0,0,0-.43-.75.92.92,0,0,0-.43-.11Z" transform="translate(-9.69 -41.76)"/><path class="cls-21" d="M102.72,268.87v7.26l-.53.29V274.2c0-.9-.42-1.42-1-1.42a1.47,1.47,0,0,0-.75.23l-2.5,1.44v10.79c0,1.13.44,1.84,1,1.84a1,1,0,0,0,.52-.16L101,286v.77l-8.43,4.86v-.77l1.56-.9a4.34,4.34,0,0,0,1.57-3.49V275.7l-2.49,1.44a4.09,4.09,0,0,0-1.8,3.26v2.22l-.53.32v-7.26l11.8-6.81m0-.87a.82.82,0,0,0-.43.12l-11.8,6.81a.86.86,0,0,0-.43.75v7.26a.86.86,0,0,0,.44.75.81.81,0,0,0,.42.12.9.9,0,0,0,.45-.13l.53-.32a.86.86,0,0,0,.41-.74V280.4a3.28,3.28,0,0,1,1.37-2.52l1.2-.69v9.3a3.57,3.57,0,0,1-1.14,2.74l-1.56.91a.84.84,0,0,0-.43.74v.77a.85.85,0,0,0,.43.75.83.83,0,0,0,.86,0l8.43-4.86a.89.89,0,0,0,.43-.75V286a.87.87,0,0,0-.86-.87.88.88,0,0,0-.44.12l-1.56.9-.06,0a1.61,1.61,0,0,1-.21-1V275l2.06-1.19a.67.67,0,0,1,.32-.12c.1,0,.18.26.18.56v2.22a.86.86,0,0,0,.43.75.82.82,0,0,0,.43.12.88.88,0,0,0,.42-.11l.53-.29a.89.89,0,0,0,.44-.76v-7.26a.85.85,0,0,0-.43-.75.82.82,0,0,0-.43-.12Z" transform="translate(-9.69 -41.76)"/><path class="cls-21" d="M152.36,273a.49.49,0,0,1-.19,0,.42.42,0,0,1-.19-.57l5-10.16a1,1,0,0,1,.68-.45,1,1,0,0,1,.74.22l4.26,2.8.56.11-.4-.16,5.07-12.34a.93.93,0,0,1,1.46-.24l6.32,6.52a.43.43,0,0,1-.62.6l-6.31-6.5-5.12,12.29a1,1,0,0,1-.61.56,1,1,0,0,1-.82-.12l-4.41-2.88-5,10.13A.43.43,0,0,1,152.36,273Z" transform="translate(-9.69 -41.76)"/><path class="cls-21" d="M176.07,242.9h0m-.9.51v22.74l-22.74,13.14V256.55h0l22.73-13.14m.65-1.32a.32.32,0,0,0-.18.06l-.86.5L152,255.83a.76.76,0,0,0-.27.29.74.74,0,0,0-.12.39v23.82c0,.18.09.28.22.28a.41.41,0,0,0,.17-.05l23.68-13.68a.88.88,0,0,0,.4-.69V242.38c0-.18-.09-.29-.22-.29Z" transform="translate(-9.69 -41.76)"/><path class="cls-21" d="M159.56,259.56a1.23,1.23,0,0,1-.63-.16,1.54,1.54,0,0,1-.68-1.41,3.92,3.92,0,0,1,1.8-3.12,1.39,1.39,0,0,1,2.24,1.29,4,4,0,0,1-1.8,3.13A1.92,1.92,0,0,1,159.56,259.56Zm1.42-4.11a1.08,1.08,0,0,0-.49.16,3.08,3.08,0,0,0-1.38,2.38.56.56,0,0,0,.94.55,3.08,3.08,0,0,0,1.38-2.38.73.73,0,0,0-.25-.66A.46.46,0,0,0,161,255.45Z" transform="translate(-9.69 -41.76)"/><path class="cls-21" d="M247.58,202.15h0c2.75,0,4.54,2.72,4.54,6.94a23,23,0,0,1-3.23,11,22.12,22.12,0,0,1-2.47,3.51,14.12,14.12,0,0,1-3.57,3.06,6.31,6.31,0,0,1-3.14,1c-2.75,0-4.54-2.72-4.54-6.93a23.08,23.08,0,0,1,3.22-11,17.82,17.82,0,0,1,6.05-6.56,6.33,6.33,0,0,1,3.14-1m0-.86a7.25,7.25,0,0,0-3.57,1.08,18.66,18.66,0,0,0-6.35,6.88,23.9,23.9,0,0,0-3.34,11.45c0,4.88,2.23,7.8,5.4,7.8a7.19,7.19,0,0,0,3.57-1.08,15.13,15.13,0,0,0,3.79-3.24A25,25,0,0,0,253,209.09c0-4.88-2.23-7.8-5.41-7.8Z" transform="translate(-9.69 -41.76)"/><path class="cls-21" d="M241.32,212h0m0,0,6.69.6-.15.2-6.79,8.45v-8.47a1.07,1.07,0,0,1,.25-.78m0-.86c-.61,0-1.1.71-1.1,1.64V222c0,.54.17.81.43.81s.46-.17.74-.52l7.17-8.91c.64-.81.64-1.5,0-1.56l-7.17-.64Z" transform="translate(-9.69 -41.76)"/></g><g id="Sheets"><g id="Sheets-2" data-name="Sheets"><g id="Character"><polygon class="cls-22" points="266.05 282.19 326.87 317.38 326.87 280.07 266.05 244.88 266.05 282.19"/><polygon class="cls-14" points="369.03 293.03 326.87 317.38 326.87 280.07 369.04 255.72 369.03 293.03"/><polygon class="cls-18" points="266.05 244.88 308.21 220.54 369.04 255.72 326.87 280.07 266.05 244.88"/></g><polygon class="cls-3" points="297.74 275.73 326.87 292.55 344.35 282.46 326.87 293.59 297.74 275.73"/><polygon class="cls-3" points="280.27 275.04 326.87 301.95 361.82 281.77 326.87 302.96 280.27 275.04"/><path class="cls-3" d="M281.58,300.49s-1,5.44-.48,8.19c0,0,7.63-.19,20.5,3.37Z" transform="translate(-9.69 -41.76)"/><polygon class="cls-18" points="271.9 258.73 291.92 270.29 269.77 263.89 271.9 258.73"/><path class="cls-3" d="M307.43,332.73l21.95,20.18s.61-2.77,4.82-4.72Z" transform="translate(-9.69 -41.76)"/><polygon class="cls-18" points="297.74 290.98 318.36 308.33 324.51 306.43 297.74 290.98"/><path class="cls-3" d="M371.7,312.32l-.19-.27-13.87,8,15.61-1.28A9.47,9.47,0,0,0,371.7,312.32Z" transform="translate(-9.69 -41.76)"/><polygon class="cls-18" points="347.95 278.3 361.82 270.29 366.44 272.72 347.95 278.3"/><g class="cls-23"><path class="cls-13" d="M286.45,289.24a.54.54,0,0,1-.27-1l34.95-20.18a.55.55,0,0,1,.74.2.54.54,0,0,1-.2.74l-34.95,20.18A.68.68,0,0,1,286.45,289.24Z" transform="translate(-9.69 -41.76)"/><path class="cls-13" d="M292.27,292.6a.54.54,0,0,1-.27-1l35-20.18a.54.54,0,1,1,.53.93l-34.95,20.18A.52.52,0,0,1,292.27,292.6Z" transform="translate(-9.69 -41.76)"/><path class="cls-13" d="M298.1,296a.54.54,0,0,1-.47-.26.55.55,0,0,1,.2-.74l34.95-20.18a.54.54,0,0,1,.74.2.53.53,0,0,1-.2.73l-34.95,20.18A.54.54,0,0,1,298.1,296Z" transform="translate(-9.69 -41.76)"/><path class="cls-13" d="M303.93,299.33a.54.54,0,0,1-.27-1l34.95-20.18a.54.54,0,0,1,.73.2.55.55,0,0,1-.19.74l-35,20.18A.48.48,0,0,1,303.93,299.33Z" transform="translate(-9.69 -41.76)"/><path class="cls-13" d="M309.75,302.69a.55.55,0,0,1-.47-.27.54.54,0,0,1,.2-.73l34.95-20.18a.54.54,0,0,1,.74.2.53.53,0,0,1-.2.73l-35,20.18A.52.52,0,0,1,309.75,302.69Z" transform="translate(-9.69 -41.76)"/><path class="cls-13" d="M315.58,306.06a.54.54,0,0,1-.27-1l34.95-20.18a.54.54,0,0,1,.54.93L315.85,306A.56.56,0,0,1,315.58,306.06Z" transform="translate(-9.69 -41.76)"/><path class="cls-13" d="M321.4,309.42a.57.57,0,0,1-.47-.27.54.54,0,0,1,.2-.73l34.95-20.18a.54.54,0,1,1,.54.93l-34.95,20.18A.52.52,0,0,1,321.4,309.42Z" transform="translate(-9.69 -41.76)"/><path class="cls-13" d="M327.23,312.78a.53.53,0,0,1-.47-.27.53.53,0,0,1,.2-.73l35-20.18a.54.54,0,1,1,.54.93L327.5,312.71A.54.54,0,0,1,327.23,312.78Z" transform="translate(-9.69 -41.76)"/><path class="cls-13" d="M333.05,316.15a.54.54,0,0,1-.27-1l35-20.18a.54.54,0,0,1,.73.2.53.53,0,0,1-.2.73l-34.95,20.18A.53.53,0,0,1,333.05,316.15Z" transform="translate(-9.69 -41.76)"/></g></g></g><g id="Video"><path class="cls-8" d="M249.81,237.55l-69.7,40.25a3.6,3.6,0,0,0-1.63,2.82V347a3.62,3.62,0,0,0,1.63,2.83l2.68,1.54a3.6,3.6,0,0,0,3.26,0l69.7-40.25a3.61,3.61,0,0,0,1.63-2.82V241.92a3.62,3.62,0,0,0-1.63-2.83l-2.68-1.54A3.6,3.6,0,0,0,249.81,237.55Z" transform="translate(-9.69 -41.76)"/><path class="cls-24" d="M249.81,237.55l-69.7,40.25a3.6,3.6,0,0,0-1.63,2.82V347a3.62,3.62,0,0,0,1.63,2.83l2.68,1.54a3.6,3.6,0,0,0,3.26,0l69.7-40.25a3.61,3.61,0,0,0,1.63-2.82V241.92a3.62,3.62,0,0,0-1.63-2.83l-2.68-1.54A3.6,3.6,0,0,0,249.81,237.55Z" transform="translate(-9.69 -41.76)"/><path class="cls-10" d="M257.32,241.43c-.21-.68-.83-.89-1.57-.45l-69.7,40.25a3.23,3.23,0,0,0-1.15,1.22L179,279a3.16,3.16,0,0,1,1.15-1.22l69.71-40.25a3.6,3.6,0,0,1,3.26,0l2.67,1.55A3.61,3.61,0,0,1,257.32,241.43Z" transform="translate(-9.69 -41.76)"/><path class="cls-12" d="M257.32,241.43c-.21-.68-.83-.89-1.57-.45l-69.7,40.25a3.23,3.23,0,0,0-1.15,1.22L179,279a3.16,3.16,0,0,1,1.15-1.22l69.71-40.25a3.6,3.6,0,0,1,3.26,0l2.67,1.55A3.61,3.61,0,0,1,257.32,241.43Z" transform="translate(-9.69 -41.76)"/><path class="cls-11" d="M255.75,241l-69.7,40.26a3.6,3.6,0,0,0-1.63,2.82v66.41c0,1,.73,1.46,1.63.94l69.7-40.25a3.61,3.61,0,0,0,1.63-2.82V241.92C257.38,240.88,256.65,240.45,255.75,241Z" transform="translate(-9.69 -41.76)"/><path class="cls-7" d="M214.87,321.17a9.94,9.94,0,0,1-5-1.32c-4.18-2.42-6.58-7.9-6.58-15.05a41.55,41.55,0,0,1,5.6-20.08,37.12,37.12,0,0,1,4-5.63h0a26.78,26.78,0,0,1,6.68-5.68c4.49-2.59,8.9-2.9,12.4-.88,4.19,2.42,6.59,7.9,6.59,15a41.46,41.46,0,0,1-5.61,20.09A30.65,30.65,0,0,1,222.25,319,14.82,14.82,0,0,1,214.87,321.17Zm-.17-40.49a34.52,34.52,0,0,0-3.72,5.25,39.12,39.12,0,0,0-5.28,18.87c0,6.26,2,11,5.37,12.94,2.72,1.57,6.26,1.26,10-.88a28.35,28.35,0,0,0,9.78-10.42,39.09,39.09,0,0,0,5.28-18.87c0-6.25-2-11-5.37-12.93-2.72-1.57-6.26-1.26-10,.88a24,24,0,0,0-6.06,5.16Z" transform="translate(-9.69 -41.76)"/><path class="cls-7" d="M230.23,292.41l-13.69,17c-1.23,1.53-2.23,1.29-2.23-.55V291.35c0-1.85,1-3.25,2.23-3.14l13.69,1.22C231.46,289.54,231.46,290.88,230.23,292.41Z" transform="translate(-9.69 -41.76)"/></g><g id="Photo"><path class="cls-25" d="M159.87,291.86v60.51a2.21,2.21,0,0,1-1,1.73L98.72,388.85c-.55.31-1,.06-1-.58v-3.16l58.94-34.05V292.55l2.19-1.26C159.42,291,159.87,291.23,159.87,291.86Z" transform="translate(-9.69 -41.76)"/><path class="cls-9" d="M156.67,292.55v58.51L97.73,385.11V327.77a1.89,1.89,0,0,1,.29-1,1.91,1.91,0,0,1,.7-.76Z" transform="translate(-9.69 -41.76)"/><path class="cls-26" d="M156.67,292.55v58.51L97.73,385.11V327.77a1.89,1.89,0,0,1,.29-1,1.91,1.91,0,0,1,.7-.76Z" transform="translate(-9.69 -41.76)"/><path class="cls-27" d="M142.13,317.57a1.56,1.56,0,0,0-.2-.16h-.05l-3.73-2.16h0l0,0h0a1.27,1.27,0,0,0-1.68.42l-13.28,32.73-8.82-5.8-.18-.12h0l0,0h0l-3.69-2.13h0a1.25,1.25,0,0,0-1.7.37L95.85,366.72V384l3.75,2.17,57.87-33.43a2.13,2.13,0,0,0,1.08-1.86V334.49Z" transform="translate(-9.69 -41.76)"/><path class="cls-20" d="M142.13,317.57a1.56,1.56,0,0,0-.2-.16h-.05l-3.73-2.16h0l0,0h0a1.27,1.27,0,0,0-1.68.42l-13.28,32.73-8.82-5.8-.18-.12h0l0,0h0l-3.69-2.13h0a1.25,1.25,0,0,0-1.7.37L95.85,366.72V384l3.75,2.17,57.87-33.43a2.13,2.13,0,0,0,1.08-1.86V334.49Z" transform="translate(-9.69 -41.76)"/><path class="cls-28" d="M99.6,386.19v-17.3l12.86-26.07a1.26,1.26,0,0,1,1.88-.26l12.34,8.12,13.51-32.89a1.27,1.27,0,0,1,1.94-.22l16.42,16.92V350.9a2.13,2.13,0,0,1-1.08,1.86Z" transform="translate(-9.69 -41.76)"/><polygon class="cls-20" points="116.99 308.92 113.11 318.39 115.57 307.99 116.99 308.92"/><path class="cls-29" d="M162.29,288.14l0-.12a2.24,2.24,0,0,0-1-1.45l-1.76-1a2.2,2.2,0,0,0-2,0L93.1,322.78a2.14,2.14,0,0,0-.71.75,2.1,2.1,0,0,0-.3,1V400.2a2.21,2.21,0,0,0,1,1.73l1.75,1a2.26,2.26,0,0,0,1.77.11l.07,0,.16-.08,64.45-37.22a2.23,2.23,0,0,0,1-1.74V288.3C162.3,288.25,162.29,288.19,162.29,288.14Zm-2.42,64.23a2.23,2.23,0,0,1-1,1.73L98.72,388.85c-.55.31-1,.06-1-.58v-60.5a2.08,2.08,0,0,1,.29-1,2,2,0,0,1,.7-.74l60.15-34.75c.55-.32,1-.07,1,.58Z" transform="translate(-9.69 -41.76)"/><path class="cls-25" d="M96.62,403.05a2.26,2.26,0,0,1-1.77-.11l-1.75-1a2.21,2.21,0,0,1-1-1.73V324.52a2,2,0,0,1,.3-1l3.75,2.17a2.05,2.05,0,0,0-.29,1v75.67C95.85,402.91,96.18,403.18,96.62,403.05Z" transform="translate(-9.69 -41.76)"/><path class="cls-13" d="M162.29,288.14a.6.6,0,0,1,0-.12c-.13-.42-.52-.56-1-.29L96.85,325a2.21,2.21,0,0,0-1,1.72v75.68c0,.55.34.81.77.69l.08,0,.16-.08,64.45-37.22a2.22,2.22,0,0,0,1-1.73V288.14Zm-2.42,64.23a2.21,2.21,0,0,1-1,1.73L98.72,388.85c-.55.31-1,.06-1-.58v-60.5a1.89,1.89,0,0,1,.29-1,1.91,1.91,0,0,1,.7-.76l57.95-33.48,2.19-1.26c.56-.33,1-.06,1,.57Z" transform="translate(-9.69 -41.76)"/><path class="cls-30" d="M121.26,326.76l1.46-2.47-3-1.74h0a2.82,2.82,0,0,0-2.85.29,8.9,8.9,0,0,0-4,7,2.83,2.83,0,0,0,1.16,2.59h0l0,0h0l2.89,1.67,1.39-2.35A9.37,9.37,0,0,0,121.26,326.76Z" transform="translate(-9.69 -41.76)"/><path class="cls-27" d="M121.26,326.76l1.46-2.47-3-1.74h0a2.82,2.82,0,0,0-2.85.29,8.9,8.9,0,0,0-4,7,2.83,2.83,0,0,0,1.16,2.59h0l0,0h0l2.89,1.67,1.39-2.35A9.37,9.37,0,0,0,121.26,326.76Z" transform="translate(-9.69 -41.76)"/><path class="cls-28" d="M119.82,324.54c2.23-1.29,4-.24,4,2.33a8.93,8.93,0,0,1-4,7c-2.23,1.28-4,.24-4-2.34A8.93,8.93,0,0,1,119.82,324.54Z" transform="translate(-9.69 -41.76)"/></g><g id="Box"><polygon class="cls-9" points="260.48 383.45 211.87 411.51 157.14 379.84 205.74 351.78 260.48 383.45"/><polygon class="cls-31" points="260.48 383.45 211.87 411.51 157.14 379.84 205.74 351.78 260.48 383.45"/><polygon class="cls-9" points="205.74 313.74 205.74 351.78 157.14 379.84 157.14 341.8 205.74 313.74"/><polygon class="cls-32" points="205.74 313.74 205.74 351.78 157.14 379.84 157.14 341.8 205.74 313.74"/><polygon class="cls-9" points="260.48 345.41 260.48 383.45 205.74 351.78 205.74 313.74 260.48 345.41"/><polygon class="cls-33" points="260.48 345.41 260.48 383.45 205.74 351.78 205.74 313.74 260.48 345.41"/><polygon class="cls-11" points="205.74 313.74 205.81 292.68 260.41 324.39 260.48 345.41 205.74 313.74"/><polygon class="cls-12" points="205.74 313.74 205.81 292.68 260.41 324.39 260.48 345.41 205.74 313.74"/><polygon class="cls-11" points="157.14 341.8 151.34 322.69 199.94 294.63 205.74 313.74 157.14 341.8"/><polygon class="cls-3" points="157.14 341.8 151.34 322.69 199.94 294.63 205.74 313.74 157.14 341.8"/><path class="cls-17" d="M178.41,420.13a2.33,2.33,0,0,1-1-1.69l-4.08-66.95a2,2,0,0,1,.87-1.67l41.67-23.92a2.07,2.07,0,0,1,1.89,0,2.31,2.31,0,0,1,1,1.68l4.08,67a1.92,1.92,0,0,1-.87,1.66L180.3,420.14A2.1,2.1,0,0,1,178.41,420.13Z" transform="translate(-9.69 -41.76)"/><path class="cls-18" d="M179.88,420c-.29,0-.34-.37-.35-.48l-4.08-67a1.71,1.71,0,0,1,.75-1.44l41.67-23.91a.57.57,0,0,1,.29-.09c.3,0,.34.36.35.48l4.08,66.95a1.71,1.71,0,0,1-.75,1.44l-41.67,23.92a.69.69,0,0,1-.29.09Z" transform="translate(-9.69 -41.76)"/><path class="cls-22" d="M218.16,327.38c.06,0,.1.15.1.25l4.08,67a1.43,1.43,0,0,1-.62,1.2l-41.67,23.92a.41.41,0,0,1-.17.06c-.06,0-.09-.15-.1-.25l-4.08-66.95a1.48,1.48,0,0,1,.63-1.21L218,327.44a.41.41,0,0,1,.17-.06m0-.49a.83.83,0,0,0-.41.12l-41.67,23.92a1.94,1.94,0,0,0-.87,1.67l4.08,66.95c0,.45.27.71.59.71a.9.9,0,0,0,.42-.12L222,396.22a1.92,1.92,0,0,0,.87-1.66l-4.08-67c0-.45-.27-.71-.6-.71Z" transform="translate(-9.69 -41.76)"/><path class="cls-19" d="M180.17,420.2a2.08,2.08,0,0,1-1.76-.07,2.33,2.33,0,0,1-1-1.69l-4.08-66.95a1.89,1.89,0,0,1,.23-1l1.9,1.11a1.76,1.76,0,0,0-.23.95l4.08,67C179.32,420.13,179.71,420.39,180.17,420.2Z" transform="translate(-9.69 -41.76)"/><path class="cls-19" d="M197.12,345.48l14.68-8.54c.46-.26.86,0,.89.52l0,.35a1.7,1.7,0,0,1-.77,1.47l-14.68,8.54c-.46.26-.86,0-.89-.52l0-.35A1.71,1.71,0,0,1,197.12,345.48Z" transform="translate(-9.69 -41.76)"/><path class="cls-19" d="M197.47,351.31l14.69-8.54c.46-.26.86,0,.89.53l0,.34a1.72,1.72,0,0,1-.77,1.47l-14.69,8.54c-.45.26-.85,0-.89-.52l0-.35A1.73,1.73,0,0,1,197.47,351.31Z" transform="translate(-9.69 -41.76)"/><path class="cls-19" d="M197.83,357.14l14.68-8.54c.46-.26.86,0,.89.53l0,.34a1.71,1.71,0,0,1-.76,1.47L198,359.48c-.46.26-.86,0-.89-.52l0-.35A1.72,1.72,0,0,1,197.83,357.14Z" transform="translate(-9.69 -41.76)"/><path class="cls-19" d="M183,377.66l30.21-17.39c.46-.27.86,0,.89.52l0,.34a1.74,1.74,0,0,1-.77,1.47L183.15,380c-.45.26-.85,0-.89-.52l0-.34A1.72,1.72,0,0,1,183,377.66Z" transform="translate(-9.69 -41.76)"/><path class="cls-19" d="M182.66,371.83l30.21-17.39c.46-.27.86,0,.89.52l0,.34a1.72,1.72,0,0,1-.77,1.47L182.8,374.16c-.46.26-.86,0-.89-.52l0-.34A1.7,1.7,0,0,1,182.66,371.83Z" transform="translate(-9.69 -41.76)"/><path class="cls-19" d="M183.37,383.53l30.21-17.39c.46-.26.86,0,.89.52l0,.34a1.7,1.7,0,0,1-.77,1.47l-30.21,17.39c-.46.27-.86,0-.89-.52l0-.34A1.72,1.72,0,0,1,183.37,383.53Z" transform="translate(-9.69 -41.76)"/><path class="cls-19" d="M183.73,389.36,213.94,372c.46-.26.85,0,.89.52l0,.34a1.72,1.72,0,0,1-.77,1.47l-30.21,17.39c-.46.27-.86,0-.89-.52l0-.34A1.7,1.7,0,0,1,183.73,389.36Z" transform="translate(-9.69 -41.76)"/><path class="cls-19" d="M184.08,395.19l30.21-17.39c.46-.26.86,0,.89.52l0,.34a1.7,1.7,0,0,1-.77,1.47l-30.21,17.4c-.46.26-.86,0-.89-.53l0-.34A1.72,1.72,0,0,1,184.08,395.19Z" transform="translate(-9.69 -41.76)"/><path class="cls-19" d="M184.44,401l30.21-17.39c.46-.26.85,0,.89.52l0,.34a1.75,1.75,0,0,1-.77,1.48l-30.21,17.39c-.46.26-.86,0-.89-.52l0-.35A1.7,1.7,0,0,1,184.44,401Z" transform="translate(-9.69 -41.76)"/><path class="cls-19" d="M184.79,406.85,215,389.46c.46-.26.86,0,.89.52l0,.34a1.73,1.73,0,0,1-.77,1.48l-30.21,17.39c-.46.26-.85,0-.89-.52l0-.35A1.72,1.72,0,0,1,184.79,406.85Z" transform="translate(-9.69 -41.76)"/><polygon class="cls-34" points="171.24 312.06 183.44 305.08 184.33 319.71 172.13 326.7 171.24 312.06"/><path class="cls-18" d="M182.91,355.33l.27,4.39.38-.22-.08-1.35a2.53,2.53,0,0,1,1.22-2.09l1.8-1,.4,6.53a2.52,2.52,0,0,1-1,2.2l-1.13.65,0,.47,6.1-3.49,0-.47-1.13.65c-.63.36-1.18-.05-1.23-.91l-.4-6.53,1.81-1c.71-.41,1.33-.14,1.38.6l.08,1.35.38-.22-.27-4.39Z" transform="translate(-9.69 -41.76)"/><path class="cls-17" d="M195.77,430.15a2.33,2.33,0,0,1-1-1.69l-4.08-66.95a1.94,1.94,0,0,1,.87-1.67l41.67-23.92a2.07,2.07,0,0,1,1.89,0,2.34,2.34,0,0,1,1,1.68l4.08,66.95a2,2,0,0,1-.88,1.67l-41.67,23.92A2.08,2.08,0,0,1,195.77,430.15Z" transform="translate(-9.69 -41.76)"/><path class="cls-18" d="M197.24,430c-.3,0-.34-.36-.35-.48l-4.08-66.95a1.71,1.71,0,0,1,.75-1.44l41.67-23.92a.67.67,0,0,1,.29-.08c.3,0,.34.36.35.47l4.08,67a1.71,1.71,0,0,1-.75,1.44L197.53,430A.67.67,0,0,1,197.24,430Z" transform="translate(-9.69 -41.76)"/><path class="cls-22" d="M235.52,337.4c.06,0,.09.15.1.25l4.08,67a1.43,1.43,0,0,1-.62,1.21l-41.67,23.92a.41.41,0,0,1-.17.06c-.06,0-.09-.15-.1-.25l-4.08-67a1.43,1.43,0,0,1,.62-1.21l41.67-23.92a.41.41,0,0,1,.17-.06m0-.49a.83.83,0,0,0-.41.12L193.44,361a2,2,0,0,0-.88,1.67l4.08,66.95c0,.45.27.71.6.71a.83.83,0,0,0,.41-.12l41.67-23.92a2,2,0,0,0,.88-1.67l-4.08-66.95c0-.45-.27-.71-.6-.71Z" transform="translate(-9.69 -41.76)"/><path class="cls-19" d="M197.53,430.22a2,2,0,0,1-1.76-.08,2.29,2.29,0,0,1-1-1.68l-4.08-66.95a1.89,1.89,0,0,1,.23-1l1.89,1.11a1.83,1.83,0,0,0-.23.95l4.08,67C196.68,430.14,197.07,430.41,197.53,430.22Z" transform="translate(-9.69 -41.76)"/><path class="cls-19" d="M214.47,355.5,229.16,347c.46-.26.86,0,.89.52l0,.35a1.7,1.7,0,0,1-.77,1.47l-14.68,8.54c-.46.26-.86,0-.89-.52l0-.35A1.71,1.71,0,0,1,214.47,355.5Z" transform="translate(-9.69 -41.76)"/><path class="cls-19" d="M214.83,361.33l14.69-8.54c.45-.26.85,0,.89.52l0,.35a1.72,1.72,0,0,1-.77,1.47L215,363.67c-.46.26-.86,0-.89-.52l0-.35A1.72,1.72,0,0,1,214.83,361.33Z" transform="translate(-9.69 -41.76)"/><path class="cls-19" d="M215.19,367.16l14.68-8.54c.46-.26.86,0,.89.52l0,.35A1.7,1.7,0,0,1,230,361l-14.68,8.54c-.46.26-.86,0-.89-.52l0-.35A1.71,1.71,0,0,1,215.19,367.16Z" transform="translate(-9.69 -41.76)"/><path class="cls-19" d="M200.37,387.68l30.21-17.4c.46-.26.86,0,.89.53l0,.34a1.7,1.7,0,0,1-.77,1.47L200.51,390c-.46.26-.86,0-.89-.52l0-.34A1.72,1.72,0,0,1,200.37,387.68Z" transform="translate(-9.69 -41.76)"/><path class="cls-19" d="M200,381.84l30.22-17.39c.45-.26.85,0,.89.52l0,.35a1.72,1.72,0,0,1-.77,1.47l-30.21,17.39c-.46.26-.86,0-.89-.52l0-.34A1.74,1.74,0,0,1,200,381.84Z" transform="translate(-9.69 -41.76)"/><path class="cls-19" d="M200.73,393.55l30.21-17.39c.46-.26.86,0,.89.52l0,.34a1.72,1.72,0,0,1-.77,1.47l-30.21,17.39c-.46.27-.86,0-.89-.52l0-.34A1.7,1.7,0,0,1,200.73,393.55Z" transform="translate(-9.69 -41.76)"/><path class="cls-19" d="M201.08,399.38,231.29,382c.46-.26.86,0,.9.52l0,.34a1.72,1.72,0,0,1-.77,1.47l-30.22,17.39c-.45.27-.85,0-.89-.52l0-.34A1.72,1.72,0,0,1,201.08,399.38Z" transform="translate(-9.69 -41.76)"/><path class="cls-19" d="M201.44,405.21l30.21-17.39c.46-.26.86,0,.89.52l0,.34a1.72,1.72,0,0,1-.77,1.47l-30.21,17.39c-.46.27-.86,0-.89-.52l0-.34A1.72,1.72,0,0,1,201.44,405.21Z" transform="translate(-9.69 -41.76)"/><path class="cls-19" d="M201.79,411,232,393.65c.45-.26.85,0,.89.52l0,.34a1.72,1.72,0,0,1-.77,1.47l-30.22,17.39c-.45.27-.85,0-.89-.52l0-.34A1.74,1.74,0,0,1,201.79,411Z" transform="translate(-9.69 -41.76)"/><path class="cls-19" d="M202.15,416.87l30.21-17.39c.46-.26.86,0,.89.52l0,.34a1.7,1.7,0,0,1-.77,1.47L202.29,419.2c-.46.27-.86,0-.89-.52l0-.34A1.72,1.72,0,0,1,202.15,416.87Z" transform="translate(-9.69 -41.76)"/><polygon class="cls-34" points="188.6 322.08 200.8 315.09 201.69 329.73 189.49 336.71 188.6 322.08"/><path class="cls-18" d="M200.27,365.35l.27,4.39.38-.22-.08-1.35a2.5,2.5,0,0,1,1.22-2.09l1.8-1,.4,6.52a2.54,2.54,0,0,1-1,2.21l-1.13.65,0,.47,6.1-3.49,0-.47-1.13.65c-.63.36-1.18,0-1.23-.91l-.4-6.53,1.8-1c.72-.41,1.34-.14,1.39.6l.08,1.34.38-.21-.27-4.39Z" transform="translate(-9.69 -41.76)"/><path class="cls-17" d="M213.08,440.16a2.35,2.35,0,0,1-1-1.69l-4.08-67a1.94,1.94,0,0,1,.87-1.67l41.67-23.92a2.07,2.07,0,0,1,1.89,0,2.34,2.34,0,0,1,1,1.68l4.08,66.95a2,2,0,0,1-.88,1.67L215,440.17A2.1,2.1,0,0,1,213.08,440.16Z" transform="translate(-9.69 -41.76)"/><path class="cls-18" d="M214.56,440c-.3,0-.34-.36-.35-.48l-4.08-66.95a1.71,1.71,0,0,1,.75-1.44l41.67-23.92a.69.69,0,0,1,.29-.09c.29,0,.34.37.35.48l4.08,67a1.71,1.71,0,0,1-.75,1.44L214.85,440a.57.57,0,0,1-.29.09Z" transform="translate(-9.69 -41.76)"/><path class="cls-22" d="M252.84,347.41c.06,0,.09.15.1.25L257,414.61a1.46,1.46,0,0,1-.62,1.21l-41.67,23.92a.41.41,0,0,1-.17.06c-.06,0-.1-.15-.1-.25l-4.08-67a1.43,1.43,0,0,1,.62-1.2l41.67-23.92a.41.41,0,0,1,.17-.06m0-.49a.9.9,0,0,0-.42.12L210.76,371a1.94,1.94,0,0,0-.88,1.67L214,439.58c0,.45.27.71.6.71a.83.83,0,0,0,.41-.12l41.67-23.92a2,2,0,0,0,.88-1.67l-4.08-66.95c0-.45-.28-.71-.6-.71Z" transform="translate(-9.69 -41.76)"/><path class="cls-19" d="M214.85,440.23a2.07,2.07,0,0,1-1.77-.08,2.33,2.33,0,0,1-1-1.68l-4.08-67a2,2,0,0,1,.22-1l1.9,1.11a1.83,1.83,0,0,0-.23.95l4.08,67C214,440.15,214.39,440.42,214.85,440.23Z" transform="translate(-9.69 -41.76)"/><path class="cls-19" d="M231.79,365.51,246.48,357c.46-.26.86,0,.89.52l0,.35a1.72,1.72,0,0,1-.77,1.47l-14.68,8.54c-.46.26-.86,0-.9-.52l0-.35A1.74,1.74,0,0,1,231.79,365.51Z" transform="translate(-9.69 -41.76)"/><path class="cls-19" d="M232.15,371.34l14.68-8.54c.46-.26.86,0,.9.52l0,.35a1.72,1.72,0,0,1-.77,1.47l-14.69,8.54c-.46.26-.86,0-.89-.52l0-.35A1.72,1.72,0,0,1,232.15,371.34Z" transform="translate(-9.69 -41.76)"/><path class="cls-19" d="M232.5,377.17l14.69-8.54c.46-.26.86,0,.89.52l0,.35a1.7,1.7,0,0,1-.77,1.47l-14.68,8.54c-.46.26-.86,0-.89-.52l0-.35A1.76,1.76,0,0,1,232.5,377.17Z" transform="translate(-9.69 -41.76)"/><path class="cls-19" d="M217.69,397.68l30.21-17.39c.46-.26.86,0,.89.52l0,.35a1.7,1.7,0,0,1-.77,1.47L217.83,400c-.46.26-.86,0-.89-.52l0-.34A1.75,1.75,0,0,1,217.69,397.68Z" transform="translate(-9.69 -41.76)"/><path class="cls-19" d="M217.33,391.85l30.22-17.39c.45-.26.85,0,.89.52l0,.35a1.72,1.72,0,0,1-.77,1.47l-30.21,17.39c-.46.26-.86,0-.9-.52l0-.34A1.78,1.78,0,0,1,217.33,391.85Z" transform="translate(-9.69 -41.76)"/><path class="cls-19" d="M218.05,403.56l30.21-17.39c.46-.27.86,0,.89.52l0,.34a1.72,1.72,0,0,1-.77,1.47l-30.21,17.39c-.46.27-.86,0-.89-.52l0-.34A1.7,1.7,0,0,1,218.05,403.56Z" transform="translate(-9.69 -41.76)"/><path class="cls-19" d="M218.4,409.39,248.61,392c.46-.26.86,0,.89.52l0,.34a1.71,1.71,0,0,1-.76,1.47l-30.22,17.39c-.45.27-.85,0-.89-.52l0-.34A1.72,1.72,0,0,1,218.4,409.39Z" transform="translate(-9.69 -41.76)"/><path class="cls-19" d="M218.76,415.22,249,397.83c.46-.26.86,0,.89.52l0,.34a1.72,1.72,0,0,1-.77,1.47L218.9,417.55c-.46.27-.86,0-.89-.52l0-.34A1.7,1.7,0,0,1,218.76,415.22Z" transform="translate(-9.69 -41.76)"/><path class="cls-19" d="M219.11,421.05l30.21-17.39c.46-.26.86,0,.89.52l0,.34a1.74,1.74,0,0,1-.77,1.47l-30.22,17.39c-.45.27-.85,0-.89-.52l0-.34A1.72,1.72,0,0,1,219.11,421.05Z" transform="translate(-9.69 -41.76)"/><path class="cls-19" d="M219.47,426.88l30.21-17.39c.46-.26.86,0,.89.52l0,.34a1.72,1.72,0,0,1-.77,1.47l-30.21,17.39c-.46.27-.86,0-.89-.52l0-.34A1.7,1.7,0,0,1,219.47,426.88Z" transform="translate(-9.69 -41.76)"/><polygon class="cls-34" points="205.92 332.09 218.12 325.1 219.01 339.74 206.81 346.73 205.92 332.09"/><path class="cls-18" d="M217.59,375.36l.27,4.39.38-.23-.08-1.34a2.5,2.5,0,0,1,1.22-2.09l1.8-1,.4,6.52a2.54,2.54,0,0,1-1,2.21l-1.13.65,0,.47,6.1-3.49,0-.47-1.14.65c-.62.36-1.17-.05-1.22-.91l-.4-6.53,1.8-1c.72-.41,1.34-.14,1.38.6l.09,1.34.38-.21-.27-4.39Z" transform="translate(-9.69 -41.76)"/><polygon class="cls-10" points="211.87 373.47 211.87 411.51 157.14 379.84 157.14 341.8 211.87 373.47"/><polygon class="cls-35" points="211.87 373.47 211.87 411.51 157.14 379.84 157.14 341.8 211.87 373.47"/><polygon class="cls-8" points="260.48 383.45 260.48 345.41 211.87 373.47 211.87 411.51 260.48 383.45"/><polygon class="cls-32" points="260.48 383.45 260.48 345.41 211.87 373.47 211.87 411.51 260.48 383.45"/><polygon class="cls-36" points="260.48 345.41 211.87 373.47 211.87 411.51 212.78 374.24 260.48 345.41"/><polygon class="cls-8" points="211.87 373.47 216.43 355.05 264.59 327.24 260.48 345.41 211.87 373.47"/><polygon class="cls-24" points="211.87 373.47 216.43 355.05 264.59 327.24 260.48 345.41 211.87 373.47"/><polygon class="cls-10" points="157.14 341.8 145.7 326.01 200.44 357.68 211.87 373.47 157.14 341.8"/><polygon class="cls-37" points="157.14 341.8 145.7 326.01 200.44 357.68 211.87 373.47 157.14 341.8"/><polygon class="cls-36" points="145.7 326.01 200.44 357.68 211.87 373.47 199.83 358.24 145.7 326.01"/><g class="cls-38"><path class="cls-7" d="M235.87,442a.3.3,0,0,1-.3-.3V435a.3.3,0,0,1,.3-.3.31.31,0,0,1,.3.3v6.7A.31.31,0,0,1,235.87,442Z" transform="translate(-9.69 -41.76)"/><path class="cls-7" d="M235,437.28l-.11,0a.3.3,0,0,1-.16-.4l1.06-2.45,1.19,1.37a.3.3,0,0,1,0,.42.29.29,0,0,1-.42,0l-.57-.65-.68,1.58A.31.31,0,0,1,235,437.28Z" transform="translate(-9.69 -41.76)"/><path class="cls-7" d="M238.63,440.38a.3.3,0,0,1-.3-.3v-6.69a.31.31,0,0,1,.3-.3.3.3,0,0,1,.3.3v6.69A.29.29,0,0,1,238.63,440.38Z" transform="translate(-9.69 -41.76)"/><path class="cls-7" d="M237.76,435.71l-.12,0a.3.3,0,0,1-.16-.39l1.07-2.45,1.18,1.36a.29.29,0,0,1,0,.42.3.3,0,0,1-.42,0l-.56-.66-.69,1.59A.3.3,0,0,1,237.76,435.71Z" transform="translate(-9.69 -41.76)"/></g><g class="cls-38"><path class="cls-7" d="M227.9,446.5a.62.62,0,0,1-.32-.09.77.77,0,0,1-.36-.71v-.82a.29.29,0,0,1,.3-.3.3.3,0,0,1,.3.3v.82a.3.3,0,0,0,.05.2.29.29,0,0,0,.2-.06,1.74,1.74,0,0,0,.55-1.35v-3.42a.3.3,0,0,1,.3-.3.29.29,0,0,1,.3.3v3.42a2.26,2.26,0,0,1-.85,1.87A.94.94,0,0,1,227.9,446.5Z" transform="translate(-9.69 -41.76)"/><path class="cls-7" d="M224.76,443.74v-.52a8.46,8.46,0,0,1,3.82-6.62A2.53,2.53,0,0,1,232.7,439v.18Zm5.61-7.08a3,3,0,0,0-1.49.46,7.89,7.89,0,0,0-3.5,5.57l6.72-3.88a2.23,2.23,0,0,0-.93-1.95A1.64,1.64,0,0,0,230.37,436.66Z" transform="translate(-9.69 -41.76)"/></g></g><g id="Character-2" data-name="Character"><g id="pencil"><path class="cls-39" d="M354.2,272.21l-23.95,6.91-4.78,1.38h0a1.3,1.3,0,0,1-1.53-.69,1.26,1.26,0,0,1,.09-1.33l0,0,3.31-4.48,14.56-19.72,4.93,7.21Z" transform="translate(-9.69 -41.76)"/><path class="cls-40" d="M346.85,261.46,327.6,276.88l-3.67,2.93a1.26,1.26,0,0,1,.09-1.33l0,0,3.31-4.48,14.56-19.72Z" transform="translate(-9.69 -41.76)"/><path class="cls-29" d="M330.25,279.12l-4.78,1.38h0a1.3,1.3,0,0,1-1.53-.69,1.26,1.26,0,0,1,.09-1.33l0,0,3.31-4.48a5.18,5.18,0,0,0,.24,2.91A4.13,4.13,0,0,0,330.25,279.12Z" transform="translate(-9.69 -41.76)"/><path class="cls-9" d="M449.26,179.55l-2.35,1.64-2.85,2L341.92,254.24a13.9,13.9,0,0,0,1.72,10c2.57,4.63,7.08,8.06,10.56,8l101.38-70.57,5.43-3.78C457.36,200.11,445.63,181.86,449.26,179.55Z" transform="translate(-9.69 -41.76)"/><path class="cls-10" d="M449.26,179.55l-2.35,1.64-2.85,2L341.92,254.24a13.9,13.9,0,0,0,1.72,10c2.57,4.63,7.08,8.06,10.56,8l101.38-70.57,5.43-3.78C457.36,200.11,445.63,181.86,449.26,179.55Z" transform="translate(-9.69 -41.76)"/><path class="cls-8" d="M446.91,181.19l-2.85,2L341.92,254.24a13.9,13.9,0,0,0,1.72,10l105.09-74.05Z" transform="translate(-9.69 -41.76)"/><path class="cls-19" d="M440.28,185.76,435,189.43c-1.56,1-.27,4.94,2,8.93,3,5.3,7.75,10.68,9.82,9.34l3.86-2.71,1.39-1c-2.07,1.34-6.82-4.05-9.83-9.35-2.18-3.82-3.44-7.61-2.15-8.78h0A.33.33,0,0,1,440.28,185.76Z" transform="translate(-9.69 -41.76)"/><path class="cls-18" d="M442.27,194.67c-2.18-3.82-3.44-7.61-2.15-8.78h0a.33.33,0,0,1,.14-.12L435,189.43c-1.56,1-.27,4.94,2,8.93l5.24-3.69Z" transform="translate(-9.69 -41.76)"/><path class="cls-41" d="M439,186.69c-3.62,2.35,8.2,20.61,11.83,18.26l5.27-3.65c-3.63,2.34-15.45-15.92-11.83-18.26Z" transform="translate(-9.69 -41.76)"/><path class="cls-19" d="M449.26,179.55l-5.2,3.61c-3.58,2.28,7.67,20,11.52,18.47a.72.72,0,0,0,.22-.1l5.21-3.68C457.36,200.11,445.63,181.86,449.26,179.55Z" transform="translate(-9.69 -41.76)"/><path class="cls-21" d="M471.33,164.23l-22.07,15.32c-1.55,1-.3,4.88,1.93,8.85,3,5.31,7.73,10.75,9.82,9.45h0l21.23-14.74c5.23-3,.86-13.88-4.7-17.92C475.5,163.65,473.29,163.09,471.33,164.23Z" transform="translate(-9.69 -41.76)"/><path class="cls-42" d="M471.33,164.23l-22.07,15.32c-1.55,1-.3,4.88,1.93,8.85l22.26-14.73s-2.79-5.5-1.66-7.74,3.36-2.09,5.78-.75C475.5,163.65,473.29,163.09,471.33,164.23Z" transform="translate(-9.69 -41.76)"/><path class="cls-43" d="M444.24,183,439,186.69c-1.55,1-.26,4.93,2,8.9l5.25-3.69C444,187.94,442.7,184,444.24,183Z" transform="translate(-9.69 -41.76)"/><path class="cls-18" d="M449.26,179.55l-5.2,3.61c-1.56,1-.3,4.91,1.92,8.9l5.21-3.66C449,184.43,447.71,180.54,449.26,179.55Z" transform="translate(-9.69 -41.76)"/></g><g id="character-3" data-name="character"><path class="cls-9" d="M437.06,218.17c-1.05-3.15-2.63-4.32-4.16-4.61a32.74,32.74,0,0,0-5.64,0c-.34,1.75-6,3-11.06,1.19l-5.1.8c-4.5,2.08-5.52,7.27-7.91,12.58a8.63,8.63,0,0,0,2.44,10.56s-.44,6.38-.68,10q-.51,8-1.11,16s5,4.57,20.48,4c11.33-.42,15.38-4.21,16-5.94-.61-7.12-4.19-13.83-4.88-16a13.36,13.36,0,0,1-.68-6.84C437.54,229.15,438.51,222.55,437.06,218.17Z" transform="translate(-9.69 -41.76)"/><g id="character-4" data-name="character"><path class="cls-9" d="M464.48,355.52c.89.35.66,2.81.09,5.17s-.87,3.19-.58,5.16.45,2.85-.35,3.57-7.19,3.7-7.19,3.7a23.46,23.46,0,0,0,1.43-7.39c.17-4.36.46-7.17,2.48-9.15A3.85,3.85,0,0,1,464.48,355.52Z" transform="translate(-9.69 -41.76)"/><path class="cls-29" d="M386,372.35c-.4,0-.39,1.14-.27,1.65s1.69,2.25,4.55,2.94,6.85.27,8.56.26,4.63.9,6.32,1.2,4.77-.18,5.81-1.1a1.79,1.79,0,0,0,.46-1.4c0-1.13-.09-1.36-.22-1.36Z" transform="translate(-9.69 -41.76)"/><path class="cls-13" d="M410.94,371.16c.05.23.09.45.12.68a11.29,11.29,0,0,1,.1,3.48,3.14,3.14,0,0,1-2.12,1.47,10.59,10.59,0,0,1-5.79-.13,17,17,0,0,0-4.38-.6,42.21,42.21,0,0,1-5.95,0,14.33,14.33,0,0,1-4.33-1.07,5.46,5.46,0,0,1-2.56-2.47,4,4,0,0,1,2.38-3.87,8.9,8.9,0,0,1,4.45-.77c1.67.07,2.91.34,4.39.29a7.16,7.16,0,0,0,3-.6,2.89,2.89,0,0,0,1-1.27c.25-.52.36-1,.83-1,0,0,7,.12,7.67.21s.84,2.92.92,3.47.06.89.15,1.31S410.89,370.88,410.94,371.16Z" transform="translate(-9.69 -41.76)"/><path class="cls-18" d="M396,367.88a1.14,1.14,0,0,0-.36-.15c-.67-.13-1.21.52-1.52,1a4.33,4.33,0,0,0-.39,1,2.34,2.34,0,0,0-.07,1.31c0,.11.11.24.22.22s.13-.15.15-.25a5.13,5.13,0,0,1,.57-1.76,2.11,2.11,0,0,1,.44-.63,1.84,1.84,0,0,1,.69-.4c.1,0,.55,0,.45-.22l-.09-.09Z" transform="translate(-9.69 -41.76)"/><path class="cls-18" d="M397.93,368a1.25,1.25,0,0,0-.9.22,1.82,1.82,0,0,0-.57.87,2.81,2.81,0,0,0-.13,2.27c.12.21.3.1.38-.08a3.19,3.19,0,0,0,.1-.7,6.4,6.4,0,0,1,.48-1.48,2.19,2.19,0,0,1,.3-.54.91.91,0,0,1,.31-.27,1,1,0,0,1,.18-.07l.19,0c0-.09-.1-.15-.2-.17Z" transform="translate(-9.69 -41.76)"/><path class="cls-18" d="M399.92,367.46a1.22,1.22,0,0,0-.59.37,1.81,1.81,0,0,0-.29.59,6.65,6.65,0,0,0-.32,1.47,1.79,1.79,0,0,0,.21,1c.07.12.21.25.34.19s.13-.28.15-.41,0-.48,0-.71a4.12,4.12,0,0,1,.89-2.4s.06-.08.05-.12-.11-.07-.17-.06Z" transform="translate(-9.69 -41.76)"/><path class="cls-18" d="M393.9,368c-.69,0-2.17.85-2.94,2.94a11.91,11.91,0,0,0-.47,4.75,6.79,6.79,0,0,1-3.76-1.93,4,4,0,0,1-.91-1.24,4.19,4.19,0,0,1,.82-3.19,6.53,6.53,0,0,1,5-1.94c2.74-.05,2.95.68,2.95.68Z" transform="translate(-9.69 -41.76)"/><path class="cls-40" d="M410.06,360.84s-.22,3.58-.5,5.24c-.16.94-1.07,2.38-4,2.32a3.36,3.36,0,0,1-3.42-2.24,60.14,60.14,0,0,1-.16-6.55Z" transform="translate(-9.69 -41.76)"/><path class="cls-40" d="M459.25,352l-4.33-10.76-9.43,3.23s6.58,9.5,7.36,10.54C454.14,356.75,459.25,352,459.25,352Z" transform="translate(-9.69 -41.76)"/><path class="cls-13" d="M463.53,355a5.65,5.65,0,0,1,0,1.3c-.12,1.5-.23,3-.34,4.51a11.43,11.43,0,0,1-.25,1.77,11.76,11.76,0,0,0-.08,2.14c0,.75,0,1.5-.05,2.25a4.4,4.4,0,0,0,0,1c.08.31-4.74,3.07-6.69,4.13a1.89,1.89,0,0,1-.35.17,3.06,3.06,0,0,1-3.16-.74,5.37,5.37,0,0,1,1.31-5.9s.25,0,.2-1.89c0-1.35,0-2.73-.14-4.08a8.84,8.84,0,0,0-.65-2.47,6,6,0,0,1-.82-2.29,3.36,3.36,0,0,1,.76-1.59,4.91,4.91,0,0,1,1.17-1.28,8.59,8.59,0,0,1,3.41-1.68,1.55,1.55,0,0,1,.77,0c.38.12.61.5.87.82a8.78,8.78,0,0,0,2.18,1.62,3.89,3.89,0,0,1,1.78,2C463.49,354.83,463.52,354.93,463.53,355Z" transform="translate(-9.69 -41.76)"/><path class="cls-18" d="M453.94,365.62a5.86,5.86,0,0,0-.62.91h0a6.79,6.79,0,0,0-.68,5c-3.4-.31-4.29-2.27-4.29-2.27a3.27,3.27,0,0,1,1.76-2.93,4.82,4.82,0,0,1,.74-.39l0,0A5,5,0,0,1,453.94,365.62Z" transform="translate(-9.69 -41.76)"/><path class="cls-44" d="M464.48,355.52c.89.35.66,2.81.09,5.17s-.87,3.19-.58,5.16.45,2.85-.35,3.57-7.19,3.7-7.19,3.7a23.46,23.46,0,0,0,1.43-7.39c.17-4.36.46-7.17,2.48-9.15A3.85,3.85,0,0,1,464.48,355.52Z" transform="translate(-9.69 -41.76)"/><path class="cls-29" d="M448.33,369.25a11.88,11.88,0,0,0,5.33,2.32c2.85.32,3-.77,3.29-4.14s.42-8.05,1.74-10.1,3.57-3,4.45-2.76c.18-.09,1.05.56,1.34.95a4.88,4.88,0,0,0-3.73,1.5c-1.78,1.74-2.11,5.41-2.19,8.74s-.23,7.21-2.88,7.61a9.66,9.66,0,0,1-7.25-2.2A1.35,1.35,0,0,1,448.33,369.25Z" transform="translate(-9.69 -41.76)"/><path class="cls-18" d="M454.15,364.38a.93.93,0,0,0-.4.62,1.91,1.91,0,0,0,1,1.75c.36.2.66.12.09-.58A3.63,3.63,0,0,1,454.15,364.38Z" transform="translate(-9.69 -41.76)"/><path class="cls-18" d="M454.09,362a.77.77,0,0,0-.24.51,2.9,2.9,0,0,0,1.17,1.84c.62.28.29-.41,0-.73A12.27,12.27,0,0,1,454.09,362Z" transform="translate(-9.69 -41.76)"/><path class="cls-18" d="M453.93,359.44a.59.59,0,0,0-.29.42c0,.27,1.27,1.24,1.67,1.2s.5-.16,0-.49S453.93,359.44,453.93,359.44Z" transform="translate(-9.69 -41.76)"/><path class="cls-13" d="M448.52,349.43s-20.6-30.73-21.22-33.14-4.53-27.5-4.53-27.5l-8.06,29.56a48.49,48.49,0,0,1,.73,8.31,73.85,73.85,0,0,1-1.64,14.52c-2.15,10.15-3.37,19.88-3.37,19.88a8.13,8.13,0,0,1-4.41,1,9.29,9.29,0,0,1-4.31-1.23s-1.12-27.46-1.44-33.76-.52-9.11-.17-13.26c.48-5.65.74-11.51,1.83-23.74.95-10.74,2.9-33.6,2.9-33.6l33.09-2.19s2.79,5.28,3.12,19c.26,10.71.25,40.1.25,40.1,4.91,3.08,6.41,6.28,8.75,12.3,1.48,3.8,5.29,15.61,6.41,19.1C452.31,345.88,448.52,349.43,448.52,349.43Z" transform="translate(-9.69 -41.76)"/><polygon class="cls-40" points="406.04 168 407.16 180.21 418.07 179.57 417.25 166.04 406.04 168"/><path class="cls-39" d="M407.69,196.34s-2.42,3.58-2.11,4a5.81,5.81,0,0,0,1.85.79Z" transform="translate(-9.69 -41.76)"/><path class="cls-25" d="M434.13,187.33c-.34-.32-.71-.61-1-1a3.56,3.56,0,0,1-.39-.48c-.78-1.16-1.09-2.48-2-3.56a9.15,9.15,0,0,0-3.46-2.4,18.4,18.4,0,0,0-7.49-1,58.42,58.42,0,0,1-7.6,0,6.72,6.72,0,0,0-3.4.12,3.54,3.54,0,0,0-1.92,3.41,6.13,6.13,0,0,0,1.72,3.69,2.3,2.3,0,0,0-1.61,2.42,5.11,5.11,0,0,0,1.35,2.81c1.17,1.42,2.07,2.4,2.42,4.25.47,2.53,3.21,3.88,4.94,5.68a25.69,25.69,0,0,1,1.87,2l.11.15a3.27,3.27,0,0,1-1.54-.13s-.32,5.41,3.5,7.17a15.78,15.78,0,0,0,7.53-.4,27.14,27.14,0,0,0,6.71-7.73C436.39,198.16,438.33,191.27,434.13,187.33Z" transform="translate(-9.69 -41.76)"/><path class="cls-40" d="M419.55,202.34a2.86,2.86,0,0,1-2,1.19,3.13,3.13,0,0,1-1.54-.13s-.24,4.1,2.22,6.31c-.51.2-1,.36-1.36.48-2.19.65-6.41.35-7.22-.42-1.21-1.15-3.18-4.18-2.07-12.91a17.88,17.88,0,0,1,2.58-7.74,3.76,3.76,0,0,0,2.16,2.86,3.61,3.61,0,0,0-.6,3,7.19,7.19,0,0,0,2.13,3.11.41.41,0,0,0,.19.13c.13.05.69,0,.77-.11.78-1.13,1.85-2.45,3.94-1.75C421.21,197.19,421.07,200.14,419.55,202.34Z" transform="translate(-9.69 -41.76)"/><path class="cls-39" d="M409.91,209.93c1,.55,3.79.78,5.88.49l-.06-1.57a15.81,15.81,0,0,1-2.78.89A10.09,10.09,0,0,1,409.91,209.93Z" transform="translate(-9.69 -41.76)"/><path class="cls-25" d="M413.71,201.2a2,2,0,0,1-1.23-2.6,2.07,2.07,0,0,1,2.65-1.21Z" transform="translate(-9.69 -41.76)"/><path class="cls-20" d="M422.74,288.9l2.8-12s4.77.34,10.63-4.35c0,0-.68,4.19-8.95,6.14l-2.74,11.76.86,14.57S422.78,289.17,422.74,288.9Z" transform="translate(-9.69 -41.76)"/><path class="cls-11" d="M437.06,218.17c-1.05-3.15-2.63-4.32-4.16-4.61a32.74,32.74,0,0,0-5.64,0c-.34,1.75-6,3-11.06,1.19l-5.1.8c-4.5,2.08-5.52,7.27-7.91,12.58a8.63,8.63,0,0,0,2.44,10.56s-.44,6.38-.68,10q-.51,8-1.11,16s5,4.57,20.48,4c11.33-.42,15.38-4.21,16-5.94-.61-7.12-4.19-13.83-4.88-16a13.36,13.36,0,0,1-.68-6.84C437.54,229.15,438.51,222.55,437.06,218.17Z" transform="translate(-9.69 -41.76)"/><path class="cls-40" d="M413,215.35c-8.77.47-9.34,2.4-13.36,10.57-2.12,4.32-5.47,13-7.48,17.18-4.42,2-14.62,3.64-18.64,2.77a3.27,3.27,0,0,1-2-1.26c-1.28-1.8-2.54-2.06-4.09-3.35-1.2-1-1.55-1.9-1.9-1.73a1.78,1.78,0,0,0-.65,2.33,9,9,0,0,0,1.36,2.13,18.34,18.34,0,0,1-4.49-2.38c-3.32-2.35-5.26-2.33-4.95,2.85.19,3.24,2.37,5.7,9.68,7.65a57.2,57.2,0,0,0,8.18,1.74,78,78,0,0,0,20.95-1.34,7.69,7.69,0,0,0,3.89-2.42c2.81-2.9,9.27-15.63,9.27-15.63C413.73,226.74,414.15,219.7,413,215.35Z" transform="translate(-9.69 -41.76)"/></g></g></g><g id="Speech_Bubble" data-name="Speech Bubble"><path class="cls-9" d="M417.71,154.38a.7.7,0,0,1-.27-.27l-3.4-5.88V145l10-3.91v3.24l-1.21,3.5,5.94-3.43.36,2L425.59,158a.74.74,0,0,1-1.07.4Z" transform="translate(-9.69 -41.76)"/><path class="cls-10" d="M417.71,154.38a.7.7,0,0,1-.27-.27l-3.4-5.88V145l10-3.91v3.24l-1.21,3.5,5.94-3.43.36,2L425.59,158a.74.74,0,0,1-1.07.4Z" transform="translate(-9.69 -41.76)"/><path class="cls-9" d="M428.77,144.39l.36,2L425.6,158a.75.75,0,0,1-1.35.13l-3.84-6.65.45-2.47Z" transform="translate(-9.69 -41.76)"/><path class="cls-8" d="M428.77,144.39l.36,2L425.6,158a.75.75,0,0,1-1.35.13l-3.84-6.65.45-2.47Z" transform="translate(-9.69 -41.76)"/><path class="cls-9" d="M441.16,110.92a7.16,7.16,0,0,0-3.23-5.6h0a7.16,7.16,0,0,0-6.47,0l-30.33,17.39a7.14,7.14,0,0,0-3.24,5.6v25a7.15,7.15,0,0,0,3.24,5.61h0a7.1,7.1,0,0,0,6.47,0l30.63-17.6c2.91-1.66,2.93-3.32,2.93-5.39Z" transform="translate(-9.69 -41.76)"/><path class="cls-8" d="M441.16,110.92a7.16,7.16,0,0,0-3.23-5.6h0a7.16,7.16,0,0,0-6.47,0l-30.33,17.39a7.14,7.14,0,0,0-3.24,5.6v25a7.15,7.15,0,0,0,3.24,5.61h0a7.1,7.1,0,0,0,6.47,0l30.63-17.6c2.91-1.66,2.93-3.32,2.93-5.39Z" transform="translate(-9.69 -41.76)"/><path class="cls-12" d="M397.89,153.28a7.15,7.15,0,0,0,3.24,5.61h0a7.22,7.22,0,0,0,5.92.28c-1.52.57-2.68-.3-2.68-2.14v-25a6.63,6.63,0,0,1,.94-3.19l-6.47-3.74a6.71,6.71,0,0,0-.95,3.19Z" transform="translate(-9.69 -41.76)"/><path class="cls-11" d="M441.06,110c-.38-1.37-1.63-1.81-3.13-1L407.6,126.44a6.43,6.43,0,0,0-2.28,2.42l-6.47-3.73a6.58,6.58,0,0,1,2.28-2.42l30.32-17.39a7.24,7.24,0,0,1,6.48,0h0A7.15,7.15,0,0,1,441.06,110Z" transform="translate(-9.69 -41.76)"/><path class="cls-18" d="M429.24,130.87c0,1.53,1.08,2.15,2.4,1.38a5.3,5.3,0,0,0,2.4-4.15c0-1.53-1.08-2.15-2.4-1.38A5.3,5.3,0,0,0,429.24,130.87Z" transform="translate(-9.69 -41.76)"/><path class="cls-18" d="M420.37,136c0,1.53,1.07,2.15,2.39,1.39a5.3,5.3,0,0,0,2.4-4.15c0-1.53-1.07-2.15-2.4-1.39A5.32,5.32,0,0,0,420.37,136Z" transform="translate(-9.69 -41.76)"/><path class="cls-18" d="M411.49,141.12c0,1.53,1.08,2.15,2.4,1.38a5.3,5.3,0,0,0,2.4-4.15c0-1.53-1.08-2.15-2.4-1.38A5.3,5.3,0,0,0,411.49,141.12Z" transform="translate(-9.69 -41.76)"/></g></svg>