<svg id="Illustration" xmlns="http://www.w3.org/2000/svg" xmlns:xlink="http://www.w3.org/1999/xlink" viewBox="0 0 2223.11 1474.97"><defs><style>.cls-1{fill:url(#linear-gradient);}.cls-2{fill:#91b3fa;}.cls-3{fill:url(#linear-gradient-2);}.cls-4{fill:#bdd0fb;}.cls-5{fill:url(#linear-gradient-3);}.cls-6{fill:url(#linear-gradient-4);}.cls-7{fill:url(#linear-gradient-5);}.cls-8{fill:url(#linear-gradient-6);}.cls-9{fill:url(#linear-gradient-7);}.cls-10{fill:#7d97f4;}.cls-11{fill:url(#linear-gradient-8);}.cls-12{fill:url(#linear-gradient-9);}.cls-13{fill:url(#linear-gradient-10);}.cls-14{fill:url(#linear-gradient-11);}.cls-15{fill:url(#linear-gradient-12);}.cls-16{fill:url(#linear-gradient-13);}.cls-17{fill:url(#linear-gradient-14);}.cls-18{fill:url(#linear-gradient-15);}.cls-19{fill:url(#linear-gradient-16);}.cls-20{fill:url(#linear-gradient-17);}.cls-21{fill:url(#linear-gradient-18);}.cls-22{fill:url(#linear-gradient-19);}.cls-23{fill:url(#linear-gradient-20);}.cls-24{fill:url(#linear-gradient-21);}.cls-25{fill:url(#linear-gradient-22);}.cls-26{fill:url(#linear-gradient-23);}.cls-27{fill:url(#linear-gradient-24);}.cls-28{fill:url(#linear-gradient-25);}.cls-29{fill:url(#linear-gradient-26);}.cls-30{fill:url(#linear-gradient-27);}.cls-31{fill:url(#linear-gradient-28);}.cls-32{fill:url(#linear-gradient-29);}.cls-33,.cls-45,.cls-87{fill:#fff;}.cls-33{opacity:0.7;}.cls-34{fill:url(#linear-gradient-30);}.cls-35{fill:url(#linear-gradient-31);}.cls-36{fill:url(#linear-gradient-32);}.cls-37{fill:url(#linear-gradient-33);}.cls-38{fill:url(#linear-gradient-34);}.cls-39{fill:url(#linear-gradient-35);}.cls-40{fill:url(#linear-gradient-36);}.cls-41{fill:url(#linear-gradient-37);}.cls-42{fill:url(#linear-gradient-38);}.cls-43{fill:url(#linear-gradient-39);}.cls-44{fill:url(#linear-gradient-40);}.cls-45{opacity:0.69;}.cls-46{fill:url(#linear-gradient-41);}.cls-47{fill:url(#linear-gradient-42);}.cls-48{fill:url(#linear-gradient-43);}.cls-49{fill:url(#linear-gradient-44);}.cls-50{fill:url(#linear-gradient-45);}.cls-51{fill:url(#linear-gradient-46);}.cls-52{fill:url(#linear-gradient-47);}.cls-53{fill:url(#linear-gradient-48);}.cls-54{fill:url(#linear-gradient-49);}.cls-55{fill:url(#linear-gradient-50);}.cls-56{fill:url(#linear-gradient-51);}.cls-57{fill:url(#linear-gradient-52);}.cls-58{fill:url(#linear-gradient-53);}.cls-59{fill:url(#linear-gradient-54);}.cls-60{fill:url(#linear-gradient-55);}.cls-61{fill:url(#linear-gradient-56);}.cls-62{fill:url(#linear-gradient-57);}.cls-63{fill:url(#linear-gradient-58);}.cls-64{fill:url(#linear-gradient-59);}.cls-65{fill:url(#linear-gradient-60);}.cls-66{fill:url(#linear-gradient-61);}.cls-67{fill:url(#linear-gradient-62);}.cls-68{fill:url(#linear-gradient-63);}.cls-69{fill:url(#linear-gradient-64);}.cls-70{fill:url(#linear-gradient-65);}.cls-71{fill:url(#linear-gradient-66);}.cls-72{fill:url(#linear-gradient-67);}.cls-73{fill:url(#linear-gradient-68);}.cls-74{fill:url(#linear-gradient-69);}.cls-75{fill:url(#linear-gradient-70);}.cls-76{fill:url(#linear-gradient-71);}.cls-77{fill:url(#linear-gradient-72);}.cls-78{fill:url(#linear-gradient-73);}.cls-79{fill:url(#linear-gradient-74);}.cls-80{fill:url(#linear-gradient-75);}.cls-81{fill:url(#linear-gradient-76);}.cls-82{fill:url(#linear-gradient-77);}.cls-83{fill:url(#linear-gradient-78);}.cls-84{fill:url(#linear-gradient-79);}.cls-85{fill:url(#linear-gradient-80);}.cls-86{fill:url(#linear-gradient-81);}.cls-88{fill:url(#linear-gradient-82);}.cls-89{fill:url(#linear-gradient-83);}.cls-90{fill:url(#linear-gradient-84);}.cls-91{fill:url(#linear-gradient-85);}.cls-92{fill:url(#linear-gradient-86);}.cls-93{fill:url(#linear-gradient-87);}.cls-94{fill:url(#linear-gradient-88);}.cls-95{fill:url(#linear-gradient-89);}.cls-96{fill:url(#linear-gradient-90);}.cls-97{fill:url(#linear-gradient-91);}.cls-98{fill:url(#linear-gradient-92);}.cls-99{fill:url(#linear-gradient-93);}.cls-100{fill:url(#linear-gradient-94);}.cls-101{fill:url(#linear-gradient-95);}.cls-102{fill:url(#linear-gradient-96);}.cls-103{fill:url(#linear-gradient-97);}.cls-104{fill:url(#linear-gradient-98);}.cls-105{fill:url(#linear-gradient-99);}.cls-106{fill:url(#linear-gradient-100);}.cls-107{fill:url(#linear-gradient-101);}.cls-108{fill:url(#linear-gradient-102);}.cls-109{fill:url(#linear-gradient-103);}.cls-110{fill:url(#linear-gradient-104);}</style><linearGradient id="linear-gradient" x1="987.76" y1="-18.75" x2="1584.91" y2="1673.79" gradientUnits="userSpaceOnUse"><stop offset="0" stop-color="#dae3fe"/><stop offset="1" stop-color="#e9effd"/></linearGradient><linearGradient id="linear-gradient-2" x1="220.5" y1="1120.75" x2="519.53" y2="1120.75" xlink:href="#linear-gradient"/><linearGradient id="linear-gradient-3" x1="1938.82" y1="1211.46" x2="2256.36" y2="1211.46" xlink:href="#linear-gradient"/><linearGradient id="linear-gradient-4" x1="1859.24" y1="1021.6" x2="2157.73" y2="1021.6" xlink:href="#linear-gradient"/><linearGradient id="linear-gradient-5" x1="382.89" y1="857.94" x2="711.1" y2="857.94" xlink:href="#linear-gradient"/><linearGradient id="linear-gradient-6" x1="1259.68" y1="17.92" x2="1200.22" y2="1290.35" gradientUnits="userSpaceOnUse"><stop offset="0" stop-color="#09005d"/><stop offset="1" stop-color="#1a0f91"/></linearGradient><linearGradient id="linear-gradient-7" x1="1956.98" y1="533.92" x2="-1103.64" y2="2163.08" gradientUnits="userSpaceOnUse"><stop offset="0" stop-color="#4042e2"/><stop offset="1" stop-color="#4f52ff"/></linearGradient><linearGradient id="linear-gradient-8" x1="1253.6" y1="520.58" x2="1235.76" y2="1442.2" xlink:href="#linear-gradient-6"/><linearGradient id="linear-gradient-9" x1="590.43" y1="572.43" x2="281.17" y2="164.06" xlink:href="#linear-gradient-6"/><linearGradient id="linear-gradient-10" x1="539.04" y1="236.63" x2="527.14" y2="549.84" xlink:href="#linear-gradient-6"/><linearGradient id="linear-gradient-11" x1="369.55" y1="322.09" x2="226.82" y2="-106.1" xlink:href="#linear-gradient-6"/><linearGradient id="linear-gradient-12" x1="1263.29" y1="1264.36" x2="1077.84" y2="1978.69" gradientTransform="translate(732.69 -94.07)" xlink:href="#linear-gradient-6"/><linearGradient id="linear-gradient-13" x1="1282" y1="1259.21" x2="1090.51" y2="1996.79" gradientTransform="translate(732.69 -94.07)" xlink:href="#linear-gradient-6"/><linearGradient id="linear-gradient-14" x1="1246.34" y1="1259.96" x2="1060.89" y2="1974.29" gradientTransform="translate(732.69 -94.07)" xlink:href="#linear-gradient-6"/><linearGradient id="linear-gradient-15" x1="1941.35" y1="1401.29" x2="2062.27" y2="1527.18" gradientUnits="userSpaceOnUse"><stop offset="0" stop-color="#ff928e"/><stop offset="1" stop-color="#feb3b1"/></linearGradient><linearGradient id="linear-gradient-16" x1="1127.29" y1="1484.87" x2="1114.29" y2="1684.29" gradientTransform="translate(855.49)" xlink:href="#linear-gradient-7"/><linearGradient id="linear-gradient-17" x1="1845.01" y1="1536.22" x2="1958.99" y2="1380.6" xlink:href="#linear-gradient-15"/><linearGradient id="linear-gradient-18" x1="1149.47" y1="1487.68" x2="1182.99" y2="1364.08" gradientTransform="translate(855.49)" xlink:href="#linear-gradient-7"/><linearGradient id="linear-gradient-19" x1="1001.79" y1="1476.69" x2="988.79" y2="1676.1" gradientTransform="translate(855.49)" xlink:href="#linear-gradient-7"/><linearGradient id="linear-gradient-20" x1="-465.08" y1="1020.07" x2="-688.65" y2="1287.94" gradientTransform="matrix(-1, 0, 0, 1, 1500.61, 0)" xlink:href="#linear-gradient-6"/><linearGradient id="linear-gradient-21" x1="1176.56" y1="1162.88" x2="1275.7" y2="1378.67" gradientTransform="translate(855.49)" gradientUnits="userSpaceOnUse"><stop offset="0" stop-color="#fe7062"/><stop offset="1" stop-color="#ff928e"/></linearGradient><linearGradient id="linear-gradient-22" x1="2010.19" y1="1070.56" x2="2038.94" y2="1166.71" xlink:href="#linear-gradient-15"/><linearGradient id="linear-gradient-23" x1="1559.82" y1="619.14" x2="1503.32" y2="685.55" gradientTransform="translate(855.49)" xlink:href="#linear-gradient-15"/><linearGradient id="linear-gradient-24" x1="-491.27" y1="998.21" x2="-714.84" y2="1266.08" gradientTransform="matrix(-1, 0, 0, 1, 1500.61, 0)" xlink:href="#linear-gradient-6"/><linearGradient id="linear-gradient-25" x1="1575.93" y1="632.84" x2="1519.43" y2="699.25" gradientTransform="translate(855.49)" xlink:href="#linear-gradient-15"/><linearGradient id="linear-gradient-26" x1="2220.96" y1="1012.34" x2="2125.8" y2="1181.86" xlink:href="#linear-gradient-15"/><linearGradient id="linear-gradient-27" x1="2000.69" y1="1251.36" x2="1995.73" y2="1404" xlink:href="#linear-gradient-6"/><linearGradient id="linear-gradient-28" x1="1862.83" y1="1299.14" x2="1922.3" y2="1195.06" xlink:href="#linear-gradient-6"/><linearGradient id="linear-gradient-29" x1="1420.04" y1="171.11" x2="1184.62" y2="532.7" gradientTransform="matrix(1, 0, 0, 1, 0, 0)" xlink:href="#linear-gradient-21"/><linearGradient id="linear-gradient-30" x1="1436.27" y1="290.08" x2="1394.64" y2="553.74" gradientTransform="matrix(1, 0, 0, 1, 0, 0)" xlink:href="#linear-gradient-21"/><linearGradient id="linear-gradient-31" x1="1461.87" y1="294.12" x2="1420.24" y2="557.78" gradientTransform="matrix(1, 0, 0, 1, 0, 0)" xlink:href="#linear-gradient-21"/><linearGradient id="linear-gradient-32" x1="1483.79" y1="297.58" x2="1442.16" y2="561.24" gradientTransform="matrix(1, 0, 0, 1, 0, 0)" xlink:href="#linear-gradient-21"/><linearGradient id="linear-gradient-33" x1="1515.59" y1="302.61" x2="1473.96" y2="566.26" gradientTransform="matrix(1, 0, 0, 1, 0, 0)" xlink:href="#linear-gradient-21"/><linearGradient id="linear-gradient-34" x1="1446.44" y1="291.69" x2="1404.81" y2="555.34" gradientTransform="matrix(1, 0, 0, 1, 0, 0)" xlink:href="#linear-gradient-21"/><linearGradient id="linear-gradient-35" x1="1469.53" y1="295.33" x2="1427.9" y2="558.99" gradientTransform="matrix(1, 0, 0, 1, 0, 0)" xlink:href="#linear-gradient-21"/><linearGradient id="linear-gradient-36" x1="1487.01" y1="298.09" x2="1445.38" y2="561.75" gradientTransform="matrix(1, 0, 0, 1, 0, 0)" xlink:href="#linear-gradient-21"/><linearGradient id="linear-gradient-37" x1="1501.36" y1="300.36" x2="1459.73" y2="564.02" gradientTransform="matrix(1, 0, 0, 1, 0, 0)" xlink:href="#linear-gradient-21"/><linearGradient id="linear-gradient-38" x1="1520.23" y1="303.34" x2="1478.6" y2="567" gradientTransform="matrix(1, 0, 0, 1, 0, 0)" xlink:href="#linear-gradient-21"/><linearGradient id="linear-gradient-39" x1="1540.6" y1="306.56" x2="1498.97" y2="570.21" gradientTransform="matrix(1, 0, 0, 1, 0, 0)" xlink:href="#linear-gradient-21"/><linearGradient id="linear-gradient-40" x1="1242.99" y1="1017.46" x2="1138.92" y2="1363.86" gradientTransform="matrix(1, 0, 0, 1, 0, 0)" xlink:href="#linear-gradient-21"/><linearGradient id="linear-gradient-41" x1="1309.83" y1="1037.54" x2="1205.76" y2="1383.94" gradientTransform="matrix(1, 0, 0, 1, 0, 0)" xlink:href="#linear-gradient-21"/><linearGradient id="linear-gradient-42" x1="-5963.4" y1="18.06" x2="-6067.47" y2="364.46" gradientTransform="matrix(-1, 0, 0, 1, -5240.95, 0)" xlink:href="#linear-gradient-21"/><linearGradient id="linear-gradient-43" x1="902.96" y1="1146.06" x2="870.25" y2="1410.7" gradientUnits="userSpaceOnUse"><stop offset="0" stop-color="#e1473d"/><stop offset="1" stop-color="#e9605a"/></linearGradient><linearGradient id="linear-gradient-44" x1="1962.17" y1="120.87" x2="1708.43" y2="830.56" gradientTransform="translate(806.46 -1219.54) rotate(45)" xlink:href="#linear-gradient-21"/><linearGradient id="linear-gradient-45" x1="1887.97" y1="212.4" x2="1779.9" y2="458.46" gradientTransform="matrix(1, 0, 0, 1, 0, 0)" xlink:href="#linear-gradient-21"/><linearGradient id="linear-gradient-46" x1="1944.15" y1="237.07" x2="1836.08" y2="483.14" gradientTransform="matrix(1, 0, 0, 1, 0, 0)" xlink:href="#linear-gradient-21"/><linearGradient id="linear-gradient-47" x1="762.47" y1="1425.04" x2="352.2" y2="2138.55" gradientTransform="matrix(1, 0, 0, 1, 0, 0)" xlink:href="#linear-gradient-21"/><linearGradient id="linear-gradient-48" x1="1908.84" y1="222.37" x2="1045.12" y2="1441" gradientTransform="translate(-223.25 546.62) rotate(-9.97)" gradientUnits="userSpaceOnUse"><stop offset="0" stop-color="#2b3582"/><stop offset="1" stop-color="#150e42"/></linearGradient><linearGradient id="linear-gradient-49" x1="1044.25" y1="685.01" x2="898.36" y2="953.05" xlink:href="#linear-gradient-43"/><linearGradient id="linear-gradient-50" x1="916.75" y1="1513.75" x2="506.48" y2="2227.27" gradientTransform="matrix(1, 0, 0, 1, 0, 0)" xlink:href="#linear-gradient-21"/><linearGradient id="linear-gradient-51" x1="1566.86" y1="508.5" x2="1522.26" y2="621.49" xlink:href="#linear-gradient-15"/><linearGradient id="linear-gradient-52" x1="1582.56" y1="514.7" x2="1537.96" y2="627.69" xlink:href="#linear-gradient-15"/><linearGradient id="linear-gradient-53" x1="1040.11" y1="731.86" x2="962.91" y2="1065.48" xlink:href="#linear-gradient-15"/><linearGradient id="linear-gradient-54" x1="1038.01" y1="580.39" x2="1023.14" y2="737.98" xlink:href="#linear-gradient-15"/><linearGradient id="linear-gradient-55" x1="988.85" y1="660.88" x2="1129.24" y2="841.62" xlink:href="#linear-gradient-6"/><linearGradient id="linear-gradient-56" x1="988.89" y1="575.76" x2="974.02" y2="733.35" xlink:href="#linear-gradient-15"/><linearGradient id="linear-gradient-57" x1="2125.91" y1="530.99" x2="1834.57" y2="978.46" gradientTransform="matrix(1, 0, 0, 1, 0, 0)" xlink:href="#linear-gradient-21"/><linearGradient id="linear-gradient-58" x1="2095.01" y1="682.77" x2="2045.45" y2="924.62" gradientTransform="matrix(1, 0, 0, 1, 0, 0)" xlink:href="#linear-gradient-21"/><linearGradient id="linear-gradient-59" x1="2127.3" y1="689.38" x2="2077.74" y2="931.23" gradientTransform="matrix(1, 0, 0, 1, 0, 0)" xlink:href="#linear-gradient-21"/><linearGradient id="linear-gradient-60" x1="2155.14" y1="695.09" x2="2105.58" y2="936.94" gradientTransform="matrix(1, 0, 0, 1, 0, 0)" xlink:href="#linear-gradient-21"/><linearGradient id="linear-gradient-61" x1="2190.09" y1="702.25" x2="2140.53" y2="944.1" gradientTransform="matrix(1, 0, 0, 1, 0, 0)" xlink:href="#linear-gradient-21"/><linearGradient id="linear-gradient-62" x1="2219.81" y1="708.34" x2="2170.25" y2="950.19" gradientTransform="matrix(1, 0, 0, 1, 0, 0)" xlink:href="#linear-gradient-21"/><linearGradient id="linear-gradient-63" x1="2244.21" y1="713.34" x2="2194.66" y2="955.19" gradientTransform="matrix(1, 0, 0, 1, 0, 0)" xlink:href="#linear-gradient-21"/><linearGradient id="linear-gradient-64" x1="1846.07" y1="631.9" x2="1605.43" y2="1001.5" gradientTransform="matrix(1, 0, 0, 1, 0, 0)" xlink:href="#linear-gradient-21"/><linearGradient id="linear-gradient-65" x1="1945.89" y1="661.68" x2="1828.93" y2="863.88" gradientTransform="matrix(1, 0, 0, 1, 0, 0)" xlink:href="#linear-gradient-21"/><linearGradient id="linear-gradient-66" x1="1984.09" y1="683.78" x2="1867.13" y2="885.98" gradientTransform="matrix(1, 0, 0, 1, 0, 0)" xlink:href="#linear-gradient-21"/><linearGradient id="linear-gradient-67" x1="2012.7" y1="700.33" x2="1895.74" y2="902.53" gradientTransform="matrix(1, 0, 0, 1, 0, 0)" xlink:href="#linear-gradient-21"/><linearGradient id="linear-gradient-68" x1="1572.37" y1="519.56" x2="1350.72" y2="859.99" gradientTransform="matrix(1, 0, 0, 1, 0, 0)" xlink:href="#linear-gradient-21"/><linearGradient id="linear-gradient-69" x1="1597.13" y1="652.73" x2="1563.43" y2="1094.8" gradientTransform="matrix(1, 0, 0, 1, 0, 0)" xlink:href="#linear-gradient-21"/><linearGradient id="linear-gradient-70" x1="1637.51" y1="655.81" x2="1603.81" y2="1097.88" gradientTransform="matrix(1, 0, 0, 1, 0, 0)" xlink:href="#linear-gradient-21"/><linearGradient id="linear-gradient-71" x1="1675.51" y1="658.71" x2="1641.81" y2="1100.78" gradientTransform="matrix(1, 0, 0, 1, 0, 0)" xlink:href="#linear-gradient-21"/><linearGradient id="linear-gradient-72" x1="2039.59" y1="14.69" x2="1874" y2="269.01" gradientTransform="matrix(1, 0, 0, 1, 0, 0)" xlink:href="#linear-gradient-21"/><linearGradient id="linear-gradient-73" x1="2077.46" y1="154.72" x2="1914.91" y2="612.65" gradientTransform="matrix(1, 0, 0, 1, 0, 0)" xlink:href="#linear-gradient-21"/><linearGradient id="linear-gradient-74" x1="2098.47" y1="162.18" x2="1935.91" y2="620.11" gradientTransform="matrix(1, 0, 0, 1, 0, 0)" xlink:href="#linear-gradient-21"/><linearGradient id="linear-gradient-75" x1="2117.83" y1="169.05" x2="1955.28" y2="626.98" gradientTransform="matrix(1, 0, 0, 1, 0, 0)" xlink:href="#linear-gradient-21"/><linearGradient id="linear-gradient-76" x1="2131.04" y1="173.74" x2="1968.49" y2="631.67" gradientTransform="matrix(1, 0, 0, 1, 0, 0)" xlink:href="#linear-gradient-21"/><linearGradient id="linear-gradient-77" x1="2157.51" y1="183.14" x2="1994.96" y2="641.06" gradientTransform="matrix(1, 0, 0, 1, 0, 0)" xlink:href="#linear-gradient-21"/><linearGradient id="linear-gradient-78" x1="2322.99" y1="354.34" x2="2120.39" y2="665.52" gradientTransform="translate(981.32 -1465.34) rotate(45)" xlink:href="#linear-gradient-21"/><linearGradient id="linear-gradient-79" x1="2277.32" y1="355.2" x2="2156.39" y2="636.7" gradientTransform="matrix(1, 0, 0, 1, 0, 0)" xlink:href="#linear-gradient-21"/><linearGradient id="linear-gradient-80" x1="2300.16" y1="365.01" x2="2179.23" y2="646.51" gradientTransform="matrix(1, 0, 0, 1, 0, 0)" xlink:href="#linear-gradient-21"/><linearGradient id="linear-gradient-81" x1="2323.27" y1="374.94" x2="2202.35" y2="656.44" gradientTransform="matrix(1, 0, 0, 1, 0, 0)" xlink:href="#linear-gradient-21"/><linearGradient id="linear-gradient-82" x1="256.52" y1="1341.94" x2="632.79" y2="1341.94" xlink:href="#linear-gradient"/><linearGradient id="linear-gradient-83" x1="256.52" y1="1352.24" x2="632.79" y2="1352.24" xlink:href="#linear-gradient"/><linearGradient id="linear-gradient-84" x1="256.52" y1="1362.53" x2="632.79" y2="1362.53" xlink:href="#linear-gradient"/><linearGradient id="linear-gradient-85" x1="256.52" y1="1372.83" x2="632.79" y2="1372.83" xlink:href="#linear-gradient"/><linearGradient id="linear-gradient-86" x1="256.52" y1="1383.13" x2="632.79" y2="1383.13" xlink:href="#linear-gradient"/><linearGradient id="linear-gradient-87" x1="273.22" y1="1262.39" x2="261.02" y2="1464.9" xlink:href="#linear-gradient-7"/><linearGradient id="linear-gradient-88" x1="1333.94" y1="-9344.24" x2="1164.54" y2="-9180.47" gradientTransform="matrix(-1.39, -0.07, -0.07, 1.39, -11644.68, -215.95)" xlink:href="#linear-gradient-6"/><linearGradient id="linear-gradient-89" x1="4143.33" y1="-12356.48" x2="3973.94" y2="-12192.71" gradientTransform="matrix(0.65, -1.23, -1.23, -0.65, 1885.74, -7927.84)" xlink:href="#linear-gradient-6"/><linearGradient id="linear-gradient-90" x1="6049.26" y1="1513.34" x2="6134.15" y2="1513.34" gradientTransform="translate(-5408.16)" xlink:href="#linear-gradient-7"/><linearGradient id="linear-gradient-91" x1="6114.67" y1="1350.11" x2="6091.47" y2="1510.36" gradientTransform="translate(-5408.16)" xlink:href="#linear-gradient-6"/><linearGradient id="linear-gradient-92" x1="6053.5" y1="1487.76" x2="6076.47" y2="1487.76" gradientTransform="translate(-5408.16)" xlink:href="#linear-gradient-15"/><linearGradient id="linear-gradient-93" x1="6182.41" y1="1496.52" x2="6250.95" y2="1496.52" gradientTransform="translate(-5408.16)" xlink:href="#linear-gradient-7"/><linearGradient id="linear-gradient-94" x1="6229.55" y1="1366.74" x2="6206.36" y2="1526.99" gradientTransform="translate(-5408.16)" xlink:href="#linear-gradient-6"/><linearGradient id="linear-gradient-95" x1="596.22" y1="1393.81" x2="550.62" y2="1529.6" xlink:href="#linear-gradient-6"/><linearGradient id="linear-gradient-96" x1="6162.29" y1="1489.69" x2="6189.71" y2="1489.69" gradientTransform="translate(-5408.16)" xlink:href="#linear-gradient-15"/><linearGradient id="linear-gradient-97" x1="662.02" y1="1106.58" x2="642.19" y2="1235.43" xlink:href="#linear-gradient-6"/><linearGradient id="linear-gradient-98" x1="646.68" y1="1052.21" x2="565.68" y2="1143.71" xlink:href="#linear-gradient-15"/><linearGradient id="linear-gradient-99" x1="464.6" y1="1187.74" x2="730.14" y2="1187.74" gradientTransform="matrix(1, 0, 0, 1, 0, 0)" xlink:href="#linear-gradient-21"/><linearGradient id="linear-gradient-100" x1="593.7" y1="1170.38" x2="614.21" y2="1170.38" xlink:href="#linear-gradient-43"/><linearGradient id="linear-gradient-101" x1="6130.05" y1="1238.51" x2="6193.39" y2="1238.51" gradientTransform="translate(-5408.16)" xlink:href="#linear-gradient-15"/><linearGradient id="linear-gradient-102" x1="5636.43" y1="3458.75" x2="5570.46" y2="3546.02" gradientTransform="translate(-5406.5 -1579.8) rotate(-8.21)" xlink:href="#linear-gradient-15"/><linearGradient id="linear-gradient-103" x1="5586.05" y1="3479.81" x2="5664.85" y2="3479.81" gradientTransform="translate(-5406.5 -1579.8) rotate(-8.21)" xlink:href="#linear-gradient-6"/><linearGradient id="linear-gradient-104" x1="674.62" y1="982.79" x2="561.63" y2="1155.25" xlink:href="#linear-gradient-15"/></defs><title>training and certification</title><path class="cls-1" d="M2228.13,372.43c-25.87-19.48-53.92-37.26-64.79-66.85-9.24-25.18-3.58-53.48-9.74-79.59-8.26-35.05-36.82-61.91-67.66-80.52-64.81-39.1-143.36-50.41-218.88-45.48s-149.13,25.07-222.12,45.1c-112.66,30.92-225.52,58-333.17,102.65S1114.21,309,999.56,279C867.1,244.28,734.32,147.77,594,168.84c-72.39,10.87-140.39,57.26-169.7,124.33-12.44,28.46-18.27,60.37-37.1,85.06-33.33,43.73-97.54,52.69-134.37,93.52-31.34,34.75-36.63,87-25.17,132.42,10.74,42.54,36.22,75.83,54.46,114.76,14.49,30.93,39.66,59.52,50.38,91.83,11.68,35.24.9,73.55-9.88,109.08-18.13,59.78-52.41,114.89-53.92,177.94-1.59,66.16,22.32,128.51,68.59,176,19.6,20.12,74.28,20.29,99.54,24,73.43,10.66,147.48,17.35,221.39,23.7,180.2,15.46,366.78,37.64,547,29.16,67.3-3.17,134.16,5.91,201.37,5.32,64.06-.56,128.45-8,192.62-10.09,136.94-4.49,275.23-5.27,409.64-35.09,37.89-8.41,75.24-19.08,112.43-30.2,65.17-19.51,135.53-44.72,170.4-103.14,34.63-58,23.84-131.28,11.93-197.79-12.25-68.44-33-140.44-37.25-209.79-3.54-58-26-119.19-19.14-177.85,7.6-54.73,51-115.33,25.8-170.75C2263.71,400.9,2246.47,386.23,2228.13,372.43Z" transform="translate(-122.81 -94.07)"/><path class="cls-2" d="M180.59,816c-3.62,72.67-7.43,496.46,389.61,571.46,0,0,74.32-278.35-380.1-576.32A6.16,6.16,0,0,0,180.59,816Z" transform="translate(-122.81 -94.07)"/><path class="cls-3" d="M223.77,875.88c7.45,22.69,15.82,45.14,24.52,67.42s18,44.35,27.68,66.22,19.9,43.52,30.59,64.91,21.81,42.57,33.68,63.33c23.58,41.57,49.49,81.85,78.65,119.63,3.54,4.8,7.43,9.32,11.14,14l5.62,7c1.87,2.31,3.88,4.52,5.81,6.79,3.93,4.48,7.75,9,11.75,13.46l12.17,13.07A538.59,538.59,0,0,0,518,1359.73l0,0a4,4,0,1,1-4.91,6.19l0,0a545.52,545.52,0,0,1-53-49.22l-12.21-13.33c-4-4.49-7.84-9.14-11.77-13.7-1.93-2.31-3.94-4.55-5.81-6.91l-5.62-7.06c-3.71-4.74-7.6-9.34-11.13-14.21-29.11-38.32-54.83-79-78.19-121-11.75-20.94-22.71-42.31-33.31-63.84s-20.64-43.33-30.16-65.34-18.64-44.22-27.23-66.61-16.74-44.94-24.06-67.84a1.67,1.67,0,0,1,3.18-1Z" transform="translate(-122.81 -94.07)"/><path class="cls-4" d="M2297.22,962.05c-6.18,67.32-56.89,457.05-402.9,460.93,0,0-27.56-267.73,395.46-466.94C2293.48,954.29,2297.62,957.66,2297.22,962.05Z" transform="translate(-122.81 -94.07)"/><path class="cls-5" d="M2256.17,1011.59c-8.91,19.47-18.52,38.5-28.43,57.43s-20.27,37.58-31,56.06-21.87,36.69-33.42,54.67-23.48,35.72-36,53.06-25.37,34.44-39,51-27.62,32.75-42.6,48.11c-29.7,30.89-62.53,59.19-99.51,81.68a4.88,4.88,0,0,1-5.07-8.34h0l.09,0c36.19-21.47,68.82-48.91,98.49-79.11,15-15,29-30.92,42.68-47.15s26.66-33.07,39.27-50.17,24.7-34.6,36.38-52.37,23-35.8,33.88-54.08,21.4-36.79,31.49-55.53,19.89-37.66,28.93-56.86l0,0a2.07,2.07,0,0,1,3.75,1.75Z" transform="translate(-122.81 -94.07)"/><path class="cls-2" d="M2195.56,612.45c17.82,88.35,100.51,606.71-372,771.68,0,0-142.29-327.24,359.43-775.87A7.62,7.62,0,0,1,2195.56,612.45Z" transform="translate(-122.81 -94.07)"/><path class="cls-6" d="M2157.71,694.41c-4.51,30.08-10.31,59.85-16.65,89.53s-13.46,59.2-21.29,88.53-16.41,58.46-25.75,87.35c-2.39,7.2-4.64,14.46-7.15,21.62l-7.46,21.53c-5.24,14.25-10.37,28.55-16,42.65-5.43,14.19-11.47,28.14-17.37,42.15l-9.32,20.81c-3,7-6.52,13.73-9.76,20.61-13.28,27.36-27.51,54.3-43.58,80.2l-5.93,9.75-6.29,9.55-6.29,9.55-3.14,4.77-3.34,4.64L1945,1266.22l-14.2,18a519.61,519.61,0,0,1-63.82,65.76,4.67,4.67,0,0,1-6.08-7.1l0,0,0,0a510.33,510.33,0,0,0,63.11-64.1l14.13-17.6,13.34-18.23,3.33-4.56,3.14-4.69,6.29-9.4,6.29-9.39,6-9.62c16.09-25.51,30.41-52.14,43.8-79.2,3.26-6.81,6.77-13.51,9.84-20.41l9.42-20.61c6-13.89,12.08-27.71,17.58-41.8,5.75-14,11-28.18,16.28-42.34l7.59-21.38c2.56-7.11,4.85-14.32,7.28-21.48q14.28-43.08,26.31-86.88T2136.53,783c6.54-29.54,12.55-59.26,17.26-89.11v0a2,2,0,0,1,3.91.6Z" transform="translate(-122.81 -94.07)"/><path class="cls-4" d="M339.6,255.36c-37.31,122.32-225.32,843,419.27,1140.9,0,0,245.91-442.59-401-1145.1A10.81,10.81,0,0,0,339.6,255.36Z" transform="translate(-122.81 -94.07)"/><path class="cls-7" d="M386.3,376.1c2.5,42.85,6.8,85.66,11.93,128.32s11.38,85.2,18.63,127.56C431.41,716.67,450,800.71,474,883.19s53.49,163.42,91.39,240.39c9.41,19.27,19.55,38.16,30.16,56.77s21.88,36.85,33.85,54.59a690.15,690.15,0,0,0,80.57,99.6l0,0a4,4,0,1,1-5.75,5.64h0a698,698,0,0,1-81-101.1q-18-26.94-33.88-55.19c-10.61-18.8-20.73-37.87-30.11-57.29-37.78-77.61-66.93-159.07-90.71-241.84s-41.9-167.14-56.09-252Q401.73,569,394.27,504.89c-5-42.76-9.06-85.6-11.38-128.64a1.71,1.71,0,0,1,3.41-.18Z" transform="translate(-122.81 -94.07)"/><path class="cls-8" d="M1936.69,1318.06a25.52,25.52,0,0,1-25.45,25.42H535a25.51,25.51,0,0,1-25.45-25.42L498.11,527.18c0-14,16.47-41.29,46.67-39.24l1345-34.8a64.14,64.14,0,0,1,65.81,65.6Z" transform="translate(-122.81 -94.07)"/><path class="cls-9" d="M1911.56,1293.66a24.14,24.14,0,0,1-24.08,24.08H568.2a24.15,24.15,0,0,1-24.08-24.08l-10.8-718c1.27-43.21,39.15-58.74,62.11-57.82l1289.1-34.58a45,45,0,0,1,46.2,46.12Z" transform="translate(-122.81 -94.07)"/><path class="cls-4" d="M558.38,951.32a2.27,2.27,0,0,1-2.27-2.24l-.86-58.22a2.28,2.28,0,1,1,4.55-.07l.85,58.23a2.27,2.27,0,0,1-2.24,2.3Z" transform="translate(-122.81 -94.07)"/><path class="cls-4" d="M556.28,808.64A2.28,2.28,0,0,1,554,806.4l-3.27-223c.07-15,4.69-27,13.74-35.64,16.44-15.75,42.14-15,43.23-14.92l411.63-11a2.22,2.22,0,0,1,2.33,2.21,2.26,2.26,0,0,1-2.21,2.33l-411.76,11c-1.17,0-25-.78-40.08,13.66-8.13,7.78-12.28,18.66-12.34,32.33l3.28,223a2.28,2.28,0,0,1-2.24,2.31Z" transform="translate(-122.81 -94.07)"/><path class="cls-10" d="M637.61,1153.73c1.17-50.31.74-495.82-2.15-534.29s57-45.7,149-50,868.24-21.47,888.23-23.09c44.93-3.64,54.22,63.51,49.73,209.29-3.38,109.52-9,289.93-11.55,372.9a45.79,45.79,0,0,1-45.67,44.38c-186.8.51-902.74,2.56-950.4,4C660,1178.5,637.15,1173.68,637.61,1153.73Z" transform="translate(-122.81 -94.07)"/><path class="cls-11" d="M2013.59,1409.13h-1553a34.84,34.84,0,0,1-34.74-34.74h0a34.85,34.85,0,0,1,34.74-34.75h1553a34.85,34.85,0,0,1,34.74,34.75h0A34.84,34.84,0,0,1,2013.59,1409.13Z" transform="translate(-122.81 -94.07)"/><path class="cls-12" d="M673.18,443.38l19.62,70.67a34.31,34.31,0,0,1-4.47,28.16C674.5,563,640.69,600.65,569,619.84c-72.81,19.49-114-.56-131.77-13.77a36.57,36.57,0,0,1-13.3-19.23L402.47,512Z" transform="translate(-122.81 -94.07)"/><path class="cls-13" d="M518,352.41l203.92,57.13A13.63,13.63,0,0,1,727.08,433C686.66,467.6,594.79,548.13,560,594.89a13.61,13.61,0,0,1-16.13,4.44L337.52,513.92a13.63,13.63,0,0,1-3.79-22.84c40-35.15,141.91-123.15,175-138A13.64,13.64,0,0,1,518,352.41Z" transform="translate(-122.81 -94.07)"/><path class="cls-14" d="M522.38,457.76s-108.72,68.58-117,84.24,8.4,86.89,8.4,86.89c-17.12,60.28-19.65,125.74,9.26,160,0,0,35.64-79.27,19.72-112.68s-22.06-47.11-22.06-47.11-13.93-75.93-9.53-86.78C411.16,542.31,531.6,462.1,522.38,457.76Z" transform="translate(-122.81 -94.07)"/><path class="cls-10" d="M694.45,428.45l-104.37,103L564,557.14l-6.52,6.43-3.26,3.2a19,19,0,0,1-3.37,2.61,19.53,19.53,0,0,1-16.5,1.79l-69.5-23.28a1,1,0,1,0-.67,2l69.32,23.81a22.23,22.23,0,0,0,18.79-1.92,21.78,21.78,0,0,0,3.89-3l3.3-3.19,6.57-6.39,26.29-25.54L697.47,431.54a2.16,2.16,0,1,0-3-3.1Z" transform="translate(-122.81 -94.07)"/><path class="cls-4" d="M421.72,665.52l.21.22.24.28.49.58.94,1.27c.62.85,1.16,1.79,1.75,2.68l1.55,2.85c.48,1,.9,2,1.36,3a30.52,30.52,0,0,1,1.21,3c.36,1,.77,2.06,1.1,3.1l.89,3.18a31.21,31.21,0,0,1,.81,3.2l.65,3.24a32.87,32.87,0,0,1,.57,3.27c.26,2.2.55,4.4.79,6.6l.32,6.66c0,.56.06,1.12.06,1.67l0,1.67-.08,3.34c0,4.47-.57,8.91-.93,13.36-.08,1.12-.26,2.22-.44,3.33l-.52,3.32c-.36,2.21-.67,4.43-1.07,6.63-1,4.37-1.88,8.77-2.95,13.13l-3.65,13v0a.75.75,0,0,0,.52.93.76.76,0,0,0,.92-.5l4-13c1.19-4.36,2.21-8.78,3.32-13.17.46-2.22.84-4.45,1.26-6.68l.61-3.35a31.73,31.73,0,0,0,.53-3.36c.49-4.51,1.22-9,1.31-13.57l.16-3.42.09-1.7c0-.57,0-1.14,0-1.71l-.15-6.85c-.18-2.28-.43-4.56-.64-6.84a32.57,32.57,0,0,0-.5-3.41l-.58-3.4c-.16-1.14-.49-2.25-.76-3.37l-.85-3.35c-.33-1.11-.72-2.2-1.08-3.3a34.57,34.57,0,0,0-1.2-3.27c-.46-1.07-.89-2.16-1.38-3.21l-1.6-3.14c-.62-1-1.19-2-1.87-3L426,664l-.58-.73-.3-.37-.36-.4a2.16,2.16,0,1,0-3.21,2.89l0,0Z" transform="translate(-122.81 -94.07)"/><path class="cls-4" d="M418.4,693.58v4.24l0,4.78-.13,9.59-.32,19.18-.78,38.36a1.18,1.18,0,0,0,2.35.08l1.76-38.34.82-19.18.37-9.6.16-4.8.06-2.43,0-1.22c0-.52,0-1.14-.09-1.7a2.1,2.1,0,0,0-4.19.18Z" transform="translate(-122.81 -94.07)"/><rect class="cls-15" x="1935.37" y="1312.53" width="12.44" height="134.48"/><path class="cls-16" d="M1889.75,1441.51h103.67a2.62,2.62,0,0,1,2.62,2.62v5.47a0,0,0,0,1,0,0H1887.13a0,0,0,0,1,0,0v-5.47A2.62,2.62,0,0,1,1889.75,1441.51Z"/><rect class="cls-17" x="1875.27" y="1282.4" width="136.94" height="38.84" rx="13.37"/><path class="cls-18" d="M1972.59,1316.93s-18.48,2.86-39.25,16.75a10.35,10.35,0,0,0-4.57,9.9c2.48,19.71,12.71,83.49,46.44,145.78a15.71,15.71,0,0,1,1.51,10.76l-5.86,27.27L1960,1537.58h28l18.64-50.43-8-2.52a15.08,15.08,0,0,1-10.53-14.12l-.94-54.1c.8-24.11-14.78-40.74-14.78-40.74l44.71-2.17Z" transform="translate(-122.81 -94.07)"/><path class="cls-19" d="M1949.06,1542.5c-2.55,3.34,27.44,7.74,42.59.45,0,0,21-36.54,21-55.36,0,0-1.67-3.83-14-3,0,0-7.05,43.26-14.5,48.11s-20.83.49-20.83.49S1952.82,1537.58,1949.06,1542.5Z" transform="translate(-122.81 -94.07)"/><path class="cls-20" d="M2011.45,1376.47c-.24-.42-48.13-5.76-48.13-5.76s1.57,14.56-3.33,34.6-75.21,106.9-75.21,106.9l7.37,23.37c-22.8,7.94-45.22,9.21-67.29,4.05l45.7-27.42s42.76-145.73,69-171.73l48-16.6Z" transform="translate(-122.81 -94.07)"/><path class="cls-21" d="M2118.85,1291.67s27.6,41,29.86,59.76-7.56,26.33-36.51,27.59-106.24,1.23-106.24,1.23l-66-56.37s48.08-17.16,60.58-22S2118.85,1291.67,2118.85,1291.67Z" transform="translate(-122.81 -94.07)"/><path class="cls-22" d="M1889.36,1527.71s7.94,7.69,2.58,16.24c0,0-62.88,11.15-80,6.09,0,0,3.54-8.09,22.77-17.3l-1.42,1.09a2.29,2.29,0,0,0,1.51,4.12C1847.52,1537.22,1873.74,1534.9,1889.36,1527.71Z" transform="translate(-122.81 -94.07)"/><path class="cls-23" d="M2007.22,1096.79c0,3.78,34,143.6,34,143.6l96.9,28.5a43.54,43.54,0,0,0,49.13-18.57h0a87.57,87.57,0,0,0-27.51-120.81l-13.72-8.63a257.66,257.66,0,0,1-74.27-70.83l-5.17-7.42Z" transform="translate(-122.81 -94.07)"/><path class="cls-24" d="M2044.23,1286.24s-32.13-30.6-48-50.86a43,43,0,0,1-7.28-38.7c7.22-24.32,20.06-49.52,21.23-53.44,1.79-6,37.82-5.76,37.82-5.76s70.9,46,98.75,124l-31.28,9.74s-18.51-31.06-36.8-50.8c0,0,31.64,41.81,32.76,58.92Z" transform="translate(-122.81 -94.07)"/><path class="cls-25" d="M2005.87,1109.64c.38,1.25,9.78,32.42,10.52,33.07s20.62,1.72,30-4.68l-15.88-33.24Z" transform="translate(-122.81 -94.07)"/><path class="cls-26" d="M2021.32,1044.16s-17,7.17-28.52,31.7-2.92,35.86,7.9,37.42,27,1.31,44.15-14.53S2043.39,1035.67,2021.32,1044.16Z" transform="translate(-122.81 -94.07)"/><path class="cls-27" d="M2033.34,1085.65s12.8-35.89-19-36.31l-7.49,5.23s-11.68-19.9,7.49-29.4,47.75-1,55.91,24.78,3.38,42.48-10.19,54.84-19.16-1.66-19.16-1.66,7.39-11.55,4.38-17.73-9.94,1.28-9.94,1.28Z" transform="translate(-122.81 -94.07)"/><path class="cls-28" d="M2036.91,1089.65s6.47-18.49,15.11-11.13-7,17.08-13.15,20.23Z" transform="translate(-122.81 -94.07)"/><path class="cls-29" d="M1978.77,1288.51l23.61-22.75,32.66,13.79s32.51,5,51.11,0l18.61-5,42-13.09,6.6,18.66a11.22,11.22,0,0,1-4.1,12.91,74.67,74.67,0,0,1-10.62,6.61c-5.54,2.43-136.49-1.67-136.49-1.67Z" transform="translate(-122.81 -94.07)"/><path class="cls-4" d="M2172.27,1232.19a.68.68,0,0,0,.36-.1c11.95-7.18,13.1-23.28,13-29.88a76.27,76.27,0,0,0-9.9-36.84c-11.4-20.09-31-33.67-50-46.81l-3.91-2.71c-19.15-13.32-40.3-29.49-48.86-52.79a.72.72,0,0,0-.9-.42.7.7,0,0,0-.41.9c8.7,23.69,30,40,49.38,53.46l3.9,2.71c18.84,13,38.33,26.54,49.57,46.35a74.85,74.85,0,0,1,9.72,36.17c.06,6.35-1,21.86-12.35,28.66a.7.7,0,0,0-.24,1A.69.69,0,0,0,2172.27,1232.19Z" transform="translate(-122.81 -94.07)"/><path class="cls-4" d="M2164.41,1211.39a.71.71,0,0,0,.69-.56c2.59-13.15,2.19-24.92-1.17-35-6.07-18.15-22.09-31.3-35.37-40.72-2.65-1.88-5.34-3.73-8-5.58-12.13-8.35-24.67-17-33.72-28.68a.7.7,0,0,0-1-.12.69.69,0,0,0-.13,1c9.19,11.87,21.82,20.56,34,29,2.68,1.85,5.36,3.69,8,5.57,13.1,9.3,28.91,22.26,34.85,40,3.29,9.81,3.66,21.34,1.13,34.25a.69.69,0,0,0,.55.82Z" transform="translate(-122.81 -94.07)"/><path class="cls-30" d="M2068.11,1299.24h-.31l-137-.15a6.13,6.13,0,1,1,0-12.26l136.94.15a6.13,6.13,0,0,1,.3,12.25Z" transform="translate(-122.81 -94.07)"/><path class="cls-31" d="M1807.75,1174.9h114a21.72,21.72,0,0,1,19.66,12.47l52.73,111.8H1852.45a13.22,13.22,0,0,1-12.29-8.36l-40.88-103.45A9.11,9.11,0,0,1,1807.75,1174.9Z" transform="translate(-122.81 -94.07)"/><path class="cls-10" d="M1888.09,1232.23c2.48,7.67.65,15.13-4.07,16.65s-10.56-3.47-13-11.15-.65-15.13,4.08-16.65S1885.62,1224.55,1888.09,1232.23Z" transform="translate(-122.81 -94.07)"/><path class="cls-10" d="M1714.53,1569a4.92,4.92,0,0,1-2-.42,5.18,5.18,0,0,1-2.63-6.74l105.18-250.16a5,5,0,0,1,6.59-2.69,5.17,5.17,0,0,1,2.62,6.74l-105.18,250.17A5,5,0,0,1,1714.53,1569Z" transform="translate(-122.81 -94.07)"/><path class="cls-10" d="M1833,1569a5,5,0,0,1-4.61-3.1l-105.18-250.17a5.19,5.19,0,0,1,2.63-6.74,5,5,0,0,1,6.59,2.69l105.18,250.16a5.19,5.19,0,0,1-2.63,6.74A5,5,0,0,1,1833,1569Z" transform="translate(-122.81 -94.07)"/><path class="cls-10" d="M2128.71,1569a5,5,0,0,1-2-.42,5.17,5.17,0,0,1-2.62-6.74l105.17-250.16a5,5,0,0,1,6.59-2.69,5.18,5.18,0,0,1,2.63,6.74l-105.18,250.17A5,5,0,0,1,2128.71,1569Z" transform="translate(-122.81 -94.07)"/><path class="cls-10" d="M2247.2,1569a5,5,0,0,1-4.61-3.1l-105.18-250.17A5.18,5.18,0,0,1,2140,1309a5,5,0,0,1,6.59,2.69l105.18,250.16a5.18,5.18,0,0,1-2.62,6.74A5,5,0,0,1,2247.2,1569Z" transform="translate(-122.81 -94.07)"/><path class="cls-4" d="M2259.52,1304.24a5.08,5.08,0,0,0-1.19-4.38,5.82,5.82,0,0,0-4.36-1.92H1682.5a6.61,6.61,0,0,0-5.47,2.81,5.76,5.76,0,0,0-.43,5.84l6.19,12.57a8.74,8.74,0,0,0,7.87,4.72h559.39a6.48,6.48,0,0,0,6.44-5Z" transform="translate(-122.81 -94.07)"/><circle class="cls-32" cx="1346.24" cy="284.47" r="100.44"/><circle class="cls-33" cx="1469.84" cy="377.57" r="84.05" transform="translate(744.67 1676.39) rotate(-81.02)"/><path class="cls-34" d="M1433.21,352.07a16.47,16.47,0,0,1-.66,4.84,10.08,10.08,0,0,1-2,3.68,8.69,8.69,0,0,1-3.27,2.33,11.9,11.9,0,0,1-4.56.81,17.89,17.89,0,0,1-2.33-.14,19.26,19.26,0,0,1-2.4-.45l.31-3.52a1.19,1.19,0,0,1,.36-.78,1.33,1.33,0,0,1,.94-.3,3.92,3.92,0,0,1,1,.16,6.47,6.47,0,0,0,1.53.15,6.38,6.38,0,0,0,2.22-.36,3.91,3.91,0,0,0,1.62-1.16,5.34,5.34,0,0,0,1-2.06,12.27,12.27,0,0,0,.33-3.07V331.56h5.92Z" transform="translate(-122.81 -94.07)"/><path class="cls-35" d="M1466.46,363.38h-4.58a2,2,0,0,1-1.26-.38,2.26,2.26,0,0,1-.72-1l-2.38-6.49h-13.18L1442,362a2,2,0,0,1-.7.92,1.92,1.92,0,0,1-1.26.42h-4.6l12.5-31.82h6Zm-20.6-12H1456l-3.88-10.59c-.17-.47-.37-1-.58-1.66s-.42-1.33-.63-2.08c-.2.75-.41,1.45-.6,2.09s-.4,1.21-.59,1.69Z" transform="translate(-122.81 -94.07)"/><path class="cls-36" d="M1462.89,331.56h4.78a2,2,0,0,1,1.25.37,2.27,2.27,0,0,1,.73,1l7.48,19.41c.25.63.49,1.33.72,2.08s.44,1.55.65,2.39a27.39,27.39,0,0,1,1.25-4.47l7.46-19.41a2.25,2.25,0,0,1,.71-.92,1.87,1.87,0,0,1,1.25-.42H1494l-12.86,31.82h-5.34Z" transform="translate(-122.81 -94.07)"/><path class="cls-37" d="M1521.52,363.38H1517a2,2,0,0,1-1.27-.38,2.26,2.26,0,0,1-.72-1l-2.37-6.49h-13.18L1497,362a2.06,2.06,0,0,1-.69.92,2,2,0,0,1-1.27.42h-4.6l12.5-31.82h6Zm-20.6-12h10.15l-3.87-10.59c-.18-.47-.38-1-.59-1.66s-.42-1.33-.62-2.08c-.21.75-.41,1.45-.61,2.09s-.39,1.21-.58,1.69Z" transform="translate(-122.81 -94.07)"/><path class="cls-38" d="M1437.45,390.17a1.64,1.64,0,0,1-.56.68,1.41,1.41,0,0,1-.76.2,2,2,0,0,1-1-.35c-.36-.22-.8-.47-1.3-.75a9.88,9.88,0,0,0-1.75-.76,7.21,7.21,0,0,0-2.36-.34,7,7,0,0,0-2.15.29,4.63,4.63,0,0,0-1.54.83,3.19,3.19,0,0,0-.93,1.26,4.1,4.1,0,0,0-.31,1.62,2.8,2.8,0,0,0,.63,1.87,5.1,5.1,0,0,0,1.66,1.28,14.74,14.74,0,0,0,2.35.94q1.32.42,2.7.9a24.09,24.09,0,0,1,2.69,1.1,9.11,9.11,0,0,1,2.36,1.58,7.25,7.25,0,0,1,1.66,2.34,8.14,8.14,0,0,1,.63,3.37,11,11,0,0,1-.74,4,9.28,9.28,0,0,1-2.16,3.28,10.2,10.2,0,0,1-3.46,2.2,12.71,12.71,0,0,1-4.69.8,15.7,15.7,0,0,1-3-.29,16.28,16.28,0,0,1-2.83-.85,15.14,15.14,0,0,1-2.53-1.32,12.37,12.37,0,0,1-2.1-1.72l1.71-2.84a2.07,2.07,0,0,1,.59-.51,1.4,1.4,0,0,1,.76-.21,2.08,2.08,0,0,1,1.18.45c.43.3.93.63,1.51,1a11.19,11.19,0,0,0,2,1,7.93,7.93,0,0,0,2.83.45,5.79,5.79,0,0,0,3.91-1.2,4.29,4.29,0,0,0,1.39-3.44,3.19,3.19,0,0,0-.63-2.05,5.05,5.05,0,0,0-1.66-1.33,12.38,12.38,0,0,0-2.35-.91c-.88-.25-1.78-.52-2.69-.82a22.53,22.53,0,0,1-2.68-1,8.73,8.73,0,0,1-2.36-1.61,7.35,7.35,0,0,1-1.66-2.48,9.38,9.38,0,0,1-.63-3.66,8.84,8.84,0,0,1,2.72-6.32,10,10,0,0,1,3.27-2,11.74,11.74,0,0,1,4.42-.77,14.82,14.82,0,0,1,5.2.88,11.65,11.65,0,0,1,4.05,2.46Z" transform="translate(-122.81 -94.07)"/><path class="cls-39" d="M1459.57,398.4a3.07,3.07,0,0,1-.47.48,1.09,1.09,0,0,1-.67.18,1.52,1.52,0,0,1-.82-.26l-.94-.57a7.68,7.68,0,0,0-1.31-.57,6.05,6.05,0,0,0-1.89-.25,5.75,5.75,0,0,0-2.5.51,4.81,4.81,0,0,0-1.8,1.49,6.72,6.72,0,0,0-1.06,2.34,12.38,12.38,0,0,0-.36,3.12,12.06,12.06,0,0,0,.39,3.21,6.67,6.67,0,0,0,1.11,2.37,4.82,4.82,0,0,0,1.76,1.45,5.34,5.34,0,0,0,2.33.49,5.59,5.59,0,0,0,2.1-.32,6.38,6.38,0,0,0,1.36-.7c.36-.26.68-.49,1-.7a1.43,1.43,0,0,1,.92-.32,1.11,1.11,0,0,1,1,.5l1.56,2a9.61,9.61,0,0,1-2,1.78,10.88,10.88,0,0,1-2.19,1.14,10.31,10.31,0,0,1-2.34.6,16.36,16.36,0,0,1-2.4.18,10,10,0,0,1-3.94-.78,9.11,9.11,0,0,1-3.22-2.28,10.89,10.89,0,0,1-2.18-3.66,14.06,14.06,0,0,1-.81-4.94,14.24,14.24,0,0,1,.72-4.61,10.59,10.59,0,0,1,2.1-3.68,9.8,9.8,0,0,1,3.43-2.43,11.81,11.81,0,0,1,4.71-.88,11.28,11.28,0,0,1,4.44.81,10.8,10.8,0,0,1,3.42,2.34Z" transform="translate(-122.81 -94.07)"/><path class="cls-40" d="M1464.7,416.2V393.62h3.19a1.69,1.69,0,0,1,1.17.31,1.84,1.84,0,0,1,.44,1.06l.33,2.72a10.77,10.77,0,0,1,2.83-3.3,6,6,0,0,1,3.66-1.21,4.74,4.74,0,0,1,2.77.77l-.7,4.07a.86.86,0,0,1-.29.57,1,1,0,0,1-.59.16,3.92,3.92,0,0,1-.91-.15,5.61,5.61,0,0,0-1.51-.16,4.59,4.59,0,0,0-2.91.94,7.2,7.2,0,0,0-2,2.74V416.2Z" transform="translate(-122.81 -94.07)"/><path class="cls-41" d="M1489.28,387a3.1,3.1,0,0,1-.29,1.32,3.61,3.61,0,0,1-1.87,1.82,3.44,3.44,0,0,1-1.36.27,3.33,3.33,0,0,1-1.33-.27,3.62,3.62,0,0,1-1.09-.74,3.52,3.52,0,0,1-.74-1.08,3.25,3.25,0,0,1-.27-1.32,3.44,3.44,0,0,1,.27-1.36,3.28,3.28,0,0,1,.74-1.1,3.45,3.45,0,0,1,1.09-.74,3.34,3.34,0,0,1,1.33-.28,3.56,3.56,0,0,1,2.47,1,3.33,3.33,0,0,1,.76,1.1A3.29,3.29,0,0,1,1489.28,387Zm-.81,6.58V416.2H1483V393.62Z" transform="translate(-122.81 -94.07)"/><path class="cls-42" d="M1494.61,423.57V393.62h3.32a1.63,1.63,0,0,1,.9.24,1.15,1.15,0,0,1,.49.75l.44,2.09a11.5,11.5,0,0,1,3.13-2.53,8.57,8.57,0,0,1,4.15-1,7.46,7.46,0,0,1,3.38.77,7.61,7.61,0,0,1,2.64,2.24,10.82,10.82,0,0,1,1.72,3.61,18.29,18.29,0,0,1,.6,4.91,15.63,15.63,0,0,1-.68,4.69,11.55,11.55,0,0,1-2,3.74,8.77,8.77,0,0,1-7.07,3.37,7.44,7.44,0,0,1-5.64-2.2v9.24Zm10.56-26.08a5.51,5.51,0,0,0-2.89.72,8.53,8.53,0,0,0-2.24,2v10.13a5.19,5.19,0,0,0,2,1.59,6,6,0,0,0,2.34.45,5.2,5.2,0,0,0,2.23-.46,4.42,4.42,0,0,0,1.7-1.41,7,7,0,0,0,1.07-2.39,14.09,14.09,0,0,0,.37-3.4,15.22,15.22,0,0,0-.32-3.35,6.63,6.63,0,0,0-.91-2.24,3.59,3.59,0,0,0-1.45-1.25A4.51,4.51,0,0,0,1505.17,397.49Z" transform="translate(-122.81 -94.07)"/><path class="cls-43" d="M1526.91,416.55a5.93,5.93,0,0,1-4.51-1.66,6.37,6.37,0,0,1-1.58-4.59V397.69h-2.29a1.08,1.08,0,0,1-.76-.28,1.11,1.11,0,0,1-.32-.86v-2.16l3.63-.59,1.15-6.16a1.05,1.05,0,0,1,.4-.69,1.29,1.29,0,0,1,.8-.24h2.82v7.11h5.94v3.87h-5.94v12.24a2.42,2.42,0,0,0,.53,1.65,1.77,1.77,0,0,0,1.41.59,2.6,2.6,0,0,0,.85-.12,4.76,4.76,0,0,0,.59-.25l.45-.25a.77.77,0,0,1,.4-.12.61.61,0,0,1,.39.12,1.47,1.47,0,0,1,.33.36l1.63,2.64a8.24,8.24,0,0,1-2.73,1.5A10.33,10.33,0,0,1,1526.91,416.55Z" transform="translate(-122.81 -94.07)"/><path class="cls-44" d="M1199.75,1268.62a31,31,0,0,1-31,31c-17.1,0-34-13-34-30.06s16.86-31.86,34-31.86A31,31,0,0,1,1199.75,1268.62Z" transform="translate(-122.81 -94.07)"/><path class="cls-45" d="M1163.16,1287.67h0a4.12,4.12,0,0,1-4.07-3.68l-2.79-26.08a4.11,4.11,0,0,1,4.41-4.53l2.79.21a4.12,4.12,0,0,1,3.79,4.1v25.87A4.11,4.11,0,0,1,1163.16,1287.67Z" transform="translate(-122.81 -94.07)"/><path class="cls-45" d="M1172,1257.3v26.29a4.11,4.11,0,0,0,4.06,4.11h.66a4.11,4.11,0,0,0,4.16-4l.95-26.29a4.11,4.11,0,0,0-4.11-4.26h-1.61A4.11,4.11,0,0,0,1172,1257.3Z" transform="translate(-122.81 -94.07)"/><path class="cls-46" d="M1265,1268.62a23.61,23.61,0,0,1-23.6,23.6c-13,0-25.87-9.88-25.87-22.91s12.84-24.28,25.87-24.28A23.6,23.6,0,0,1,1265,1268.62Z" transform="translate(-122.81 -94.07)"/><path class="cls-45" d="M1231.59,1258.46v21a3.29,3.29,0,0,0,3.25,3.29h.53a3.29,3.29,0,0,0,3.32-3.17l.76-21a3.28,3.28,0,0,0-3.29-3.4h-1.28A3.28,3.28,0,0,0,1231.59,1258.46Z" transform="translate(-122.81 -94.07)"/><path class="cls-45" d="M1244.23,1257.76l-1.11,22a1.76,1.76,0,0,0,3,1.32l10.64-10.95a1.76,1.76,0,0,0,.07-2.38l-9.52-11A1.76,1.76,0,0,0,1244.23,1257.76Z" transform="translate(-122.81 -94.07)"/><path class="cls-47" d="M1073.6,1268.62a23.61,23.61,0,0,0,23.6,23.6c13,0,25.87-9.88,25.87-22.91S1110.23,1245,1097.2,1245A23.6,23.6,0,0,0,1073.6,1268.62Z" transform="translate(-122.81 -94.07)"/><path class="cls-45" d="M1107,1258.46v21a3.29,3.29,0,0,1-3.25,3.29h-.53a3.29,3.29,0,0,1-3.32-3.17l-.76-21a3.28,3.28,0,0,1,3.29-3.4h1.28A3.28,3.28,0,0,1,1107,1258.46Z" transform="translate(-122.81 -94.07)"/><path class="cls-45" d="M1094.33,1257.76l1.11,22a1.76,1.76,0,0,1-3,1.32l-10.64-10.95a1.76,1.76,0,0,1-.07-2.38l9.52-11A1.76,1.76,0,0,1,1094.33,1257.76Z" transform="translate(-122.81 -94.07)"/><path class="cls-4" d="M984.39,1207.17l.65,4.35c.6,4,5.62,7,11.61,7H1627c6.44,0,11.66-3.49,11.66-7.8h0c0-4.28-5.15-7.76-11.54-7.8l-631-4.35C989.17,1198.54,983.7,1202.54,984.39,1207.17Z" transform="translate(-122.81 -94.07)"/><path class="cls-48" d="M1152.86,1212.71c-.95-4.74-2.11-9.53-3.22-14.35l-499-3.14c-8.91,0-15.93,4.62-15,10l.84,5.08c.76,4.66,7.2,8.21,14.88,8.21h502.9C1153.72,1216.5,1153.22,1214.53,1152.86,1212.71Z" transform="translate(-122.81 -94.07)"/><circle class="cls-4" cx="1156.39" cy="1207" r="14.5" transform="translate(-524.06 1719.4) rotate(-67.5)"/><circle class="cls-49" cx="1875.34" cy="363.72" r="156.97" transform="translate(169.28 1338.53) rotate(-45)"/><circle class="cls-33" cx="1751.62" cy="271.83" r="132.47"/><path class="cls-50" d="M1807.46,444V283.48h28.1V444Z" transform="translate(-122.81 -94.07)"/><path class="cls-51" d="M1918.77,444H1889V309.72h-30.74V283.48h91.22v26.24h-30.73Z" transform="translate(-122.81 -94.07)"/><path class="cls-2" d="M1617.36,231.19a2.75,2.75,0,0,1-2.64-2c-.42-1.44-.82-2.91-1.18-4.37a2.76,2.76,0,0,1,5.35-1.32c.34,1.38.72,2.78,1.12,4.14a2.76,2.76,0,0,1-1.87,3.42A2.63,2.63,0,0,1,1617.36,231.19Z" transform="translate(-122.81 -94.07)"/><path class="cls-2" d="M1613.77,212.93a2.77,2.77,0,0,1-2.74-2.48c-.3-3-.48-6-.54-9a2.76,2.76,0,0,1,5.52-.1c0,2.84.22,5.7.51,8.51a2.76,2.76,0,0,1-2.46,3ZM1614,190l-.33,0a2.76,2.76,0,0,1-2.41-3.07c.35-3,.84-6,1.44-8.87a2.76,2.76,0,0,1,5.4,1.12c-.57,2.76-1,5.59-1.37,8.41A2.76,2.76,0,0,1,1614,190Zm5.24-22.33a2.76,2.76,0,0,1-2.6-3.69c1-2.81,2.15-5.61,3.39-8.32a2.75,2.75,0,0,1,5,2.29c-1.18,2.57-2.25,5.22-3.21,7.89A2.75,2.75,0,0,1,1619.22,167.66Zm10.1-20.6a2.72,2.72,0,0,1-1.49-.44,2.75,2.75,0,0,1-.83-3.8c1.6-2.52,3.34-5,5.15-7.37a2.76,2.76,0,0,1,4.38,3.35c-1.72,2.25-3.37,4.6-4.89,7A2.75,2.75,0,0,1,1629.32,147.06Zm14.43-17.84a2.76,2.76,0,0,1-1.94-4.72c2.12-2.09,4.36-4.13,6.66-6a2.76,2.76,0,1,1,3.52,4.24c-2.17,1.81-4.3,3.74-6.31,5.72A2.73,2.73,0,0,1,1643.75,129.22Zm18-14.21a2.75,2.75,0,0,1-1.46-5.09c2.53-1.58,5.17-3.07,7.82-4.42a2.76,2.76,0,1,1,2.51,4.91c-2.52,1.28-5,2.69-7.42,4.19A2.75,2.75,0,0,1,1661.76,115Zm96.5-6.35a2.65,2.65,0,0,1-1.13-.25c-2.58-1.16-5.24-2.23-7.91-3.17a2.76,2.76,0,0,1,1.83-5.2c2.82,1,5.63,2.12,8.35,3.35a2.76,2.76,0,0,1-1.14,5.27Zm-75.81-3.51a2.76,2.76,0,0,1-.9-5.36c2.83-1,5.73-1.84,8.61-2.57a2.76,2.76,0,0,1,1.35,5.35c-2.74.68-5.48,1.5-8.16,2.43A2.83,2.83,0,0,1,1682.45,105.15Zm54-3.54a2.56,2.56,0,0,1-.55,0c-2.77-.56-5.61-1-8.42-1.33a2.76,2.76,0,0,1,.63-5.48c3,.34,6,.82,8.88,1.41a2.75,2.75,0,0,1-.54,5.45Zm-31.6-1.46a2.76,2.76,0,0,1-.29-5.5c3-.32,6-.51,9-.58h.06a2.76,2.76,0,0,1,.06,5.51c-2.84.06-5.7.25-8.5.55Z" transform="translate(-122.81 -94.07)"/><path class="cls-2" d="M1774.51,117.88a2.77,2.77,0,0,1-1.57-.49c-1.17-.81-2.37-1.61-3.57-2.37a2.76,2.76,0,1,1,3-4.66c1.27.81,2.54,1.65,3.77,2.5a2.76,2.76,0,0,1-1.58,5Z" transform="translate(-122.81 -94.07)"/><path class="cls-2" d="M1817.39,186.11a2.75,2.75,0,0,1-2.72-2.32c-.23-1.42-.48-2.84-.76-4.22a2.76,2.76,0,0,1,5.4-1.1c.29,1.46.57,3,.8,4.46a2.76,2.76,0,0,1-2.29,3.15A3.11,3.11,0,0,1,1817.39,186.11Z" transform="translate(-122.81 -94.07)"/><path class="cls-2" d="M1716.08,305c-1.17,0-2.39,0-3.59-.05a2.76,2.76,0,0,1,.09-5.51h.09c1.13,0,2.26,0,3.38,0h0c1.65,0,3.32,0,5-.12a2.75,2.75,0,1,1,.28,5.5C1719.59,304.93,1717.82,305,1716.08,305Zm-17.42-1.46a2.49,2.49,0,0,1-.47,0c-2.9-.49-5.81-1.11-8.65-1.84a2.76,2.76,0,0,1,1.37-5.34c2.7.7,5.46,1.28,8.21,1.75a2.75,2.75,0,0,1-.46,5.47Zm36.42-.31a2.76,2.76,0,0,1-.51-5.47c2.74-.51,5.48-1.15,8.16-1.9a2.76,2.76,0,1,1,1.48,5.31c-2.83.79-5.73,1.46-8.62,2A2.94,2.94,0,0,1,1735.08,303.2ZM1677,297.31a2.77,2.77,0,0,1-1-.21c-2.72-1.11-5.42-2.36-8-3.7a2.76,2.76,0,0,1,2.52-4.9c2.48,1.27,5,2.45,7.61,3.5a2.76,2.76,0,0,1-1,5.31Zm79.7-.73a2.75,2.75,0,0,1-1.09-5.28c2.55-1.11,5.08-2.33,7.54-3.65a2.76,2.76,0,1,1,2.6,4.86c-2.59,1.39-5.26,2.68-8,3.85A2.76,2.76,0,0,1,1756.65,296.58Zm19.6-11.18a2.75,2.75,0,0,1-1.62-5c2.25-1.64,4.46-3.39,6.57-5.21a2.76,2.76,0,1,1,3.6,4.18c-2.22,1.91-4.55,3.76-6.93,5.49A2.79,2.79,0,0,1,1776.25,285.4Zm16.7-15.18a2.75,2.75,0,0,1-2.06-4.58c1.85-2.09,3.62-4.28,5.28-6.51a2.76,2.76,0,0,1,4.43,3.3c-1.76,2.35-3.63,4.66-5.58,6.86A2.72,2.72,0,0,1,1793,270.22Zm13-18.45a2.76,2.76,0,0,1-2.42-4.09c1.35-2.44,2.6-5,3.73-7.51a2.76,2.76,0,0,1,5,2.25c-1.2,2.68-2.52,5.35-3.94,7.92A2.75,2.75,0,0,1,1806,251.77Zm8.64-20.87a2.52,2.52,0,0,1-.77-.11,2.75,2.75,0,0,1-1.88-3.41c.77-2.67,1.44-5.41,2-8.14a2.76,2.76,0,0,1,5.41,1.08c-.58,2.88-1.28,5.77-2.1,8.59A2.75,2.75,0,0,1,1814.6,230.9Zm3.85-22.24h-.18a2.75,2.75,0,0,1-2.57-2.93c.13-2.1.19-4.22.19-6.31,0-.69,0-1.38,0-2.07a2.76,2.76,0,0,1,2.7-2.81h.06a2.75,2.75,0,0,1,2.75,2.7c0,.72,0,1.45,0,2.18,0,2.2-.07,4.44-.21,6.66A2.76,2.76,0,0,1,1818.45,208.66Z" transform="translate(-122.81 -94.07)"/><path class="cls-2" d="M1657.08,286.45a2.72,2.72,0,0,1-1.58-.5c-1.24-.87-2.46-1.77-3.65-2.68a2.75,2.75,0,1,1,3.35-4.37c1.13.86,2.29,1.72,3.46,2.53a2.76,2.76,0,0,1-1.58,5Z" transform="translate(-122.81 -94.07)"/><path class="cls-2" d="M1660.48,255.63a1.23,1.23,0,0,0,1.38.38l14.08-5.18a65.65,65.65,0,0,0,18.65,10l3.43,14.59a1.25,1.25,0,0,0,1.08,1l17.9,1.81a1.23,1.23,0,0,0,1.24-.71l6.29-13.61a65.24,65.24,0,0,0,20.28-6.1l12.76,7.9a1.24,1.24,0,0,0,1.43-.09l13.94-11.38a1.23,1.23,0,0,0,.38-1.38l-5.18-14.08a65.73,65.73,0,0,0,10-18.64l14.59-3.44a1.25,1.25,0,0,0,1-1.07l1.81-17.91a1.23,1.23,0,0,0-.71-1.24l-13.61-6.29a65.32,65.32,0,0,0-6.1-20.28l7.9-12.76a1.22,1.22,0,0,0-.09-1.42l-11.38-13.95a1.23,1.23,0,0,0-1.38-.37l-14.08,5.17a65.73,65.73,0,0,0-18.64-10L1734,121.94a1.22,1.22,0,0,0-1.07-.94L1715,119.18a1.23,1.23,0,0,0-1.24.71l-6.29,13.61a65.32,65.32,0,0,0-20.28,6.1l-12.76-7.9a1.22,1.22,0,0,0-1.42.09l-14,11.38a1.23,1.23,0,0,0-.37,1.38l5.17,14.08a65.65,65.65,0,0,0-10,18.65l-14.59,3.43a1.22,1.22,0,0,0-.94,1.08l-1.82,17.9a1.23,1.23,0,0,0,.71,1.24l13.61,6.29a65.24,65.24,0,0,0,6.1,20.28l-7.9,12.76a1.24,1.24,0,0,0,.09,1.43Z" transform="translate(-122.81 -94.07)"/><path class="cls-4" d="M1716,218a19.34,19.34,0,1,1,2.85-.21A19.52,19.52,0,0,1,1716,218Zm.07-32a13.3,13.3,0,0,0-1.88.13,12.68,12.68,0,0,0,3.7,25.08h0A12.67,12.67,0,0,0,1716,186Z" transform="translate(-122.81 -94.07)"/><path class="cls-4" d="M1716.32,243a43,43,0,0,1-4.52-.23h0a44.91,44.91,0,0,1-9.28-1.94,1.1,1.1,0,0,1-.76-1,1.33,1.33,0,0,1,0-.34,1.11,1.11,0,0,1,1.39-.71,42.35,42.35,0,0,0,55.19-36,41.7,41.7,0,0,0,.22-4.3,42.32,42.32,0,0,0-84.43-4.23c-.14,1.43-.22,2.86-.22,4.29a42.24,42.24,0,0,0,4,17.93,1.17,1.17,0,0,1,.1.47,1.1,1.1,0,0,1-.63,1,1.11,1.11,0,0,1-1.47-.53,44.41,44.41,0,0,1-4.2-18.86A42.62,42.62,0,0,1,1672,194a44.53,44.53,0,0,1,88.83,4.44c0,1.5-.08,3-.23,4.53A44.59,44.59,0,0,1,1716.32,243Z" transform="translate(-122.81 -94.07)"/><path class="cls-52" d="M1212.74,902c-8.49-21.69-21.13-38.51-35-55.1a46.37,46.37,0,0,0-42.82-16c-75.7,12-179.86,22.38-226.16,28.21a66.08,66.08,0,0,0-41.61,22.51c-39.73,46-123.92,167-43.14,294.46a4.63,4.63,0,0,0,3.9,2.14H886.7l4.23-6.55c-17.09-38.08-14.7-79.81,4.43-125.62a4.64,4.64,0,0,1,8.71.39h0a797.84,797.84,0,0,1,29.09,127.79,4.63,4.63,0,0,0,4.58,4h179.57a4.62,4.62,0,0,0,4.55-3.84c16.57-94.45,60.88-196.53,75.41-228.51a28.9,28.9,0,0,1,14.33-14.43c2-.9,3.94-1.83,5.88-2.76a4.63,4.63,0,0,0,2.44-5.5C1217.83,916,1215.46,908.92,1212.74,902Z" transform="translate(-122.81 -94.07)"/><path class="cls-53" d="M1372.47,804.51a9.92,9.92,0,0,1,.42-14.6l518.39-462.53a4.83,4.83,0,0,1,5.3-.76h0a4.83,4.83,0,0,1,1.19,7.92L1386.11,804.71a9.93,9.93,0,0,1-13.64-.2Z" transform="translate(-122.81 -94.07)"/><path class="cls-54" d="M892.76,1022.93c-15.33-44.13-12.13-95.29-11.1-107.32a2.56,2.56,0,0,1,2.85-2.32h0a2.56,2.56,0,0,1,2.26,2.76c-1,11.62-4.19,61.93,10.83,105.16a2.58,2.58,0,0,1-1.54,3.27h0A2.56,2.56,0,0,1,892.76,1022.93Z" transform="translate(-122.81 -94.07)"/><path class="cls-55" d="M1383.48,855.79c-72,26.33-233.71-24.89-233.71-24.89L1147.35,952c122.94,38.87,202.94,27.55,255-5.07C1405.54,909.83,1394.4,877.56,1383.48,855.79Z" transform="translate(-122.81 -94.07)"/><path class="cls-56" d="M1498.18,726.34l-30.15-6s-8.22,95.93-75.37,131.39a74.86,74.86,0,0,1-9.18,4c10.92,21.77,22.06,54,18.83,91.11C1508,880.61,1498.18,726.34,1498.18,726.34Z" transform="translate(-122.81 -94.07)"/><path class="cls-57" d="M1469.56,728.73l-1.53-8.36s-6.29-20.42,10.35-40.53c24-29.06,41-20.64,41-20.64s-.61,8.48-.52,14c.06,4.45,3.65,6.18,6.92,3.17l41-37.68s11,59.41-73.19,98.78Z" transform="translate(-122.81 -94.07)"/><path class="cls-58" d="M985.51,757.6l-5.4,94.28a5.79,5.79,0,0,0,4.35,6c12,3,45,9,73.82-7.35a9.39,9.39,0,0,0,4.29-10.72l-24.08-84.72Z" transform="translate(-122.81 -94.07)"/><path class="cls-59" d="M1060.46,661.57s26.37,60.57,28.14,92.36,8.62,52.42-28.14,58.83-67.73-11.91-84.5-43.58c0,0-26.29-48.8-20.39-68.78S1060.46,661.57,1060.46,661.57Z" transform="translate(-122.81 -94.07)"/><path class="cls-60" d="M988.52,746.41l2.09-.92a5.06,5.06,0,0,0,2.47-6.93c-5.19-10-15.29-33-2.24-38.32,16.82-6.9,83.47-20.49,97.84-44.14,13.82-22.73,1.58-52.06-16.82-60.41a2.55,2.55,0,0,0-3.32,1.08l-1.53,2.91a2.5,2.5,0,0,1-4.61-.48h0a2.49,2.49,0,0,0-4.5-.64c-4.42,7.07-16.35,18.54-48.26,24.43-45.35,8.37-75.33,26.72-76.07,58.06a2.5,2.5,0,0,1-3.87,2.06c-3.35-2-8.71-3-15.87,3-12.45,10.48-7.36,37.64,19.95,60a2.49,2.49,0,0,1-.12,4c-4.95,3.22-12.33,10.89,6.79,21.11,19.77,10.57,34.54,9.7,40.23,8.76a2.48,2.48,0,0,0,2-3l-6.06-27.54a2.49,2.49,0,0,1,2.43-3Z" transform="translate(-122.81 -94.07)"/><path class="cls-61" d="M989.66,752.22s-10.06-38.69-27.41-27.84,9,43.35,23,44.8Z" transform="translate(-122.81 -94.07)"/><circle class="cls-62" cx="2034.57" cy="671.27" r="124.3"/><circle class="cls-33" cx="2035.56" cy="670.06" r="104.02"/><path class="cls-63" d="M2066.79,756.28,2090,744.17v5.16a2.07,2.07,0,0,1-.29,1.07,2.38,2.38,0,0,1-1,.83l-10.65,5.46a10.61,10.61,0,0,1-1.42.6,16,16,0,0,1-1.6.45c.57.14,1.1.29,1.6.46a9.45,9.45,0,0,1,1.42.6l10.65,5.48a2.48,2.48,0,0,1,1,.84,2.07,2.07,0,0,1,.29,1.07v5.16l-23.22-12.14Z" transform="translate(-122.81 -94.07)"/><path class="cls-64" d="M2100.59,777.51V733.93h7.25v16.75a15,15,0,0,1,3.87-2.7,11.28,11.28,0,0,1,4.95-1,10.71,10.71,0,0,1,4.37.84,8.64,8.64,0,0,1,3.18,2.35,10.22,10.22,0,0,1,1.94,3.6,15.35,15.35,0,0,1,.66,4.62v19.15h-7.24V758.36a6.44,6.44,0,0,0-1.28-4.27,4.76,4.76,0,0,0-3.83-1.51,7.58,7.58,0,0,0-3.51.85,12.42,12.42,0,0,0-3.11,2.32v21.76Z" transform="translate(-122.81 -94.07)"/><path class="cls-65" d="M2143.82,778a7.93,7.93,0,0,1-6-2.22,8.51,8.51,0,0,1-2.11-6.11v-16.8h-3.05a1.38,1.38,0,0,1-1.43-1.53v-2.87l4.84-.79,1.52-8.21a1.46,1.46,0,0,1,.54-.91,1.7,1.7,0,0,1,1.07-.32h3.76v9.47h7.91v5.16h-7.91v16.3a3.19,3.19,0,0,0,.7,2.2,2.38,2.38,0,0,0,1.88.79,3.38,3.38,0,0,0,1.13-.16,6.68,6.68,0,0,0,.79-.34c.22-.11.42-.23.6-.33a1,1,0,0,1,.53-.17.79.79,0,0,1,.52.17,2.1,2.1,0,0,1,.44.48l2.17,3.52a10.86,10.86,0,0,1-3.63,2A13.55,13.55,0,0,1,2143.82,778Z" transform="translate(-122.81 -94.07)"/><path class="cls-66" d="M2156.63,777.51V747.42h4.43a1.77,1.77,0,0,1,1.84,1.32l.47,2.23a16.74,16.74,0,0,1,1.66-1.61,10.31,10.31,0,0,1,4-2.1,9.62,9.62,0,0,1,2.48-.31,7,7,0,0,1,4.67,1.54,2.56,2.56,0,1,0,4.5,1.53,9.63,9.63,0,0,1,2.32-1.75,10.38,10.38,0,0,1,2.68-1,12.62,12.62,0,0,1,2.86-.33,12,12,0,0,1,4.43.77,8.56,8.56,0,0,1,3.25,2.22,9.84,9.84,0,0,1,2,3.58,15.58,15.58,0,0,1,.69,4.84v19.15h-7.24V758.36a6.4,6.4,0,0,0-1.26-4.32,4.63,4.63,0,0,0-3.7-1.46,5.36,5.36,0,0,0-2.06.39,4.83,4.83,0,0,0-1.67,1.09,4.94,4.94,0,0,0-1.13,1.81,6.84,6.84,0,0,0-.41,2.49v19.15h-7.28V758.36a6.57,6.57,0,0,0-1.21-4.4,4.53,4.53,0,0,0-3.59-1.38,5.78,5.78,0,0,0-2.92.78,9.84,9.84,0,0,0-2.54,2.13v22Z" transform="translate(-122.81 -94.07)"/><path class="cls-67" d="M2213.72,733.93v43.58h-7.24V733.93Z" transform="translate(-122.81 -94.07)"/><path class="cls-68" d="M2224.74,771.35v-5.16a2,2,0,0,1,.3-1.07,2.41,2.41,0,0,1,1-.84l10.64-5.48a14.38,14.38,0,0,1,3-1.06,16,16,0,0,1-1.6-.45,10.61,10.61,0,0,1-1.42-.6L2226,751.23a2.32,2.32,0,0,1-1-.83,2,2,0,0,1-.3-1.07v-5.16L2248,756.28v2.93Z" transform="translate(-122.81 -94.07)"/><circle class="cls-69" cx="1770.62" cy="747.77" r="102.67"/><circle class="cls-33" cx="1771.44" cy="746.77" r="85.92"/><path class="cls-70" d="M1842,848.12v16.43h-8.69V817.87h15.21a26.67,26.67,0,0,1,8.1,1.1,15.44,15.44,0,0,1,5.65,3.07,11.94,11.94,0,0,1,3.3,4.71,16.47,16.47,0,0,1,1.06,6,16.65,16.65,0,0,1-1.13,6.21,12.88,12.88,0,0,1-3.39,4.86,15.75,15.75,0,0,1-5.65,3.16,24.93,24.93,0,0,1-7.94,1.13Zm0-6.78h6.52a13.4,13.4,0,0,0,4.17-.59,7.64,7.64,0,0,0,2.93-1.72,6.94,6.94,0,0,0,1.75-2.71,10.51,10.51,0,0,0,.58-3.56,9.56,9.56,0,0,0-.58-3.39,6.65,6.65,0,0,0-1.75-2.59,7.76,7.76,0,0,0-2.93-1.63,14.08,14.08,0,0,0-4.17-.56H1842Z" transform="translate(-122.81 -94.07)"/><path class="cls-71" d="M1912.72,864.55H1904v-20.4h-21.89v20.4h-8.75V817.87h8.75V838H1904V817.87h8.75Z" transform="translate(-122.81 -94.07)"/><path class="cls-72" d="M1931.12,848.12v16.43h-8.69V817.87h15.21a26.67,26.67,0,0,1,8.1,1.1,15.44,15.44,0,0,1,5.65,3.07,11.92,11.92,0,0,1,3.29,4.71,16.47,16.47,0,0,1,1.07,6,16.65,16.65,0,0,1-1.13,6.21,12.88,12.88,0,0,1-3.39,4.86,15.84,15.84,0,0,1-5.65,3.16,25,25,0,0,1-7.94,1.13Zm0-6.78h6.52a13.29,13.29,0,0,0,4.16-.59,7.61,7.61,0,0,0,2.94-1.72,6.81,6.81,0,0,0,1.74-2.71,10.27,10.27,0,0,0,.58-3.56,9.35,9.35,0,0,0-.58-3.39,6.52,6.52,0,0,0-1.74-2.59,7.73,7.73,0,0,0-2.94-1.63,14,14,0,0,0-4.16-.56h-6.52Z" transform="translate(-122.81 -94.07)"/><circle class="cls-73" cx="1502.88" cy="626.29" r="94.56"/><circle class="cls-33" cx="1503.63" cy="625.37" r="79.14"/><path class="cls-74" d="M1607,730.07a1.67,1.67,0,0,1,1.25.56l3.49,3.79a19.06,19.06,0,0,1-7.13,5.5,24.46,24.46,0,0,1-10.16,1.92,24,24,0,0,1-9.54-1.82,20.84,20.84,0,0,1-7.23-5,22.08,22.08,0,0,1-4.6-7.71,28.79,28.79,0,0,1-1.6-9.78,26.5,26.5,0,0,1,1.78-9.84A22.25,22.25,0,0,1,1586,694.93a26.67,26.67,0,0,1,9.93-1.79,23.24,23.24,0,0,1,9.27,1.7,21.76,21.76,0,0,1,6.81,4.49l-3,4.12a2.58,2.58,0,0,1-.67.69,1.93,1.93,0,0,1-1.14.3,2.64,2.64,0,0,1-1.55-.59,17.8,17.8,0,0,0-2-1.29,16.08,16.08,0,0,0-3.08-1.28,15.69,15.69,0,0,0-4.73-.6,15.88,15.88,0,0,0-6.17,1.17,13.74,13.74,0,0,0-4.85,3.35,15.4,15.4,0,0,0-3.16,5.29,20.23,20.23,0,0,0-1.14,7,20.83,20.83,0,0,0,1.14,7.15,15.77,15.77,0,0,0,3.08,5.27,13.17,13.17,0,0,0,4.58,3.28,14.31,14.31,0,0,0,5.67,1.13,25.22,25.22,0,0,0,3.28-.19,14.43,14.43,0,0,0,2.7-.63,11.9,11.9,0,0,0,2.34-1.1,15.15,15.15,0,0,0,2.19-1.67,3.43,3.43,0,0,1,.69-.48A1.73,1.73,0,0,1,1607,730.07Z" transform="translate(-122.81 -94.07)"/><path class="cls-75" d="M1635.94,702.66v13.51h12.82v6h-12.82v13.57h-6.59V722.2H1616.6v-6h12.75V702.66Z" transform="translate(-122.81 -94.07)"/><path class="cls-76" d="M1674.16,702.66v13.51H1687v6h-12.82v13.57h-6.59V722.2h-12.75v-6h12.75V702.66Z" transform="translate(-122.81 -94.07)"/><circle class="cls-77" cx="1987.68" cy="94.42" r="70.65"/><circle class="cls-33" cx="2111.04" cy="187.8" r="59.12" transform="translate(362.71 1453.67) rotate(-45)"/><path class="cls-78" d="M2056.71,186.55l15.37-8V182a1.36,1.36,0,0,1-.2.71,1.61,1.61,0,0,1-.64.55l-7,3.61a7.17,7.17,0,0,1-.94.4c-.33.11-.68.21-1.06.3.38.09.73.19,1.06.3a6,6,0,0,1,.94.4l7,3.62a1.55,1.55,0,0,1,.64.56,1.32,1.32,0,0,1,.2.7v3.42l-15.37-8Z" transform="translate(-122.81 -94.07)"/><path class="cls-79" d="M2104.26,186.57a15.08,15.08,0,0,1-1,5.66,12.93,12.93,0,0,1-2.89,4.44,12.68,12.68,0,0,1-4.48,2.89,15.67,15.67,0,0,1-5.8,1h-10.71V172.54h10.71a15.67,15.67,0,0,1,5.8,1,13,13,0,0,1,4.48,2.89,12.79,12.79,0,0,1,2.89,4.43A15.09,15.09,0,0,1,2104.26,186.57Zm-5.33,0a12.78,12.78,0,0,0-.63-4.15,8.78,8.78,0,0,0-1.76-3.1,7.49,7.49,0,0,0-2.79-1.95,9.59,9.59,0,0,0-3.69-.68h-5.45v19.75h5.45a9.59,9.59,0,0,0,3.69-.68,7.49,7.49,0,0,0,2.79-1.95,8.78,8.78,0,0,0,1.76-3.1A12.68,12.68,0,0,0,2098.93,186.57Z" transform="translate(-122.81 -94.07)"/><path class="cls-80" d="M2114.23,200.59H2109V172.54h5.24Z" transform="translate(-122.81 -94.07)"/><path class="cls-81" d="M2117.78,172.54H2122a1.79,1.79,0,0,1,1.11.33,2,2,0,0,1,.64.85l6.59,17.11c.22.56.43,1.17.63,1.84s.4,1.37.58,2.1a23.35,23.35,0,0,1,1.1-3.94l6.58-17.11a2,2,0,0,1,.62-.81,1.67,1.67,0,0,1,1.11-.37h4.21l-11.33,28.05h-4.72Z" transform="translate(-122.81 -94.07)"/><path class="cls-82" d="M2149.69,196.52V193.1a1.32,1.32,0,0,1,.2-.7,1.55,1.55,0,0,1,.64-.56l7-3.62a9,9,0,0,1,2-.7c-.38-.09-.73-.19-1.06-.3a7.17,7.17,0,0,1-.94-.4l-7-3.61a1.61,1.61,0,0,1-.64-.55,1.36,1.36,0,0,1-.2-.71v-3.42l15.37,8v1.94Z" transform="translate(-122.81 -94.07)"/><circle class="cls-83" cx="2259.48" cy="451.89" r="86.44" transform="translate(219.45 1635.98) rotate(-45)"/><circle class="cls-33" cx="2260.16" cy="451.05" r="72.34" transform="translate(220.24 1636.22) rotate(-45)"/><path class="cls-84" d="M2222.28,448.55l23.36-12.18v5.19a2,2,0,0,1-.3,1.08,2.48,2.48,0,0,1-1,.84l-10.7,5.48a9,9,0,0,1-1.43.6c-.51.17-1,.32-1.61.46.57.14,1.1.29,1.61.46a11.33,11.33,0,0,1,1.43.6l10.7,5.52a2.33,2.33,0,0,1,1,.84,2,2,0,0,1,.3,1.07v5.19l-23.36-12.2Z" transform="translate(-122.81 -94.07)"/><path class="cls-85" d="M2258.81,470a4.08,4.08,0,0,1-.67,1.18,3.78,3.78,0,0,1-.95.84,4.23,4.23,0,0,1-1.12.52,3.88,3.88,0,0,1-1.15.18h-3.06l17.22-44.05a4.15,4.15,0,0,1,1.44-1.91,3.87,3.87,0,0,1,2.27-.66h3.1Z" transform="translate(-122.81 -94.07)"/><path class="cls-86" d="M2282,463.7v-5.19a2.07,2.07,0,0,1,.29-1.07,2.3,2.3,0,0,1,1-.84l10.7-5.52a14.37,14.37,0,0,1,3-1.06c-.57-.14-1.11-.29-1.61-.46a8.63,8.63,0,0,1-1.43-.6l-10.7-5.48a2.44,2.44,0,0,1-1-.84,2.13,2.13,0,0,1-.29-1.08v-5.19l23.35,12.18v2.95Z" transform="translate(-122.81 -94.07)"/><path class="cls-87" d="M1972.52,536.82l51.07,69.93-22.37,16.39a2.42,2.42,0,0,0,.78,4.28L2076.1,648a3,3,0,0,0,3.75-3.06l-4.75-69.08a2.25,2.25,0,0,0-3.65-1.6l-20.4,16.25L1992.51,523a3.68,3.68,0,0,0-4.93-.58l-14.4,10.3A2.9,2.9,0,0,0,1972.52,536.82Z" transform="translate(-122.81 -94.07)"/><path class="cls-87" d="M1903,553.38l-3.87,94.73,24-.41a2.09,2.09,0,0,1,1.58,3.41l-42,51.41a2.56,2.56,0,0,1-4.17-.29l-31-51.1a1.94,1.94,0,0,1,1.77-3l22.49,1.31,2.74-96.08a3,3,0,0,1,3-2.94h22.74A2.8,2.8,0,0,1,1903,553.38Z" transform="translate(-122.81 -94.07)"/><path class="cls-87" d="M1783.83,529.1l-50.46,72.53,19.07,11.68a2,2,0,0,1-.47,3.48l-58.79,19.37a2.38,2.38,0,0,1-3.13-2.31l1.17-55.72a1.81,1.81,0,0,1,2.87-1.43l17,12.28,50.24-74.16a2.82,2.82,0,0,1,3.85-.79l17.88,11.38A2.61,2.61,0,0,1,1783.83,529.1Z" transform="translate(-122.81 -94.07)"/><path class="cls-87" d="M1677.75,398l-48.12,4.94,3.3,20.42a1.8,1.8,0,0,1-2.72,1.77l-49-29.57a2.2,2.2,0,0,1-.26-3.59l39.8-32.79a1.68,1.68,0,0,1,2.74,1.16l1.64,19.35,49.44-5.69a1.64,1.64,0,0,1,1.79,1.32L1680,395A2.56,2.56,0,0,1,1677.75,398Z" transform="translate(-122.81 -94.07)"/><path class="cls-87" d="M2047.76,399.46l55.33,5.29L2104,381a2.07,2.07,0,0,1,3.46-1.38L2156,424a2.53,2.53,0,0,1-.51,4.11l-52.23,28a1.93,1.93,0,0,1-2.83-1.92L2103,432l-57-4.73a1.88,1.88,0,0,1-1.71-1.89l.28-23A2.93,2.93,0,0,1,2047.76,399.46Z" transform="translate(-122.81 -94.07)"/><path class="cls-4" d="M243.68,1397.08H642.87V1327.7H243.68C252.23,1327.7,252.23,1397.08,243.68,1397.08Z" transform="translate(-122.81 -94.07)"/><path class="cls-10" d="M642.87,1379.72V1348c0-11.19-7.89-20.27-17.62-20.27H245.37c-7.65,0-13.86-5.38-13.86-12a4,4,0,0,1,4.21-3.65H650.9c9.52,0,24.64,13,24.64,29v44.34c0,15.12-14.68,27.38-23.66,27.38h-414c-3.54,0-6.4-2.49-6.4-5.56,0-5.59,5.23-10.13,11.67-10.13H627.77C636.11,1397.08,642.87,1389.31,642.87,1379.72Z" transform="translate(-122.81 -94.07)"/><path class="cls-88" d="M631.79,1342.93H257.51a1,1,0,1,1,0-2H631.79a1,1,0,1,1,0,2Z" transform="translate(-122.81 -94.07)"/><path class="cls-89" d="M631.79,1353.23H257.51a1,1,0,0,1,0-2H631.79a1,1,0,1,1,0,2Z" transform="translate(-122.81 -94.07)"/><path class="cls-90" d="M631.79,1363.52H257.51a1,1,0,0,1,0-2H631.79a1,1,0,1,1,0,2Z" transform="translate(-122.81 -94.07)"/><path class="cls-91" d="M631.79,1373.82H257.51a1,1,0,1,1,0-2H631.79a1,1,0,1,1,0,2Z" transform="translate(-122.81 -94.07)"/><path class="cls-92" d="M631.79,1384.12H257.51a1,1,0,0,1,0-2H631.79a1,1,0,1,1,0,2Z" transform="translate(-122.81 -94.07)"/><rect class="cls-93" y="1317.96" width="532.76" height="115.92" rx="21.39"/><rect class="cls-10" x="60.21" y="1331.28" width="62.59" height="89.28" rx="7.24"/><rect class="cls-10" x="132" y="1331.28" width="23.48" height="89.28" rx="5.89"/><path class="cls-94" d="M694.44,1255.11h.29l126.46-.13a5.65,5.65,0,1,0,0-11.3l-126.46.13a5.65,5.65,0,0,0-.28,11.29Z" transform="translate(-122.81 -94.07)"/><path class="cls-95" d="M870.17,1131.27a2.1,2.1,0,0,0-.13.26l-53.21,114.72a5.65,5.65,0,1,0,10.25,4.75l53.21-114.72a5.65,5.65,0,0,0-10.12-5Z" transform="translate(-122.81 -94.07)"/><path class="cls-10" d="M750.75,1261.46c-.55,2.29-53.32,200.19-66.7,250.36a9.07,9.07,0,0,0,8.68,11.46h0a9,9,0,0,0,8.73-6.89L760,1278.9Z" transform="translate(-122.81 -94.07)"/><path class="cls-10" d="M779.65,1261.46c.55,2.29,53.32,200.19,66.69,250.36a9.06,9.06,0,0,1-8.68,11.46h0a9,9,0,0,1-8.72-6.89L770.36,1278.9Z" transform="translate(-122.81 -94.07)"/><path class="cls-10" d="M781.84,1255H749v26.39a6.83,6.83,0,0,0,6.79,6.87h4.5v59.28a5.17,5.17,0,0,0,5.14,5.2h0a5.17,5.17,0,0,0,5.14-5.2v-59.28h2.29a9.06,9.06,0,0,0,9-9.12Z" transform="translate(-122.81 -94.07)"/><path class="cls-4" d="M668.17,1248.65H851.68a5.64,5.64,0,0,1,5.44,4.27l2.56,10a5.67,5.67,0,0,1-5.47,7.11l-188.3-1.1a5.68,5.68,0,0,1-5.42-7.08l2.23-9A5.64,5.64,0,0,1,668.17,1248.65Z" transform="translate(-122.81 -94.07)"/><path class="cls-96" d="M675.23,1513.7c-20.81,0-30-1.79-34.13-3.42a7.89,7.89,0,0,0,7.69,6.12h73.62a3.58,3.58,0,0,0,3.45-4.52C717.47,1512.55,699.65,1513.7,675.23,1513.7Z" transform="translate(-122.81 -94.07)"/><path class="cls-97" d="M725.86,1511.88a3.43,3.43,0,0,0-.6-1.25c-5.61-7.16-16.87-18.41-32.2-18.19-22.45.31-30.28,2.75-47.72.13l-4.12,13.65a7.8,7.8,0,0,0-.12,4.06c4.11,1.63,13.32,3.42,34.13,3.42C699.65,1513.7,717.47,1512.55,725.86,1511.88Z" transform="translate(-122.81 -94.07)"/><path class="cls-98" d="M650.39,1477.87l-5,17.18s11.19,5.1,21,1l1.94-14.89Z" transform="translate(-122.81 -94.07)"/><path class="cls-99" d="M803,1502.88c-16.22,13-24.51,17.42-28.74,18.73a7.89,7.89,0,0,0,9.81-.07l57.39-46.12a3.57,3.57,0,0,0-.13-5.67C835.19,1475.53,822,1487.59,803,1502.88Z" transform="translate(-122.81 -94.07)"/><path class="cls-100" d="M841.31,1469.75a3.37,3.37,0,0,0-1.25-.59c-8.83-2-24.63-3.71-36.44,6.06-17.3,14.3-21.88,21.09-37.11,30l5.29,13.17a7.73,7.73,0,0,0,2.44,3.23c4.23-1.31,12.52-5.7,28.74-18.73C822,1487.59,835.19,1475.53,841.31,1469.75Z" transform="translate(-122.81 -94.07)"/><path class="cls-101" d="M542.32,1282.12s124.59,10.17,150.15,22.2S671.62,1485,671.62,1485s-7,3.35-22.45-1.46c0,0,15.88-124.45,4.07-151.44L518.33,1310Z" transform="translate(-122.81 -94.07)"/><path class="cls-102" d="M754.13,1481.52c1.15,1.06,12.38,23.69,12.38,23.69s12.49-2.7,15-10.61l-11.24-20.43Z" transform="translate(-122.81 -94.07)"/><path class="cls-103" d="M467.28,1281.08a63.1,63.1,0,0,0-3.9,22.75c.23,18,14.67,32.52,32.6,33.42L643.27,1344a7,7,0,0,1,6.52,5.3c3.47,13.39,20.38,54.5,103.08,136.54a6.68,6.68,0,0,0,8.25.9l11.77-7.44a2.7,2.7,0,0,0,.89-3.66L688,1329.16a33.16,33.16,0,0,0-20.16-15l-125.54-32.09Z" transform="translate(-122.81 -94.07)"/><path class="cls-104" d="M638.15,1055.6s-41.5,24.61-57.58,38.12l33.25,18.56s18-20.76,35.08-29.41Z" transform="translate(-122.81 -94.07)"/><path class="cls-105" d="M464.6,1282.12s39.77,9.69,77.72,0c0,0,53.11-71.4,73.66-90.83,0,0,39.31,52.41,114.16,54.76l-5.9-7.54s-56.55-24-74.43-65.17-25.06-58.68-41.32-69.41c-10.13-6.68-16.2-11.25-19.33-13.74a5.2,5.2,0,0,0-6-.38C565.94,1100.33,484.72,1156,464.6,1282.12Z" transform="translate(-122.81 -94.07)"/><path class="cls-106" d="M613.42,1188c-12.48-16.28-19.64-34.78-19.72-35l.93-.36a158.61,158.61,0,0,0,19.58,34.71Z" transform="translate(-122.81 -94.07)"/><path class="cls-107" d="M721.88,1239.14l8.22-2.19,24.93-5.77a11.58,11.58,0,0,1,8.76,1.48l21.43,13.48L726,1246Z" transform="translate(-122.81 -94.07)"/><path class="cls-108" d="M678.54,1036.22c.12.86-11.37,57.2-11.37,57.2l-32-7.25,3-55S676.46,1021.81,678.54,1036.22Z" transform="translate(-122.81 -94.07)"/><path class="cls-109" d="M645.31,1043.42l-3.83,28.84a4.05,4.05,0,0,0,0,1.1c.33,2.26,2,10,9.78,7.76,7-2,13.51-3.72,18-2.35a4.05,4.05,0,0,1,2.8,4.69,176.62,176.62,0,0,1-7.37,26.25,4.06,4.06,0,0,1-4.93,2.4c-6.07-1.77-18.78-5.86-28.23-11.55a4.07,4.07,0,0,1-2-3.66c.31-7.28,1.16-29.41.44-35.61-.67-5.83-7.81-9.31-10.92-10.56a4,4,0,0,1-2.22-2.24c-1.44-3.6-3.42-11.94,7.08-15.35a4.08,4.08,0,0,0,2.58-5.27c-1.56-4.33-2.21-10.94,5.92-14.58s14.43.7,17.76,4.28a4.06,4.06,0,0,0,5.18.61,3.22,3.22,0,0,1,3.66.12,4,4,0,0,0,5.67-1.71c2-4.06,6-8.41,14.1-7,14.35,2.46,16,18.36,12.19,27.68s-19.2,5.77-26.93,1.08c-5.87-3.58-13.5.17-16.82,2.17A4,4,0,0,0,645.31,1043.42Z" transform="translate(-122.81 -94.07)"/><path class="cls-110" d="M628.67,1071.8s5.9-16.52-.16-20.57-15-1.94-13.06,10C617.91,1076.14,628.67,1071.8,628.67,1071.8Z" transform="translate(-122.81 -94.07)"/><path class="cls-87" d="M1372.6,983.33l1.58,2.52a.53.53,0,0,1-.89.57v0l-1.52-2.55a.49.49,0,0,1,.17-.68A.5.5,0,0,1,1372.6,983.33Z" transform="translate(-122.81 -94.07)"/><path class="cls-87" d="M1377.91,991.7l1.62,2.49a.63.63,0,0,1-.18.87.62.62,0,0,1-.88-.18h0l-1.57-2.53a.6.6,0,0,1,.19-.83A.61.61,0,0,1,1377.91,991.7Z" transform="translate(-122.81 -94.07)"/><path class="cls-87" d="M1383.36,1000l1.66,2.46a.72.72,0,1,1-1.19.82h0l-1.63-2.5a.7.7,0,0,1,.2-1A.71.71,0,0,1,1383.36,1000Z" transform="translate(-122.81 -94.07)"/><path class="cls-87" d="M1389,1008.12l1.72,2.42h0a.81.81,0,0,1-.19,1.13.8.8,0,0,1-1.12-.2h0l-1.69-2.45a.79.79,0,0,1,.2-1.09.78.78,0,0,1,1.08.19Z" transform="translate(-122.81 -94.07)"/><path class="cls-87" d="M1394.77,1016.12l1.79,2.37h0a.88.88,0,0,1-.17,1.24.89.89,0,0,1-1.24-.18h0l-1.76-2.41a.86.86,0,0,1,1.39-1Z" transform="translate(-122.81 -94.07)"/><path class="cls-87" d="M1400.81,1024l1.85,2.31h0a1,1,0,0,1-1.51,1.21h0l-1.83-2.36a.94.94,0,0,1,.17-1.32,1,1,0,0,1,1.31.15Z" transform="translate(-122.81 -94.07)"/><path class="cls-87" d="M1407.08,1031.59l1.93,2.25h0a1,1,0,0,1-.11,1.47,1.05,1.05,0,0,1-1.47-.11v0l-1.91-2.29a1,1,0,0,1,1.56-1.32Z" transform="translate(-122.81 -94.07)"/><path class="cls-87" d="M1413.59,1039l2,2.19h0a1.11,1.11,0,1,1-1.64,1.5h0l-2-2.23a1.09,1.09,0,1,1,1.62-1.47Z" transform="translate(-122.81 -94.07)"/><path class="cls-87" d="M1420.34,1046.21l2.08,2.11h0a1.16,1.16,0,0,1-1.66,1.63h0l-2.08-2.15a1.15,1.15,0,0,1,0-1.62,1.14,1.14,0,0,1,1.61,0Z" transform="translate(-122.81 -94.07)"/><path class="cls-87" d="M1427.36,1053.15l2.16,2h0a1.21,1.21,0,1,1-1.65,1.77h0l-2.16-2.07a1.19,1.19,0,0,1,1.64-1.73Z" transform="translate(-122.81 -94.07)"/><path class="cls-87" d="M1434.65,1059.78l2.25,1.93h0a1.26,1.26,0,1,1-1.64,1.91h0l-2.25-2a1.24,1.24,0,0,1,1.63-1.88Z" transform="translate(-122.81 -94.07)"/><path class="cls-87" d="M1442.23,1066.08l2.33,1.82h0A1.31,1.31,0,0,1,1443,1070h0l-2.34-1.86a1.29,1.29,0,0,1,1.6-2Z" transform="translate(-122.81 -94.07)"/><path class="cls-87" d="M1450.1,1072l2.42,1.7h0a1.36,1.36,0,1,1-1.56,2.22h0l-2.43-1.74a1.34,1.34,0,0,1,1.54-2.19Z" transform="translate(-122.81 -94.07)"/><path class="cls-87" d="M1458.27,1077.48l2.51,1.55h0a1.41,1.41,0,0,1-1.48,2.39h0l-2.54-1.6a1.39,1.39,0,0,1,1.48-2.36Z" transform="translate(-122.81 -94.07)"/><path class="cls-87" d="M1466.73,1082.47l2.6,1.4h0a1.45,1.45,0,1,1-1.38,2.56h0l-2.63-1.44a1.44,1.44,0,0,1,1.38-2.53Z" transform="translate(-122.81 -94.07)"/><path class="cls-87" d="M1475.48,1086.92l2.68,1.22h0a1.5,1.5,0,1,1-1.25,2.73h0l-2.72-1.27a1.49,1.49,0,0,1,1.24-2.7Z" transform="translate(-122.81 -94.07)"/><path class="cls-87" d="M1484.49,1090.77l2.76,1h0a1.52,1.52,0,1,1-1.06,2.84h0l-2.81-1.06a1.52,1.52,0,0,1,1.07-2.84Z" transform="translate(-122.81 -94.07)"/><path class="cls-87" d="M1493.76,1094l2.82.82h0a1.54,1.54,0,0,1-.85,3h0l-2.88-.85a1.53,1.53,0,1,1,.86-2.93Z" transform="translate(-122.81 -94.07)"/><path class="cls-87" d="M1503.23,1096.42l2.87.58h0a1.55,1.55,0,1,1-.62,3h0l-3-.61a1.55,1.55,0,0,1,.63-3Z" transform="translate(-122.81 -94.07)"/><path class="cls-87" d="M1512.86,1098.09l2.92.34h0a1.57,1.57,0,0,1-.37,3.12h0l-3-.37a1.56,1.56,0,0,1,.38-3.1Z" transform="translate(-122.81 -94.07)"/><path class="cls-87" d="M1522.61,1099l2.93.11h0a1.59,1.59,0,0,1-.12,3.17h0l-3-.12a1.58,1.58,0,0,1,.12-3.16Z" transform="translate(-122.81 -94.07)"/><path class="cls-87" d="M1532.39,1099.05l2.93-.11h0a1.6,1.6,0,1,1,.12,3.19h0l-3,.11a1.6,1.6,0,0,1-.11-3.19Z" transform="translate(-122.81 -94.07)"/><path class="cls-87" d="M1542.16,1098.43l2.92-.33h0a1.62,1.62,0,1,1,.36,3.21h0l-3,.32a1.61,1.61,0,0,1-.34-3.2Z" transform="translate(-122.81 -94.07)"/><path class="cls-87" d="M1551.87,1097.13l2.9-.51h0a1.64,1.64,0,0,1,.57,3.22h0l-3,.51a1.63,1.63,0,1,1-.55-3.21Z" transform="translate(-122.81 -94.07)"/><path class="cls-87" d="M1561.49,1095.22l2.87-.68h0a1.65,1.65,0,0,1,.76,3.21h0l-2.93.68a1.64,1.64,0,0,1-.75-3.2Z" transform="translate(-122.81 -94.07)"/><path class="cls-87" d="M1571,1092.76l2.83-.84h0a1.66,1.66,0,0,1,1,3.19h0l-2.88.84a1.66,1.66,0,1,1-.93-3.18Z" transform="translate(-122.81 -94.07)"/><path class="cls-87" d="M1580.37,1089.81l2.79-1h0a1.68,1.68,0,0,1,1.11,3.17h0l-2.84,1a1.68,1.68,0,1,1-1.09-3.17Z" transform="translate(-122.81 -94.07)"/><path class="cls-87" d="M1589.61,1086.42l2.74-1.09h0a1.69,1.69,0,0,1,1.25,3.14l-2.78,1.11a1.69,1.69,0,0,1-1.26-3.14h0Z" transform="translate(-122.81 -94.07)"/><path class="cls-87" d="M1598.71,1082.67l2.7-1.2h0a1.67,1.67,0,0,1,1.35,3l-2.73,1.22a1.69,1.69,0,0,1-2.21-.85,1.66,1.66,0,0,1,.85-2.21h0Z" transform="translate(-122.81 -94.07)"/><path class="cls-87" d="M1607.66,1078.57l2.66-1.29h0a1.66,1.66,0,0,1,1.45,3l-2.69,1.31a1.66,1.66,0,0,1-1.46-3h0Z" transform="translate(-122.81 -94.07)"/><path class="cls-87" d="M1616.49,1074.17l2.62-1.38h0a1.64,1.64,0,0,1,1.53,2.91l-2.64,1.4a1.65,1.65,0,1,1-1.54-2.92h0Z" transform="translate(-122.81 -94.07)"/><path class="cls-87" d="M1625.17,1069.49l2.58-1.45h0a1.65,1.65,0,0,1,2.23.62,1.63,1.63,0,0,1-.63,2.22l-2.59,1.47a1.64,1.64,0,0,1-2.23-.62,1.63,1.63,0,0,1,.62-2.23h0Z" transform="translate(-122.81 -94.07)"/><path class="cls-87" d="M1633.75,1064.59l2.55-1.51h0a1.61,1.61,0,0,1,1.64,2.78l-2.56,1.53a1.62,1.62,0,0,1-1.66-2.79h0Z" transform="translate(-122.81 -94.07)"/><path class="cls-87" d="M1642.22,1059.51l2.53-1.55h0a1.6,1.6,0,0,1,1.68,2.73l-2.54,1.56a1.61,1.61,0,0,1-1.69-2.73h0Z" transform="translate(-122.81 -94.07)"/><path class="cls-87" d="M1650.62,1054.3l2.52-1.59h0a1.59,1.59,0,0,1,1.7,2.68l-2.51,1.6a1.59,1.59,0,1,1-1.71-2.69Z" transform="translate(-122.81 -94.07)"/><path class="cls-87" d="M1659,1049l2.5-1.61a1.57,1.57,0,1,1,1.71,2.64l-2.49,1.62A1.58,1.58,0,1,1,1659,1049Z" transform="translate(-122.81 -94.07)"/><path class="cls-87" d="M1667.28,1043.59l2.49-1.62a1.56,1.56,0,1,1,1.71,2.61l-2.48,1.63a1.57,1.57,0,0,1-1.72-2.62Z" transform="translate(-122.81 -94.07)"/><path class="cls-87" d="M1675.58,1038.17l2.49-1.63a1.55,1.55,0,0,1,1.7,2.59l-2.49,1.64a1.56,1.56,0,0,1-1.71-2.6Z" transform="translate(-122.81 -94.07)"/><path class="cls-87" d="M1683.88,1032.75l2.5-1.62a1.54,1.54,0,0,1,1.67,2.58l-2.49,1.62a1.54,1.54,0,1,1-1.68-2.57Z" transform="translate(-122.81 -94.07)"/><path class="cls-87" d="M1692.22,1027.37l2.51-1.6a1.52,1.52,0,1,1,1.63,2.56l-2.49,1.61a1.53,1.53,0,0,1-1.66-2.57Z" transform="translate(-122.81 -94.07)"/><path class="cls-87" d="M1700.6,1022.06l2.53-1.58a1.51,1.51,0,1,1,1.6,2.56h0l-2.52,1.58h0a1.51,1.51,0,1,1-1.61-2.56Z" transform="translate(-122.81 -94.07)"/><path class="cls-87" d="M1709.07,1016.86l2.56-1.53a1.47,1.47,0,0,1,1.52,2.52h0l-2.53,1.54h0a1.48,1.48,0,0,1-2-.49,1.5,1.5,0,0,1,.5-2Z" transform="translate(-122.81 -94.07)"/><path class="cls-87" d="M1717.64,1011.82l2.59-1.48a1.42,1.42,0,0,1,2,.53,1.43,1.43,0,0,1-.52,2h0l-2.56,1.49h0a1.45,1.45,0,1,1-1.45-2.5Z" transform="translate(-122.81 -94.07)"/><path class="cls-87" d="M1726.32,1007l2.63-1.41a1.39,1.39,0,0,1,1.33,2.44h0l-2.6,1.43h0a1.4,1.4,0,0,1-1.35-2.46Z" transform="translate(-122.81 -94.07)"/><path class="cls-87" d="M1735.14,1002.32l2.68-1.33a1.35,1.35,0,0,1,1.2,2.42h0l-2.64,1.34h0a1.36,1.36,0,1,1-1.23-2.43Z" transform="translate(-122.81 -94.07)"/><path class="cls-87" d="M1744.17,998.06l2.76-1.17a1.31,1.31,0,0,1,1,2.41h0l-2.7,1.17h0a1.32,1.32,0,0,1-1-2.43Z" transform="translate(-122.81 -94.07)"/><path class="cls-87" d="M1753.51,994.43l2.87-.92a1.27,1.27,0,0,1,.78,2.41h0l-2.79.92h0a1.28,1.28,0,1,1-.8-2.43Z" transform="translate(-122.81 -94.07)"/><path class="cls-87" d="M1763.2,991.76l3-.56a1.22,1.22,0,0,1,.46,2.4h-.05l-2.87.57h0a1.24,1.24,0,0,1-.48-2.43Z" transform="translate(-122.81 -94.07)"/><path class="cls-87" d="M1773.21,990.42l3-.08a1.18,1.18,0,0,1,.08,2.36h-.06l-2.91.1h-.07a1.2,1.2,0,0,1-.08-2.39Z" transform="translate(-122.81 -94.07)"/><path class="cls-87" d="M1783.32,990.84l3,.52a1.13,1.13,0,0,1,.93,1.31,1.15,1.15,0,0,1-1.31.94h-.06l-2.87-.47h-.07a1.15,1.15,0,0,1,.37-2.28Z" transform="translate(-122.81 -94.07)"/><path class="cls-87" d="M1793.15,993.22l2.84,1.07a1.08,1.08,0,0,1,.64,1.41,1.1,1.1,0,0,1-1.4.65l-.06,0-2.73-1-.06,0a1.11,1.11,0,0,1,.76-2.09Z" transform="translate(-122.81 -94.07)"/><path class="cls-87" d="M1802.36,997.34l2.6,1.53a1,1,0,0,1,.37,1.41,1,1,0,0,1-1.4.38l0,0-2.54-1.44,0,0a1.06,1.06,0,0,1-.39-1.44,1,1,0,0,1,1.43-.4Z" transform="translate(-122.81 -94.07)"/><path class="cls-87" d="M1810.75,1002.89l2.34,1.9a1,1,0,0,1-1.2,1.5l0,0-2.31-1.81,0,0a1,1,0,0,1,1.21-1.54Z" transform="translate(-122.81 -94.07)"/><path class="cls-87" d="M1818.21,1009.6l2,2.2A.89.89,0,0,1,1819,1013l0,0-2-2.12,0,0a.91.91,0,0,1,1.31-1.25Z" transform="translate(-122.81 -94.07)"/><path class="cls-87" d="M1824.68,1017.25l1.74,2.45a.81.81,0,0,1-1.32.95l0,0-1.73-2.37,0,0a.83.83,0,1,1,1.34-1Z" transform="translate(-122.81 -94.07)"/><path class="cls-87" d="M1830.09,1025.67l1.41,2.65a.74.74,0,0,1-1.3.7v0l-1.42-2.58,0,0a.76.76,0,0,1,1.34-.73Z" transform="translate(-122.81 -94.07)"/><path class="cls-87" d="M1834.37,1034.71l1.05,2.8a.66.66,0,0,1-1.24.48v0l-1.07-2.74v0a.69.69,0,1,1,1.28-.5Z" transform="translate(-122.81 -94.07)"/><path class="cls-87" d="M1837.44,1044.21l.67,2.93a.59.59,0,0,1-1.15.27v0l-.71-2.87v0a.61.61,0,0,1,1.19-.29Z" transform="translate(-122.81 -94.07)"/><path class="cls-87" d="M1839.21,1054l.27,3a.53.53,0,0,1-.47.56.52.52,0,0,1-.56-.46v0l-.31-2.93v0a.54.54,0,1,1,1.07-.11Z" transform="translate(-122.81 -94.07)"/></svg>