<svg data-v-743d8146="" width="50px" height="50px" viewBox="0 0 512 512" version="1.1" xmlns="http://www.w3.org/2000/svg"><g data-v-743d8146="" id="#000000ff"><path data-v-743d8146="" fill="rgb(108,96,254)" opacity="1.00" d=" M 357.26 0.00 L 359.50 0.00 C 364.77 0.70 368.43 6.57 366.39 11.57 C 360.85 28.30 355.25 45.01 349.69 61.72 C 348.80 64.85 346.27 67.52 343.00 68.09 C 338.74 69.05 334.16 66.15 333.11 61.94 C 332.38 59.58 333.19 57.16 333.92 54.92 C 339.40 38.68 344.74 22.40 350.22 6.16 C 351.14 2.91 354.00 0.63 357.26 0.00 Z"></path> <path data-v-743d8146="" fill="rgb(108,96,254)" opacity="1.00" d=" M 302.77 9.84 C 306.75 7.14 312.78 8.88 314.78 13.22 C 316.73 16.86 315.47 21.79 312.02 24.06 C 307.06 27.51 301.95 30.74 296.97 34.15 C 301.99 37.51 307.08 40.79 312.06 44.22 C 315.69 46.61 316.81 51.92 314.49 55.59 C 312.21 59.60 306.48 60.98 302.65 58.37 C 294.02 52.69 285.41 46.96 276.85 41.17 C 273.29 38.87 272.01 33.77 274.13 30.09 C 275.21 27.91 277.43 26.73 279.34 25.39 C 287.16 20.23 294.91 14.94 302.77 9.84 Z"></path> <path data-v-743d8146="" fill="rgb(108,96,254)" opacity="1.00" d=" M 386.80 10.79 C 389.70 7.98 394.49 7.88 397.70 10.24 C 405.94 15.74 414.20 21.23 422.44 26.74 C 425.81 28.79 427.55 33.18 426.16 36.93 C 425.33 39.60 422.94 41.24 420.73 42.71 C 412.86 47.83 405.13 53.17 397.25 58.28 C 393.63 60.80 388.19 59.87 385.68 56.23 C 382.90 52.69 383.72 46.97 387.44 44.41 C 392.47 40.88 397.68 37.61 402.76 34.13 C 397.61 30.61 392.32 27.30 387.23 23.69 C 383.15 20.71 382.95 14.04 386.80 10.79 Z"></path> <path data-v-743d8146="" fill="rgb(108,96,254)" opacity="1.00" d=" M 191.23 36.20 C 194.79 33.23 200.53 34.08 203.28 37.75 C 219.32 56.44 235.35 75.15 251.38 93.86 C 317.00 93.91 382.61 93.80 448.23 93.91 C 464.51 75.21 480.51 56.26 496.71 37.48 C 499.50 33.93 505.15 33.35 508.60 36.28 C 512.13 38.99 512.84 44.58 510.02 48.05 C 493.77 67.42 476.91 86.31 460.84 105.81 C 460.72 158.90 460.87 212.00 460.77 265.09 C 460.82 278.28 449.15 290.04 435.95 290.09 C 378.63 290.16 321.29 290.15 263.97 290.10 C 250.67 290.14 238.84 278.28 238.96 264.97 C 238.85 211.77 239.04 158.57 238.86 105.37 C 222.58 86.55 206.46 67.60 190.24 48.72 C 186.87 45.26 187.33 39.08 191.23 36.20 M 256.01 110.94 C 256.00 161.98 255.99 213.02 256.01 264.07 C 255.65 268.94 260.05 273.37 264.92 273.05 C 320.26 273.09 375.60 273.04 430.94 273.08 C 433.86 273.01 437.09 273.46 439.67 271.77 C 442.30 270.19 443.83 267.13 443.72 264.09 C 443.75 213.04 443.73 161.99 443.72 110.94 C 423.82 110.93 403.91 110.93 384.01 110.94 C 383.94 128.32 384.10 145.69 383.93 163.07 C 383.68 172.16 375.07 179.86 366.01 179.13 C 359.69 178.98 354.95 174.36 349.86 171.25 C 344.62 174.55 339.60 179.31 333.00 179.16 C 324.13 179.49 315.97 171.84 315.79 162.96 C 315.65 145.62 315.78 128.28 315.73 110.95 C 295.82 110.92 275.91 110.93 256.01 110.94 M 332.81 110.94 C 332.79 128.00 332.80 145.05 332.81 162.11 C 338.13 158.83 343.24 153.95 349.94 154.22 C 356.59 154.04 361.68 158.81 366.97 162.13 C 366.97 145.06 366.95 128.00 366.93 110.94 C 355.55 110.93 344.18 110.92 332.81 110.94 Z"></path> <path data-v-743d8146="" fill="rgb(108,96,254)" opacity="1.00" d=" M 278.38 222.51 C 283.52 220.16 290.07 224.33 290.08 229.99 C 290.17 235.99 290.19 242.01 290.06 248.01 C 289.95 253.00 284.72 256.97 279.88 255.80 C 275.87 255.06 272.86 251.14 273.08 247.09 C 273.07 241.38 273.00 235.68 273.12 229.98 C 273.19 226.74 275.37 223.70 278.38 222.51 Z"></path> <path data-v-743d8146="" fill="rgb(108,96,254)" opacity="1.00" d=" M 313.17 222.28 C 317.88 220.63 323.45 224.03 324.11 228.97 C 324.48 233.96 324.15 238.97 324.28 243.97 C 324.63 247.99 323.91 252.83 319.93 254.87 C 315.08 257.89 307.98 254.48 307.34 248.81 C 307.02 242.86 307.26 236.89 307.21 230.94 C 306.98 227.14 309.48 223.36 313.17 222.28 Z"></path> <path data-v-743d8146="" fill="rgb(108,96,254)" opacity="1.00" d=" M 144.25 304.22 C 150.07 301.24 156.47 299.42 162.98 298.87 C 171.10 298.05 179.11 300.02 187.10 301.17 C 247.73 310.77 308.36 320.37 368.98 330.02 C 382.81 332.05 393.91 344.35 395.08 358.20 C 417.98 343.72 440.86 329.22 463.75 314.73 C 467.69 312.25 471.56 309.43 476.12 308.20 C 485.24 305.47 495.65 307.82 502.71 314.19 C 507.76 318.62 511.00 324.90 512.00 331.52 L 512.00 339.12 C 511.21 343.69 509.57 348.16 506.78 351.90 C 503.59 356.39 498.86 359.35 494.59 362.69 C 433.07 409.44 371.52 456.16 310.00 502.92 C 303.24 508.19 294.91 511.25 286.39 512.00 L 280.88 512.00 C 273.45 511.36 266.49 508.55 259.44 506.35 C 207.03 489.44 154.59 472.61 102.17 455.70 C 100.51 467.54 90.05 477.49 77.98 477.81 C 60.31 477.92 42.65 477.88 24.98 477.83 C 12.21 477.84 0.96 466.99 0.00 454.34 L 0.00 330.81 C 0.90 318.46 11.61 307.70 24.07 307.27 C 41.72 307.11 59.38 307.23 77.04 307.22 C 88.63 307.12 99.29 315.91 101.75 327.19 C 116.05 319.79 130.02 311.74 144.25 304.22 M 150.95 319.91 C 134.77 328.74 118.59 337.56 102.41 346.39 C 102.38 376.85 102.42 407.31 102.39 437.77 C 160.31 456.47 218.24 475.13 276.17 493.77 C 284.03 496.24 292.96 494.53 299.45 489.49 C 362.94 441.28 426.41 393.05 489.88 344.83 C 493.31 342.41 495.33 338.06 494.61 333.87 C 493.91 328.70 489.16 324.51 483.95 324.44 C 479.24 324.19 475.64 327.62 471.84 329.82 C 418.35 363.66 364.91 397.56 311.42 431.38 C 304.23 436.34 294.05 436.38 286.99 431.16 C 269.95 418.37 253.07 405.35 236.05 392.53 C 222.66 392.49 209.27 392.61 195.89 392.48 C 191.11 392.43 187.11 387.71 187.81 382.98 C 188.24 378.56 192.50 375.13 196.90 375.47 C 252.59 375.43 308.28 375.53 363.96 375.42 C 372.92 375.50 380.13 365.95 377.52 357.35 C 376.13 351.81 371.16 347.49 365.51 346.74 C 301.39 336.54 237.27 326.40 173.14 316.24 C 165.60 314.96 157.67 316.25 150.95 319.91 M 17.09 332.90 C 17.05 372.62 17.05 412.35 17.09 452.07 C 16.85 456.83 21.19 461.07 25.94 460.78 C 42.99 460.79 60.04 460.85 77.09 460.75 C 81.65 460.74 85.55 456.51 85.31 451.98 C 85.37 443.54 85.33 435.11 85.32 426.68 C 76.58 426.60 67.83 426.77 59.09 426.60 C 54.71 426.41 51.01 422.30 51.22 417.93 C 51.20 413.34 55.44 409.35 60.03 409.62 C 68.47 409.55 76.90 409.65 85.34 409.58 C 85.33 398.21 85.33 386.85 85.33 375.49 C 76.89 375.42 68.44 375.52 59.99 375.45 C 55.76 375.64 51.76 372.28 51.29 368.06 C 50.53 363.41 54.34 358.65 59.06 358.47 C 67.81 358.29 76.57 358.46 85.32 358.39 C 85.32 349.91 85.37 341.43 85.31 332.95 C 85.50 328.42 81.54 324.26 77.00 324.31 C 59.99 324.22 42.98 324.27 25.98 324.28 C 21.25 323.97 16.90 328.15 17.09 332.90 M 264.31 392.53 C 275.14 400.74 285.91 409.03 296.78 417.19 C 298.27 418.44 300.45 418.26 301.97 417.16 C 314.91 408.96 327.91 400.83 340.80 392.55 C 315.31 392.50 289.81 392.55 264.31 392.53 Z"></path></g></svg>