<svg data-v-743d8146="" width="50px" height="50px" viewBox="0 0 512 512" version="1.1" xmlns="http://www.w3.org/2000/svg"><g data-v-743d8146="" id="#000000ff"><path data-v-743d8146="" fill="rgb(108,96,254)" opacity="1.00" d=" M 57.76 0.00 L 454.40 0.00 C 466.68 0.97 477.32 11.63 477.78 24.02 C 478.00 35.92 477.79 47.83 477.88 59.73 C 484.04 59.79 490.53 59.15 496.32 61.74 C 505.01 65.26 511.04 73.87 512.00 83.13 L 512.00 402.93 C 511.16 415.65 499.88 426.61 487.07 426.62 C 435.68 426.73 384.29 426.62 332.91 426.68 C 334.83 440.22 341.91 452.88 352.45 461.60 C 358.76 461.39 365.48 461.53 370.99 465.03 C 379.88 470.12 384.85 481.09 382.74 491.13 C 380.77 502.29 370.32 511.18 358.95 511.17 C 290.64 511.24 222.33 511.18 154.03 511.20 C 146.18 511.36 138.40 507.56 133.74 501.25 C 128.80 494.79 127.46 485.81 130.20 478.16 C 132.73 470.81 138.95 464.88 146.40 462.65 C 150.67 461.34 155.18 461.59 159.58 461.60 C 170.10 452.86 177.15 440.21 179.09 426.68 C 127.73 426.62 76.36 426.73 24.99 426.63 C 12.23 426.64 0.98 415.80 0.00 403.17 L 0.00 83.27 C 0.85 73.96 6.94 65.32 15.64 61.76 C 21.44 59.14 27.94 59.80 34.12 59.73 C 34.21 47.85 34.01 35.96 34.21 24.08 C 34.63 11.61 45.40 0.89 57.76 0.00 M 57.49 17.38 C 53.74 18.32 51.04 22.05 51.22 25.90 C 51.17 40.02 51.21 54.14 51.20 68.26 C 187.73 68.27 324.26 68.27 460.79 68.26 C 460.79 54.15 460.83 40.04 460.78 25.94 C 461.06 21.18 456.83 16.86 452.07 17.09 C 323.06 17.03 194.05 17.10 65.04 17.06 C 62.52 17.10 59.97 16.88 57.49 17.38 M 17.07 85.90 C 17.06 179.57 17.07 273.25 17.07 366.93 C 28.41 366.97 39.75 366.88 51.09 366.97 C 55.87 366.75 60.11 371.20 59.69 375.95 C 59.55 380.38 55.47 384.15 51.05 383.97 C 39.72 384.05 28.39 383.97 17.07 384.00 C 17.15 390.04 16.89 396.09 17.19 402.12 C 17.55 406.43 21.70 409.81 25.97 409.58 C 179.31 409.61 332.65 409.61 485.99 409.58 C 490.27 409.82 494.44 406.44 494.81 402.11 C 495.11 396.08 494.84 390.04 494.93 384.00 C 360.29 384.00 225.64 383.99 91.00 384.01 C 87.30 383.88 83.04 384.69 79.97 382.08 C 75.85 378.95 75.81 372.10 79.88 368.91 C 82.96 366.23 87.29 367.05 91.03 366.93 C 225.66 366.94 360.30 366.93 494.93 366.93 C 494.93 273.26 494.95 179.59 494.92 85.92 C 495.16 82.08 492.64 78.27 488.92 77.20 C 485.29 76.43 481.55 76.91 477.87 76.81 C 477.86 158.89 477.87 240.98 477.87 323.06 C 477.99 328.28 476.72 333.57 473.86 337.97 C 469.27 345.37 460.70 349.99 452.00 349.86 C 323.33 349.88 194.65 349.86 65.97 349.87 C 61.36 349.85 56.63 350.16 52.18 348.71 C 42.75 345.90 35.42 337.21 34.34 327.42 C 33.93 322.97 34.21 318.49 34.13 314.03 C 34.13 234.96 34.14 155.88 34.13 76.81 C 30.73 76.85 27.32 76.59 23.95 77.00 C 19.81 77.67 16.81 81.77 17.07 85.90 M 51.21 85.33 C 51.19 164.59 51.21 243.84 51.19 323.09 C 51.01 326.16 52.16 329.42 54.79 331.19 C 57.74 333.40 61.61 332.69 65.04 332.81 C 194.05 332.77 323.05 332.84 452.05 332.78 C 456.75 332.99 460.99 328.77 460.77 324.07 C 460.84 244.49 460.79 164.91 460.79 85.33 C 324.26 85.33 187.74 85.33 51.21 85.33 M 181.13 461.60 C 231.05 461.60 280.97 461.61 330.89 461.59 C 323.63 451.26 318.94 439.18 317.25 426.67 C 276.41 426.66 235.58 426.66 194.75 426.67 C 193.05 439.18 188.36 451.24 181.13 461.60 M 152.23 477.22 C 147.58 477.76 143.92 482.32 144.32 486.96 C 144.50 491.83 149.01 495.92 153.87 495.70 C 221.59 495.78 289.31 495.71 357.03 495.74 C 360.61 495.97 364.40 494.49 366.28 491.32 C 368.98 487.21 367.63 481.17 363.46 478.60 C 360.99 476.87 357.87 477.06 355.01 477.05 C 287.42 477.20 219.81 476.85 152.23 477.22 Z"></path> <path data-v-743d8146="" fill="rgb(108,96,254)" opacity="1.00" d=" M 74.34 34.51 C 80.52 33.68 86.82 34.32 93.05 34.14 C 97.62 33.72 102.08 37.33 102.35 41.95 C 102.88 46.67 98.79 51.22 94.03 51.15 C 88.36 51.26 82.68 51.22 77.01 51.17 C 72.80 51.35 68.85 48.02 68.37 43.84 C 67.72 39.81 70.41 35.61 74.34 34.51 Z"></path> <path data-v-743d8146="" fill="rgb(108,96,254)" opacity="1.00" d=" M 364.40 34.53 C 370.54 32.30 377.23 38.85 375.11 45.03 C 373.66 50.94 365.44 53.23 361.16 48.92 C 356.33 44.87 358.31 36.12 364.40 34.53 Z"></path> <path data-v-743d8146="" fill="rgb(108,96,254)" opacity="1.00" d=" M 398.38 34.58 C 404.52 32.20 411.38 38.76 409.25 45.00 C 407.82 50.98 399.48 53.25 395.21 48.84 C 390.54 44.80 392.43 36.27 398.38 34.58 Z"></path> <path data-v-743d8146="" fill="rgb(108,96,254)" opacity="1.00" d=" M 432.44 34.61 C 437.16 32.81 442.85 36.20 443.58 41.18 C 444.45 45.50 441.39 50.10 437.07 50.96 C 432.80 52.05 428.07 49.20 427.00 44.95 C 425.72 40.76 428.27 35.93 432.44 34.61 Z"></path> <path data-v-743d8146="" fill="rgb(108,96,254)" opacity="1.00" d=" M 115.34 103.47 C 120.64 100.23 128.21 104.65 127.96 110.85 C 128.07 175.57 127.95 240.29 128.02 305.01 C 128.04 307.50 127.94 310.21 126.31 312.26 C 123.77 315.85 118.34 316.81 114.74 314.28 C 111.96 312.51 110.71 309.15 110.93 305.96 C 110.94 241.29 110.93 176.62 110.93 111.94 C 110.69 108.57 112.30 105.09 115.34 103.47 Z"></path> <path data-v-743d8146="" fill="rgb(108,96,254)" opacity="1.00" d=" M 181.31 105.30 C 184.32 101.92 189.99 101.56 193.30 104.69 C 196.82 107.67 197.09 113.56 193.83 116.83 C 187.37 123.48 180.72 129.94 174.21 136.54 C 180.71 143.11 187.33 149.57 193.79 156.19 C 197.29 159.62 196.74 165.98 192.77 168.81 C 189.38 171.49 184.15 170.94 181.29 167.75 C 172.95 159.42 164.63 151.06 156.29 142.72 C 152.74 139.52 152.77 133.47 156.33 130.29 C 164.64 121.94 172.97 113.61 181.31 105.30 Z"></path> <path data-v-743d8146="" fill="rgb(108,96,254)" opacity="1.00" d=" M 235.31 103.29 C 239.93 100.91 246.18 103.91 247.20 109.00 C 247.83 111.39 247.13 113.85 246.00 115.96 C 237.74 132.41 229.54 148.88 221.30 165.33 C 219.72 169.10 215.42 171.52 211.39 170.46 C 206.30 169.44 203.21 163.23 205.63 158.59 C 213.85 141.91 222.27 125.31 230.54 108.65 C 231.59 106.47 233.00 104.28 235.31 103.29 Z"></path> <path data-v-743d8146="" fill="rgb(108,96,254)" opacity="1.00" d=" M 258.88 104.78 C 262.11 101.59 267.80 101.87 270.84 105.19 C 279.34 113.70 287.93 122.11 296.33 130.72 C 299.61 134.02 299.28 139.82 295.84 142.88 C 287.53 151.21 279.21 159.54 270.87 167.84 C 267.96 171.09 262.59 171.61 259.23 168.78 C 255.42 165.92 254.91 159.77 258.29 156.38 C 264.79 149.68 271.50 143.18 278.06 136.52 C 271.49 129.88 264.81 123.34 258.29 116.65 C 255.18 113.42 255.48 107.70 258.88 104.78 Z"></path> <path data-v-743d8146="" fill="rgb(108,96,254)" opacity="1.00" d=" M 168.39 196.59 C 169.89 196.24 171.44 196.27 172.96 196.25 C 226.32 196.32 279.67 196.19 333.02 196.31 C 338.32 196.22 342.58 201.91 341.02 206.99 C 340.06 210.94 336.05 213.62 332.04 213.33 C 278.36 213.33 224.67 213.36 170.99 213.31 C 166.41 213.57 162.14 209.63 162.16 205.02 C 161.97 201.21 164.71 197.54 168.39 196.59 Z"></path> <path data-v-743d8146="" fill="rgb(108,96,254)" opacity="1.00" d=" M 211.44 230.64 C 217.63 230.12 223.88 230.50 230.09 230.42 C 234.40 230.19 238.47 233.65 238.85 237.97 C 239.51 242.59 235.69 247.24 231.00 247.39 C 225.02 247.55 219.03 247.50 213.06 247.41 C 208.99 247.40 205.32 244.05 204.89 240.02 C 204.24 235.81 207.27 231.47 211.44 230.64 Z"></path> <path data-v-743d8146="" fill="rgb(108,96,254)" opacity="1.00" d=" M 262.45 230.68 C 264.94 230.22 267.49 230.42 270.01 230.39 C 305.03 230.42 340.04 230.37 375.06 230.42 C 378.56 230.26 382.04 232.39 383.33 235.67 C 386.08 241.64 380.31 248.52 373.98 247.48 C 337.67 247.44 301.36 247.49 265.05 247.45 C 260.73 247.74 256.54 244.37 256.09 240.03 C 255.45 235.89 258.37 231.60 262.45 230.68 Z"></path> <path data-v-743d8146="" fill="rgb(108,96,254)" opacity="1.00" d=" M 209.36 265.53 C 211.05 264.56 213.06 264.56 214.97 264.52 C 268.28 264.56 321.60 264.51 374.92 264.55 C 379.66 264.17 384.10 268.28 383.98 273.05 C 384.11 277.76 379.78 281.85 375.10 281.58 C 321.39 281.62 267.67 281.60 213.96 281.59 C 210.17 281.82 206.38 279.41 205.25 275.75 C 203.90 271.92 205.75 267.36 209.36 265.53 Z"></path> <path data-v-743d8146="" fill="rgb(108,96,254)" opacity="1.00" d=" M 167.28 299.38 C 169.71 298.38 172.41 298.72 174.98 298.65 C 184.98 298.73 194.99 298.58 204.99 298.72 C 209.40 298.66 213.29 302.58 213.31 306.96 C 213.55 311.51 209.57 315.72 205.00 315.69 C 193.65 315.78 182.29 315.74 170.93 315.71 C 166.90 315.88 163.04 312.87 162.32 308.90 C 161.47 305.07 163.66 300.88 167.28 299.38 Z"></path> <path data-v-743d8146="" fill="rgb(108,96,254)" opacity="1.00" d=" M 235.32 299.48 C 237.39 298.50 239.74 298.69 241.97 298.65 C 272.32 298.73 302.68 298.58 333.03 298.72 C 338.86 298.59 343.16 305.41 340.58 310.63 C 339.19 313.95 335.59 315.94 332.05 315.73 C 301.03 315.72 270.01 315.77 238.99 315.70 C 235.04 315.80 231.32 312.81 230.60 308.93 C 229.74 305.18 231.82 301.05 235.32 299.48 Z"></path></g></svg>