<svg data-v-743d8146="" width="50px" height="50px" viewBox="0 0 512 512" version="1.1" xmlns="http://www.w3.org/2000/svg"><g data-v-743d8146="" id="#000000ff"><path data-v-743d8146="" fill="rgb(108,96,254)" opacity="1.00" d=" M 137.08 17.04 C 140.92 15.81 145.01 15.99 149.00 15.99 C 222.02 16.02 295.05 15.98 368.07 16.02 C 377.49 15.93 386.55 22.01 390.09 30.72 C 392.55 36.15 391.93 42.22 392.00 48.00 C 407.85 47.95 423.70 48.11 439.55 47.92 C 448.08 38.08 464.55 37.18 474.01 46.17 C 482.01 54.02 489.93 61.98 497.83 69.96 C 506.21 78.52 506.39 93.43 498.24 102.22 C 492.30 108.38 486.20 114.41 480.08 120.40 C 479.88 202.96 480.09 285.52 479.97 368.09 C 480.13 376.55 472.51 384.14 464.06 383.98 C 416.39 384.04 368.71 383.97 321.04 384.01 C 323.04 400.00 325.03 416.00 327.05 432.00 C 338.06 432.03 349.07 431.96 360.09 432.02 C 368.53 431.88 376.15 439.46 375.98 447.93 C 376.02 458.63 376.01 469.34 375.98 480.04 C 376.16 488.54 368.50 496.17 360.01 495.98 C 290.65 496.01 221.30 496.02 151.94 495.98 C 143.46 496.16 135.86 488.49 136.02 480.03 C 135.98 469.35 135.99 458.67 136.02 448.00 C 135.83 439.52 143.47 431.85 151.95 432.02 C 162.95 431.96 173.95 432.02 184.96 432.00 C 186.97 416.00 188.96 400.00 190.96 384.01 C 143.29 383.98 95.62 384.03 47.95 383.98 C 39.49 384.16 31.89 376.53 32.02 368.10 C 31.99 266.71 31.99 165.31 32.02 63.92 C 31.86 55.46 39.51 47.83 47.98 48.02 C 71.99 47.97 95.99 48.02 120.00 48.00 C 120.10 42.74 119.48 37.29 121.31 32.25 C 123.73 25.04 129.79 19.21 137.08 17.04 M 136.00 41.08 C 136.01 128.72 135.99 216.36 136.00 304.00 C 141.33 304.00 146.67 304.00 152.00 304.00 C 152.00 223.66 152.00 143.33 152.00 63.00 C 152.02 60.32 151.88 57.62 152.12 54.94 C 152.47 51.08 156.10 47.94 159.96 48.03 C 173.31 47.94 186.65 48.03 200.00 48.00 C 200.00 42.67 200.00 37.33 200.00 32.00 C 181.29 32.02 162.58 31.95 143.87 32.04 C 139.18 31.93 135.45 36.51 136.00 41.08 M 216.00 32.00 C 216.00 42.67 216.00 53.33 216.00 64.00 C 242.67 64.00 269.33 64.00 296.00 64.00 C 296.00 53.33 296.00 42.67 296.00 32.00 C 269.33 32.00 242.67 32.00 216.00 32.00 M 312.00 32.00 C 312.00 37.33 312.00 42.67 312.00 48.00 C 325.38 48.04 338.77 47.94 352.15 48.04 C 356.35 47.97 360.06 51.76 359.96 55.95 C 360.06 79.77 359.96 103.60 360.01 127.43 C 365.10 122.36 370.17 117.28 375.25 112.21 C 376.46 111.17 375.83 109.39 376.02 108.02 C 375.94 85.32 376.07 62.61 375.96 39.91 C 376.04 35.72 372.32 31.96 368.12 32.04 C 349.42 31.95 330.71 32.02 312.00 32.00 M 452.03 58.10 C 446.31 63.66 440.73 69.37 435.04 74.96 C 446.36 86.30 457.71 97.61 469.04 108.95 C 474.69 103.27 480.39 97.65 485.97 91.91 C 488.97 89.03 489.09 83.81 486.15 80.86 C 478.70 73.27 471.15 65.77 463.61 58.27 C 460.65 55.02 455.06 54.86 452.03 58.10 M 48.00 64.00 C 48.00 165.33 48.00 266.67 48.00 368.00 C 186.67 368.00 325.33 368.00 464.00 368.00 C 464.00 290.86 464.01 213.72 463.99 136.59 C 459.23 141.30 454.54 146.09 449.76 150.77 C 448.98 151.65 447.70 152.45 448.00 153.83 C 448.00 202.22 447.99 250.62 448.01 299.01 C 447.96 302.64 448.31 306.45 446.85 309.89 C 444.39 316.17 437.74 320.42 431.00 320.00 C 313.97 319.98 196.93 320.03 79.90 319.98 C 71.44 320.13 63.87 312.49 64.02 304.05 C 63.99 234.67 63.99 165.30 64.02 95.92 C 63.87 87.46 71.49 79.85 79.95 80.02 C 93.30 79.97 106.65 80.02 120.00 80.00 C 120.00 74.67 120.00 69.33 120.00 64.00 C 96.00 64.00 72.00 64.00 48.00 64.00 M 168.00 64.00 C 168.00 144.00 168.00 224.00 168.00 304.00 C 226.67 304.00 285.33 304.00 344.00 304.00 C 344.00 283.68 344.01 263.36 343.99 243.04 C 326.46 249.86 308.86 256.51 291.30 263.28 C 287.22 265.21 281.86 263.02 280.44 258.71 C 279.23 255.72 280.71 252.67 281.78 249.90 C 290.23 227.99 298.63 206.06 307.05 184.14 C 308.14 181.38 308.92 178.32 311.20 176.24 C 321.88 165.58 332.54 154.90 343.22 144.24 C 344.49 143.18 343.83 141.34 344.02 139.92 C 343.96 114.62 344.02 89.31 344.00 64.00 C 333.33 64.00 322.66 64.00 312.00 64.00 C 311.92 67.33 312.26 70.69 311.72 73.99 C 310.83 77.83 306.88 80.35 303.03 80.00 C 271.69 80.00 240.34 80.00 209.00 80.00 C 205.12 80.36 201.13 77.83 200.26 73.95 C 199.75 70.66 200.08 67.32 200.00 64.00 C 189.33 64.00 178.67 64.00 168.00 64.00 M 392.00 64.00 C 392.00 69.33 392.00 74.66 392.00 80.00 C 397.21 79.96 402.43 80.10 407.64 79.90 C 412.80 74.50 418.20 69.34 423.43 64.01 C 412.95 63.99 402.48 64.00 392.00 64.00 M 412.50 97.61 C 423.82 108.89 435.09 120.24 446.44 131.50 C 450.17 127.73 453.95 124.00 457.68 120.23 C 446.38 108.92 435.07 97.63 423.76 86.33 C 420.00 90.08 416.24 93.83 412.50 97.61 M 80.00 96.00 C 80.00 165.33 80.00 234.67 80.00 304.00 C 93.33 304.00 106.67 304.00 120.00 304.00 C 120.00 234.67 120.00 165.33 120.00 96.00 C 106.66 96.00 93.33 96.00 80.00 96.00 M 327.61 182.51 C 331.39 186.23 335.11 190.01 338.88 193.75 C 363.43 169.26 387.97 144.76 412.48 120.23 C 408.70 116.44 404.91 112.66 401.12 108.88 C 376.65 133.45 352.08 157.92 327.61 182.51 M 350.26 205.14 C 354.02 208.89 357.75 212.66 361.54 216.39 C 386.06 191.89 410.60 167.40 435.10 142.89 C 431.37 139.06 427.54 135.32 423.78 131.52 C 399.27 156.05 374.75 180.58 350.26 205.14 M 392.80 207.76 C 391.51 208.79 392.14 210.60 391.97 212.00 C 392.04 242.67 391.98 273.33 392.00 304.00 C 405.33 304.00 418.66 304.00 432.00 304.00 C 432.00 258.86 432.01 213.72 431.99 168.59 C 418.92 181.63 405.88 194.71 392.80 207.76 M 319.36 196.81 C 317.31 202.36 314.90 207.78 313.12 213.43 C 319.04 219.03 324.73 224.89 330.47 230.68 L 331.09 230.85 C 336.46 228.79 341.84 226.77 347.18 224.66 C 337.95 215.33 328.65 206.07 319.36 196.81 M 360.00 236.90 C 360.00 259.26 360.00 281.63 360.00 304.00 C 365.33 304.00 370.66 304.00 376.00 304.00 C 376.00 277.53 376.01 251.06 375.99 224.59 C 371.01 229.13 367.00 235.35 360.00 236.90 M 306.63 229.84 C 305.13 233.94 303.47 237.97 301.96 242.06 C 306.13 240.47 310.32 238.92 314.42 237.16 C 311.79 234.76 309.66 231.76 306.63 229.84 M 207.05 384.01 C 205.03 400.00 203.04 416.00 201.04 431.99 C 237.68 432.00 274.32 432.00 310.96 431.99 C 308.96 416.00 306.97 400.00 304.96 384.00 C 272.32 384.00 239.68 384.00 207.05 384.01 M 152.00 448.00 C 152.00 458.67 152.00 469.33 152.00 480.00 C 221.33 480.00 290.66 480.00 360.00 480.00 C 360.00 469.33 360.00 458.67 360.00 448.00 C 290.67 448.00 221.33 448.00 152.00 448.00 Z"></path> <path data-v-743d8146="" fill="rgb(108,96,254)" opacity="1.00" d=" M 184.00 104.00 C 189.33 104.00 194.66 104.00 200.00 104.00 C 200.00 109.33 200.00 114.67 200.00 120.00 C 194.66 120.00 189.33 120.00 184.00 120.00 C 184.00 114.66 184.00 109.33 184.00 104.00 Z"></path> <path data-v-743d8146="" fill="rgb(108,96,254)" opacity="1.00" d=" M 216.00 104.00 C 253.33 104.00 290.66 104.00 328.00 104.00 C 328.00 109.33 328.00 114.66 328.00 120.00 C 290.66 120.00 253.33 120.00 216.00 120.00 C 216.00 114.66 216.00 109.33 216.00 104.00 Z"></path> <path data-v-743d8146="" fill="rgb(108,96,254)" opacity="1.00" d=" M 184.00 136.00 C 232.00 136.00 280.00 136.00 328.00 136.00 C 328.00 141.33 328.00 146.66 328.00 152.00 C 280.00 152.00 232.00 152.00 184.00 152.00 C 184.00 146.66 184.00 141.33 184.00 136.00 Z"></path> <path data-v-743d8146="" fill="rgb(108,96,254)" opacity="1.00" d=" M 184.00 168.00 C 221.33 168.00 258.67 168.00 296.00 168.00 C 296.00 173.33 296.00 178.66 296.00 184.00 C 258.67 184.00 221.33 184.00 184.00 184.00 C 184.00 178.66 184.00 173.33 184.00 168.00 Z"></path> <path data-v-743d8146="" fill="rgb(108,96,254)" opacity="1.00" d=" M 184.00 200.00 C 213.33 200.00 242.66 200.00 272.00 200.00 C 272.00 205.33 272.00 210.66 272.00 216.00 C 242.67 216.00 213.33 216.00 184.00 216.00 C 184.00 210.66 184.00 205.33 184.00 200.00 Z"></path> <path data-v-743d8146="" fill="rgb(108,96,254)" opacity="1.00" d=" M 184.00 232.00 C 213.33 232.00 242.67 232.00 272.00 232.00 C 272.00 237.33 272.00 242.66 272.00 248.00 C 242.67 248.00 213.33 248.00 184.00 248.00 C 184.00 242.66 184.00 237.33 184.00 232.00 Z"></path> <path data-v-743d8146="" fill="rgb(108,96,254)" opacity="1.00" d=" M 184.00 264.00 C 213.33 264.00 242.67 264.00 272.00 264.00 C 272.00 269.33 272.00 274.66 272.00 280.00 C 242.67 280.00 213.33 280.00 184.00 280.00 C 184.00 274.66 184.00 269.33 184.00 264.00 Z"></path> <path data-v-743d8146="" fill="rgb(108,96,254)" opacity="1.00" d=" M 400.00 336.00 C 405.33 336.00 410.66 335.99 416.00 336.00 C 416.00 341.33 416.00 346.66 416.00 352.00 C 410.66 352.00 405.33 352.00 400.00 352.00 C 399.99 346.66 399.99 341.33 400.00 336.00 Z"></path></g></svg>