<?xml version="1.0" encoding="UTF-8" standalone="no" ?>
<!DOCTYPE svg PUBLIC "-//W3C//DTD SVG 1.1//EN" "http://www.w3.org/Graphics/SVG/1.1/DTD/svg11.dtd">
<svg xmlns="http://www.w3.org/2000/svg" xmlns:xlink="http://www.w3.org/1999/xlink" version="1.1" width="500" height="500" viewBox="0 0 500 500" xml:space="preserve">
<desc>Created with Fabric.js 4.6.0</desc>
<defs>
</defs>
<g transform="matrix(0.98 0 0 0.98 250.8 249.46)" id="pYtH4eAfixV5NYnF2VHVS"  >
<linearGradient id="SVGID_24" gradientUnits="userSpaceOnUse" gradientTransform="matrix(1 0 0 1 0 0)"  x1="76.079" y1="10.798" x2="523.48" y2="365.945">
<stop offset="0%" style="stop-color:rgb(144,19,254);stop-opacity: 1"/>
<stop offset="100%" style="stop-color:rgb(102,16,242);stop-opacity: 1"/>
</linearGradient>
<path style="stroke: none; stroke-width: 1; stroke-dasharray: none; stroke-linecap: butt; stroke-dashoffset: 0; stroke-linejoin: miter; stroke-miterlimit: 4; fill: url(#SVGID_24); fill-rule: nonzero; opacity: 1;" vector-effect="non-scaling-stroke"  transform=" translate(-256, -204)" d="M 56.481 53.32 C 55.515 25.58 77.128 0 106.342 0 L 405.695 0 C 434.909 0 456.522 25.58 455.556 53.32 C 454.628 79.967 455.83299999999997 114.485 464.52 142.63 C 473.23499999999996 170.862 487.931 188.707 512 191 L 512 217 C 487.931 219.293 473.235 237.138 464.52 265.37 C 455.83299999999997 293.515 454.628 328.033 455.556 354.68100000000004 C 456.522 382.42 434.909 408.00000000000006 405.695 408.00000000000006 L 106.342 408.00000000000006 C 77.128 408.00000000000006 55.515 382.4200000000001 56.482 354.68100000000004 C 57.409 328.033 56.204 293.51500000000004 47.516 265.37 C 38.802 237.138 24.07 219.293 0 217 L 0 191 C 24.069 188.707 38.802 170.862 47.516 142.63 C 56.204 114.485 57.409 79.967 56.480999999999995 53.31999999999999 z" stroke-linecap="round" />
</g>
<g transform="matrix(0.98 0 0 0.98 255.09 249.42)" id="FxjkU-qhz7a8Mj_NyBoWC"  >
<linearGradient id="SVGID_25" gradientUnits="userSpaceOnUse" gradientTransform="matrix(1 0 0 1 0 0)"  x1="193.508" y1="109.74" x2="293.514" y2="278.872">
<stop offset="0%" style="stop-color:rgb(255,255,255);stop-opacity: 1"/>
<stop offset="100%" style="stop-color:rgb(241,229,252);stop-opacity: 1"/>
</linearGradient>
<path style="stroke: rgb(255,255,255); stroke-width: 1; stroke-dasharray: none; stroke-linecap: butt; stroke-dashoffset: 0; stroke-linejoin: miter; stroke-miterlimit: 4; fill: url(#SVGID_25); fill-rule: nonzero; opacity: 1;" vector-effect="non-scaling-stroke"  transform=" translate(-260.4, -203.96)" d="M 267.103 312.457 C 314.4 312.457 342.901 289.299 342.901 251.102 C 342.901 222.229 322.565 201.326 292.369 198.017 L 292.369 196.814 C 314.55400000000003 193.20499999999998 331.963 172.603 331.963 149.595 C 331.963 116.812 306.081 95.457 266.641 95.457 L 177.901 95.457 L 177.901 312.457 L 267.103 312.457 z M 212.411 122.977 L 258.322 122.977 C 283.28 122.977 297.453 134.10500000000002 297.453 154.256 C 297.453 175.761 280.969 187.791 251.08099999999996 187.791 L 212.41099999999994 187.791 L 212.41099999999994 122.977 z M 212.411 284.938 L 212.411 213.507 L 258.013 213.507 C 290.674 213.507 307.621 225.537 307.621 248.997 C 307.621 272.456 291.137 284.938 260.01599999999996 284.938 L 212.41099999999997 284.938 z" stroke-linecap="round" />
</g>
</svg>