<?xml version="1.0" encoding="UTF-8" standalone="no" ?>
<!DOCTYPE svg PUBLIC "-//W3C//DTD SVG 1.1//EN" "http://www.w3.org/Graphics/SVG/1.1/DTD/svg11.dtd">
<svg xmlns="http://www.w3.org/2000/svg" xmlns:xlink="http://www.w3.org/1999/xlink" version="1.1" width="500" height="500" viewBox="0 0 500 500" xml:space="preserve">
<desc>Created with Fabric.js 4.6.0</desc>
<defs>
</defs>
<g transform="matrix(1.75 0 0 1.75 248.78 248.78)" id="ZbrTC017LsuLwqoAQeVLe"  >
<path style="stroke: none; stroke-width: 1; stroke-dasharray: none; stroke-linecap: butt; stroke-dashoffset: 0; stroke-linejoin: miter; stroke-miterlimit: 4; fill: rgb(43,46,58); fill-rule: nonzero; opacity: 1;" vector-effect="non-scaling-stroke"  transform=" translate(-128, -128)" d="M 0 128 C 0 57.307550000000006 57.30755 0 128 0 C 198.69245 0 256 57.30755 256 128 C 256 198.69245 198.69245 256 128 256 C 57.307550000000006 256 0 198.69245 0 128 z" stroke-linecap="round" />
</g>
<g transform="matrix(1.75 0 0 1.75 238.47 258.12)" id="E3BzxGV1l4rmoYDojjB8I"  >
<path style="stroke: none; stroke-width: 1; stroke-dasharray: none; stroke-linecap: butt; stroke-dashoffset: 0; stroke-linejoin: miter; stroke-miterlimit: 4; fill: rgb(159,234,249); fill-rule: nonzero; opacity: 1;" vector-effect="non-scaling-stroke"  transform=" translate(-122.12, -133.33)" d="M 100.502 71.69 C 74.497 66.954 53.934999999999995 71.911 45.739999999999995 86.10499999999999 C 39.62499999999999 96.69699999999999 41.373 110.74 49.98 125.75099999999999 C 50.44263496045946 126.59965095283872 51.32822390049252 127.13157401451049 52.294735339587334 127.14133026851844 C 53.26124677868216 127.15108652252641 54.15739294836582 126.63714882512676 54.6370649629961 125.79800979923539 C 55.11673697762638 124.958870773344 55.10485190930717 123.92588061879353 54.605999999999995 123.09799999999998 C 46.85399999999999 109.57599999999998 45.345 97.457 50.358999999999995 88.77199999999999 C 57.166999999999994 76.981 75.50699999999999 72.559 99.54599999999999 76.93699999999998 C 100.98330682154156 77.17629975588054 102.34662793137136 76.21776046773864 102.60780926209543 74.78426837327295 C 102.86899059281951 73.35077627880726 101.9313442619945 71.97300221398041 100.502 71.68999999999998 z M 63.50299999999999 143.997 C 74.018 155.55200000000002 87.67899999999999 166.39100000000002 103.25899999999999 175.38500000000002 C 140.98199999999997 197.16500000000002 181.142 202.98600000000002 200.93399999999997 189.491 C 201.73973132991418 188.961868867892 202.19723458089157 188.03913638631977 202.13064706710267 187.07749776709804 C 202.06405955331377 186.1158591478763 201.48374532022245 185.26498909429884 200.61277517538792 184.85195914650063 C 199.7418050305534 184.43892919870245 198.71574153916393 184.5280256006555 197.92899999999997 185.085 C 180.21499999999997 197.163 142.06699999999998 191.633 105.92599999999997 170.767 C 90.81199999999997 162.041 77.58299999999997 151.545 67.44799999999998 140.40699999999998 C 66.80779392205005 139.6979622916746 65.83725064618125 139.38549375737017 64.90362481529212 139.58783283409028 C 63.96999898440299 139.7901719108104 63.21589973797314 140.47641178271994 62.926679060137175 141.386878527628 C 62.63745838230121 142.29734527253603 62.857294048160554 143.29296724662092 63.50299999999998 143.99699999999999 z" stroke-linecap="round" />
</g>
<g transform="matrix(1.75 0 0 1.75 248.11 237.82)" id="2WGJGKWMmFK3FRhVhS83l"  >
<path style="stroke: none; stroke-width: 1; stroke-dasharray: none; stroke-linecap: butt; stroke-dashoffset: 0; stroke-linejoin: miter; stroke-miterlimit: 4; fill: rgb(159,234,249); fill-rule: nonzero; opacity: 1;" vector-effect="non-scaling-stroke"  transform=" translate(-127.62, -121.75)" d="M 194.62 140.753 C 211.648 120.63699999999999 217.59300000000002 100.40499999999999 209.415 86.24099999999999 C 203.398 75.81799999999998 190.677 70.31499999999998 173.76999999999998 70.09499999999998 C 172.31204237040072 70.09714404535798 171.12600718350077 71.26965634448459 171.1071452359789 72.7274935348364 C 171.08828328845698 74.18533072518821 172.24358588377822 75.38813597518173 173.701 75.42799999999998 C 188.906 75.62599999999998 199.86599999999999 80.36699999999999 204.797 88.90799999999999 C 211.589 100.67299999999999 206.287 118.71499999999999 190.549 137.307 C 189.92057254023496 138.03269393726887 189.73063979258544 139.04013041783972 190.05168800655085 139.9448297088117 C 190.37273622051626 140.8495289997837 191.15522384761857 141.51188526679294 192.10052100928127 141.67911576319858 C 193.04581817094393 141.84634625960422 194.00805429968375 141.49264533571167 194.62 140.753 z M 150.859 72.57799999999999 C 135.46300000000002 75.877 119.07500000000002 82.32699999999998 103.33700000000002 91.41299999999998 C 64.39500000000001 113.89599999999999 38.99200000000002 147.04899999999998 42.52000000000002 171.08799999999997 C 42.64801321431491 172.03998296473256 43.278060464060864 172.84958441298184 44.169437598665844 173.2075030518982 C 45.060814733270824 173.5654216908145 46.07579937934952 173.41635724118197 46.82662535400603 172.8172584981008 C 47.57745132866254 172.21815975501968 47.948112139005566 171.26159057006984 47.79700000000002 170.31299999999996 C 44.664000000000016 148.96899999999997 68.74400000000001 117.54399999999995 106.00400000000002 96.03199999999995 C 121.27100000000002 87.21699999999996 137.139 80.97199999999995 151.97600000000003 77.79299999999995 C 152.9210625808457 77.60672182927534 153.6922423652554 76.925315732515 153.99347324490714 76.01038251323207 C 154.2947041245589 75.09544929394914 154.07917143687314 74.08917985233657 153.4296210283429 73.37789432220019 C 152.78007061981265 72.66660879206383 151.79744992065798 72.36084893502378 150.85900000000004 72.57799999999995 z" stroke-linecap="round" />
</g>
<g transform="matrix(1.75 0 0 1.75 247.94 260.3)" id="NhIc7J5Hqy3Q1BkEaT7P1"  >
<path style="stroke: none; stroke-width: 1; stroke-dasharray: none; stroke-linecap: butt; stroke-dashoffset: 0; stroke-linejoin: miter; stroke-miterlimit: 4; fill: rgb(159,234,249); fill-rule: nonzero; opacity: 1;" vector-effect="non-scaling-stroke"  transform=" translate(-127.52, -134.57)" d="M 87.77 187.753 C 96.67399999999999 212.613 111.239 227.92 127.61699999999999 227.92 C 139.56199999999998 227.92 150.613 219.777 159.231 205.44199999999998 C 159.7386276685864 204.62475680190218 159.76676148074594 203.5974587987971 159.30462355028095 202.7536573837846 C 158.842485619816 201.9098559687721 157.96171395163125 201.3803524587805 156.99972662302207 201.3679963126607 C 156.0377392944129 201.3556401665409 155.14365813334936 201.8623467640918 154.66 202.694 C 146.915 215.577 137.402 222.58599999999998 127.61699999999999 222.58599999999998 C 114.01199999999999 222.58599999999998 101.02099999999999 208.934 92.79199999999999 185.956 C 92.48521686853817 185.04018324425817 91.70727008154572 184.3617926879369 90.75822435686493 184.1824928488067 C 89.80917863218416 184.00319300967647 88.83735492102103 184.35100563842775 88.21759892305383 185.09177464616948 C 87.59784292508664 185.83254365391122 87.42701277553854 186.85049847132854 87.77099999999999 187.753 z M 169.09199999999998 182.89 C 173.702 168.16199999999998 176.177 151.172 176.177 133.46699999999998 C 176.177 89.28799999999998 160.714 51.20399999999998 138.69 41.42499999999998 C 137.35173294456038 40.86447529732631 135.81088811759898 41.47661269920467 135.22212172128718 42.80269745688663 C 134.63335532497538 44.12878221456858 135.21269345027073 45.68225648732992 136.526 46.298999999999985 C 156.169 55.021999999999984 170.84300000000002 91.16499999999999 170.84300000000002 133.46699999999998 C 170.84300000000002 150.64399999999998 168.44600000000003 167.09699999999998 164.00300000000001 181.29699999999997 C 163.70261096205272 182.21080208848693 163.91757024334925 183.21555900935866 164.56555192787656 183.9264651688194 C 165.21353361240384 184.63737132828012 166.19412573211872 184.94426391112998 167.13177741988113 184.7296080389104 C 168.06942910764354 184.51495216669085 168.81884080706874 183.81201115393102 169.09300000000002 182.88999999999996 z M 219.31599999999997 180.278 C 219.31599999999997 173.22899999999998 213.60199999999998 167.515 206.55299999999997 167.515 C 199.50399999999996 167.515 193.78999999999996 173.22899999999998 193.78999999999996 180.278 C 193.78999999999996 187.327 199.50399999999996 193.041 206.55299999999997 193.041 C 213.60199999999998 193.041 219.31599999999997 187.327 219.31599999999997 180.278 z M 213.98299999999998 180.278 C 213.983000116912 182.93248341095898 212.56685014279591 185.38532728359027 210.26800009446637 186.71256902281934 C 207.96915004613686 188.03981076204843 205.13684995386313 188.03981076204843 202.8379999055336 186.71256902281937 C 200.53914985720408 185.38532728359027 199.12299988308797 182.93248341095898 199.123 180.278 C 199.123 176.17452430875719 202.4495243087572 172.84799999999998 206.553 172.84799999999998 C 210.6564756912428 172.84799999999998 213.983 176.17452430875719 213.983 180.278 z M 48.497 193.041 C 55.547 193.041 61.260999999999996 187.327 61.260999999999996 180.278 C 61.260999999999996 173.22899999999998 55.54599999999999 167.515 48.497 167.515 C 41.449 167.515 35.734 173.22899999999998 35.734 180.278 C 35.734 187.327 41.449 193.041 48.497 193.041 z M 48.497 187.708 C 45.842516589041004 187.70800011691202 43.38967271640973 186.2918501427959 42.06243097718064 183.9930000944664 C 40.735189237951545 181.69415004613688 40.735189237951545 178.86184995386313 42.06243097718064 176.56299990553362 C 43.389672716409734 174.26414985720407 45.842516589041004 172.847999883088 48.497 172.848 C 52.6004756912428 172.848 55.92700000000001 176.1745243087572 55.92700000000001 180.27800000000002 C 55.92700000000001 184.38147569124283 52.6004756912428 187.70800000000003 48.497 187.70800000000003 z" stroke-linecap="round" />
</g>
<g transform="matrix(1.75 0 0 1.75 248.11 174.8)" id="-mDa_6jsUHJFZsQTIsKnm"  >
<path style="stroke: none; stroke-width: 1; stroke-dasharray: none; stroke-linecap: butt; stroke-dashoffset: 0; stroke-linejoin: miter; stroke-miterlimit: 4; fill: rgb(159,234,249); fill-rule: nonzero; opacity: 1;" vector-effect="non-scaling-stroke"  transform=" translate(-127.62, -85.81)" d="M 127.617 54.444 C 134.666 54.444 140.38 48.730000000000004 140.38 41.681000000000004 C 140.38 34.632000000000005 134.666 28.918000000000006 127.61699999999999 28.918000000000006 C 120.56799999999998 28.918000000000006 114.85399999999998 34.632000000000005 114.85399999999998 41.681000000000004 C 114.85399999999998 48.730000000000004 120.56799999999998 54.444 127.61699999999999 54.444 z M 127.617 49.111000000000004 C 123.51352430875721 49.111000000000004 120.18700000000001 45.7844756912428 120.18700000000001 41.681000000000004 C 120.18700000000001 37.577524308757205 123.51352430875721 34.251000000000005 127.617 34.251000000000005 C 131.7204756912428 34.251000000000005 135.047 37.577524308757205 135.047 41.681000000000004 C 135.047 45.7844756912428 131.7204756912428 49.111000000000004 127.617 49.111000000000004 z M 129.566 142.493 C 124.581 143.57 119.67 140.402 118.59100000000001 135.417 C 117.5150798894266 130.4322661865984 120.68267671770896 125.51882034329329 125.66699999999999 124.441 C 130.65200000000002 123.364 135.563 126.532 136.643 131.517 C 137.72 136.502 134.552 141.414 129.566 142.493 z" stroke-linecap="round" />
</g>
</svg>