<?xml version="1.0" encoding="UTF-8" standalone="no" ?>
<!DOCTYPE svg PUBLIC "-//W3C//DTD SVG 1.1//EN" "http://www.w3.org/Graphics/SVG/1.1/DTD/svg11.dtd">
<svg xmlns="http://www.w3.org/2000/svg" xmlns:xlink="http://www.w3.org/1999/xlink" version="1.1" width="500" height="500" viewBox="0 0 500 500" xml:space="preserve">
<desc>Created with Fabric.js 4.6.0</desc>
<defs>
</defs>
<g transform="matrix(3.34 0 0 3.34 252.68 211.31)" id="bTDCHhQ2t-GCrKbLcRvug"  >
<path style="stroke: none; stroke-width: 1; stroke-dasharray: none; stroke-linecap: butt; stroke-dashoffset: 0; stroke-linejoin: miter; stroke-miterlimit: 4; fill: rgb(255,160,0); fill-rule: nonzero; opacity: 1;" vector-effect="non-scaling-stroke"  transform=" translate(-71.5, -58.84)" d="M 23.8333 111.7187 L 39.9655 8.4906 C 40.1627 7.224600000000001 41.1473 6.226600000000001 42.4105 6.0120000000000005 C 43.6737 5.7974 44.9325 6.4148000000000005 45.5365 7.544700000000001 L 62.22 38.662 L 68.87 26.0005 C 69.385 25.0215 70.4003 24.4085 71.5066 24.4085 C 72.61290000000001 24.4085 73.6281 25.0215 74.14320000000001 26.0005 L 119.16590000000001 111.7185 L 23.8333 111.7185 z" stroke-linecap="round" />
</g>
<g transform="matrix(3.34 0 0 3.34 186.63 265.82)" id="Bb-tTSyp6wlJGXjlw8ijB"  >
<path style="stroke: none; stroke-width: 1; stroke-dasharray: none; stroke-linecap: butt; stroke-dashoffset: 0; stroke-linejoin: miter; stroke-miterlimit: 4; fill: rgb(245,124,0); fill-rule: nonzero; opacity: 1;" vector-effect="non-scaling-stroke"  transform=" translate(-51.7, -75.18)" d="M 79.566 71.5074 L 62.2124 38.6472 L 23.833400000000005 111.7187 L 79.566 71.5074 z" stroke-linecap="round" />
</g>
<g transform="matrix(3.34 0 0 3.34 252.68 298.28)" id="41Y-LhAIJnFS7uV0l5bm7"  >
<path style="stroke: none; stroke-width: 1; stroke-dasharray: none; stroke-linecap: butt; stroke-dashoffset: 0; stroke-linejoin: miter; stroke-miterlimit: 4; fill: rgb(255,202,40); fill-rule: nonzero; opacity: 1;" vector-effect="non-scaling-stroke"  transform=" translate(-71.5, -84.91)" d="M 119.1666 111.7187 L 106.81060000000001 35.258399999999995 C 106.6239 34.160399999999996 105.84030000000001 33.258399999999995 104.77910000000001 32.91839999999999 C 103.71790000000001 32.57839999999999 102.55650000000001 32.86139999999999 101.76840000000001 33.64859999999999 L 23.83340000000001 111.71759999999999 L 66.95680000000002 135.90099999999998 C 69.66480000000001 137.41299999999998 72.96280000000002 137.41299999999998 75.67080000000001 135.90099999999998 L 119.16660000000002 111.71759999999998 z" stroke-linecap="round" />
</g>
<g transform="matrix(3.34 0 0 3.34 252.58 211.78)" id="qmJyRA44W9RkT-7PVb7K-"  >
<path style="stroke: none; stroke-width: 1; stroke-dasharray: none; stroke-linecap: butt; stroke-dashoffset: 0; stroke-linejoin: miter; stroke-miterlimit: 4; fill: rgb(255,255,255); fill-opacity: 0.2; fill-rule: nonzero; opacity: 1;" vector-effect="non-scaling-stroke"  transform=" translate(-71.47, -58.98)" d="M 106.8105 35.2584 C 106.6238 34.1604 105.84020000000001 33.2584 104.77900000000001 32.918400000000005 C 103.71780000000001 32.57840000000001 102.55640000000001 32.8614 101.76830000000001 33.6486 L 86.3 49.1562 L 74.1365 26 C 73.6215 25.021 72.6062 24.408 71.4999 24.408 C 70.39359999999999 24.408 69.3784 25.021 68.8633 26 L 62.2133 38.661500000000004 L 45.529 7.5447 C 44.92400000000001 6.414499999999999 43.663700000000006 5.7981 42.399 6.0142999999999995 C 41.134299999999996 6.230499999999999 40.153 7.231 39.958 8.498 L 23.8333 111.7187 L 23.7813 111.7187 L 23.8333 111.7783 L 24.2578 111.9868 L 101.7458 34.4093 C 102.5335 33.6178 103.6978 33.3333 104.76180000000001 33.6723 C 105.82580000000002 34.0113 106.61080000000001 34.9168 106.79560000000001 36.018 L 119.04740000000001 111.793 L 119.16660000000002 111.7185 L 106.81060000000002 35.2582 z M 23.974800000000002 111.5772 L 39.9655 9.228 C 40.1603 7.961 41.1439 6.9605 42.4075 6.7443 C 43.671099999999996 6.5281 44.9315 7.1443 45.5375 8.2747 L 62.22 39.392 L 68.87 26.730500000000003 C 69.385 25.751500000000004 70.4003 25.138500000000004 71.5066 25.138500000000004 C 72.61290000000001 25.138500000000004 73.6281 25.751500000000004 74.14320000000001 26.730500000000003 L 86.05990000000001 49.39450000000001 L 23.974100000000014 111.5772 z" stroke-linecap="round" />
</g>
<g transform="matrix(3.34 0 0 3.34 252.68 428.79)" id="uI_gy85ukkf-dykyDYxK3"  >
<path style="stroke: none; stroke-width: 1; stroke-dasharray: none; stroke-linecap: butt; stroke-dashoffset: 0; stroke-linejoin: miter; stroke-miterlimit: 4; fill: rgb(165,39,20); fill-rule: nonzero; opacity: 0.2;" vector-effect="non-scaling-stroke"  transform=" translate(-71.5, -124.03)" d="M 75.6708 135.1722 C 72.9628 136.6842 69.6648 136.6842 66.9568 135.1722 L 23.9376 111.056 L 23.8333 111.719 L 66.9567 135.89499999999998 C 69.6647 137.40699999999998 72.9627 137.40699999999998 75.6707 135.89499999999998 L 119.1665 111.71899999999998 L 119.0548 111.03379999999999 L 75.6708 135.17249999999999 z" stroke-linecap="round" />
</g>
<g transform="matrix(3.34 0 0 3.34 252.68 253.54)" id="I9J7PfRfl9kxpzrrPnMGy"  >
<linearGradient id="SVGID_0" gradientUnits="objectBoundingBox" gradientTransform="matrix(1 0 0 1 0 0)"  x1="-0.0349" y1="0.1702" x2="1.0083" y2="0.929">
<stop offset="0%" style="stop-color:rgb(255,255,255);stop-opacity: 0.1"/>
<stop offset="14.000000000000002%" style="stop-color:rgb(255,255,255);stop-opacity: 0.08"/>
<stop offset="61%" style="stop-color:rgb(255,255,255);stop-opacity: 0.02"/>
<stop offset="100%" style="stop-color:rgb(255,255,255);stop-opacity: 0"/>
</linearGradient>
<path style="stroke: none; stroke-width: 1; stroke-dasharray: none; stroke-linecap: butt; stroke-dashoffset: 0; stroke-linejoin: miter; stroke-miterlimit: 4; fill: url(#SVGID_0); fill-rule: nonzero; opacity: 1;" vector-effect="non-scaling-stroke"  transform=" translate(-71.5, -71.5)" d="M 106.687 35.2742 C 106.50099999999999 34.1765 105.72 33.2742 104.6626 32.9362 C 103.6052 32.5982 102.4478 32.8792 101.66239999999999 33.666199999999996 L 86.2473 49.166 L 74.12729999999999 26.0205 C 73.61399999999999 25.0419 72.60229999999999 24.4291 71.49999999999999 24.4291 C 70.39769999999999 24.4291 69.38599999999998 25.0419 68.87269999999998 26.0205 L 62.24499999999998 38.6765 L 45.62 7.5726 C 45.016999999999996 6.442900000000001 43.761199999999995 5.826600000000001 42.501999999999995 6.0429 C 41.242799999999995 6.2592 40.26259999999999 7.258900000000001 40.06849999999999 8.5256 L 24 111.701 L 66.9727 135.8664 C 69.6712 137.3777 72.9577 137.3777 75.6563 135.8664 L 119 111.701 L 106.687 35.27399999999999 z" stroke-linecap="round" />
</g>
</svg>