<?xml version="1.0" encoding="UTF-8" standalone="no" ?>
<!DOCTYPE svg PUBLIC "-//W3C//DTD SVG 1.1//EN" "http://www.w3.org/Graphics/SVG/1.1/DTD/svg11.dtd">
<svg xmlns="http://www.w3.org/2000/svg" xmlns:xlink="http://www.w3.org/1999/xlink" version="1.1" width="500" height="500" viewBox="0 0 500 500" xml:space="preserve">
<desc>Created with Fabric.js 4.6.0</desc>
<defs>
</defs>
<g transform="matrix(14.12 0 0 14.12 246.95 370.97)" id="_YfANiEm20awlmhYw7WC8"  >
<path style="stroke: none; stroke-width: 1; stroke-dasharray: none; stroke-linecap: butt; stroke-dashoffset: 0; stroke-linejoin: miter; stroke-miterlimit: 4; fill: rgb(78,120,150); fill-rule: nonzero; opacity: 1;" vector-effect="non-scaling-stroke"  transform=" translate(-15.79, -24.66)" d="M 11.622 24.74 C 11.622 24.74 10.392 25.488 12.477 25.701999999999998 C 14.987 26.022 16.324 25.968999999999998 19.102 25.435 C 19.660322994567192 25.776911956163286 20.25081212926422 26.063280765105976 20.864999999999995 26.29 C 14.615000000000002 28.962 6.705000000000002 26.13 11.621000000000002 24.74 z M 10.822 21.267 C 10.822 21.267 9.485999999999999 22.282 11.569999999999999 22.497 C 14.294999999999998 22.764 16.432 22.817 20.119999999999997 22.07 C 20.47867178784449 22.433757878241195 20.917810142228248 22.70813371432652 21.401999999999997 22.871 C 13.867999999999999 25.115 5.425999999999997 23.084999999999997 10.821999999999997 21.267999999999997 z M 25.569 27.357 C 25.569 27.357 26.477 28.105 24.554 28.692999999999998 C 20.973999999999997 29.762999999999998 9.54 30.083 6.334 28.692999999999998 C 5.212 28.212999999999997 7.348999999999999 27.517999999999997 8.033999999999999 27.410999999999998 C 8.729 27.250999999999998 9.104 27.250999999999998 9.104 27.250999999999998 C 7.873999999999999 26.395999999999997 0.9289999999999985 29.013999999999996 5.577999999999999 29.760999999999996 C 18.348 31.844999999999995 28.874 28.852999999999994 25.561 27.356999999999996 z M 12.2 17.633 C 12.2 17.633 6.3759999999999994 19.023 10.116 19.503 C 11.719 19.717 14.870999999999999 19.663 17.81 19.45 C 20.214 19.236 22.619999999999997 18.81 22.619999999999997 18.81 C 22.619999999999997 18.81 21.764999999999997 19.183999999999997 21.176999999999996 19.558 C 15.246999999999996 21.108 3.864999999999995 20.413 7.1249999999999964 18.81 C 9.902999999999997 17.474 12.200999999999997 17.634999999999998 12.200999999999997 17.634999999999998 z M 22.619999999999997 23.457 C 28.604 20.357 25.825999999999997 17.367 23.901999999999997 17.740000000000002 C 23.421999999999997 17.847 23.206999999999997 17.954 23.206999999999997 17.954 C 23.206999999999997 17.954 23.366999999999997 17.634 23.740999999999996 17.527 C 27.534999999999997 16.191000000000003 30.526999999999994 21.534 22.510999999999996 23.617 C 22.510999999999996 23.617 22.563999999999997 23.564 22.617999999999995 23.457 z M 12.789999999999997 31.899 C 18.559999999999995 32.273 27.376999999999995 31.685000000000002 27.589999999999996 28.959 C 27.589999999999996 28.959 27.162999999999997 30.029 22.834999999999997 30.829 C 17.918999999999997 31.737000000000002 11.827999999999998 31.629 8.247999999999998 31.043 C 8.247999999999998 31.043 8.995999999999997 31.683 12.789999999999997 31.898 z" stroke-linecap="round" />
</g>
<g transform="matrix(14.12 0 0 14.12 268.48 154.78)" id="GLpO-Z99qb23KN5vsbylq"  >
<path style="stroke: none; stroke-width: 1; stroke-dasharray: none; stroke-linecap: butt; stroke-dashoffset: 0; stroke-linejoin: miter; stroke-miterlimit: 4; fill: rgb(245,130,25); fill-rule: nonzero; opacity: 1;" vector-effect="non-scaling-stroke"  transform=" translate(-17.32, -9.35)" d="M 18.996 0.001 C 18.996 0.001 22.308999999999997 3.367 15.843999999999998 8.443 C 10.660999999999998 12.556999999999999 14.668999999999997 14.908 15.843999999999998 17.58 C 12.797999999999998 14.854999999999999 10.607999999999997 12.45 12.103999999999997 10.206999999999997 C 14.294 6.893 20.332 5.3 18.996 0.001 z M 17.296 15.336 C 18.846 17.099 16.869 18.702 16.869 18.702 C 16.869 18.702 20.823 16.672 19.006 14.160000000000002 C 17.35 11.756000000000002 16.066 10.580000000000002 23.012999999999998 6.573000000000002 C 23.012999999999998 6.573000000000002 12.059999999999999 9.298000000000002 17.296 15.336000000000002 z" stroke-linecap="round" />
</g>
</svg>