<?xml version="1.0" encoding="UTF-8" standalone="no" ?>
<!DOCTYPE svg PUBLIC "-//W3C//DTD SVG 1.1//EN" "http://www.w3.org/Graphics/SVG/1.1/DTD/svg11.dtd">
<svg xmlns="http://www.w3.org/2000/svg" xmlns:xlink="http://www.w3.org/1999/xlink" version="1.1" width="500" height="500" viewBox="0 0 500 500" xml:space="preserve">
<desc>Created with Fabric.js 4.6.0</desc>
<defs>
</defs>
<g transform="matrix(4.73 0 0 4.73 251.04 176.13)" id="Wv7E-nLvU-p8j2blbbLon"  >
<path style="stroke: none; stroke-width: 1; stroke-dasharray: none; stroke-linecap: butt; stroke-dashoffset: 0; stroke-linejoin: miter; stroke-miterlimit: 4; fill: rgb(8,104,172); fill-rule: nonzero; opacity: 1;" vector-effect="non-scaling-stroke"  transform=" translate(-46.49, -29.3)" d="M 20.44 13.78 C 15.157 21.512999999999998 15.815000000000001 31.573 19.84 39.78 L 20.136 40.365 L 20.336 40.735 C 20.372999999999998 40.807 20.415999999999997 40.878 20.453999999999997 40.948 C 20.523999999999997 41.078 20.593999999999998 41.203 20.653999999999996 41.331 L 21.038999999999998 42.004000000000005 L 21.258999999999997 42.374 L 21.705999999999996 43.086000000000006 L 21.905999999999995 43.386 C 22.105999999999995 43.706 22.331999999999994 44.024 22.553999999999995 44.338 C 22.558999999999994 44.346000000000004 22.565999999999995 44.355000000000004 22.571999999999996 44.363 C 22.606999999999996 44.413 22.645999999999997 44.463 22.671999999999997 44.513 C 22.863999999999997 44.783 23.071999999999996 45.049 23.272 45.312999999999995 L 23.494 45.60099999999999 L 24.039 46.282999999999994 L 24.247 46.53699999999999 C 24.494884561067494 46.83630766973805 24.748260864458377 47.131024317366396 25.006999999999998 47.42099999999999 L 25.023 47.43699999999999 C 25.033 47.44999999999999 25.043 47.456999999999994 25.053 47.46999999999999 C 25.30368781855243 47.75277418605804 25.561094569184075 48.02951978583041 25.825000000000003 48.3 L 26.073 48.55399999999999 L 26.69 49.16999999999999 L 26.942 49.41399999999999 C 27.219287875075427 49.679686116607826 27.50099382684361 49.94072251925219 27.787000000000003 50.19699999999999 L 27.947 50.33699999999999 L 28.714 50.996999999999986 L 29.032 51.25499999999999 L 29.672 51.75499999999999 L 30.014 52.01999999999999 L 30.992 52.73499999999999 C 31.017 52.751999999999995 31.039 52.76999999999999 31.064 52.78699999999999 C 31.294 52.94699999999999 31.527 53.10199999999999 31.761 53.25699999999999 L 32.063 53.46199999999999 L 33.155 54.14199999999999 L 33.457 54.31499999999999 L 34.277 54.782999999999994 C 34.427 54.864999999999995 34.58 54.94299999999999 34.730000000000004 55.020999999999994 L 35.316 55.32099999999999 L 35.451 55.38699999999999 L 35.691 55.504999999999995 L 36.621 55.943 L 36.818000000000005 56.043 C 37.17656954834968 56.202446720319024 37.537960609452 56.355471164088364 37.902 56.50200000000001 L 38.16600000000001 56.608000000000004 L 39.189000000000014 56.99400000000001 L 39.317000000000014 57.040000000000006 C 39.69477290654212 57.17325255308922 40.074830142912795 57.29993829854611 40.45700000000001 57.42000000000001 L 40.73200000000001 57.50400000000001 C 41.13200000000001 57.62400000000001 41.50700000000001 57.76700000000001 41.90900000000001 57.844000000000015 C 67.457 62.6 74.88 42.218 74.88 42.218 C 68.64699999999999 50.488 57.583999999999996 52.668000000000006 47.102 50.241 C 46.705 50.141 46.31999999999999 50.024 45.931999999999995 49.907 L 45.63999999999999 49.806999999999995 C 45.26199999999999 49.68899999999999 44.885999999999996 49.56399999999999 44.513999999999996 49.434 L 44.358999999999995 49.376999999999995 C 44.02612453650105 49.25702373711546 43.69508652159931 49.13200938103474 43.36599999999999 49.001999999999995 L 43.08599999999999 48.88999999999999 C 42.72590652459555 48.7452685925282 42.36851244163061 48.59390953127252 42.01399999999999 48.43599999999999 L 41.79999999999999 48.339999999999996 L 40.89599999999999 47.91 L 40.63599999999999 47.782 C 40.40113222872882 47.663982210830746 40.167779900615905 47.54297236068076 39.935999999999986 47.41899999999999 L 39.46899999999999 47.169 C 39.18682325258611 47.01436004549386 38.90744492156132 46.85466765818972 38.630999999999986 46.690000000000005 L 38.347999999999985 46.53 C 37.97999999999998 46.31 37.615999999999985 46.08 37.255999999999986 45.85 C 37.155999999999985 45.785000000000004 37.05999999999999 45.716 36.960999999999984 45.65 L 36.18399999999998 45.123999999999995 L 35.93399999999998 44.943999999999996 L 35.198999999999984 44.403999999999996 L 34.87299999999998 44.153999999999996 L 34.20999999999999 43.626 L 33.91399999999999 43.385999999999996 L 33.088999999999984 42.68599999999999 C 33.060999999999986 42.660999999999994 33.02899999999998 42.635999999999996 32.98899999999998 42.608999999999995 C 32.694999999999986 42.346 32.405999999999985 42.07599999999999 32.12099999999998 41.80499999999999 L 31.87699999999998 41.56499999999999 L 31.252999999999982 40.94299999999999 L 31.008999999999983 40.69299999999999 C 30.749091532373924 40.42293151818754 30.494050472703442 40.14822062515685 30.243999999999986 39.869 C 30.23199999999998 39.85499999999999 30.217999999999982 39.84199999999999 30.20599999999998 39.82899999999999 C 29.94169524952213 39.533907842539364 29.68298252843673 39.233854428909396 29.429999999999982 38.928999999999995 L 29.226999999999983 38.68299999999999 L 28.666999999999984 37.97999999999999 L 28.461999999999986 37.71999999999999 L 27.816999999999986 36.84499999999999 C 21.996999999999986 28.75999999999999 19.916999999999987 17.609999999999992 24.556999999999988 8.451999999999991 M 36.84 7.264 C 33.02 12.864 33.227000000000004 20.358 36.207 26.279999999999998 C 36.705451639335465 27.274381947044354 37.27005269367435 28.234203739420465 37.897000000000006 29.153000000000006 C 38.469 29.988 39.104 30.982999999999997 39.864 31.653 C 40.138999999999996 31.953 40.427 32.253 40.721 32.559 C 40.794999999999995 32.635999999999996 40.870999999999995 32.708999999999996 40.946999999999996 32.785999999999994 C 41.23234722179306 33.06927959829124 41.524430785964014 33.34569201232973 41.82299999999999 33.614999999999995 C 41.834999999999994 33.62499999999999 41.846 33.63699999999999 41.858999999999995 33.64699999999999 C 42.19517420838133 33.94576438512201 42.53895385118028 34.23585971900667 42.89 34.516999999999996 L 43.12199999999999 34.700999999999986 C 43.47156221144507 34.97575215379188 43.82835448060531 35.241178925989594 44.19199999999999 35.496999999999986 C 44.20175594439749 35.50497985952466 44.21176090866653 35.512650332130924 44.221999999999994 35.51999999999999 C 44.38199999999999 35.63299999999999 44.547 35.73999999999999 44.709999999999994 35.84799999999999 C 44.788 35.89999999999999 44.861999999999995 35.95499999999999 44.93999999999999 36.00399999999999 C 45.20073989226663 36.17468817900165 45.46513484198157 36.33972664067743 45.73299999999999 36.49899999999999 L 45.84499999999999 36.56499999999999 L 46.544999999999995 36.96499999999999 C 46.626999999999995 37.011999999999986 46.71099999999999 37.05299999999999 46.794999999999995 37.09699999999999 L 47.294999999999995 37.35499999999999 C 47.31999999999999 37.36799999999999 47.34499999999999 37.37799999999999 47.36899999999999 37.389999999999986 C 47.705999999999996 37.55999999999999 48.044999999999995 37.719999999999985 48.391999999999996 37.874999999999986 C 48.465999999999994 37.90799999999999 48.541999999999994 37.93799999999999 48.617999999999995 37.969999999999985 C 48.894999999999996 38.08999999999998 49.175 38.20599999999998 49.458 38.316999999999986 L 49.818 38.450999999999986 C 50.07323936894218 38.545976670813545 50.32993692683211 38.636987623156344 50.587999999999994 38.72399999999999 L 50.936 38.83699999999999 C 51.303 38.953999999999986 51.666 39.09999999999999 52.049 39.16499999999999 C 71.774 42.492999999999995 76.32900000000001 27.02499999999999 76.32900000000001 27.02499999999999 C 72.224 33.04499999999999 64.275 35.91899999999999 55.79100000000001 33.67699999999999 C 55.41569963196373 33.57730427161679 55.0432242939419 33.46726231857542 54.67400000000001 33.346999999999994 C 54.561000000000014 33.312 54.45000000000002 33.27499999999999 54.338000000000015 33.24699999999999 C 54.07599843859774 33.16049310394524 53.815620510424026 33.06914412530299 53.557000000000016 32.972999999999985 L 53.204000000000015 32.83899999999999 C 52.921000000000014 32.73899999999999 52.64100000000001 32.61399999999999 52.36400000000001 32.49399999999999 C 52.28800000000001 32.46099999999999 52.21200000000001 32.43099999999999 52.137000000000015 32.395999999999994 C 51.789003670459195 32.24371791839511 51.44552421900273 32.08131549814337 51.10700000000001 31.909 C 50.933000000000014 31.821999999999996 50.762000000000015 31.730999999999995 50.591000000000015 31.640999999999995 L 50.29300000000001 31.484999999999996 C 50.07300501014147 31.364098828777603 49.855299958711306 31.239076785460128 49.64000000000001 31.109999999999996 L 49.484000000000016 31.009999999999994 C 49.217690937549236 30.850827118963675 48.954313612416186 30.686799721539042 48.69400000000002 30.517999999999994 C 48.61400000000002 30.465999999999994 48.536000000000016 30.417999999999992 48.45600000000002 30.355999999999995 L 47.94400000000002 30.010999999999996 C 47.582312155328566 29.754973356364054 47.226874720361124 29.49022915058155 46.878000000000014 29.216999999999988 L 46.63800000000001 29.024999999999995 C 42.92500000000001 26.038999999999994 39.98100000000001 21.958999999999996 38.582000000000015 17.331999999999994 C 37.115000000000016 12.531999999999993 37.432000000000016 7.146999999999993 39.98200000000001 2.7759999999999945 M 50.63000000000001 2.3959999999999946 C 48.37800000000001 5.771999999999995 48.15700000000001 9.963999999999995 49.73000000000001 13.691999999999993 C 51.378000000000014 17.648999999999994 54.75500000000001 20.753999999999994 58.69600000000001 22.224999999999994 C 58.85800000000001 22.286999999999995 59.021000000000015 22.341999999999995 59.19600000000001 22.397999999999993 L 59.41200000000001 22.467999999999993 C 59.64400000000001 22.541999999999994 59.875000000000014 22.627999999999993 60.11400000000001 22.673999999999992 C 71.00600000000001 24.816999999999993 73.96000000000001 16.981999999999992 74.74600000000001 15.828999999999994 C 72.15800000000002 19.623999999999995 67.80900000000001 20.534999999999993 62.47300000000001 19.215999999999994 C 62.05300000000001 19.110999999999994 61.588000000000015 18.955999999999992 61.173000000000016 18.809999999999995 C 60.650827096722104 18.62107002139927 60.1391005423817 18.40442909917688 59.640000000000015 18.160999999999994 C 58.69036144102093 17.69531463108336 57.78985014617528 17.13551017658668 56.95200000000001 16.489999999999995 C 52.167 12.8 49.2 5.762 52.316 0.03" stroke-linecap="round" />
</g>
<g transform="matrix(4.73 0 0 4.73 205.97 396.11)" id="8hJ1otexKrThYKQEVWIvr"  >
<path style="stroke: none; stroke-width: 1; stroke-dasharray: none; stroke-linecap: butt; stroke-dashoffset: 0; stroke-linejoin: miter; stroke-miterlimit: 4; fill: rgb(19,27,40); fill-rule: nonzero; opacity: 1;" vector-effect="non-scaling-stroke"  transform=" translate(-36.92, -76.03)" d="M 26.576 74.06 L 25.838 76.676 L 26.576 74.061 z M 30.372 79.738 L 29.559 79.733 L 30.372 79.738 z M 30.172 83.644 L 25.3 83.662 L 30.172 83.644 z M 31.192 79.744 L 30.378 79.739 L 31.192 79.744 z M 30.61 83.312 L 31.46 80.075 L 30.61 83.312 z M 48.54 68.405 L 46.96 75.838 L 48.54 68.405 z M 44.475 68.405 L 43.275 73.958 L 44.475 68.405 z" stroke-linecap="round" />
</g>
<g transform="matrix(4.73 0 0 4.73 256.02 395.62)" id="dqD9djZmGpAEbWZYXbQ_p"  >
<path style="stroke: none; stroke-width: 1; stroke-dasharray: none; stroke-linecap: butt; stroke-dashoffset: 0; stroke-linejoin: miter; stroke-miterlimit: 4; fill: rgb(19,27,40); fill-rule: nonzero; opacity: 1;" vector-effect="non-scaling-stroke"  transform=" translate(-47.55, -75.93)" d="M 48.26 68.07 L 44.879999999999995 68.07 C 44.69199999999999 68.07 44.50599999999999 68.22 44.465999999999994 68.404 L 42.065999999999995 79.511 C 42.025999999999996 79.694 41.839999999999996 79.844 41.653 79.844 L 39.26 79.844 C 36.891999999999996 79.844 37.166 78.207 37.66 75.964 L 37.675 75.896 L 37.961999999999996 74.366 L 38.086 73.736 L 39.178 68.40400000000001 C 39.215999999999994 68.22000000000001 39.092999999999996 68.06900000000002 38.904999999999994 68.06900000000002 L 35.434999999999995 68.06900000000002 C 35.23845777698677 68.07575130816922 35.070260813728346 68.21210515702434 35.022999999999996 68.40300000000002 L 33.459999999999994 75.81700000000002 C 32.599999999999994 79.74100000000003 32.827999999999996 83.48300000000002 37.49999999999999 83.60000000000002 L 37.63499999999999 83.60300000000002 L 44.96699999999999 83.60300000000002 C 45.154999999999994 83.60300000000002 45.33999999999999 83.45300000000002 45.37999999999999 83.26900000000002 L 48.54199999999999 68.40300000000002 C 48.58199999999999 68.21900000000002 48.45899999999999 68.06900000000002 48.271999999999984 68.06900000000002 z M 61.747 79.883 C 61.935 79.883 62.047 80.033 62.02 80.217 L 61.692 81.822 M 61.364 83.428 L 61.692 81.822 L 61.364 83.428 z M 60.952 83.76599999999999 L 54.721999999999994 83.79599999999999 L 60.952 83.76599999999999 z" stroke-linecap="round" />
</g>
<g transform="matrix(4.73 0 0 4.73 301.94 417.43)" id="afOkrT3Yi5d7oYdiQqURs"  >
<path style="stroke: none; stroke-width: 1; stroke-dasharray: none; stroke-linecap: butt; stroke-dashoffset: 0; stroke-linejoin: miter; stroke-miterlimit: 4; fill: rgb(19,27,40); fill-rule: nonzero; opacity: 1;" vector-effect="non-scaling-stroke"  transform=" translate(-57.31, -80.57)" d="M 52.704 77.817 C 52.701 77.64099999999999 52.901 77.339 53.089 77.339 L 52.667 77.332 C 52.467 79.246 52.704 77.817 52.704 77.817 z M 55.03 83.79499999999999 L 54.965 83.79499999999999 L 55.03 83.79499999999999 z M 61.747 79.88299999999998 C 61.935 79.88299999999998 62.047 80.03299999999999 62.02 80.21699999999998 L 61.638000000000005 82.08299999999998 M 56.63 83.8 L 56.616 83.8 L 56.63 83.8 z M 55.800000000000004 83.794 L 55.752 83.794 L 55.800000000000004 83.794 z M 55.547000000000004 83.795 L 55.467000000000006 83.795 L 55.547000000000004 83.795 z M 55.300000000000004 83.795 L 55.230000000000004 83.795 L 55.300000000000004 83.795 z M 55.76200000000001 83.794 L 55.55700000000001 83.794 L 55.76200000000001 83.794 z" stroke-linecap="round" />
</g>
<g transform="matrix(4.73 0 0 4.73 178.33 409.91)" id="jL9tWJ6HXhnOT036X_idA"  >
<path style="stroke: none; stroke-width: 1; stroke-dasharray: none; stroke-linecap: butt; stroke-dashoffset: 0; stroke-linejoin: miter; stroke-miterlimit: 4; fill: rgb(19,27,40); fill-rule: nonzero; opacity: 1;" vector-effect="non-scaling-stroke"  transform=" translate(-31.04, -78.97)" d="M 56.617 83.8 L 55.800999999999995 83.803 L 56.617 83.8 z M 60.95399999999999 83.77499999999999 L 56.62899999999999 83.80099999999999 L 60.95399999999999 83.77499999999999 z M 61.35399999999999 83.428 L 61.62899999999999 82.084 L 61.35399999999999 83.429 z M 55.45799999999999 83.795 L 55.3 83.795 L 55.477999999999994 83.795 z M 54.962999999999994 83.795 L 54.72299999999999 83.795 L 54.962999999999994 83.795 z M 55.21999999999999 83.795 L 55.01999999999999 83.795 L 55.21999999999999 83.795 z M 5.76 77.857 L 6.285 75.529 L 5.6850000000000005 78.189 L 5.615 78.523 L 5.761 77.85499999999999 z M 12.046 68.032 L 8.333 68.032 C 8.136078853994226 68.03971498954631 7.967087705248105 68.1746647558112 7.916 68.365 L 7.212000000000001 71.46499999999999 C 7.18798845948881 71.54643638047024 7.205251061878606 71.63446668572195 7.258240644734386 71.70080326877073 C 7.311230227590165 71.7671398518195 7.3932710034742275 71.8034254298956 7.478000000000001 71.79799999999999 L 11.22 71.79799999999999 C 11.408000000000001 71.79799999999999 11.594000000000001 71.64799999999998 11.634 71.46499999999999 L 12.314 68.35799999999999 C 12.354 68.17499999999998 12.234 68.02499999999999 12.044 68.02499999999999 z M 11.238 73.2 L 10.138 78.238 L 11.238 73.2 z M 0.452 89.895 L 3.514 89.919 C 2.61 89.919 1.117 89.902 0.4509999999999996 89.89399999999999 z" stroke-linecap="round" />
</g>
<g transform="matrix(4.73 0 0 4.73 195.46 414.79)" id="8QepBS5TwTRumCYeHaCjA"  >
<path style="stroke: none; stroke-width: 1; stroke-dasharray: none; stroke-linecap: butt; stroke-dashoffset: 0; stroke-linejoin: miter; stroke-miterlimit: 4; fill: rgb(19,27,40); fill-rule: nonzero; opacity: 1;" vector-effect="non-scaling-stroke"  transform=" translate(-34.69, -80)" d="M 6.8 73.2 L 6.274 75.528 L 6.8 73.2 z M 10.969999999999999 72.867 L 7.227 72.867 C 7.030078853994226 72.87471498954632 6.861087705248105 73.0096647558112 6.8100000000000005 73.2 L 5.760000000000001 77.85600000000001 L 5.614000000000001 78.52400000000002 L 4.614000000000001 83.27700000000002 C 4.564457851446232 83.49873181667589 4.504389885577246 83.71797989209769 4.434000000000002 83.93400000000001 C 4.434000000000001 83.93400000000001 3.734000000000001 86.01400000000001 2.560000000000001 85.99100000000001 L 1.395000000000001 85.96900000000001 C 1.1989086355598015 85.97450540149941 1.0289780879402657 86.10640387417553 0.9750000000000011 86.295 L 0.2 89.558 C 0.17515159032232686 89.6389475769551 0.19127832408118234 89.7269247235739 0.24322275596730403 89.79379571634684 C 0.2951671878534257 89.86066670911977 0.3764215075897536 89.89805367734535 0.46099999999999997 89.894 L 3.524 89.91900000000001 C 6.46 89.91900000000001 8.007 88.29200000000002 9 83.61200000000001 L 11.25 73.212 C 11.29 73.029 11.168 72.879 10.98 72.879 z M 64.132 83.605 C 63.944 83.605 63.83200000000001 83.455 63.862 83.271 L 66.677 70.08500000000001 M 68.04400000000001 83.27000000000001 L 69.18400000000001 77.64200000000001 L 68.04400000000001 83.27000000000001 z" stroke-linecap="round" />
</g>
<g transform="matrix(4.73 0 0 4.73 370.48 401.99)" id="n02ZKv3NrQttuPaQXqOU_"  >
<path style="stroke: none; stroke-width: 1; stroke-dasharray: none; stroke-linecap: butt; stroke-dashoffset: 0; stroke-linejoin: miter; stroke-miterlimit: 4; fill: rgb(19,27,40); fill-rule: nonzero; opacity: 1;" vector-effect="non-scaling-stroke"  transform=" translate(-71.87, -77.29)" d="M 63.903 83.438 C 63.879999999999995 83.346 63.893 83.12100000000001 63.933 82.938 L 65.269 76.678 L 63.861000000000004 83.271 C 63.821000000000005 83.455 63.943000000000005 83.605 64.131 83.605 L 64.473 83.605 C 64.285 83.605 63.925 83.53 63.903 83.438 z M 67.823 83.53 C 67.72099999999999 83.57000000000001 67.48299999999999 83.605 67.29499999999999 83.605 L 67.63699999999999 83.605 C 67.83307797015459 83.59725239097159 68.0003251590743 83.46059920002502 68.04699999999998 83.27000000000001 L 68.11499999999998 82.936 C 68.07799999999997 83.12 67.91499999999998 83.489 67.81499999999998 83.53 z M 68.613 80.456 L 69.116 77.97200000000001 L 68.613 80.456 z M 79.721 70.968 L 79.876 71.608 C 79.91900000000001 71.79100000000001 79.80000000000001 71.94 79.613 71.941" stroke-linecap="round" />
</g>
<g transform="matrix(4.73 0 0 4.73 373.47 397.81)" id="Yps2aXxdnsY27VX25oQoX"  >
<path style="stroke: none; stroke-width: 1; stroke-dasharray: none; stroke-linecap: butt; stroke-dashoffset: 0; stroke-linejoin: miter; stroke-miterlimit: 4; fill: rgb(19,27,40); fill-rule: nonzero; opacity: 1;" vector-effect="non-scaling-stroke"  transform=" translate(-72.5, -76.4)" d="M 68.112 82.936 L 68.612 80.456 L 68.112 82.936 z M 79.568 70.3 L 79.721 70.956 L 79.568 70.3 z M 69.116 77.972 L 69.254 77.30799999999999 L 69.79100000000001 74.79299999999999 L 69.183 77.64099999999999 L 69.11600000000001 77.97099999999999 z M 66.723 69.868 L 66.606 70.41799999999999 L 65.27 76.678 L 66.678 70.085 L 66.723 69.869 z" stroke-linecap="round" />
</g>
<g transform="matrix(4.73 0 0 4.73 280.18 385.8)" id="TMD1devX1ek4iwU8OIFC9"  >
<path style="stroke: none; stroke-width: 1; stroke-dasharray: none; stroke-linecap: butt; stroke-dashoffset: 0; stroke-linejoin: miter; stroke-miterlimit: 4; fill: rgb(19,27,40); fill-rule: nonzero; opacity: 1;" vector-effect="non-scaling-stroke"  transform=" translate(-52.68, -73.84)" d="M 79.877 71.608 L 79.722 70.968 L 79.49199999999999 69.968 C 79.18799999999999 68.788 78.29599999999999 68.105 76.35799999999999 68.105 L 67.43799999999999 68.099 C 67.24145777698676 68.10575130816919 67.07326081372834 68.24210515702433 67.02599999999998 68.433 L 66.88799999999998 69.08600000000001 L 66.68799999999997 70.07300000000001 L 63.943999999999974 82.926 C 63.903999999999975 83.11 63.89099999999998 83.32600000000001 63.91399999999997 83.426 C 63.93699999999997 83.526 64.29699999999997 83.593 64.48399999999997 83.593 L 67.30399999999996 83.593 C 67.49199999999996 83.593 67.72899999999996 83.559 67.83199999999997 83.518 C 67.93499999999997 83.477 68.08599999999997 83.118 68.13199999999996 82.924 L 69.20199999999996 77.63000000000001 L 70.34699999999995 72.266 C 70.38699999999996 72.083 70.57199999999995 71.93400000000001 70.75899999999996 71.933 L 79.63199999999996 71.929 C 79.81899999999996 71.929 79.93799999999996 71.779 79.89499999999997 71.596 z M 91.3 65.815 L 90.61699999999999 65.818 L 87.77699999999999 65.818 C 87.56664071940746 65.83051807338636 87.37195344646541 65.93333045347934 87.24299999999998 66.1 L 80.96299999999998 75.3 C 80.85699999999999 75.455 80.73599999999998 75.432 80.69299999999998 75.25 L 80.23099999999998 73.223 C 80.17991229475187 73.0326647558112 80.01092114600576 72.89771498954632 79.81399999999998 72.89 L 75.77699999999997 72.89 C 75.58899999999997 72.89 75.47699999999998 73.037 75.52899999999997 73.218 L 77.32899999999997 79.556 C 77.38099999999997 79.736 77.38399999999997 80.033 77.33899999999997 80.216 L 76.53899999999997 83.28299999999999 C 76.51130793962419 83.36290320317391 76.52588716122605 83.45138970086987 76.57774963035811 83.5181853323201 C 76.62961209949017 83.58498096377035 76.71172696031053 83.62103042436917 76.79599999999998 83.61399999999999 L 80.79599999999998 83.61399999999999 C 80.98399999999998 83.61399999999999 81.17599999999997 83.46399999999998 81.22199999999998 83.28399999999999 L 82.02199999999998 80.21699999999998 C 82.08471736274461 80.00105970222153 82.18270534817754 79.7969743808371 82.31199999999998 79.61299999999999 L 92.518 66.08 C 92.631 65.92999999999999 92.57000000000001 65.80799999999999 92.382 65.81 L 91.31200000000001 65.81700000000001 z M 59.224 73.752 C 59.199999999999996 73.952 59.01199999999999 74.10199999999999 58.824 74.10199999999999 L 53.704 74.10199999999999 C 53.527 74.10199999999999 53.437 73.98199999999999 53.464 73.832 L 53.467999999999996 73.80499999999999 L 53.491 73.71799999999999 C 53.991 72.41799999999999 54.976 71.56499999999998 56.847 71.56499999999998 C 58.954 71.56499999999998 59.365 72.59499999999998 59.222 73.75199999999998 z M 57.721999999999994 67.844 C 51.151999999999994 67.844 49.59499999999999 71.832 48.721999999999994 75.857 C 47.84799999999999 79.96 47.92399999999999 83.797 54.721999999999994 83.797 L 55.8 83.797 L 56.629999999999995 83.794 L 60.955999999999996 83.768 C 61.15094659102321 83.75895005900614 61.31663850130476 83.62256973973264 61.36299999999999 83.433 L 62.019999999999996 80.221 C 62.05799999999999 80.037 61.934999999999995 79.887 61.74699999999999 79.887 L 55.63499999999999 79.887 C 53.20499999999999 79.887 52.48199999999999 79.241 52.74799999999999 77.342 L 62.51799999999999 77.342 C 62.67799999999998 77.339 62.822999999999986 77.242 62.87999999999999 77.09 C 62.889999999999986 77.063 62.89999999999999 77.034 62.90399999999999 77.00500000000001 C 64.35399999999998 71.53500000000001 63.93799999999999 67.84800000000001 57.72399999999999 67.84800000000001 z M 26.668 73.73 L 26.576 74.057 C 26.576 74.058 25.838 76.673 25.838 76.673 L 25.1 79.287 C 25.03723347313996 79.47567123484625 24.864639025320013 79.60611127835995 24.666 79.61500000000001 L 20.76 79.61500000000001 C 17.798000000000002 79.61500000000001 17.077 77.298 17.798000000000002 73.88100000000001 C 18.518 70.38600000000001 19.933 68.21300000000001 22.848000000000003 67.99300000000001 C 26.832 67.69300000000001 27.628000000000004 70.495 26.668000000000003 73.72900000000001 z M 29.346 79.415 C 29.346 79.415 31.186 74.94500000000001 31.606 72.36200000000001 C 32.176 68.90500000000002 30.446 63.89200000000001 23.761000000000003 63.89200000000001 C 17.114000000000004 63.89200000000001 14.228000000000003 68.67800000000001 13.127000000000002 73.89200000000001 C 12.027000000000003 79.132 13.469000000000003 83.72800000000001 20.077 83.69200000000001 L 30.163000000000004 83.655 C 30.36113115505096 83.64552598768195 30.531985231053987 83.51268394263978 30.590000000000003 83.32300000000001 L 31.440000000000005 80.08500000000001 C 31.467938041694623 80.00533077348437 31.453778674155355 79.91694250462831 31.402352085536968 79.84998710297614 C 31.350925496918578 79.78303170132396 31.26917945312203 79.74655488561731 31.185000000000006 79.75300000000001 L 29.558000000000007 79.74300000000001 C 29.398000000000007 79.742 29.308000000000007 79.63900000000001 29.326000000000008 79.50300000000001 C 29.33000000000001 79.47800000000001 29.33600000000001 79.45300000000002 29.346000000000007 79.42700000000002 z" stroke-linecap="round" />
</g>
<g transform="matrix(4.73 0 0 4.73 324.16 397.91)" id="gNq4Ml9yu3qN_4S8_-qtr"  >
<path style="stroke: none; stroke-width: 1; stroke-dasharray: none; stroke-linecap: butt; stroke-dashoffset: 0; stroke-linejoin: miter; stroke-miterlimit: 4; fill: rgb(19,27,40); fill-rule: nonzero; opacity: 1;" vector-effect="non-scaling-stroke"  transform=" translate(-62.03, -76.42)" d="M 62.25 76.424 C 62.25 76.548 62.15 76.64800000000001 62.026 76.64800000000001 C 61.90200000000001 76.64800000000001 61.80200000000001 76.54800000000002 61.80200000000001 76.424 C 61.80200000000001 76.3 61.90200000000001 76.2 62.026 76.2 C 62.15 76.2 62.25 76.3 62.25 76.424 z" stroke-linecap="round" />
</g>
</svg>