<?xml version="1.0" encoding="UTF-8" standalone="no" ?>
<!DOCTYPE svg PUBLIC "-//W3C//DTD SVG 1.1//EN" "http://www.w3.org/Graphics/SVG/1.1/DTD/svg11.dtd">
<svg xmlns="http://www.w3.org/2000/svg" xmlns:xlink="http://www.w3.org/1999/xlink" version="1.1" width="500" height="500" viewBox="0 0 500 500" xml:space="preserve">
<desc>Created with Fabric.js 4.6.0</desc>
<defs>
</defs>
<g transform="matrix(14.29 0 0 14.29 300.45 220.46)" id="Uh0I1vWfvstk5bfR2VxrY"  >
<path style="stroke: none; stroke-width: 1; stroke-dasharray: none; stroke-linecap: butt; stroke-dashoffset: 0; stroke-linejoin: miter; stroke-miterlimit: 4; fill: rgb(89,150,54); fill-rule: nonzero; opacity: 1;" vector-effect="non-scaling-stroke"  transform=" translate(-19.53, -13.93)" d="M 15.9 0.087 L 16.754 1.691 C 16.946 1.987 17.154 2.249 17.399 2.4930000000000003 C 18.114 3.208 18.793 3.9570000000000003 19.403000000000002 4.759 C 20.85 6.659000000000001 21.826 8.769 22.523000000000003 11.051 C 22.941000000000003 12.445 23.168000000000003 13.875 23.185000000000002 15.321 C 23.255000000000003 19.644 21.773000000000003 23.356 18.785000000000004 26.441 C 18.297000000000004 26.929 17.775000000000002 27.381 17.215000000000003 27.782999999999998 C 16.919000000000004 27.782999999999998 16.779000000000003 27.555999999999997 16.657000000000004 27.346999999999998 C 16.430000000000003 26.964 16.291000000000004 26.526999999999997 16.221000000000004 26.092 C 16.116000000000003 25.569 16.047000000000004 25.046 16.081000000000003 24.506 L 16.081000000000003 24.262 C 16.057 24.21 15.796 0.21 15.9 0.087 z" stroke-linecap="round" />
</g>
<g transform="matrix(14.29 0 0 14.29 199.33 221.96)" id="Z-7SgBvXrZAImyNNAsq64"  >
<path style="stroke: none; stroke-width: 1; stroke-dasharray: none; stroke-linecap: butt; stroke-dashoffset: 0; stroke-linejoin: miter; stroke-miterlimit: 4; fill: rgb(108,172,72); fill-rule: nonzero; opacity: 1;" vector-effect="non-scaling-stroke"  transform=" translate(-12.45, -14.04)" d="M 15.9 0.034 C 15.865 -0.036000000000000004 15.83 0.017 15.795 0.051000000000000004 C 15.812 0.40099999999999997 15.69 0.7130000000000001 15.499 1.011 C 15.289 1.307 15.011000000000001 1.5339999999999998 14.732000000000001 1.778 C 13.182 3.12 11.962000000000002 4.741 10.985000000000001 6.554 C 9.685 8.994 9.015 11.609 8.825000000000001 14.362 C 8.738000000000001 15.355 9.139000000000001 18.859 9.452000000000002 19.87 C 10.306000000000001 22.554000000000002 11.840000000000002 24.803 13.827000000000002 26.755000000000003 C 14.315000000000001 27.225 14.837000000000002 27.661 15.377000000000002 28.080000000000002 C 15.534000000000002 28.080000000000002 15.551000000000002 27.94 15.587000000000003 27.836000000000002 C 15.655832407239279 27.613461610925 15.708305559124662 27.386189360720795 15.744000000000003 27.156000000000006 L 16.094000000000005 24.542 L 15.9 0.034 z" stroke-linecap="round" />
</g>
<g transform="matrix(14.29 0 0 14.29 254.07 421.9)" id="q2ubaMRiqbf04u96rual9"  >
<path style="stroke: none; stroke-width: 1; stroke-dasharray: none; stroke-linecap: butt; stroke-dashoffset: 0; stroke-linejoin: miter; stroke-miterlimit: 4; fill: rgb(194,191,191); fill-rule: nonzero; opacity: 1;" vector-effect="non-scaling-stroke"  transform=" translate(-16.28, -28.03)" d="M 16.754 28.845 C 16.789 28.445 16.981 28.113 17.19 27.782 C 16.98 27.695 16.824 27.522 16.702 27.329 C 16.597 27.155 16.51 26.946 16.442 26.754 C 16.198 26.022000000000002 16.146 25.254 16.076 24.506 L 16.076 24.053 C 15.989 24.123 15.971 24.715 15.971 24.803 C 15.920113686257958 25.593576087247712 15.815202088345895 26.379744844849874 15.657 27.156000000000002 C 15.605 27.470000000000002 15.57 27.783 15.377 28.062 C 15.377 28.097 15.377 28.132 15.394 28.184 C 15.708 29.108 15.794 30.049 15.847 31.008000000000003 L 15.847 31.358000000000004 C 15.847 31.776000000000003 15.83 31.688000000000002 16.177 31.828000000000003 C 16.317 31.880000000000003 16.473 31.898000000000003 16.613 32.002 C 16.718 32.002 16.735 31.915000000000003 16.735 31.845000000000002 L 16.683 31.270000000000003 L 16.683 29.666000000000004 C 16.666 29.386000000000003 16.718 29.108000000000004 16.753 28.846000000000004 z" stroke-linecap="round" />
</g>
</svg>