<?xml version="1.0" encoding="UTF-8" standalone="no" ?>
<!DOCTYPE svg PUBLIC "-//W3C//DTD SVG 1.1//EN" "http://www.w3.org/Graphics/SVG/1.1/DTD/svg11.dtd">
<svg xmlns="http://www.w3.org/2000/svg" xmlns:xlink="http://www.w3.org/1999/xlink" version="1.1" width="500" height="500" viewBox="0 0 500 500" xml:space="preserve">
<desc>Created with Fabric.js 4.6.0</desc>
<defs>
</defs>
<g transform="matrix(1.12 0 0 1.12 247.17 342.71)" id="SFhZcxqhewGicX3n7XZKa"  >
<path style="stroke: none; stroke-width: 1; stroke-dasharray: none; stroke-linecap: butt; stroke-dashoffset: 0; stroke-linejoin: miter; stroke-miterlimit: 4; fill: rgb(104,159,99); fill-rule: nonzero; opacity: 1;" vector-effect="non-scaling-stroke"  transform=" translate(-218.63, -216.42)" d="M 218.647 270.93 C 217.18699999999998 270.93 215.737 270.547 214.457 269.81 L 201.12 261.914 C 199.12800000000001 260.8 200.1 260.406 200.757 260.179 C 203.413 259.24899999999997 203.952 259.039 206.787 257.429 C 207.085 257.25899999999996 207.475 257.31899999999996 207.78 257.49899999999997 L 218.026 263.57899999999995 C 218.39600000000002 263.77899999999994 218.92100000000002 263.77899999999994 219.264 263.57899999999995 L 259.214 240.51899999999995 C 259.584 240.30899999999994 259.824 239.87899999999996 259.824 239.43899999999994 L 259.824 193.33899999999994 C 259.824 192.87899999999993 259.584 192.46899999999994 259.206 192.23899999999995 L 219.27200000000002 169.19899999999996 C 218.90200000000002 168.97899999999996 218.412 168.97899999999996 218.04200000000003 169.19899999999996 L 178.11600000000004 192.23899999999995 C 177.72900000000004 192.45899999999995 177.48300000000003 192.88899999999995 177.48300000000003 193.32899999999995 L 177.48300000000003 239.42899999999995 C 177.48300000000003 239.86899999999994 177.72300000000004 240.28899999999996 178.10300000000004 240.49899999999994 L 189.04300000000003 246.81899999999993 C 194.98300000000003 249.78899999999993 198.61300000000003 246.28899999999993 198.61300000000003 242.76899999999992 L 198.61300000000003 197.26899999999992 C 198.61300000000003 196.61899999999991 199.12300000000002 196.11899999999991 199.77300000000002 196.11899999999991 L 204.83300000000003 196.11899999999991 C 205.46300000000002 196.11899999999991 205.98300000000003 196.61899999999991 205.98300000000003 197.26899999999992 L 205.98300000000003 242.78899999999993 C 205.98300000000003 250.70899999999992 201.66300000000004 255.25899999999993 194.15300000000002 255.25899999999993 C 191.84300000000002 255.25899999999993 190.02300000000002 255.25899999999993 184.943 252.75899999999993 L 174.46300000000002 246.71899999999994 C 171.87300000000002 245.21899999999994 170.27300000000002 242.41899999999993 170.27300000000002 239.42899999999995 L 170.27300000000002 193.32899999999995 C 170.27300000000002 190.32899999999995 171.87300000000002 187.52899999999994 174.46300000000002 186.04899999999995 L 214.45300000000003 162.97899999999996 C 216.98300000000003 161.54899999999995 220.34300000000002 161.54899999999995 222.85300000000004 162.97899999999996 L 262.793 186.05899999999997 C 265.373 187.54899999999998 266.983 190.33899999999997 266.983 193.33899999999997 L 266.983 239.43899999999996 C 266.983 242.42899999999997 265.373 245.21899999999997 262.793 246.71899999999997 L 222.853 269.789 C 221.573 270.529 220.12300000000002 270.909 218.643 270.909" stroke-linecap="round" />
</g>
<g transform="matrix(1.12 0 0 1.12 281.47 336.84)" id="4458ADyCowg6d5xnRfxIB"  >
<path style="stroke: none; stroke-width: 1; stroke-dasharray: none; stroke-linecap: butt; stroke-dashoffset: 0; stroke-linejoin: miter; stroke-miterlimit: 4; fill: rgb(104,159,99); fill-rule: nonzero; opacity: 1;" vector-effect="non-scaling-stroke"  transform=" translate(-249.19, -211.19)" d="M 230.987 239.164 C 213.507 239.164 209.84199999999998 231.14 209.84199999999998 224.41 C 209.84199999999998 223.77 210.35799999999998 223.26 210.999 223.26 L 216.159 223.26 C 216.72899999999998 223.26 217.209 223.67499999999998 217.29899999999998 224.238 C 218.07899999999998 229.496 220.39899999999997 232.148 230.96899999999997 232.148 C 239.38899999999995 232.148 242.96899999999997 230.246 242.96899999999997 225.781 C 242.96899999999997 223.211 241.94899999999996 221.30100000000002 228.86899999999997 220.02100000000002 C 217.92899999999997 218.941 211.16899999999998 216.531 211.16899999999998 207.781 C 211.16899999999998 199.721 217.969 194.921 229.35899999999998 194.921 C 242.14899999999997 194.921 248.48899999999998 199.361 249.289 208.90099999999998 C 249.319 209.231 249.19899999999998 209.551 248.97899999999998 209.79099999999997 C 248.759 210.02099999999996 248.44899999999998 210.16099999999997 248.129 210.16099999999997 L 242.939 210.16099999999997 C 242.399 210.16099999999997 241.929 209.78099999999998 241.819 209.26099999999997 C 240.569 203.73099999999997 237.54899999999998 201.96099999999996 229.339 201.96099999999996 C 220.149 201.96099999999996 219.079 205.16099999999994 219.079 207.56099999999995 C 219.079 210.47099999999995 220.339 211.32099999999994 232.739 212.96099999999996 C 245.019 214.59099999999995 250.849 216.89099999999996 250.849 225.52099999999996 C 250.849 234.22099999999995 243.589 239.21099999999996 230.92899999999997 239.21099999999996 M 279.58899999999994 190.32099999999997 L 280.9289999999999 190.32099999999997 C 282.02899999999994 190.32099999999997 282.2389999999999 189.55099999999996 282.2389999999999 189.10099999999997 C 282.2389999999999 187.92099999999996 281.4289999999999 187.92099999999996 280.9789999999999 187.92099999999996 L 279.59899999999993 187.92099999999996 z M 277.95899999999995 186.54099999999997 L 280.929 186.54099999999997 C 281.94899999999996 186.54099999999997 283.94899999999996 186.54099999999997 283.94899999999996 188.82099999999997 C 283.94899999999996 190.41099999999997 282.929 190.74099999999996 282.31899999999996 190.94099999999997 C 283.50899999999996 191.021 283.58899999999994 191.801 283.74899999999997 192.90099999999998 C 283.82899999999995 193.59099999999998 283.95899999999995 194.78099999999998 284.19899999999996 195.18099999999998 L 282.36899999999997 195.18099999999998 C 282.31899999999996 194.78099999999998 282.039 192.581 282.039 192.46099999999998 C 281.919 191.97099999999998 281.74899999999997 191.731 281.139 191.731 L 279.629 191.731 L 279.629 195.191 L 277.959 195.191 z M 274.38899999999995 190.84099999999998 C 274.38899999999995 194.421 277.27899999999994 197.32099999999997 280.82899999999995 197.32099999999997 C 284.40899999999993 197.32099999999997 287.299 194.36099999999996 287.299 190.84099999999998 C 287.299 187.25099999999998 284.36899999999997 184.40099999999998 280.81899999999996 184.40099999999998 C 277.31899999999996 184.40099999999998 274.37899999999996 187.21099999999998 274.37899999999996 190.831 M 288.539 190.861 C 288.539 195.101 285.06899999999996 198.56099999999998 280.839 198.56099999999998 C 276.639 198.56099999999998 273.139 195.141 273.139 190.861 C 273.139 186.50099999999998 276.719 183.161 280.839 183.161 C 284.989 183.161 288.529 186.511 288.529 190.861" stroke-linecap="round" />
</g>
<g transform="matrix(1.12 0 0 1.12 250.04 195.44)" id="dmpfHWHZ2aF19D_GG-ci0"  >
<path style="stroke: none; stroke-width: 1; stroke-dasharray: none; stroke-linecap: butt; stroke-dashoffset: 0; stroke-linejoin: miter; stroke-miterlimit: 4; fill: rgb(51,51,51); fill-rule: evenodd; opacity: 1;" vector-effect="non-scaling-stroke"  transform=" translate(-221.19, -85.19)" d="M 94.936 90.55 C 94.936 88.71 93.96600000000001 87.02 92.37800000000001 86.10499999999999 L 50.02200000000001 61.734999999999985 C 49.30700000000001 61.31499999999998 48.506000000000014 61.094999999999985 47.69400000000001 61.06499999999998 L 47.25600000000001 61.06499999999998 C 46.44400000000001 61.094999999999985 45.64300000000001 61.31499999999998 44.91600000000001 61.734999999999985 L 2.562 86.105 C 0.984 87.025 0 88.715 0 90.555 L 0.093 156.195 C 0.093 157.105 0.563 157.95499999999998 1.363 158.405 C 2.143 158.885 3.123 158.885 3.903 158.405 L 29.083 143.985 C 30.673 143.03900000000002 31.642999999999997 141.36700000000002 31.642999999999997 139.54500000000002 L 31.642999999999997 108.88 C 31.642999999999997 107.05 32.613 105.36 34.198 104.44999999999999 L 44.918 98.27599999999998 C 45.714 97.81599999999999 46.588 97.58799999999998 47.478 97.58799999999998 C 48.354 97.58799999999998 49.248000000000005 97.81399999999998 50.022 98.27499999999998 L 60.736999999999995 104.44699999999997 C 62.32299999999999 105.35699999999997 63.297 107.04699999999997 63.297 108.87699999999998 L 63.297 139.54 C 63.297 141.35999999999999 64.28 143.04 65.862 143.98 L 91.026 158.39 C 91.816 158.85999999999999 92.79899999999999 158.85999999999999 93.586 158.39 C 94.362 157.94 94.854 157.08999999999997 94.854 156.17999999999998 z M 294.804 124.726 C 294.804 125.18299999999999 294.561 125.606 294.164 125.832 L 279.616 134.218 C 279.221 134.445 278.733 134.445 278.339 134.218 L 263.789 125.832 C 263.389 125.60499999999999 263.149 125.18199999999999 263.149 124.726 L 263.149 107.93 C 263.149 107.47200000000001 263.389 107.05000000000001 263.779 106.82000000000001 L 278.319 98.42 C 278.719 98.19 279.209 98.19 279.60900000000004 98.42 L 294.15900000000005 106.82000000000001 C 294.559 107.05000000000001 294.79900000000004 107.47200000000001 294.79900000000004 107.93 z M 298.734 0.324 C 297.94 -0.118 296.974 -0.10599999999999998 296.19 0.35100000000000003 C 295.41 0.811 294.928 1.651 294.928 2.561 L 294.928 67.561 C 294.928 68.20100000000001 294.588 68.79100000000001 294.034 69.111 C 293.484 69.431 292.799 69.431 292.24399999999997 69.111 L 281.634 63 C 280.05400000000003 62.086 278.108 62.086 276.522 63 L 234.152 87.453 C 232.569 88.363 231.59199999999998 90.053 231.59199999999998 91.873 L 231.59199999999998 140.793 C 231.59199999999998 142.62300000000002 232.569 144.303 234.152 145.223 L 276.522 169.693 C 278.104 170.603 280.05199999999996 170.603 281.639 169.693 L 324.009 145.21300000000002 C 325.589 144.29300000000003 326.569 142.61300000000003 326.569 140.78300000000002 L 326.569 18.863 C 326.569 17.006999999999998 325.559 15.299999999999999 323.939 14.393 z M 439.827 107.488 C 441.401 106.574 442.37 104.886 442.37 103.066 L 442.37 91.21 C 442.37 89.386 441.4 87.70299999999999 439.823 86.785 L 397.72299999999996 62.345 C 396.133 61.425 394.18299999999994 61.425 392.59299999999996 62.345 L 350.23299999999995 86.795 C 348.643 87.715 347.67299999999994 89.395 347.67299999999994 91.225 L 347.67299999999994 140.125 C 347.67299999999994 141.965 348.66299999999995 143.665 350.25299999999993 144.575 L 392.34299999999996 168.565 C 393.893 169.45499999999998 395.79299999999995 169.465 397.36299999999994 168.595 L 422.8229999999999 154.445 C 423.62299999999993 153.995 424.1329999999999 153.14499999999998 424.1329999999999 152.225 C 424.1329999999999 151.305 423.6429999999999 150.445 422.8429999999999 149.995 L 380.2229999999999 125.535 C 379.4229999999999 125.085 378.9329999999999 124.235 378.9329999999999 123.325 L 378.9329999999999 107.985 C 378.9329999999999 107.069 379.4129999999999 106.225 380.21299999999985 105.769 L 393.47299999999984 98.119 C 394.26299999999986 97.659 395.23299999999983 97.659 396.02299999999985 98.119 L 409.29299999999984 105.769 C 410.08299999999986 106.21900000000001 410.5729999999998 107.069 410.5729999999998 107.979 L 410.5729999999998 120.039 C 410.5729999999998 120.949 411.0629999999998 121.799 411.8529999999998 122.259 C 412.6429999999998 122.709 413.62299999999976 122.709 414.4129999999998 122.249 z M 439.827 107.488" stroke-linecap="round" />
</g>
<g transform="matrix(1.12 0 0 1.12 445.13 229.38)" id="fAtlHK6LHN38f5DYQZEJa"  >
<path style="stroke: none; stroke-width: 1; stroke-dasharray: none; stroke-linecap: butt; stroke-dashoffset: 0; stroke-linejoin: miter; stroke-miterlimit: 4; fill: rgb(104,159,99); fill-rule: evenodd; opacity: 1;" vector-effect="non-scaling-stroke"  transform=" translate(-395.03, -115.44)" d="M 394.538 105.2 C 394.838 105.023 395.214 105.023 395.51800000000003 105.2 L 403.648 109.89 C 403.952 110.066 404.13800000000003 110.39 404.13800000000003 110.74 L 404.13800000000003 120.13 C 404.13800000000003 120.47999999999999 403.95200000000006 120.804 403.648 120.97999999999999 L 395.51800000000003 125.66999999999999 C 395.21400000000006 125.847 394.838 125.847 394.538 125.66999999999999 L 386.413 120.97999999999999 C 386.103 120.80399999999999 385.913 120.47999999999999 385.913 120.13 L 385.913 110.74 C 385.913 110.39 386.093 110.06599999999999 386.403 109.89 z M 394.538 105.2" stroke-linecap="round" />
</g>
<g transform="matrix(1.12 0 0 1.12 185.04 229.76)" id="Kz6bU1uaaPmVTjibg0XeN" clip-path="url(#CLIPPATH_38)"  >
<linearGradient id="SVGID_17" gradientUnits="userSpaceOnUse" gradientTransform="matrix(-38.06 77.65 -77.65 -38.06 258.72 244.63)"  x1="-0.348" y1="0" x2="1.251" y2="0">
<stop offset="30%" style="stop-color:rgb(62,134,61);stop-opacity: 1"/>
<stop offset="50%" style="stop-color:rgb(85,147,79);stop-opacity: 1"/>
<stop offset="80%" style="stop-color:rgb(90,173,69);stop-opacity: 1"/>
</linearGradient>
<clipPath id="CLIPPATH_38" >
	<path transform="matrix(1 0 0 1 0 -0.11) translate(-241.57, -279.67)" id="a" d="M 239.03 226.605 L 196.9 250.922 C 195.322 251.832 194.354 253.512 194.354 255.328 L 194.354 303.996 C 194.354 305.813 195.322 307.49199999999996 196.9 308.402 L 239.03300000000002 332.738 C 240.608 333.645 242.55 333.645 244.12300000000002 332.738 L 286.249 308.402 C 287.819 307.49199999999996 288.78900000000004 305.812 288.78900000000004 303.996 L 288.78900000000004 255.32799999999997 C 288.78900000000004 253.51199999999997 287.819 251.83199999999997 286.23900000000003 250.92199999999997 L 244.11900000000003 226.60499999999996 C 243.32900000000004 226.15199999999996 242.44900000000004 225.92499999999995 241.56900000000002 225.92499999999995 C 240.68900000000002 225.92499999999995 239.80900000000003 226.15199999999996 239.019 226.60499999999996" stroke-linecap="round" />
</clipPath>
<path style="stroke: none; stroke-width: 1; stroke-dasharray: none; stroke-linecap: butt; stroke-dashoffset: 0; stroke-linejoin: miter; stroke-miterlimit: 4; fill: url(#SVGID_17); fill-rule: nonzero; opacity: 1;" vector-effect="non-scaling-stroke"  transform=" translate(-241.57, -279.79)" d="M 331.363 246.793 L 212.648 188.603 L 151.778 312.77700000000004 L 270.49 370.97 z M 331.363 246.793" stroke-linecap="round" />
</g>
<g transform="matrix(1.12 0 0 1.12 184.87 229.75)" id="LeDCpoMNecdl9MwwAUHue" clip-path="url(#CLIPPATH_39)"  >
<linearGradient id="SVGID_18" gradientUnits="userSpaceOnUse" gradientTransform="matrix(106.81 -78.92 78.92 106.81 235.19 285.39)"  x1="-0.456" y1="0" x2="0.582" y2="0">
<stop offset="56.99999999999999%" style="stop-color:rgb(62,134,61);stop-opacity: 1"/>
<stop offset="72%" style="stop-color:rgb(97,152,87);stop-opacity: 1"/>
<stop offset="100%" style="stop-color:rgb(118,172,100);stop-opacity: 1"/>
</linearGradient>
<clipPath id="CLIPPATH_39" >
	<path transform="matrix(1 0 0 1 0 -0.04) translate(-241.41, -279.74)" id="c" d="M 195.398 307.086 C 195.801 307.60900000000004 196.305 308.062 196.898 308.402 L 233.038 329.277 L 239.05800000000002 332.73699999999997 C 239.95800000000003 333.25699999999995 240.984 333.477 241.99200000000002 333.402 C 242.32800000000003 333.375 242.66400000000002 333.312 242.99200000000002 333.219 L 287.42600000000004 251.85899999999998 C 287.08600000000007 251.48899999999998 286.68800000000005 251.17899999999997 286.242 250.91899999999998 L 258.656 234.98899999999998 L 244.074 226.599 C 243.66000000000003 226.35899999999998 243.211 226.189 242.75400000000002 226.069 z M 195.398 307.086" stroke-linecap="round" />
</clipPath>
<path style="stroke: none; stroke-width: 1; stroke-dasharray: none; stroke-linecap: butt; stroke-dashoffset: 0; stroke-linejoin: miter; stroke-miterlimit: 4; fill: url(#SVGID_18); fill-rule: nonzero; opacity: 1;" vector-effect="non-scaling-stroke"  transform=" translate(-241.41, -279.78)" d="M 144.07 264.004 L 227.89499999999998 377.457 L 338.755 295.551 L 254.925 182.101 z M 144.07 264.004" stroke-linecap="round" />
</g>
<g transform="matrix(1.12 0 0 1.12 186.49 229.61)" id="7Xbmzo_Q061tC7zIYkmJH" clip-path="url(#CLIPPATH_40)"  >
<linearGradient id="SVGID_19" gradientUnits="userSpaceOnUse" gradientTransform="matrix(97.42 0 0 97.42 192.86 279.65)"  x1="0.043" y1="0" x2="0.984" y2="0">
<stop offset="16%" style="stop-color:rgb(107,191,71);stop-opacity: 1"/>
<stop offset="38%" style="stop-color:rgb(121,180,97);stop-opacity: 1"/>
<stop offset="47%" style="stop-color:rgb(117,172,100);stop-opacity: 1"/>
<stop offset="70%" style="stop-color:rgb(101,158,90);stop-opacity: 1"/>
<stop offset="90%" style="stop-color:rgb(62,134,61);stop-opacity: 1"/>
</linearGradient>
<clipPath id="CLIPPATH_40" >
	<path transform="matrix(1 0 0 1 0.01 0) translate(-242.87, -279.65)" id="e" d="M 241.066 225.953 C 240.359 226.023 239.668 226.243 239.031 226.605 L 197.02100000000002 250.85199999999998 L 242.32100000000003 333.36199999999997 C 242.95100000000002 333.272 243.57100000000003 333.06199999999995 244.13100000000003 332.73799999999994 L 286.261 308.40199999999993 C 287.56100000000004 307.6479999999999 288.451 306.37199999999996 288.721 304.92599999999993 L 242.541 226.03599999999994 C 242.201 225.96899999999994 241.861 225.93399999999994 241.511 225.93399999999994 C 241.371 225.93399999999994 241.231 225.94099999999995 241.091 225.95399999999995" stroke-linecap="round" />
</clipPath>
<path style="stroke: none; stroke-width: 1; stroke-dasharray: none; stroke-linecap: butt; stroke-dashoffset: 0; stroke-linejoin: miter; stroke-miterlimit: 4; fill: url(#SVGID_19); fill-rule: nonzero; opacity: 1;" vector-effect="non-scaling-stroke"  transform=" translate(-242.86, -279.65)" d="M 197.02 225.934 L 197.02 333.36400000000003 L 288.70300000000003 333.36400000000003 L 288.70300000000003 225.93400000000003 z M 197.02 225.934" stroke-linecap="round" />
</g>
</svg>