<?xml version="1.0" encoding="UTF-8" standalone="no" ?>
<!DOCTYPE svg PUBLIC "-//W3C//DTD SVG 1.1//EN" "http://www.w3.org/Graphics/SVG/1.1/DTD/svg11.dtd">
<svg xmlns="http://www.w3.org/2000/svg" xmlns:xlink="http://www.w3.org/1999/xlink" version="1.1" width="500" height="500" viewBox="0 0 500 500" xml:space="preserve">
<desc>Created with Fabric.js 4.6.0</desc>
<defs>
</defs>
<g transform="matrix(2.05 0 0 2.05 292.34 291.12)" id="Q0dQJcCGhq0HAvuZ5UuCh" clip-path="url(#CLIPPATH_121)"  >
<linearGradient id="SVGID_41" gradientUnits="userSpaceOnUse" gradientTransform="matrix(-41.8 -73.8 73.8 -41.8 381.75 -279.75)"  x1="0" y1="0" x2="1" y2="0">
<stop offset="0%" style="stop-color:rgb(251,118,85);stop-opacity: 1"/>
<stop offset="41%" style="stop-color:rgb(228,43,30);stop-opacity: 1"/>
<stop offset="41%" style="stop-color:rgb(228,43,30);stop-opacity: 1"/>
<stop offset="99.00099999999999%" style="stop-color:rgb(153,0,0);stop-opacity: 1"/>
<stop offset="100%" style="stop-color:rgb(153,0,0);stop-opacity: 1"/>
</linearGradient>
<clipPath id="CLIPPATH_121" >
	<path transform="matrix(1 0 0 1 0 0) translate(-326.94, 376.52)" id="path3055" d="M 248.06006 -297.70996 C 248.06006 -297.70996 394.52979 -307.6499 394.52979 -307.6499 C 394.52979 -307.6499 405.81005999999996 -455.33984 405.81005999999996 -455.33984 C 405.81005999999996 -455.33984 361.18017999999995 -364.87987999999996 361.18017999999995 -364.87987999999996 C 361.18017999999995 -364.87987999999996 248.06005999999996 -297.70995999999997 248.06005999999996 -297.70995999999997 z" stroke-linecap="round" />
</clipPath>
<path style="stroke: none; stroke-width: 1; stroke-dasharray: none; stroke-linecap: butt; stroke-dashoffset: 0; stroke-linejoin: miter; stroke-miterlimit: 4; fill: url(#SVGID_41); fill-rule: evenodd; opacity: 1;" vector-effect="non-scaling-stroke"  transform=" translate(-326.94, 376.52)" d="M 248.06006 -297.70996 C 248.06006 -297.70996 394.52979 -307.6499 394.52979 -307.6499 C 394.52979 -307.6499 405.81005999999996 -455.33984 405.81005999999996 -455.33984 C 405.81005999999996 -455.33984 361.18017999999995 -364.87987999999996 361.18017999999995 -364.87987999999996 C 361.18017999999995 -364.87987999999996 248.06005999999996 -297.70995999999997 248.06005999999996 -297.70995999999997 z" stroke-linecap="round" />
</g>
<g transform="matrix(2.05 0 0 2.05 384.59 343.78)" id="hPAcWPeJ9iJFhosfpBVlT" clip-path="url(#CLIPPATH_122)"  >
<linearGradient id="SVGID_42" gradientUnits="userSpaceOnUse" gradientTransform="matrix(-53.87 -36.15 36.15 -53.87 402.57 -341.73)"  x1="0" y1="0" x2="1" y2="0">
<stop offset="0%" style="stop-color:rgb(135,17,1);stop-opacity: 1"/>
<stop offset="99.00099999999999%" style="stop-color:rgb(145,18,9);stop-opacity: 1"/>
<stop offset="99.00099999999999%" style="stop-color:rgb(145,18,9);stop-opacity: 1"/>
<stop offset="100%" style="stop-color:rgb(145,18,9);stop-opacity: 1"/>
</linearGradient>
<clipPath id="CLIPPATH_122" >
	<path transform="matrix(1 0 0 1 0 0) translate(-371.33, 351.2)" id="path3081" d="M 347.89014 -349.35986 C 347.89014 -349.35986 394.77002 -307.75 394.77002 -307.75 C 394.77002 -307.75 382.18018 -394.64014 382.18018 -394.64014 C 382.18018 -394.64014 347.89014000000003 -349.35985999999997 347.89014000000003 -349.35985999999997 z" stroke-linecap="round" />
</clipPath>
<path style="stroke: none; stroke-width: 1; stroke-dasharray: none; stroke-linecap: butt; stroke-dashoffset: 0; stroke-linejoin: miter; stroke-miterlimit: 4; fill: url(#SVGID_42); fill-rule: evenodd; opacity: 1;" vector-effect="non-scaling-stroke"  transform=" translate(-371.33, 351.2)" d="M 347.89014 -349.35986 C 347.89014 -349.35986 394.77002 -307.75 394.77002 -307.75 C 394.77002 -307.75 382.18018 -394.64014 382.18018 -394.64014 C 382.18018 -394.64014 347.89014000000003 -349.35985999999997 347.89014000000003 -349.35985999999997 z" stroke-linecap="round" />
</g>
<g transform="matrix(2.05 0 0 2.05 281.58 436.68)" id="T2nMvtPlWgLgUh1L4IXrK" clip-path="url(#CLIPPATH_123)"  >
<linearGradient id="SVGID_43" gradientUnits="userSpaceOnUse" gradientTransform="matrix(-53.87 -36.15 36.15 -53.87 359.47 -277.51)"  x1="0" y1="0" x2="1" y2="0">
<stop offset="0%" style="stop-color:rgb(135,17,1);stop-opacity: 1"/>
<stop offset="99.00099999999999%" style="stop-color:rgb(145,18,9);stop-opacity: 1"/>
<stop offset="99.00099999999999%" style="stop-color:rgb(145,18,9);stop-opacity: 1"/>
<stop offset="100%" style="stop-color:rgb(145,18,9);stop-opacity: 1"/>
</linearGradient>
<clipPath id="CLIPPATH_123" >
	<path transform="matrix(1 0 0 1 0 0) translate(-321.74, 306.45)" id="path3105" d="M 248.5498 -297.8999 C 248.5498 -297.8999 394.93994 -307.75 394.93994 -307.75 C 394.93994 -307.75 302.70995999999997 -314.99023 302.70995999999997 -314.99023 C 302.70995999999997 -314.99023 248.54979999999998 -297.8999 248.54979999999998 -297.8999 z" stroke-linecap="round" />
</clipPath>
<path style="stroke: none; stroke-width: 1; stroke-dasharray: none; stroke-linecap: butt; stroke-dashoffset: 0; stroke-linejoin: miter; stroke-miterlimit: 4; fill: url(#SVGID_43); fill-rule: evenodd; opacity: 1;" vector-effect="non-scaling-stroke"  transform=" translate(-321.74, 306.45)" d="M 248.5498 -297.8999 C 248.5498 -297.8999 394.93994 -307.75 394.93994 -307.75 C 394.93994 -307.75 302.70995999999997 -314.99023 302.70995999999997 -314.99023 C 302.70995999999997 -314.99023 248.54979999999998 -297.8999 248.54979999999998 -297.8999 z" stroke-linecap="round" />
</g>
<g transform="matrix(2.05 0 0 2.05 125.07 376.14)" id="Terh60Sr0daF29XIo0Fxb" clip-path="url(#CLIPPATH_124)"  >
<linearGradient id="SVGID_44" gradientUnits="userSpaceOnUse" gradientTransform="matrix(8.35 54.27 -54.27 8.35 246.38 -367.9)"  x1="0" y1="0" x2="1" y2="0">
<stop offset="0%" style="stop-color:rgb(255,255,255);stop-opacity: 1"/>
<stop offset="23%" style="stop-color:rgb(229,114,82);stop-opacity: 1"/>
<stop offset="23%" style="stop-color:rgb(229,114,82);stop-opacity: 1"/>
<stop offset="46.001%" style="stop-color:rgb(222,59,32);stop-opacity: 1"/>
<stop offset="99.00099999999999%" style="stop-color:rgb(166,0,3);stop-opacity: 1"/>
<stop offset="100%" style="stop-color:rgb(166,0,3);stop-opacity: 1"/>
</linearGradient>
<clipPath id="CLIPPATH_124" >
	<path transform="matrix(1 0 0 1 0 0) translate(-246.37, 335.62)" id="path3129" d="M 221.02002 -362.52002 C 221.02002 -362.52002 248.68017999999998 -297.87987999999996 248.68017999999998 -297.87987999999996 C 248.68017999999998 -297.87987999999996 271.71972999999997 -373.35985999999997 271.71972999999997 -373.35985999999997 C 271.71972999999997 -373.35985999999997 221.02001999999996 -362.52002 221.02001999999996 -362.52002 z" stroke-linecap="round" />
</clipPath>
<path style="stroke: none; stroke-width: 1; stroke-dasharray: none; stroke-linecap: butt; stroke-dashoffset: 0; stroke-linejoin: miter; stroke-miterlimit: 4; fill: url(#SVGID_44); fill-rule: evenodd; opacity: 1;" vector-effect="non-scaling-stroke"  transform=" translate(-246.37, 335.62)" d="M 221.02002 -362.52002 C 221.02002 -362.52002 248.68017999999998 -297.87987999999996 248.68017999999998 -297.87987999999996 C 248.68017999999998 -297.87987999999996 271.71972999999997 -373.35985999999997 271.71972999999997 -373.35985999999997 C 271.71972999999997 -373.35985999999997 221.02001999999996 -362.52002 221.02001999999996 -362.52002 z" stroke-linecap="round" />
</g>
<g transform="matrix(2.05 0 0 2.05 250.83 261.85)" id="JSjyNeQ1yyTijAyh2qTQT" clip-path="url(#CLIPPATH_125)"  >
<linearGradient id="SVGID_45" gradientUnits="userSpaceOnUse" gradientTransform="matrix(3.08 55.39 -55.39 3.08 303.81 -418.58)"  x1="0" y1="0" x2="1" y2="0">
<stop offset="0%" style="stop-color:rgb(255,255,255);stop-opacity: 1"/>
<stop offset="23%" style="stop-color:rgb(228,113,78);stop-opacity: 1"/>
<stop offset="23%" style="stop-color:rgb(228,113,78);stop-opacity: 1"/>
<stop offset="56.00000000000001%" style="stop-color:rgb(190,26,13);stop-opacity: 1"/>
<stop offset="99.00099999999999%" style="stop-color:rgb(168,13,0);stop-opacity: 1"/>
<stop offset="100%" style="stop-color:rgb(168,13,0);stop-opacity: 1"/>
</linearGradient>
<clipPath id="CLIPPATH_125" >
	<path transform="matrix(1 0 0 1 0 0) translate(-306.94, 390.63)" id="path3157" d="M 266.00977 -375.27979 C 266.00977 -375.27979 347.87988 -349.10985999999997 347.87988 -349.10985999999997 C 347.87988 -349.10985999999997 326.68018 -432.1499 326.68018 -432.1499 C 326.68018 -432.1499 266.00977 -375.27979 266.00977 -375.27979 z" stroke-linecap="round" />
</clipPath>
<path style="stroke: none; stroke-width: 1; stroke-dasharray: none; stroke-linecap: butt; stroke-dashoffset: 0; stroke-linejoin: miter; stroke-miterlimit: 4; fill: url(#SVGID_45); fill-rule: evenodd; opacity: 1;" vector-effect="non-scaling-stroke"  transform=" translate(-306.94, 390.63)" d="M 266.00977 -375.27979 C 266.00977 -375.27979 347.87988 -349.10985999999997 347.87988 -349.10985999999997 C 347.87988 -349.10985999999997 326.68018 -432.1499 326.68018 -432.1499 C 326.68018 -432.1499 266.00977 -375.27979 266.00977 -375.27979 z" stroke-linecap="round" />
</g>
<g transform="matrix(2.05 0 0 2.05 370.05 134.36)" id="gp6lyt6YWly_gQi53uKyE" clip-path="url(#CLIPPATH_126)"  >
<linearGradient id="SVGID_46" gradientUnits="userSpaceOnUse" gradientTransform="matrix(9.21 39.7 -39.7 9.21 354.78 -469.77)"  x1="0" y1="0" x2="1" y2="0">
<stop offset="0%" style="stop-color:rgb(255,255,255);stop-opacity: 1"/>
<stop offset="17.999000000000002%" style="stop-color:rgb(228,99,66);stop-opacity: 1"/>
<stop offset="17.999000000000002%" style="stop-color:rgb(228,99,66);stop-opacity: 1"/>
<stop offset="39.999%" style="stop-color:rgb(200,36,16);stop-opacity: 1"/>
<stop offset="99.00099999999999%" style="stop-color:rgb(168,13,0);stop-opacity: 1"/>
<stop offset="100%" style="stop-color:rgb(168,13,0);stop-opacity: 1"/>
</linearGradient>
<clipPath id="CLIPPATH_126" >
	<path transform="matrix(1 0 0 1 0 0) translate(-364.34, 452)" id="path3185" d="M 327.68018 -426.18994 C 327.68018 -426.18994 401 -430.97997999999995 401 -430.97997999999995 C 401 -430.97997999999995 343.6499 -477.81981999999994 343.6499 -477.81981999999994 C 343.6499 -477.81981999999994 327.68018 -426.1899399999999 327.68018 -426.1899399999999 z" stroke-linecap="round" />
</clipPath>
<path style="stroke: none; stroke-width: 1; stroke-dasharray: none; stroke-linecap: butt; stroke-dashoffset: 0; stroke-linejoin: miter; stroke-miterlimit: 4; fill: url(#SVGID_46); fill-rule: evenodd; opacity: 1;" vector-effect="non-scaling-stroke"  transform=" translate(-364.34, 452)" d="M 327.68018 -426.18994 C 327.68018 -426.18994 401 -430.97997999999995 401 -430.97997999999995 C 401 -430.97997999999995 343.6499 -477.81981999999994 343.6499 -477.81981999999994 C 343.6499 -477.81981999999994 327.68018 -426.1899399999999 327.68018 -426.1899399999999 z" stroke-linecap="round" />
</g>
<g transform="matrix(2.05 0 0 2.05 333.34 65.17)" id="ZiA_HVfW0Cfv9UVmzkSUj" clip-path="url(#CLIPPATH_127)"  >
<linearGradient id="SVGID_47" gradientUnits="userSpaceOnUse" gradientTransform="matrix(39.69 -19.85 19.85 39.69 326.66 -483.75)"  x1="0" y1="0" x2="1" y2="0">
<stop offset="0%" style="stop-color:rgb(255,255,255);stop-opacity: 1"/>
<stop offset="53.998999999999995%" style="stop-color:rgb(200,31,17);stop-opacity: 1"/>
<stop offset="53.998999999999995%" style="stop-color:rgb(200,31,17);stop-opacity: 1"/>
<stop offset="99.00099999999999%" style="stop-color:rgb(191,9,5);stop-opacity: 1"/>
<stop offset="100%" style="stop-color:rgb(191,9,5);stop-opacity: 1"/>
</linearGradient>
<clipPath id="CLIPPATH_127" >
	<path transform="matrix(1 0 0 1 0 0) translate(-346.68, 485.32)" id="path3213" d="M 319.16992 -494.77002 C 319.16992 -494.77002 374.18018 -494.52002 374.18018 -494.52002 C 374.18018 -494.52002 340.4502 -475.87988 340.4502 -475.87988 C 340.4502 -475.87988 319.16992 -494.77002 319.16992 -494.77002 z" stroke-linecap="round" />
</clipPath>
<path style="stroke: none; stroke-width: 1; stroke-dasharray: none; stroke-linecap: butt; stroke-dashoffset: 0; stroke-linejoin: miter; stroke-miterlimit: 4; fill: url(#SVGID_47); fill-rule: evenodd; opacity: 1;" vector-effect="non-scaling-stroke"  transform=" translate(-346.68, 485.32)" d="M 319.16992 -494.77002 C 319.16992 -494.77002 374.18018 -494.52002 374.18018 -494.52002 C 374.18018 -494.52002 340.4502 -475.87988 340.4502 -475.87988 C 340.4502 -475.87988 319.16992 -494.77002 319.16992 -494.77002 z" stroke-linecap="round" />
</g>
<g transform="matrix(2.05 0 0 2.05 59.34 314.19)" id="qt0NS8cS56EdFGunZOWXu" clip-path="url(#CLIPPATH_128)"  >
<linearGradient id="SVGID_48" gradientUnits="userSpaceOnUse" gradientTransform="matrix(3.27 32.71 -32.71 3.27 211.58 -381.73)"  x1="0" y1="0" x2="1" y2="0">
<stop offset="0%" style="stop-color:rgb(255,255,255);stop-opacity: 1"/>
<stop offset="31%" style="stop-color:rgb(222,64,36);stop-opacity: 1"/>
<stop offset="31%" style="stop-color:rgb(222,64,36);stop-opacity: 1"/>
<stop offset="99.00099999999999%" style="stop-color:rgb(191,25,11);stop-opacity: 1"/>
<stop offset="100%" style="stop-color:rgb(191,25,11);stop-opacity: 1"/>
</linearGradient>
<clipPath id="CLIPPATH_128" >
	<path transform="matrix(1 0 0 1 0 0) translate(-214.75, 365.44)" id="path3239" d="M 210.37988 -393.66992 C 210.37988 -393.66992 207.68018 -337.2002 207.68018 -337.2002 C 207.68018 -337.2002 221.81006000000002 -362.97021 221.81006000000002 -362.97021 C 221.81006000000002 -362.97021 210.37988 -393.66992 210.37988 -393.66992 z" stroke-linecap="round" />
</clipPath>
<path style="stroke: none; stroke-width: 1; stroke-dasharray: none; stroke-linecap: butt; stroke-dashoffset: 0; stroke-linejoin: miter; stroke-miterlimit: 4; fill: url(#SVGID_48); fill-rule: evenodd; opacity: 1;" vector-effect="non-scaling-stroke"  transform=" translate(-214.75, 365.44)" d="M 210.37988 -393.66992 C 210.37988 -393.66992 207.68018 -337.2002 207.68018 -337.2002 C 207.68018 -337.2002 221.81006000000002 -362.97021 221.81006000000002 -362.97021 C 221.81006000000002 -362.97021 210.37988 -393.66992 210.37988 -393.66992 z" stroke-linecap="round" />
</g>
<g transform="matrix(2.05 0 0 2.05 188.49 182.85)" id="Aod4B_Sa5sfM5Q__cPixM"  >
<path style="stroke: none; stroke-width: 1; stroke-dasharray: none; stroke-linecap: butt; stroke-dashoffset: 0; stroke-linejoin: miter; stroke-miterlimit: 4; fill: rgb(255,255,255); fill-rule: evenodd; opacity: 1;" vector-effect="non-scaling-stroke"  transform=" translate(-276.93, 428.66)" d="M 209.62012 -394.64014 C 209.62012 -394.64014 221.12012 -362.02002 221.12012 -362.02002 C 221.12012 -362.02002 271.08984 -373.22998 271.08984 -373.22998 C 271.08984 -373.22998 328.14014 -426.25 328.14014 -426.25 C 328.14014 -426.25 344.24023 -477.39014 344.24023 -477.39014 C 344.24023 -477.39014 318.89014 -495.29004 318.89014 -495.29004 C 318.89014 -495.29004 275.79004 -479.16015999999996 275.79004 -479.16015999999996 C 262.20995999999997 -466.52978999999993 235.85985999999997 -441.54004 234.91015999999996 -441.06981999999994 C 233.97020999999995 -440.5898399999999 217.50976999999995 -409.47997999999995 209.62011999999996 -394.6401399999999 z" stroke-linecap="round" />
</g>
<g transform="matrix(2.05 0 0 2.05 186.57 182.34)" id="K36YJXynn9osnRpbTNAjt" clip-path="url(#CLIPPATH_129)"  >
<linearGradient id="SVGID_49" gradientUnits="userSpaceOnUse" gradientTransform="matrix(153.57 -157.92 157.92 153.57 189.12 -340.18)"  x1="0" y1="0" x2="1" y2="0">
<stop offset="0%" style="stop-color:rgb(189,0,18);stop-opacity: 1"/>
<stop offset="7.001%" style="stop-color:rgb(255,255,255);stop-opacity: 1"/>
<stop offset="7.001%" style="stop-color:rgb(255,255,255);stop-opacity: 1"/>
<stop offset="27%" style="stop-color:rgb(200,47,28);stop-opacity: 1"/>
<stop offset="27%" style="stop-color:rgb(200,47,28);stop-opacity: 1"/>
<stop offset="33%" style="stop-color:rgb(130,12,1);stop-opacity: 1"/>
<stop offset="46.001%" style="stop-color:rgb(163,22,1);stop-opacity: 1"/>
<stop offset="72%" style="stop-color:rgb(179,19,1);stop-opacity: 1"/>
<stop offset="99.00099999999999%" style="stop-color:rgb(232,38,9);stop-opacity: 1"/>
<stop offset="100%" style="stop-color:rgb(232,38,9);stop-opacity: 1"/>
</linearGradient>
<clipPath id="CLIPPATH_129" >
	<path transform="matrix(1 0 0 1 0 0) translate(-276.01, 428.93)" id="path3269" d="M 250 -453.24023 C 279.43018 -482.41992 317.37012 -499.66016 331.93018 -484.97021 C 346.47998 -470.27979 331.0498 -434.58008 301.62012 -405.41016 C 272.18994 -376.24023 234.72020999999998 -358.0498 220.16992 -372.74023 C 205.60986 -387.41992 220.56982 -424.06982 250 -453.24023 z" stroke-linecap="round" />
</clipPath>
<path style="stroke: none; stroke-width: 1; stroke-dasharray: none; stroke-linecap: butt; stroke-dashoffset: 0; stroke-linejoin: miter; stroke-miterlimit: 4; fill: url(#SVGID_49); fill-rule: evenodd; opacity: 1;" vector-effect="non-scaling-stroke"  transform=" translate(-276.01, 428.93)" d="M 250 -453.24023 C 279.43018 -482.41992 317.37012 -499.66016 331.93018 -484.97021 C 346.47998 -470.27979 331.0498 -434.58008 301.62012 -405.41016 C 272.18994 -376.24023 234.72020999999998 -358.0498 220.16992 -372.74023 C 205.60986 -387.41992 220.56982 -424.06982 250 -453.24023 z" stroke-linecap="round" />
</g>
<g transform="matrix(2.05 0 0 2.05 232.44 375.82)" id="p2BPGWFzq4Ql4Y79Xk7Kh" clip-path="url(#CLIPPATH_130)"  >
<linearGradient id="SVGID_50" gradientUnits="userSpaceOnUse" gradientTransform="matrix(-46.25 -11.42 11.42 -46.25 306.76 -324.26)"  x1="0" y1="0" x2="1" y2="0">
<stop offset="0%" style="stop-color:rgb(140,12,1);stop-opacity: 1"/>
<stop offset="53.998999999999995%" style="stop-color:rgb(153,12,0);stop-opacity: 1"/>
<stop offset="53.998999999999995%" style="stop-color:rgb(153,12,0);stop-opacity: 1"/>
<stop offset="99.00099999999999%" style="stop-color:rgb(168,13,14);stop-opacity: 1"/>
<stop offset="100%" style="stop-color:rgb(168,13,14);stop-opacity: 1"/>
</linearGradient>
<clipPath id="CLIPPATH_130" >
	<path transform="matrix(1 0 0 1 0 0) translate(-298.07, 335.77)" id="path3305" d="M 248.68018 -297.91016 C 248.68018 -297.91016 271.54004000000003 -373.62988 271.54004000000003 -373.62988 C 271.54004000000003 -373.62988 347.45996 -349.24023 347.45996 -349.24023 C 320.00977 -323.5 289.47998 -301.74023 248.68018 -297.91016 z" stroke-linecap="round" />
</clipPath>
<path style="stroke: none; stroke-width: 1; stroke-dasharray: none; stroke-linecap: butt; stroke-dashoffset: 0; stroke-linejoin: miter; stroke-miterlimit: 4; fill: url(#SVGID_50); fill-rule: evenodd; opacity: 1;" vector-effect="non-scaling-stroke"  transform=" translate(-298.07, 335.77)" d="M 248.68018 -297.91016 C 248.68018 -297.91016 271.54004000000003 -373.62988 271.54004000000003 -373.62988 C 271.54004000000003 -373.62988 347.45996 -349.24023 347.45996 -349.24023 C 320.00977 -323.5 289.47998 -301.74023 248.68018 -297.91016 z" stroke-linecap="round" />
</g>
<g transform="matrix(2.05 0 0 2.05 370.95 262.68)" id="dpBOOxX7ugEajSXlOgYf9" clip-path="url(#CLIPPATH_131)"  >
<linearGradient id="SVGID_51" gradientUnits="userSpaceOnUse" gradientTransform="matrix(-41.09 -36.83 36.83 -41.09 386.21 -379.78)"  x1="0" y1="0" x2="1" y2="0">
<stop offset="0%" style="stop-color:rgb(126,17,11);stop-opacity: 1"/>
<stop offset="99.00099999999999%" style="stop-color:rgb(158,12,0);stop-opacity: 1"/>
<stop offset="99.00099999999999%" style="stop-color:rgb(158,12,0);stop-opacity: 1"/>
<stop offset="100%" style="stop-color:rgb(158,12,0);stop-opacity: 1"/>
</linearGradient>
<clipPath id="CLIPPATH_131" >
	<path transform="matrix(1 0 0 1 0 0) translate(-364.78, 390.25)" id="path3331" d="M 328.24023 -426.3999 C 328.24023 -426.3999 347.72998 -349.2002 347.72998 -349.2002 C 370.66016 -373.31006 391.24023 -399.22998 401.31982 -431.29004 C 401.31982 -431.29004 328.24023 -426.3999 328.24023 -426.3999 z" stroke-linecap="round" />
</clipPath>
<path style="stroke: none; stroke-width: 1; stroke-dasharray: none; stroke-linecap: butt; stroke-dashoffset: 0; stroke-linejoin: miter; stroke-miterlimit: 4; fill: url(#SVGID_51); fill-rule: evenodd; opacity: 1;" vector-effect="non-scaling-stroke"  transform=" translate(-364.78, 390.25)" d="M 328.24023 -426.3999 C 328.24023 -426.3999 347.72998 -349.2002 347.72998 -349.2002 C 370.66016 -373.31006 391.24023 -399.22998 401.31982 -431.29004 C 401.31982 -431.29004 328.24023 -426.3999 328.24023 -426.3999 z" stroke-linecap="round" />
</g>
<g transform="matrix(2.05 0 0 2.05 391.64 112.19)" id="enKqPTzrTjDG37aeyJXR9" clip-path="url(#CLIPPATH_132)"  >
<linearGradient id="SVGID_52" gradientUnits="userSpaceOnUse" gradientTransform="matrix(-20.47 -21.88 21.88 -20.47 401.3 -447.35)"  x1="0" y1="0" x2="1" y2="0">
<stop offset="0%" style="stop-color:rgb(121,19,13);stop-opacity: 1"/>
<stop offset="99.00099999999999%" style="stop-color:rgb(158,18,11);stop-opacity: 1"/>
<stop offset="99.00099999999999%" style="stop-color:rgb(158,18,11);stop-opacity: 1"/>
<stop offset="100%" style="stop-color:rgb(158,18,11);stop-opacity: 1"/>
</linearGradient>
<clipPath id="CLIPPATH_132" >
	<path transform="matrix(1 0 0 1 0 0) translate(-374.74, 462.69)" id="path3355" d="M 401.12012 -430.8999 C 408.91992 -454.43994 410.71972999999997 -488.20996 373.93994 -494.47998 C 373.93994 -494.47998 343.75977 -477.81006 343.75977 -477.81006 C 343.75977 -477.81006 401.12012 -430.8999 401.12012 -430.8999 z" stroke-linecap="round" />
</clipPath>
<path style="stroke: none; stroke-width: 1; stroke-dasharray: none; stroke-linecap: butt; stroke-dashoffset: 0; stroke-linejoin: miter; stroke-miterlimit: 4; fill: url(#SVGID_52); fill-rule: evenodd; opacity: 1;" vector-effect="non-scaling-stroke"  transform=" translate(-374.74, 462.69)" d="M 401.12012 -430.8999 C 408.91992 -454.43994 410.71972999999997 -488.20996 373.93994 -494.47998 C 373.93994 -494.47998 343.75977 -477.81006 343.75977 -477.81006 C 343.75977 -477.81006 401.12012 -430.8999 401.12012 -430.8999 z" stroke-linecap="round" />
</g>
<g transform="matrix(2.05 0 0 2.05 87.33 387.86)" id="0qN8bI-2lmPe-jbhTdEyE"  >
<path style="stroke: none; stroke-width: 1; stroke-dasharray: none; stroke-linecap: butt; stroke-dashoffset: 0; stroke-linejoin: miter; stroke-miterlimit: 4; fill: rgb(158,18,9); fill-rule: evenodd; opacity: 1;" vector-effect="non-scaling-stroke"  transform=" translate(-228.21, 329.98)" d="M 207.68018 -337.54004 C 208.75977 -298.68994 236.79004 -298.10985999999997 248.72998 -297.77002 C 248.72998 -297.77002 221.1499 -362.18018 221.1499 -362.18018 C 221.1499 -362.18018 207.68018 -337.54004000000003 207.68018 -337.54004000000003 z" stroke-linecap="round" />
</g>
<g transform="matrix(2.05 0 0 2.05 370.5 217.06)" id="iYvh2QLSecqUU5BsmlfWO" clip-path="url(#CLIPPATH_133)"  >
<radialGradient id="SVGID_53" gradientUnits="userSpaceOnUse" gradientTransform="matrix(50.36 0 0 50.36 351.51 -415.9)"  cx="0" cy="0" r="1" fx="0" fy="0">
<stop offset="0%" style="stop-color:rgb(168,13,0);stop-opacity: 1"/>
<stop offset="99.00099999999999%" style="stop-color:rgb(126,14,8);stop-opacity: 1"/>
<stop offset="99.00099999999999%" style="stop-color:rgb(126,14,8);stop-opacity: 1"/>
<stop offset="100%" style="stop-color:rgb(126,14,8);stop-opacity: 1"/>
</radialGradient>
<clipPath id="CLIPPATH_133" >
	<path transform="matrix(1 0 0 1 0 0) translate(-364.54, 412.2)" id="path3381" d="M 328.3501 -426.27979 C 345.96973 -415.4502 381.47998 -393.7002 382.2002 -393.2998 C 383.31982 -392.66992 397.50977 -417.22998 400.72998 -431.10986 C 400.72998 -431.10986 328.3501 -426.27979000000005 328.3501 -426.27979000000005 z" stroke-linecap="round" />
</clipPath>
<path style="stroke: none; stroke-width: 1; stroke-dasharray: none; stroke-linecap: butt; stroke-dashoffset: 0; stroke-linejoin: miter; stroke-miterlimit: 4; fill: url(#SVGID_53); fill-rule: evenodd; opacity: 1;" vector-effect="non-scaling-stroke"  transform=" translate(-364.54, 412.2)" d="M 328.3501 -426.27979 C 345.96973 -415.4502 381.47998 -393.7002 382.2002 -393.2998 C 383.31982 -392.66992 397.50977 -417.22998 400.72998 -431.10986 C 400.72998 -431.10986 328.3501 -426.27979000000005 328.3501 -426.27979000000005 z" stroke-linecap="round" />
</g>
<g transform="matrix(2.05 0 0 2.05 255.89 358.39)" id="9s4-dyWMv2auht1TJdajT" clip-path="url(#CLIPPATH_134)"  >
<radialGradient id="SVGID_54" gradientUnits="userSpaceOnUse" gradientTransform="matrix(66.95 0 0 66.95 281.77 -349.54)"  cx="0" cy="0" r="1" fx="0" fy="0">
<stop offset="0%" style="stop-color:rgb(163,12,0);stop-opacity: 1"/>
<stop offset="99.00099999999999%" style="stop-color:rgb(128,14,8);stop-opacity: 1"/>
<stop offset="99.00099999999999%" style="stop-color:rgb(128,14,8);stop-opacity: 1"/>
<stop offset="100%" style="stop-color:rgb(128,14,8);stop-opacity: 1"/>
</radialGradient>
<clipPath id="CLIPPATH_134" >
	<path transform="matrix(1 0 0 1 0 0) translate(-309.38, 344.15)" id="path3405" d="M 271.50977 -373.62988 C 271.50977 -373.62988 302.06982 -314.66992 302.06982 -314.66992 C 320.14014 -324.47021 334.29004 -336.41016 347.25 -349.2002 C 347.25 -349.2002 271.50977 -373.62988 271.50977 -373.62988 z" stroke-linecap="round" />
</clipPath>
<path style="stroke: none; stroke-width: 1; stroke-dasharray: none; stroke-linecap: butt; stroke-dashoffset: 0; stroke-linejoin: miter; stroke-miterlimit: 4; fill: url(#SVGID_54); fill-rule: evenodd; opacity: 1;" vector-effect="non-scaling-stroke"  transform=" translate(-309.38, 344.15)" d="M 271.50977 -373.62988 C 271.50977 -373.62988 302.06982 -314.66992 302.06982 -314.66992 C 320.14014 -324.47021 334.29004 -336.41016 347.25 -349.2002 C 347.25 -349.2002 271.50977 -373.62988 271.50977 -373.62988 z" stroke-linecap="round" />
</g>
<g transform="matrix(2.05 0 0 2.05 95.79 386.58)" id="66JCeHzpHSWGJySYY5Ygs" clip-path="url(#CLIPPATH_135)"  >
<linearGradient id="SVGID_55" gradientUnits="userSpaceOnUse" gradientTransform="matrix(-16.68 -56.6 56.6 -16.68 234.35 -297.95)"  x1="0" y1="0" x2="1" y2="0">
<stop offset="0%" style="stop-color:rgb(139,33,20);stop-opacity: 1"/>
<stop offset="42.998999999999995%" style="stop-color:rgb(158,16,10);stop-opacity: 1"/>
<stop offset="42.998999999999995%" style="stop-color:rgb(158,16,10);stop-opacity: 1"/>
<stop offset="99.00099999999999%" style="stop-color:rgb(179,16,12);stop-opacity: 1"/>
<stop offset="100%" style="stop-color:rgb(179,16,12);stop-opacity: 1"/>
</linearGradient>
<clipPath id="CLIPPATH_135" >
	<path transform="matrix(1 0 0 1 0 0) translate(-232.3, 330.57)" id="path3429" d="M 221.02979 -362.1001 C 221.02979 -362.1001 216.7002 -310.54004 216.7002 -310.54004 C 224.87012 -299.37987999999996 236.10986 -298.41015999999996 247.8999 -299.27979 C 239.37012000000001 -320.50977 222.33008 -362.95995999999997 221.02979 -362.1001 z" stroke-linecap="round" />
</clipPath>
<path style="stroke: none; stroke-width: 1; stroke-dasharray: none; stroke-linecap: butt; stroke-dashoffset: 0; stroke-linejoin: miter; stroke-miterlimit: 4; fill: url(#SVGID_55); fill-rule: evenodd; opacity: 1;" vector-effect="non-scaling-stroke"  transform=" translate(-232.3, 330.57)" d="M 221.02979 -362.1001 C 221.02979 -362.1001 216.7002 -310.54004 216.7002 -310.54004 C 224.87012 -299.37987999999996 236.10986 -298.41015999999996 247.8999 -299.27979 C 239.37012000000001 -320.50977 222.33008 -362.95995999999997 221.02979 -362.1001 z" stroke-linecap="round" />
</g>
<g transform="matrix(2.05 0 0 2.05 389.97 72.41)" id="d_e3LB7N8vPzZxPsnkGWL" clip-path="url(#CLIPPATH_136)"  >
<linearGradient id="SVGID_56" gradientUnits="userSpaceOnUse" gradientTransform="matrix(37.4 16.51 -16.51 37.4 362.32 -485.49)"  x1="0" y1="0" x2="1" y2="0">
<stop offset="0%" style="stop-color:rgb(179,16,0);stop-opacity: 1"/>
<stop offset="44%" style="stop-color:rgb(145,15,8);stop-opacity: 1"/>
<stop offset="44%" style="stop-color:rgb(145,15,8);stop-opacity: 1"/>
<stop offset="99.00099999999999%" style="stop-color:rgb(121,28,18);stop-opacity: 1"/>
<stop offset="100%" style="stop-color:rgb(121,28,18);stop-opacity: 1"/>
</linearGradient>
<clipPath id="CLIPPATH_136" >
	<path transform="matrix(1 0 0 1 0 0) translate(-373.94, 481.84)" id="path3455" d="M 343.58008 -477.68018 C 343.58008 -477.68018 404.29004000000003 -469.16016 404.29004000000003 -469.16016 C 401.0498 -482.89014000000003 391.10010000000005 -491.75 374.14014000000003 -494.52002000000005 C 374.14014000000003 -494.52002000000005 343.58008 -477.68018000000006 343.58008 -477.68018000000006 z" stroke-linecap="round" />
</clipPath>
<path style="stroke: none; stroke-width: 1; stroke-dasharray: none; stroke-linecap: butt; stroke-dashoffset: 0; stroke-linejoin: miter; stroke-miterlimit: 4; fill: url(#SVGID_56); fill-rule: evenodd; opacity: 1;" vector-effect="non-scaling-stroke"  transform=" translate(-373.94, 481.84)" d="M 343.58008 -477.68018 C 343.58008 -477.68018 404.29004000000003 -469.16016 404.29004000000003 -469.16016 C 401.0498 -482.89014000000003 391.10010000000005 -491.75 374.14014000000003 -494.52002000000005 C 374.14014000000003 -494.52002000000005 343.58008 -477.68018000000006 343.58008 -477.68018000000006 z" stroke-linecap="round" />
</g>
</svg>