<?xml version="1.0" encoding="UTF-8" standalone="no" ?>
<!DOCTYPE svg PUBLIC "-//W3C//DTD SVG 1.1//EN" "http://www.w3.org/Graphics/SVG/1.1/DTD/svg11.dtd">
<svg xmlns="http://www.w3.org/2000/svg" xmlns:xlink="http://www.w3.org/1999/xlink" version="1.1" width="500" height="500" viewBox="0 0 500 500" xml:space="preserve">
<desc>Created with Fabric.js 4.6.0</desc>
<defs>
</defs>
<g transform="matrix(3.65 0 0 3.65 112.08 297.32)" id="NdvVRpwAOMqJGLvK9aaNt"  >
<path style="stroke: none; stroke-width: 1; stroke-dasharray: none; stroke-linecap: butt; stroke-dashoffset: 0; stroke-linejoin: miter; stroke-miterlimit: 4; fill: rgb(70,67,66); fill-rule: nonzero; opacity: 1;" vector-effect="non-scaling-stroke"  transform=" translate(-23.52, -74.21)" d="M 8.708 61.26 C 8.708 82.062 20.797 100.039 38.327 108.55799999999999 L 13.258 39.871999999999986 C 10.341999999999999 46.40799999999999 8.707999999999998 53.640999999999984 8.707999999999998 61.25999999999999 z" stroke-linecap="round" />
</g>
<g transform="matrix(3.65 0 0 3.65 234.62 212.98)" id="gNcclobvmrO1zCkTIGtJR"  >
<path style="stroke: none; stroke-width: 1; stroke-dasharray: none; stroke-linecap: butt; stroke-dashoffset: 0; stroke-linejoin: miter; stroke-miterlimit: 4; fill: rgb(70,67,66); fill-rule: nonzero; opacity: 1;" vector-effect="non-scaling-stroke"  transform=" translate(-57.05, -51.13)" d="M 96.74 58.608 C 96.74 52.113 94.407 47.614999999999995 92.40599999999999 44.114 C 89.74199999999999 39.785 87.24499999999999 36.119 87.24499999999999 31.79 C 87.24499999999999 26.959 90.90899999999999 22.462 96.07 22.462 C 96.303 22.462 96.52399999999999 22.491 96.75099999999999 22.504 C 87.401 13.938 74.94399999999999 8.708000000000002 61.26199999999999 8.708000000000002 C 42.901999999999994 8.708000000000002 26.748999999999995 18.128 17.351999999999997 32.396 C 18.584999999999997 32.433 19.746999999999996 32.459 20.733999999999998 32.459 C 26.230999999999998 32.459 34.739999999999995 31.792 34.739999999999995 31.792 C 37.57299999999999 31.625 37.907 35.786 35.077 36.121 C 35.077 36.121 32.23 36.456 29.061999999999998 36.622 L 48.2 93.547 L 59.701 59.053999999999995 L 51.513 36.61999999999999 C 48.683 36.45399999999999 46.001999999999995 36.11899999999999 46.001999999999995 36.11899999999999 C 43.169999999999995 35.952999999999996 43.501999999999995 31.62299999999999 46.333999999999996 31.789999999999992 C 46.333999999999996 31.789999999999992 55.013 32.456999999999994 60.17699999999999 32.456999999999994 C 65.67299999999999 32.456999999999994 74.18299999999999 31.789999999999992 74.18299999999999 31.789999999999992 C 77.01799999999999 31.62299999999999 77.351 35.78399999999999 74.52 36.11899999999999 C 74.52 36.11899999999999 71.667 36.45399999999999 68.505 36.61999999999999 L 87.497 93.11399999999999 L 92.739 75.597 C 95.01100000000001 68.32799999999999 96.74000000000001 63.10699999999999 96.74000000000001 58.60799999999999 z" stroke-linecap="round" />
</g>
<g transform="matrix(3.65 0 0 3.65 254.79 354.44)" id="eOMkt0E49xveEBuUvPzYj"  >
<path style="stroke: none; stroke-width: 1; stroke-dasharray: none; stroke-linecap: butt; stroke-dashoffset: 0; stroke-linejoin: miter; stroke-miterlimit: 4; fill: rgb(70,67,66); fill-rule: nonzero; opacity: 1;" vector-effect="non-scaling-stroke"  transform=" translate(-62.56, -89.84)" d="M 62.184 65.857 L 46.416 111.676 C 51.123999999999995 113.06 56.102999999999994 113.81700000000001 61.262 113.81700000000001 C 67.382 113.81700000000001 73.251 112.759 78.714 110.83800000000001 C 78.573 110.61300000000001 78.445 110.37400000000001 78.34 110.114 z" stroke-linecap="round" />
</g>
<g transform="matrix(3.65 0 0 3.65 394.31 286.95)" id="ZnuLFrn2Sokog9AcLm5WM"  >
<path style="stroke: none; stroke-width: 1; stroke-dasharray: none; stroke-linecap: butt; stroke-dashoffset: 0; stroke-linejoin: miter; stroke-miterlimit: 4; fill: rgb(70,67,66); fill-rule: nonzero; opacity: 1;" vector-effect="non-scaling-stroke"  transform=" translate(-100.75, -71.37)" d="M 107.376 36.046 C 107.602 37.72 107.73 39.516999999999996 107.73 41.45 C 107.73 46.783 106.73400000000001 52.778000000000006 103.73400000000001 60.274 L 87.68100000000001 106.687 C 103.305 97.576 113.81400000000001 80.649 113.81400000000001 61.260999999999996 C 113.81500000000001 52.123999999999995 111.48100000000001 43.532 107.376 36.04599999999999 z" stroke-linecap="round" />
</g>
<g transform="matrix(3.65 0 0 3.65 250 250)" id="dpoDSZtNEGW1ovL0xspi_"  >
<path style="stroke: none; stroke-width: 1; stroke-dasharray: none; stroke-linecap: butt; stroke-dashoffset: 0; stroke-linejoin: miter; stroke-miterlimit: 4; fill: rgb(70,67,66); fill-rule: nonzero; opacity: 1;" vector-effect="non-scaling-stroke"  transform=" translate(-61.26, -61.26)" d="M 61.262 0 C 27.482999999999997 0 0 27.481 0 61.26 C 0 95.043 27.483 122.523 61.262 122.523 C 95.03999999999999 122.523 122.527 95.04299999999999 122.527 61.26 C 122.526 27.480999999999995 95.04 0 61.262 0 z M 61.262 119.715 C 29.032000000000004 119.715 2.8089999999999975 93.492 2.8089999999999975 61.260000000000005 C 2.8089999999999975 29.03000000000001 29.031 2.8090000000000046 61.262 2.8090000000000046 C 93.491 2.8090000000000046 119.712 29.030000000000005 119.712 61.260000000000005 C 119.712 93.492 93.491 119.715 61.262 119.715 z" stroke-linecap="round" />
</g>
</svg>